<svg width="262" height="28" viewBox="0 0 262 28" fill="none" xmlns="http://www.w3.org/2000/svg">
<path d="M1.04134 25.056C0.897344 25.56 0.969344 26.028 1.22134 26.424C1.47334 26.82 1.86934 27 2.40934 27H4.24534C5.25334 27 5.90134 26.424 6.18934 25.236L7.34134 20.556H15.5493L16.7373 25.272C17.0253 26.424 17.6733 27 18.7533 27H20.4813C21.0213 27 21.4173 26.82 21.6693 26.424C21.9213 26.064 21.9933 25.596 21.8853 25.092L16.8093 5.832C16.4493 4.608 15.8373 3.564 14.9013 2.7C13.9653 1.836 12.8133 1.404 11.4453 1.404C10.0053 1.404 8.85334 1.836 7.91734 2.664C6.98134 3.492 6.36934 4.536 6.04534 5.832L1.04134 25.056ZM8.38534 16.308L10.8333 6.444C10.9053 6.048 11.0853 5.832 11.4453 5.832C11.7693 5.832 11.9853 6.048 12.0573 6.444L14.5053 16.308H8.38534ZM24.9451 18.792C24.9451 21.384 25.6291 23.472 27.0691 25.056C28.4731 26.676 30.5611 27.468 33.2971 27.468C34.7011 27.468 36.1771 27.288 37.7251 26.856C38.8771 26.568 39.2731 25.848 38.9851 24.66L38.7691 23.868C38.4811 22.86 37.7971 22.536 36.7171 22.824C35.7451 23.112 34.7011 23.22 33.6211 23.22C31.2451 23.22 30.0571 21.636 30.0571 18.432V16.776C30.0571 13.608 31.2451 12.024 33.6211 12.024C34.7011 12.024 35.6731 12.132 36.5371 12.348C37.0411 12.492 37.5091 12.492 37.9411 12.312C38.3731 12.132 38.6251 11.808 38.7691 11.34L39.0211 10.404C39.3091 9.36 38.8771 8.676 37.7251 8.352C36.2131 7.992 34.7371 7.776 33.2971 7.776C30.5611 7.776 28.4731 8.604 27.0691 10.188C25.6291 11.772 24.9451 13.86 24.9451 16.416V18.792ZM42.4177 18.792C42.4177 21.384 43.1017 23.472 44.5417 25.056C45.9457 26.676 48.0337 27.468 50.7697 27.468C52.1737 27.468 53.6497 27.288 55.1977 26.856C56.3497 26.568 56.7457 25.848 56.4577 24.66L56.2417 23.868C55.9537 22.86 55.2697 22.536 54.1897 22.824C53.2177 23.112 52.1737 23.22 51.0937 23.22C48.7177 23.22 47.5297 21.636 47.5297 18.432V16.776C47.5297 13.608 48.7177 12.024 51.0937 12.024C52.1737 12.024 53.1457 12.132 54.0097 12.348C54.5137 12.492 54.9817 12.492 55.4137 12.312C55.8457 12.132 56.0977 11.808 56.2417 11.34L56.4937 10.404C56.7817 9.36 56.3497 8.676 55.1977 8.352C53.6857 7.992 52.2097 7.776 50.7697 7.776C48.0337 7.776 45.9457 8.604 44.5417 10.188C43.1017 11.772 42.4177 13.86 42.4177 16.416V18.792ZM59.8904 18.9C59.8904 21.564 60.6104 23.652 62.0864 25.164C63.5264 26.712 65.5424 27.468 68.1344 27.468C70.6904 27.468 72.7064 26.712 74.1824 25.164C75.6224 23.652 76.3784 21.564 76.3784 18.9V16.308C76.3784 13.752 75.6224 11.7 74.1824 10.116C72.7424 8.568 70.7264 7.776 68.1344 7.776C65.5424 7.776 63.4904 8.568 62.0504 10.116C60.6104 11.7 59.8904 13.752 59.8904 16.308V18.9ZM68.1344 23.22C66.9104 23.22 66.0824 22.86 65.6504 22.14C65.2184 21.42 65.0024 20.232 65.0024 18.612V16.632C65.0024 15.084 65.2184 13.932 65.6504 13.176C66.0824 12.42 66.9104 12.024 68.1344 12.024C69.3224 12.024 70.1504 12.42 70.5824 13.176C71.0144 13.932 71.2664 15.084 71.2664 16.632V18.612C71.2664 20.232 71.0144 21.42 70.5824 22.14C70.1504 22.86 69.3224 23.22 68.1344 23.22ZM80.0433 21.06C80.0433 23.112 80.5473 24.696 81.5913 25.812C82.6353 26.928 84.1113 27.468 86.0553 27.468C87.8553 27.468 89.4753 26.784 90.9873 25.38L91.0233 25.704C91.0593 26.208 91.2393 26.568 91.5633 26.748C91.8513 26.928 92.3193 27 92.9673 27H93.7593C94.2633 27 94.6953 26.856 95.0193 26.532C95.3073 26.244 95.4873 25.812 95.4873 25.272V9.972C95.4873 9.468 95.3073 9.036 95.0193 8.712C94.6953 8.424 94.2633 8.244 93.7593 8.244H92.1753C91.6353 8.244 91.2033 8.424 90.9153 8.712C90.5913 9.036 90.4473 9.468 90.4473 9.972V21.6C89.3673 22.68 88.2513 23.22 87.1353 23.22C86.4153 23.22 85.8753 23.04 85.5513 22.608C85.2273 22.176 85.0833 21.492 85.0833 20.484V9.972C85.0833 9.468 84.9033 9.036 84.6153 8.712C84.2913 8.424 83.8593 8.244 83.3553 8.244H81.7713C81.2313 8.244 80.7993 8.424 80.5113 8.712C80.1873 9.036 80.0433 9.468 80.0433 9.972V21.06ZM99.8757 25.272C99.8757 25.812 100.02 26.244 100.344 26.532C100.632 26.856 101.064 27 101.604 27H103.188C103.692 27 104.124 26.856 104.448 26.532C104.736 26.244 104.916 25.812 104.916 25.272V13.644C105.996 12.564 107.076 12.024 108.228 12.024C108.948 12.024 109.452 12.24 109.776 12.672C110.1 13.104 110.28 13.788 110.28 14.76V25.272C110.28 25.812 110.424 26.244 110.748 26.532C111.036 26.856 111.468 27 112.008 27H113.592C114.096 27 114.528 26.856 114.852 26.532C115.14 26.244 115.32 25.812 115.32 25.272V14.184C115.32 12.168 114.78 10.584 113.736 9.468C112.692 8.352 111.216 7.776 109.308 7.776C107.508 7.776 105.852 8.496 104.376 9.864L104.34 9.612C104.232 8.712 103.62 8.244 102.468 8.244H101.604C101.064 8.244 100.632 8.424 100.344 8.712C100.02 9.036 99.8757 9.468 99.8757 9.972V25.272ZM120.716 21.636C120.716 23.472 121.256 24.912 122.408 25.92C123.56 26.964 125.216 27.468 127.412 27.468C128.168 27.468 128.924 27.396 129.644 27.252C130.148 27.144 130.544 26.928 130.796 26.568C131.012 26.208 131.084 25.776 131.012 25.272L130.796 24.192C130.58 23.292 130.004 22.932 128.996 23.112C128.564 23.184 128.132 23.22 127.7 23.22C126.404 23.22 125.756 22.536 125.756 21.096V11.844H128.24C129.392 11.844 129.968 11.34 129.968 10.332V9.756C129.968 8.748 129.392 8.244 128.24 8.244H125.756V4.248C125.756 3.744 125.576 3.312 125.288 2.988C124.964 2.7 124.532 2.52 124.028 2.52H122.444C121.904 2.52 121.472 2.7 121.184 2.988C120.86 3.312 120.716 3.744 120.716 4.248V8.244H119.456C118.304 8.244 117.728 8.712 117.728 9.648V10.152C117.728 10.656 117.836 11.016 118.088 11.232C118.34 11.448 118.808 11.592 119.456 11.664L120.716 11.844V21.636ZM148.011 25.128C148.155 25.704 148.443 26.172 148.875 26.496C149.307 26.856 149.775 27 150.315 27H152.655C153.159 27 153.627 26.856 154.059 26.496C154.491 26.172 154.779 25.704 154.959 25.128L161.583 3.924C161.763 3.348 161.727 2.844 161.511 2.448C161.259 2.088 160.863 1.872 160.287 1.872H158.523C157.443 1.872 156.723 2.412 156.435 3.456L152.799 15.84C152.511 16.848 152.043 18.648 151.467 21.312C150.963 18.936 150.531 17.1 150.171 15.84L146.499 3.348C146.211 2.376 145.527 1.872 144.447 1.872H142.683C142.107 1.872 141.675 2.088 141.423 2.448C141.171 2.808 141.135 3.276 141.351 3.852L148.011 25.128ZM162.722 19.512C162.722 21.744 163.406 23.616 164.846 25.164C166.286 26.712 168.41 27.468 171.29 27.468C172.766 27.468 174.35 27.216 176.042 26.712C177.122 26.388 177.518 25.668 177.23 24.588L177.05 23.904C176.762 22.896 176.042 22.5 174.89 22.752C173.486 23.076 172.262 23.22 171.254 23.22C168.914 23.22 167.762 21.996 167.762 19.512V19.224H177.662C177.914 19.224 178.13 19.152 178.31 18.972C178.49 18.792 178.598 18.576 178.598 18.288V15.696C178.598 13.608 177.878 11.736 176.438 10.152C174.998 8.568 173.054 7.776 170.642 7.776C168.194 7.776 166.286 8.568 164.846 10.116C163.406 11.7 162.722 13.536 162.722 15.696V19.512ZM167.762 15.768V15.3C167.762 14.364 167.978 13.608 168.446 12.96C168.878 12.348 169.634 12.024 170.678 12.024C172.586 12.024 173.558 13.14 173.558 15.3V15.768H167.762ZM182.282 25.272C182.282 25.812 182.426 26.244 182.75 26.532C183.038 26.856 183.47 27 184.01 27H185.594C186.098 27 186.53 26.856 186.854 26.532C187.142 26.244 187.322 25.812 187.322 25.272V14.4C188.69 12.852 189.95 12.06 191.138 12.06C191.426 12.06 191.642 12.06 191.75 12.06C191.822 12.06 191.966 11.988 192.182 11.88C192.362 11.772 192.506 11.592 192.614 11.304C192.722 11.016 192.83 10.656 192.902 10.152C193.19 8.568 192.686 7.776 191.39 7.776C190.526 7.776 189.662 8.064 188.834 8.568C188.006 9.072 187.322 9.72 186.818 10.512L186.71 9.936C186.494 8.82 185.918 8.244 184.946 8.244H184.01C183.47 8.244 183.038 8.424 182.75 8.712C182.426 9.036 182.282 9.468 182.282 9.972V25.272ZM198.372 5.724C199.164 5.724 199.848 5.472 200.388 4.932C200.928 4.428 201.216 3.78 201.216 2.988C201.216 2.232 200.928 1.584 200.388 1.044C199.848 0.539999 199.164 0.251999 198.372 0.251999C197.544 0.251999 196.86 0.539999 196.32 1.044C195.78 1.584 195.528 2.232 195.528 2.988C195.528 3.78 195.78 4.428 196.32 4.932C196.86 5.472 197.544 5.724 198.372 5.724ZM195.852 25.272C195.852 25.812 195.996 26.244 196.32 26.532C196.608 26.856 197.04 27 197.58 27H199.164C199.668 27 200.1 26.856 200.424 26.532C200.712 26.244 200.892 25.812 200.892 25.272V9.972C200.892 9.468 200.712 9.036 200.424 8.712C200.1 8.424 199.668 8.244 199.164 8.244H197.58C197.04 8.244 196.608 8.424 196.32 8.712C195.996 9.036 195.852 9.468 195.852 9.972V25.272ZM206.462 25.272C206.462 25.812 206.606 26.244 206.93 26.532C207.218 26.856 207.65 27 208.19 27H209.774C210.278 27 210.71 26.856 211.034 26.532C211.322 26.244 211.502 25.812 211.502 25.272V11.844H213.302C214.454 11.844 215.03 11.376 215.03 10.368V9.756C215.03 8.748 214.454 8.244 213.302 8.244H211.502V7.02C211.502 6.192 211.718 5.58 212.186 5.22C212.654 4.86 213.41 4.644 214.454 4.644C215.318 4.644 216.182 4.716 217.01 4.86C218.126 5.076 218.81 4.68 219.026 3.636L219.206 2.736C219.422 1.656 218.954 1.008 217.802 0.755999C216.578 0.539999 215.426 0.395999 214.274 0.395999C211.718 0.395999 209.774 0.971998 208.442 2.124C207.11 3.276 206.462 4.86 206.462 6.84V8.244H205.202C204.05 8.244 203.474 8.712 203.474 9.612V10.08C203.474 10.98 204.05 11.52 205.202 11.664L206.462 11.844V25.272ZM217.658 25.272C217.658 25.812 217.802 26.244 218.126 26.532C218.414 26.856 218.846 27 219.386 27H220.97C221.474 27 221.906 26.856 222.23 26.532C222.518 26.244 222.698 25.812 222.698 25.272V9.972C222.698 9.468 222.518 9.036 222.23 8.712C221.906 8.424 221.474 8.244 220.97 8.244H219.386C218.846 8.244 218.414 8.424 218.126 8.712C217.802 9.036 217.658 9.468 217.658 9.972V25.272ZM226.566 19.512C226.566 21.744 227.25 23.616 228.69 25.164C230.13 26.712 232.254 27.468 235.134 27.468C236.61 27.468 238.194 27.216 239.886 26.712C240.966 26.388 241.362 25.668 241.074 24.588L240.894 23.904C240.606 22.896 239.886 22.5 238.734 22.752C237.33 23.076 236.106 23.22 235.098 23.22C232.758 23.22 231.606 21.996 231.606 19.512V19.224H241.506C241.758 19.224 241.974 19.152 242.154 18.972C242.334 18.792 242.442 18.576 242.442 18.288V15.696C242.442 13.608 241.722 11.736 240.282 10.152C238.842 8.568 236.898 7.776 234.486 7.776C232.038 7.776 230.13 8.568 228.69 10.116C227.25 11.7 226.566 13.536 226.566 15.696V19.512ZM231.606 15.768V15.3C231.606 14.364 231.822 13.608 232.29 12.96C232.722 12.348 233.478 12.024 234.522 12.024C236.43 12.024 237.402 13.14 237.402 15.3V15.768H231.606ZM245.586 19.656C245.586 22.104 246.198 24.048 247.422 25.416C248.646 26.784 250.302 27.468 252.462 27.468C254.046 27.468 255.558 26.82 256.998 25.452L257.034 25.74C257.07 26.244 257.214 26.604 257.502 26.748C257.79 26.928 258.222 27 258.798 27H259.914C260.418 27 260.814 26.856 261.102 26.532C261.39 26.244 261.534 25.812 261.534 25.272V2.592C261.534 2.088 261.354 1.656 261.066 1.332C260.742 1.044 260.31 0.864 259.806 0.864H258.222C257.682 0.864 257.25 1.044 256.962 1.332C256.638 1.656 256.494 2.088 256.494 2.592V9.36C255.27 8.316 253.902 7.776 252.462 7.776C250.302 7.776 248.646 8.46 247.422 9.828C246.198 11.196 245.586 13.14 245.586 15.588V19.656ZM253.29 23.22C252.354 23.22 251.67 22.896 251.274 22.248C250.878 21.6 250.698 20.556 250.698 19.08V16.164C250.698 14.724 250.878 13.644 251.274 12.996C251.67 12.348 252.354 12.024 253.29 12.024C254.334 12.024 255.414 12.564 256.494 13.644V21.636C255.306 22.716 254.226 23.22 253.29 23.22Z" fill="url(#paint0_linear_46_1744)"/>
<defs>
<linearGradient id="paint0_linear_46_1744" x1="-59.5209" y1="-36.6923" x2="345.519" y2="152.032" gradientUnits="userSpaceOnUse">
<stop stop-color="#0091B6"/>
<stop offset="1" stop-color="#19AF79"/>
</linearGradient>
</defs>
</svg>
