<svg width="332" height="28" viewBox="0 0 332 28" fill="none" xmlns="http://www.w3.org/2000/svg">
<path d="M0.247844 18.18C0.247844 21.168 1.07584 23.472 2.73184 25.056C4.38784 26.676 6.69184 27.468 9.60784 27.468C11.7318 27.468 13.7118 27.252 15.5838 26.748C15.9438 26.676 16.2318 26.46 16.4118 26.136C16.5558 25.812 16.6278 25.452 16.5558 25.056L16.2318 23.58C16.0158 22.716 15.5118 22.392 14.6838 22.608C13.0278 22.968 11.5878 23.148 10.3278 23.148C8.74384 23.148 7.55584 22.752 6.76384 21.96C5.97184 21.168 5.57584 19.764 5.57584 17.784V11.088C5.57584 9.144 5.97184 7.74 6.76384 6.948C7.55584 6.156 8.74384 5.724 10.3278 5.724C11.5878 5.724 12.9918 5.904 14.5038 6.228C14.8998 6.372 15.2598 6.336 15.5838 6.156C15.9078 5.976 16.1238 5.688 16.2318 5.292L16.5558 3.816C16.7358 2.952 16.4118 2.376 15.5838 2.124C13.6038 1.656 11.6238 1.404 9.60784 1.404C6.69184 1.404 4.38784 2.232 2.73184 3.852C1.07584 5.472 0.247844 7.74 0.247844 10.692V18.18ZM20.7155 25.272C20.7155 25.812 20.8595 26.244 21.1835 26.532C21.4715 26.856 21.9035 27 22.4435 27H24.0275C24.5315 27 24.9635 26.856 25.2875 26.532C25.5755 26.244 25.7555 25.812 25.7555 25.272V13.644C26.8355 12.564 27.9155 12.024 29.0675 12.024C29.7875 12.024 30.2915 12.24 30.6155 12.672C30.9395 13.104 31.1195 13.788 31.1195 14.76V25.272C31.1195 25.812 31.2635 26.244 31.5875 26.532C31.8755 26.856 32.3075 27 32.8475 27H34.4315C34.9355 27 35.3675 26.856 35.6915 26.532C35.9795 26.244 36.1595 25.812 36.1595 25.272V14.184C36.1595 12.168 35.6195 10.584 34.5755 9.468C33.5315 8.352 32.0555 7.776 30.1475 7.776C28.5635 7.776 27.0875 8.352 25.7555 9.432V2.592C25.7555 2.088 25.5755 1.656 25.2875 1.332C24.9635 1.044 24.5315 0.864 24.0275 0.864H22.4435C21.9035 0.864 21.4715 1.044 21.1835 1.332C20.8595 1.656 20.7155 2.088 20.7155 2.592V25.272ZM39.8279 19.512C39.8279 21.744 40.5119 23.616 41.9519 25.164C43.3919 26.712 45.5159 27.468 48.3959 27.468C49.8719 27.468 51.4559 27.216 53.1479 26.712C54.2279 26.388 54.6239 25.668 54.3359 24.588L54.1559 23.904C53.8679 22.896 53.1479 22.5 51.9959 22.752C50.5919 23.076 49.3679 23.22 48.3599 23.22C46.0199 23.22 44.8679 21.996 44.8679 19.512V19.224H54.7679C55.0199 19.224 55.2359 19.152 55.4159 18.972C55.5959 18.792 55.7039 18.576 55.7039 18.288V15.696C55.7039 13.608 54.9839 11.736 53.5439 10.152C52.1039 8.568 50.1599 7.776 47.7479 7.776C45.2999 7.776 43.3919 8.568 41.9519 10.116C40.5119 11.7 39.8279 13.536 39.8279 15.696V19.512ZM44.8679 15.768V15.3C44.8679 14.364 45.0839 13.608 45.5519 12.96C45.9839 12.348 46.7399 12.024 47.7839 12.024C49.6919 12.024 50.6639 13.14 50.6639 15.3V15.768H44.8679ZM58.8474 18.792C58.8474 21.384 59.5314 23.472 60.9714 25.056C62.3754 26.676 64.4634 27.468 67.1994 27.468C68.6034 27.468 70.0794 27.288 71.6274 26.856C72.7794 26.568 73.1754 25.848 72.8874 24.66L72.6714 23.868C72.3834 22.86 71.6994 22.536 70.6194 22.824C69.6474 23.112 68.6034 23.22 67.5234 23.22C65.1474 23.22 63.9594 21.636 63.9594 18.432V16.776C63.9594 13.608 65.1474 12.024 67.5234 12.024C68.6034 12.024 69.5754 12.132 70.4394 12.348C70.9434 12.492 71.4114 12.492 71.8434 12.312C72.2754 12.132 72.5274 11.808 72.6714 11.34L72.9234 10.404C73.2114 9.36 72.7794 8.676 71.6274 8.352C70.1154 7.992 68.6394 7.776 67.1994 7.776C64.4634 7.776 62.3754 8.604 60.9714 10.188C59.5314 11.772 58.8474 13.86 58.8474 16.416V18.792ZM76.8601 25.272C76.8601 25.812 77.0041 26.244 77.3281 26.532C77.6161 26.856 78.0481 27 78.5881 27H80.1721C80.6761 27 81.1081 26.856 81.4321 26.532C81.7201 26.244 81.9001 25.812 81.9001 25.272V19.224L82.7641 19.008L86.3641 25.74C86.8321 26.604 87.5881 27 88.5961 27H90.4681C91.0081 27 91.3681 26.82 91.5841 26.388C91.7641 25.992 91.7281 25.56 91.4401 25.056L87.0841 17.46C87.7681 16.992 88.3081 16.272 88.7401 15.3L91.0441 10.044C91.2601 9.576 91.2601 9.144 91.0441 8.784C90.8281 8.424 90.4681 8.244 89.9281 8.244H88.0561C87.0481 8.244 86.3641 8.676 86.0041 9.504L84.3841 13.356C84.1681 13.896 83.8081 14.22 83.3401 14.364L81.9001 14.796V2.592C81.9001 2.088 81.7201 1.656 81.4321 1.332C81.1081 1.044 80.6761 0.864 80.1721 0.864H78.5881C78.0481 0.864 77.6161 1.044 77.3281 1.332C77.0041 1.656 76.8601 2.088 76.8601 2.592V25.272ZM102.439 24.552C102.439 25.38 102.727 26.064 103.303 26.64C103.879 27.216 104.563 27.468 105.355 27.468C106.147 27.468 106.867 27.216 107.443 26.64C108.019 26.064 108.307 25.38 108.307 24.552C108.307 23.76 108.019 23.04 107.443 22.464C106.867 21.888 106.183 21.6 105.355 21.6C104.563 21.6 103.879 21.888 103.303 22.464C102.727 23.04 102.439 23.76 102.439 24.552ZM119.709 18.18C119.709 21.168 120.537 23.472 122.193 25.056C123.849 26.676 126.153 27.468 129.069 27.468C131.193 27.468 133.173 27.252 135.045 26.748C135.405 26.676 135.693 26.46 135.873 26.136C136.017 25.812 136.089 25.452 136.017 25.056L135.693 23.58C135.477 22.716 134.973 22.392 134.145 22.608C132.489 22.968 131.049 23.148 129.789 23.148C128.205 23.148 127.017 22.752 126.225 21.96C125.433 21.168 125.037 19.764 125.037 17.784V11.088C125.037 9.144 125.433 7.74 126.225 6.948C127.017 6.156 128.205 5.724 129.789 5.724C131.049 5.724 132.453 5.904 133.965 6.228C134.361 6.372 134.721 6.336 135.045 6.156C135.369 5.976 135.585 5.688 135.693 5.292L136.017 3.816C136.197 2.952 135.873 2.376 135.045 2.124C133.065 1.656 131.085 1.404 129.069 1.404C126.153 1.404 123.849 2.232 122.193 3.852C120.537 5.472 119.709 7.74 119.709 10.692V18.18ZM139.636 18.9C139.636 21.564 140.356 23.652 141.832 25.164C143.272 26.712 145.288 27.468 147.88 27.468C150.436 27.468 152.452 26.712 153.928 25.164C155.368 23.652 156.124 21.564 156.124 18.9V16.308C156.124 13.752 155.368 11.7 153.928 10.116C152.488 8.568 150.472 7.776 147.88 7.776C145.288 7.776 143.236 8.568 141.796 10.116C140.356 11.7 139.636 13.752 139.636 16.308V18.9ZM147.88 23.22C146.656 23.22 145.828 22.86 145.396 22.14C144.964 21.42 144.748 20.232 144.748 18.612V16.632C144.748 15.084 144.964 13.932 145.396 13.176C145.828 12.42 146.656 12.024 147.88 12.024C149.068 12.024 149.896 12.42 150.328 13.176C150.76 13.932 151.012 15.084 151.012 16.632V18.612C151.012 20.232 150.76 21.42 150.328 22.14C149.896 22.86 149.068 23.22 147.88 23.22ZM159.969 25.272C159.969 25.812 160.113 26.244 160.437 26.532C160.725 26.856 161.157 27 161.697 27H163.281C163.785 27 164.217 26.856 164.541 26.532C164.829 26.244 165.009 25.812 165.009 25.272V13.644C166.089 12.564 167.169 12.024 168.321 12.024C169.041 12.024 169.545 12.24 169.869 12.672C170.193 13.104 170.373 13.788 170.373 14.76V25.272C170.373 25.812 170.517 26.244 170.841 26.532C171.129 26.856 171.561 27 172.101 27H173.685C174.189 27 174.621 26.856 174.945 26.532C175.233 26.244 175.413 25.812 175.413 25.272V14.184C175.413 12.168 174.873 10.584 173.829 9.468C172.785 8.352 171.309 7.776 169.401 7.776C167.601 7.776 165.945 8.496 164.469 9.864L164.433 9.612C164.325 8.712 163.713 8.244 162.561 8.244H161.697C161.157 8.244 160.725 8.424 160.437 8.712C160.113 9.036 159.969 9.468 159.969 9.972V25.272ZM180.81 25.272C180.81 25.812 180.954 26.244 181.278 26.532C181.566 26.856 181.998 27 182.538 27H184.122C184.626 27 185.058 26.856 185.382 26.532C185.67 26.244 185.85 25.812 185.85 25.272V11.844H187.65C188.802 11.844 189.378 11.376 189.378 10.368V9.756C189.378 8.748 188.802 8.244 187.65 8.244H185.85V7.02C185.85 6.192 186.066 5.58 186.534 5.22C187.002 4.86 187.758 4.644 188.802 4.644C189.666 4.644 190.53 4.716 191.358 4.86C192.474 5.076 193.158 4.68 193.374 3.636L193.554 2.736C193.77 1.656 193.302 1.008 192.15 0.755999C190.926 0.539999 189.774 0.395999 188.622 0.395999C186.066 0.395999 184.122 0.971998 182.79 2.124C181.458 3.276 180.81 4.86 180.81 6.84V8.244H179.55C178.398 8.244 177.822 8.712 177.822 9.612V10.08C177.822 10.98 178.398 11.52 179.55 11.664L180.81 11.844V25.272ZM192.006 25.272C192.006 25.812 192.15 26.244 192.474 26.532C192.762 26.856 193.194 27 193.734 27H195.318C195.822 27 196.254 26.856 196.578 26.532C196.866 26.244 197.046 25.812 197.046 25.272V9.972C197.046 9.468 196.866 9.036 196.578 8.712C196.254 8.424 195.822 8.244 195.318 8.244H193.734C193.194 8.244 192.762 8.424 192.474 8.712C192.15 9.036 192.006 9.468 192.006 9.972V25.272ZM201.454 25.272C201.454 25.812 201.598 26.244 201.922 26.532C202.21 26.856 202.642 27 203.182 27H204.766C205.27 27 205.702 26.856 206.026 26.532C206.314 26.244 206.494 25.812 206.494 25.272V14.4C207.862 12.852 209.122 12.06 210.31 12.06C210.598 12.06 210.814 12.06 210.922 12.06C210.994 12.06 211.138 11.988 211.354 11.88C211.534 11.772 211.678 11.592 211.786 11.304C211.894 11.016 212.002 10.656 212.074 10.152C212.362 8.568 211.858 7.776 210.562 7.776C209.698 7.776 208.834 8.064 208.006 8.568C207.178 9.072 206.494 9.72 205.99 10.512L205.882 9.936C205.666 8.82 205.09 8.244 204.118 8.244H203.182C202.642 8.244 202.21 8.424 201.922 8.712C201.598 9.036 201.454 9.468 201.454 9.972V25.272ZM215.024 25.272C215.024 25.812 215.168 26.244 215.492 26.532C215.78 26.856 216.212 27 216.752 27H218.336C218.84 27 219.272 26.856 219.596 26.532C219.884 26.244 220.064 25.812 220.064 25.272V13.644C221.216 12.564 222.224 12.024 223.124 12.024C223.844 12.024 224.348 12.24 224.672 12.672C224.996 13.104 225.176 13.788 225.176 14.76V25.272C225.176 25.812 225.32 26.244 225.644 26.532C225.932 26.856 226.364 27 226.904 27H228.488C228.992 27 229.424 26.856 229.748 26.532C230.036 26.244 230.216 25.812 230.216 25.272V14.328C230.216 14.256 230.18 14.112 230.18 13.932C230.18 13.788 230.18 13.644 230.18 13.536C231.224 12.528 232.268 12.024 233.276 12.024C233.996 12.024 234.5 12.24 234.824 12.672C235.148 13.104 235.328 13.788 235.328 14.76V25.272C235.328 25.812 235.472 26.244 235.796 26.532C236.084 26.856 236.516 27 237.056 27H238.64C239.144 27 239.576 26.856 239.9 26.532C240.188 26.244 240.368 25.812 240.368 25.272V14.184C240.368 12.168 239.828 10.584 238.784 9.468C237.74 8.352 236.264 7.776 234.356 7.776C232.628 7.776 230.9 8.568 229.172 10.116C228.2 8.568 226.544 7.776 224.204 7.776C222.548 7.776 221 8.496 219.524 9.864L219.488 9.612C219.344 8.712 218.768 8.244 217.724 8.244H216.752C216.212 8.244 215.78 8.424 215.492 8.712C215.168 9.036 215.024 9.468 215.024 9.972V25.272ZM251.889 24.552C251.889 25.38 252.177 26.064 252.753 26.64C253.329 27.216 254.013 27.468 254.805 27.468C255.597 27.468 256.317 27.216 256.893 26.64C257.469 26.064 257.757 25.38 257.757 24.552C257.757 23.76 257.469 23.04 256.893 22.464C256.317 21.888 255.633 21.6 254.805 21.6C254.013 21.6 253.329 21.888 252.753 22.464C252.177 23.04 251.889 23.76 251.889 24.552ZM269.698 26.928C270.958 27.288 272.254 27.468 273.55 27.468C276.574 27.468 278.806 26.676 280.174 25.092C281.542 23.508 282.262 21.42 282.262 18.828V3.6C282.262 3.096 282.082 2.664 281.794 2.34C281.47 2.052 281.038 1.872 280.534 1.872H278.806C278.266 1.872 277.834 2.052 277.546 2.34C277.222 2.664 277.078 3.096 277.078 3.6V18.468C277.078 20.052 276.862 21.204 276.43 21.996C275.998 22.788 275.098 23.148 273.73 23.148C272.65 23.148 271.642 23.04 270.706 22.788C270.202 22.644 269.734 22.716 269.374 22.932C269.014 23.148 268.762 23.508 268.654 24.012L268.474 24.732C268.33 25.236 268.402 25.704 268.618 26.1C268.834 26.532 269.194 26.784 269.698 26.928ZM286.449 18.9C286.449 21.564 287.169 23.652 288.645 25.164C290.085 26.712 292.101 27.468 294.693 27.468C297.249 27.468 299.265 26.712 300.741 25.164C302.181 23.652 302.937 21.564 302.937 18.9V16.308C302.937 13.752 302.181 11.7 300.741 10.116C299.301 8.568 297.285 7.776 294.693 7.776C292.101 7.776 290.049 8.568 288.609 10.116C287.169 11.7 286.449 13.752 286.449 16.308V18.9ZM294.693 23.22C293.469 23.22 292.641 22.86 292.209 22.14C291.777 21.42 291.561 20.232 291.561 18.612V16.632C291.561 15.084 291.777 13.932 292.209 13.176C292.641 12.42 293.469 12.024 294.693 12.024C295.881 12.024 296.709 12.42 297.141 13.176C297.573 13.932 297.825 15.084 297.825 16.632V18.612C297.825 20.232 297.573 21.42 297.141 22.14C296.709 22.86 295.881 23.22 294.693 23.22ZM309.302 5.724C310.094 5.724 310.778 5.472 311.318 4.932C311.858 4.428 312.146 3.78 312.146 2.988C312.146 2.232 311.858 1.584 311.318 1.044C310.778 0.539999 310.094 0.251999 309.302 0.251999C308.474 0.251999 307.79 0.539999 307.25 1.044C306.71 1.584 306.458 2.232 306.458 2.988C306.458 3.78 306.71 4.428 307.25 4.932C307.79 5.472 308.474 5.724 309.302 5.724ZM306.782 25.272C306.782 25.812 306.926 26.244 307.25 26.532C307.538 26.856 307.97 27 308.51 27H310.094C310.598 27 311.03 26.856 311.354 26.532C311.642 26.244 311.822 25.812 311.822 25.272V9.972C311.822 9.468 311.642 9.036 311.354 8.712C311.03 8.424 310.598 8.244 310.094 8.244H308.51C307.97 8.244 307.538 8.424 307.25 8.712C306.926 9.036 306.782 9.468 306.782 9.972V25.272ZM316.204 25.272C316.204 25.812 316.348 26.244 316.672 26.532C316.96 26.856 317.392 27 317.932 27H319.516C320.02 27 320.452 26.856 320.776 26.532C321.064 26.244 321.244 25.812 321.244 25.272V13.644C322.324 12.564 323.404 12.024 324.556 12.024C325.276 12.024 325.78 12.24 326.104 12.672C326.428 13.104 326.608 13.788 326.608 14.76V25.272C326.608 25.812 326.752 26.244 327.076 26.532C327.364 26.856 327.796 27 328.336 27H329.92C330.424 27 330.856 26.856 331.18 26.532C331.468 26.244 331.648 25.812 331.648 25.272V14.184C331.648 12.168 331.108 10.584 330.064 9.468C329.02 8.352 327.544 7.776 325.636 7.776C323.836 7.776 322.18 8.496 320.704 9.864L320.668 9.612C320.56 8.712 319.948 8.244 318.796 8.244H317.932C317.392 8.244 316.96 8.424 316.672 8.712C316.348 9.036 316.204 9.468 316.204 9.972V25.272Z" fill="#0191B6"/>
</svg>
