<svg width="255" height="32" viewBox="0 0 255 32" fill="none" xmlns="http://www.w3.org/2000/svg">
<path d="M1.792 1.2H6.776C6.93467 1.2 7.07 1.25133 7.182 1.354C7.294 1.45667 7.35 1.58733 7.35 1.746C7.35 1.90467 7.294 2.03533 7.182 2.138C7.07 2.23133 6.93467 2.278 6.776 2.278H2.268L2.394 2.04V5.582L2.254 5.428H6.146C6.30467 5.428 6.44 5.47933 6.552 5.582C6.664 5.68467 6.72 5.81533 6.72 5.974C6.72 6.13267 6.664 6.26333 6.552 6.366C6.44 6.45933 6.30467 6.506 6.146 6.506H2.296L2.394 6.38V10.006L2.31 9.908H6.776C6.93467 9.908 7.07 9.964 7.182 10.076C7.294 10.188 7.35 10.314 7.35 10.454C7.35 10.6127 7.294 10.7433 7.182 10.846C7.07 10.9487 6.93467 11 6.776 11H1.792C1.63333 11 1.498 10.944 1.386 10.832C1.28333 10.72 1.232 10.5847 1.232 10.426V1.76C1.232 1.60133 1.28333 1.47067 1.386 1.368C1.498 1.256 1.63333 1.2 1.792 1.2ZM12.6184 3.58C13.253 3.58 13.7524 3.71067 14.1164 3.972C14.4804 4.23333 14.737 4.58333 14.8864 5.022C15.045 5.46067 15.1244 5.95067 15.1244 6.492V10.426C15.1244 10.5847 15.0684 10.72 14.9564 10.832C14.8537 10.944 14.723 11 14.5644 11C14.4057 11 14.2704 10.944 14.1584 10.832C14.0557 10.72 14.0044 10.5847 14.0044 10.426V6.52C14.0044 6.16533 13.9484 5.848 13.8364 5.568C13.7337 5.27867 13.5564 5.05 13.3044 4.882C13.0617 4.70467 12.7257 4.616 12.2964 4.616C11.9044 4.616 11.545 4.70467 11.2184 4.882C10.8917 5.05 10.6304 5.27867 10.4344 5.568C10.2384 5.848 10.1404 6.16533 10.1404 6.52V10.426C10.1404 10.5847 10.0844 10.72 9.97238 10.832C9.86971 10.944 9.73904 11 9.58038 11C9.42171 11 9.28638 10.944 9.17438 10.832C9.07171 10.72 9.02038 10.5847 9.02038 10.426V4.322C9.02038 4.16333 9.07171 4.03267 9.17438 3.93C9.28638 3.818 9.42171 3.762 9.58038 3.762C9.74838 3.762 9.88371 3.818 9.98638 3.93C10.089 4.03267 10.1404 4.16333 10.1404 4.322V5.316L9.86038 5.624C9.90704 5.38133 10.0144 5.13867 10.1824 4.896C10.3504 4.644 10.5604 4.42 10.8124 4.224C11.0644 4.028 11.3444 3.874 11.6524 3.762C11.9604 3.64067 12.2824 3.58 12.6184 3.58ZM16.9162 3.804H20.2062C20.3555 3.804 20.4768 3.85533 20.5702 3.958C20.6728 4.06067 20.7242 4.182 20.7242 4.322C20.7242 4.47133 20.6728 4.59733 20.5702 4.7C20.4768 4.79333 20.3555 4.84 20.2062 4.84H16.9162C16.7762 4.84 16.6548 4.78867 16.5522 4.686C16.4495 4.58333 16.3982 4.45733 16.3982 4.308C16.3982 4.168 16.4495 4.05133 16.5522 3.958C16.6548 3.85533 16.7762 3.804 16.9162 3.804ZM18.3862 1.9C18.5448 1.9 18.6755 1.956 18.7782 2.068C18.8808 2.17067 18.9322 2.30133 18.9322 2.46V9.222C18.9322 9.446 18.9648 9.614 19.0302 9.726C19.0955 9.838 19.1795 9.91733 19.2822 9.964C19.3942 10.0013 19.5015 10.02 19.6042 10.02C19.6975 10.02 19.7768 10.006 19.8422 9.978C19.9168 9.94067 20.0008 9.922 20.0942 9.922C20.1875 9.922 20.2715 9.96867 20.3462 10.062C20.4302 10.146 20.4722 10.258 20.4722 10.398C20.4722 10.566 20.3742 10.7107 20.1782 10.832C19.9822 10.944 19.7628 11 19.5202 11C19.3895 11 19.2262 10.9907 19.0302 10.972C18.8435 10.9533 18.6568 10.8927 18.4702 10.79C18.2835 10.6873 18.1248 10.5193 17.9942 10.286C17.8728 10.0433 17.8122 9.70733 17.8122 9.278V2.46C17.8122 2.30133 17.8682 2.17067 17.9802 2.068C18.0922 1.956 18.2275 1.9 18.3862 1.9ZM25.5597 11.14C24.8131 11.14 24.1597 10.9813 23.5997 10.664C23.0397 10.3467 22.6011 9.91267 22.2837 9.362C21.9757 8.802 21.8217 8.158 21.8217 7.43C21.8217 6.618 21.9804 5.92733 22.2977 5.358C22.6244 4.77933 23.0444 4.34067 23.5577 4.042C24.0804 3.734 24.6311 3.58 25.2097 3.58C25.6391 3.58 26.0544 3.65933 26.4557 3.818C26.8571 3.97667 27.2117 4.21 27.5197 4.518C27.8277 4.81667 28.0751 5.18067 28.2617 5.61C28.4484 6.03 28.5464 6.50133 28.5557 7.024C28.5557 7.17333 28.4997 7.29933 28.3877 7.402C28.2757 7.50467 28.1451 7.556 27.9957 7.556H22.4657L22.2137 6.59H27.6037L27.3797 6.786V6.478C27.3424 6.09533 27.2117 5.76867 26.9877 5.498C26.7731 5.218 26.5071 5.00333 26.1897 4.854C25.8817 4.70467 25.5551 4.63 25.2097 4.63C24.9297 4.63 24.6497 4.68133 24.3697 4.784C24.0991 4.87733 23.8517 5.036 23.6277 5.26C23.4131 5.47467 23.2357 5.75467 23.0957 6.1C22.9651 6.44533 22.8997 6.86067 22.8997 7.346C22.8997 7.88733 23.0071 8.36333 23.2217 8.774C23.4457 9.18467 23.7537 9.51133 24.1457 9.754C24.5377 9.98733 24.9951 10.104 25.5177 10.104C25.8444 10.104 26.1291 10.062 26.3717 9.978C26.6144 9.894 26.8244 9.79133 27.0017 9.67C27.1791 9.53933 27.3284 9.40867 27.4497 9.278C27.5711 9.194 27.6877 9.152 27.7997 9.152C27.9397 9.152 28.0517 9.19867 28.1357 9.292C28.2291 9.38533 28.2757 9.49733 28.2757 9.628C28.2757 9.78667 28.2011 9.92667 28.0517 10.048C27.7904 10.3373 27.4357 10.594 26.9877 10.818C26.5397 11.0327 26.0637 11.14 25.5597 11.14ZM30.7991 11C30.6405 11 30.5051 10.944 30.3931 10.832C30.2905 10.72 30.2391 10.5847 30.2391 10.426V4.322C30.2391 4.16333 30.2905 4.03267 30.3931 3.93C30.5051 3.818 30.6405 3.762 30.7991 3.762C30.9671 3.762 31.1025 3.818 31.2051 3.93C31.3078 4.03267 31.3591 4.16333 31.3591 4.322V6.17L31.1911 5.876C31.2471 5.58667 31.3451 5.30667 31.4851 5.036C31.6345 4.756 31.8211 4.50867 32.0451 4.294C32.2691 4.07 32.5258 3.89733 32.8151 3.776C33.1045 3.64533 33.4218 3.58 33.7671 3.58C33.9725 3.58 34.1591 3.63133 34.3271 3.734C34.5045 3.82733 34.5931 3.96267 34.5931 4.14C34.5931 4.336 34.5418 4.48067 34.4391 4.574C34.3365 4.66733 34.2198 4.714 34.0891 4.714C33.9678 4.714 33.8511 4.69067 33.7391 4.644C33.6271 4.588 33.4871 4.56 33.3191 4.56C33.0858 4.56 32.8525 4.62533 32.6191 4.756C32.3951 4.87733 32.1851 5.05467 31.9891 5.288C31.8025 5.52133 31.6485 5.78733 31.5271 6.086C31.4151 6.37533 31.3591 6.688 31.3591 7.024V10.426C31.3591 10.5847 31.3031 10.72 31.1911 10.832C31.0885 10.944 30.9578 11 30.7991 11ZM45.1317 3.65C45.2904 3.65 45.4211 3.706 45.5237 3.818C45.6357 3.92067 45.6917 4.05133 45.6917 4.21V10.314C45.6917 11.098 45.5377 11.7467 45.2297 12.26C44.9217 12.7827 44.5064 13.17 43.9837 13.422C43.4704 13.674 42.8871 13.8 42.2337 13.8C41.8697 13.8 41.5197 13.7627 41.1837 13.688C40.8477 13.6133 40.5724 13.5153 40.3577 13.394C40.1804 13.31 40.0544 13.2027 39.9797 13.072C39.9144 12.9507 39.9051 12.82 39.9517 12.68C40.0171 12.512 40.1104 12.3953 40.2317 12.33C40.3624 12.2647 40.4977 12.2647 40.6377 12.33C40.7871 12.3953 41.0017 12.484 41.2817 12.596C41.5711 12.7173 41.8931 12.778 42.2477 12.778C42.7331 12.778 43.1484 12.6847 43.4937 12.498C43.8391 12.3113 44.1051 12.036 44.2917 11.672C44.4784 11.3173 44.5717 10.874 44.5717 10.342V9.348L44.7397 9.698C44.5904 9.98733 44.3897 10.2393 44.1377 10.454C43.8857 10.6687 43.5964 10.8367 43.2697 10.958C42.9431 11.0793 42.5837 11.14 42.1917 11.14C41.6597 11.14 41.2071 11.028 40.8337 10.804C40.4697 10.5707 40.1897 10.2533 39.9937 9.852C39.8071 9.44133 39.7137 8.97 39.7137 8.438V4.21C39.7137 4.05133 39.7651 3.92067 39.8677 3.818C39.9797 3.706 40.1151 3.65 40.2737 3.65C40.4417 3.65 40.5771 3.706 40.6797 3.818C40.7824 3.92067 40.8337 4.05133 40.8337 4.21V8.186C40.8337 8.82067 40.9737 9.30133 41.2537 9.628C41.5337 9.94533 41.9677 10.104 42.5557 10.104C42.9291 10.104 43.2651 10.02 43.5637 9.852C43.8717 9.684 44.1144 9.45533 44.2917 9.166C44.4784 8.86733 44.5717 8.54067 44.5717 8.186V4.21C44.5717 4.05133 44.6231 3.92067 44.7257 3.818C44.8284 3.706 44.9637 3.65 45.1317 3.65ZM54.5721 7.36C54.5721 8.088 54.4088 8.73667 54.0821 9.306C53.7648 9.87533 53.3308 10.3233 52.7801 10.65C52.2388 10.9767 51.6274 11.14 50.9461 11.14C50.2648 11.14 49.6488 10.9767 49.0981 10.65C48.5474 10.3233 48.1088 9.87533 47.7821 9.306C47.4648 8.73667 47.3061 8.088 47.3061 7.36C47.3061 6.632 47.4648 5.98333 47.7821 5.414C48.1088 4.84467 48.5474 4.39667 49.0981 4.07C49.6488 3.74333 50.2648 3.58 50.9461 3.58C51.6274 3.58 52.2388 3.74333 52.7801 4.07C53.3308 4.39667 53.7648 4.84467 54.0821 5.414C54.4088 5.98333 54.5721 6.632 54.5721 7.36ZM53.4521 7.36C53.4521 6.81867 53.3401 6.34267 53.1161 5.932C52.9014 5.52133 52.6028 5.19933 52.2201 4.966C51.8468 4.73267 51.4221 4.616 50.9461 4.616C50.4701 4.616 50.0408 4.73267 49.6581 4.966C49.2848 5.19933 48.9861 5.52133 48.7621 5.932C48.5381 6.34267 48.4261 6.81867 48.4261 7.36C48.4261 7.892 48.5381 8.36333 48.7621 8.774C48.9861 9.18467 49.2848 9.51133 49.6581 9.754C50.0408 9.98733 50.4701 10.104 50.9461 10.104C51.4221 10.104 51.8468 9.98733 52.2201 9.754C52.6028 9.51133 52.9014 9.18467 53.1161 8.774C53.3401 8.36333 53.4521 7.892 53.4521 7.36ZM61.6747 3.762C61.8427 3.762 61.978 3.818 62.0807 3.93C62.1834 4.03267 62.2347 4.16333 62.2347 4.322V8.144C62.2347 9.08667 61.9687 9.81933 61.4367 10.342C60.914 10.8553 60.1814 11.112 59.2387 11.112C58.3054 11.112 57.5727 10.8553 57.0407 10.342C56.518 9.81933 56.2567 9.08667 56.2567 8.144V4.322C56.2567 4.16333 56.308 4.03267 56.4107 3.93C56.5227 3.818 56.658 3.762 56.8167 3.762C56.9847 3.762 57.12 3.818 57.2227 3.93C57.3254 4.03267 57.3767 4.16333 57.3767 4.322V8.144C57.3767 8.77867 57.54 9.25933 57.8667 9.586C58.1934 9.91267 58.6507 10.076 59.2387 10.076C59.8454 10.076 60.3074 9.91267 60.6247 9.586C60.9514 9.25933 61.1147 8.77867 61.1147 8.144V4.322C61.1147 4.16333 61.166 4.03267 61.2687 3.93C61.3807 3.818 61.516 3.762 61.6747 3.762ZM64.8694 11C64.7108 11 64.5754 10.944 64.4634 10.832C64.3608 10.72 64.3094 10.5847 64.3094 10.426V4.322C64.3094 4.16333 64.3608 4.03267 64.4634 3.93C64.5754 3.818 64.7108 3.762 64.8694 3.762C65.0374 3.762 65.1728 3.818 65.2754 3.93C65.3781 4.03267 65.4294 4.16333 65.4294 4.322V6.17L65.2614 5.876C65.3174 5.58667 65.4154 5.30667 65.5554 5.036C65.7048 4.756 65.8914 4.50867 66.1154 4.294C66.3394 4.07 66.5961 3.89733 66.8854 3.776C67.1748 3.64533 67.4921 3.58 67.8374 3.58C68.0428 3.58 68.2294 3.63133 68.3974 3.734C68.5748 3.82733 68.6634 3.96267 68.6634 4.14C68.6634 4.336 68.6121 4.48067 68.5094 4.574C68.4068 4.66733 68.2901 4.714 68.1594 4.714C68.0381 4.714 67.9214 4.69067 67.8094 4.644C67.6974 4.588 67.5574 4.56 67.3894 4.56C67.1561 4.56 66.9228 4.62533 66.6894 4.756C66.4654 4.87733 66.2554 5.05467 66.0594 5.288C65.8728 5.52133 65.7188 5.78733 65.5974 6.086C65.4854 6.37533 65.4294 6.688 65.4294 7.024V10.426C65.4294 10.5847 65.3734 10.72 65.2614 10.832C65.1588 10.944 65.0281 11 64.8694 11ZM77.13 11.14C76.3834 11.14 75.73 10.9813 75.17 10.664C74.61 10.3467 74.1714 9.91267 73.854 9.362C73.546 8.802 73.392 8.158 73.392 7.43C73.392 6.618 73.5507 5.92733 73.868 5.358C74.1947 4.77933 74.6147 4.34067 75.128 4.042C75.6507 3.734 76.2014 3.58 76.78 3.58C77.2094 3.58 77.6247 3.65933 78.026 3.818C78.4274 3.97667 78.782 4.21 79.09 4.518C79.398 4.81667 79.6454 5.18067 79.832 5.61C80.0187 6.03 80.1167 6.50133 80.126 7.024C80.126 7.17333 80.07 7.29933 79.958 7.402C79.846 7.50467 79.7154 7.556 79.566 7.556H74.036L73.784 6.59H79.174L78.95 6.786V6.478C78.9127 6.09533 78.782 5.76867 78.558 5.498C78.3434 5.218 78.0774 5.00333 77.76 4.854C77.452 4.70467 77.1254 4.63 76.78 4.63C76.5 4.63 76.22 4.68133 75.94 4.784C75.6694 4.87733 75.422 5.036 75.198 5.26C74.9834 5.47467 74.806 5.75467 74.666 6.1C74.5354 6.44533 74.47 6.86067 74.47 7.346C74.47 7.88733 74.5774 8.36333 74.792 8.774C75.016 9.18467 75.324 9.51133 75.716 9.754C76.108 9.98733 76.5654 10.104 77.088 10.104C77.4147 10.104 77.6994 10.062 77.942 9.978C78.1847 9.894 78.3947 9.79133 78.572 9.67C78.7494 9.53933 78.8987 9.40867 79.02 9.278C79.1414 9.194 79.258 9.152 79.37 9.152C79.51 9.152 79.622 9.19867 79.706 9.292C79.7994 9.38533 79.846 9.49733 79.846 9.628C79.846 9.78667 79.7714 9.92667 79.622 10.048C79.3607 10.3373 79.006 10.594 78.558 10.818C78.11 11.0327 77.634 11.14 77.13 11.14ZM85.2674 3.65C85.9021 3.65 86.4154 3.81333 86.8074 4.14C87.2088 4.45733 87.4748 4.91 87.6054 5.498H87.3954L87.4934 5.246C87.6054 4.98467 87.7968 4.73267 88.0674 4.49C88.3381 4.24733 88.6508 4.04667 89.0054 3.888C89.3601 3.72933 89.7288 3.65 90.1114 3.65C90.7274 3.65 91.2128 3.78533 91.5674 4.056C91.9221 4.31733 92.1741 4.672 92.3234 5.12C92.4821 5.55867 92.5614 6.05333 92.5614 6.604V10.426C92.5614 10.5847 92.5054 10.72 92.3934 10.832C92.2908 10.944 92.1601 11 92.0014 11C91.8334 11 91.6981 10.944 91.5954 10.832C91.4928 10.72 91.4414 10.5847 91.4414 10.426V6.632C91.4414 6.268 91.3854 5.94133 91.2734 5.652C91.1708 5.35333 90.9981 5.12 90.7554 4.952C90.5221 4.77467 90.2001 4.686 89.7894 4.686C89.4068 4.686 89.0568 4.77467 88.7394 4.952C88.4221 5.12 88.1701 5.35333 87.9834 5.652C87.7968 5.94133 87.7034 6.268 87.7034 6.632V10.426C87.7034 10.5847 87.6521 10.72 87.5494 10.832C87.4468 10.944 87.3114 11 87.1434 11C86.9848 11 86.8494 10.944 86.7374 10.832C86.6348 10.72 86.5834 10.5847 86.5834 10.426V6.59C86.5834 6.23533 86.5321 5.918 86.4294 5.638C86.3361 5.34867 86.1728 5.12 85.9394 4.952C85.7061 4.77467 85.3841 4.686 84.9734 4.686C84.6001 4.686 84.2594 4.77467 83.9514 4.952C83.6434 5.12 83.3961 5.34867 83.2094 5.638C83.0228 5.918 82.9294 6.23533 82.9294 6.59V10.426C82.9294 10.5847 82.8734 10.72 82.7614 10.832C82.6588 10.944 82.5281 11 82.3694 11C82.2108 11 82.0754 10.944 81.9634 10.832C81.8608 10.72 81.8094 10.5847 81.8094 10.426V4.322C81.8094 4.16333 81.8608 4.03267 81.9634 3.93C82.0754 3.818 82.2108 3.762 82.3694 3.762C82.5374 3.762 82.6728 3.818 82.7754 3.93C82.8781 4.03267 82.9294 4.16333 82.9294 4.322V5.386L82.6214 5.722C82.6588 5.47933 82.7521 5.23667 82.9014 4.994C83.0601 4.75133 83.2608 4.52733 83.5034 4.322C83.7461 4.11667 84.0168 3.95333 84.3154 3.832C84.6141 3.71067 84.9314 3.65 85.2674 3.65ZM100.598 3.692C100.756 3.692 100.887 3.748 100.99 3.86C101.102 3.96267 101.158 4.09333 101.158 4.252V10.426C101.158 10.5847 101.102 10.72 100.99 10.832C100.887 10.944 100.756 11 100.598 11C100.43 11 100.294 10.944 100.192 10.832C100.089 10.72 100.038 10.5847 100.038 10.426V9.096L100.304 9.068C100.304 9.27333 100.234 9.49733 100.094 9.74C99.9537 9.98267 99.7623 10.2113 99.5197 10.426C99.277 10.6313 98.9877 10.804 98.6517 10.944C98.325 11.0747 97.9703 11.14 97.5877 11.14C96.953 11.14 96.3837 10.9767 95.8797 10.65C95.3757 10.314 94.9743 9.86133 94.6757 9.292C94.3863 8.72267 94.2417 8.074 94.2417 7.346C94.2417 6.60867 94.3863 5.96 94.6757 5.4C94.9743 4.83067 95.3757 4.38733 95.8797 4.07C96.3837 3.74333 96.9437 3.58 97.5597 3.58C97.961 3.58 98.3343 3.64533 98.6797 3.776C99.025 3.90667 99.3237 4.084 99.5757 4.308C99.837 4.532 100.038 4.77933 100.178 5.05C100.327 5.32067 100.402 5.59133 100.402 5.862L100.038 5.778V4.252C100.038 4.09333 100.089 3.96267 100.192 3.86C100.294 3.748 100.43 3.692 100.598 3.692ZM97.7137 10.104C98.1803 10.104 98.591 9.98267 98.9457 9.74C99.3097 9.49733 99.5897 9.17067 99.7857 8.76C99.991 8.34 100.094 7.86867 100.094 7.346C100.094 6.83267 99.991 6.37067 99.7857 5.96C99.5897 5.54 99.3097 5.21333 98.9457 4.98C98.591 4.73733 98.1803 4.616 97.7137 4.616C97.2563 4.616 96.8457 4.73267 96.4817 4.966C96.127 5.19933 95.847 5.52133 95.6417 5.932C95.4363 6.34267 95.3337 6.814 95.3337 7.346C95.3337 7.86867 95.4317 8.34 95.6277 8.76C95.833 9.17067 96.113 9.49733 96.4677 9.74C96.8317 9.98267 97.247 10.104 97.7137 10.104ZM104.311 10.426C104.311 10.5847 104.255 10.72 104.143 10.832C104.041 10.944 103.91 11 103.751 11C103.583 11 103.448 10.944 103.345 10.832C103.243 10.72 103.191 10.5847 103.191 10.426V4.21C103.191 4.05133 103.243 3.92067 103.345 3.818C103.457 3.706 103.593 3.65 103.751 3.65C103.91 3.65 104.041 3.706 104.143 3.818C104.255 3.92067 104.311 4.05133 104.311 4.21V10.426ZM103.751 2.712C103.518 2.712 103.345 2.66533 103.233 2.572C103.121 2.47867 103.065 2.334 103.065 2.138V1.942C103.065 1.746 103.126 1.60133 103.247 1.508C103.369 1.41467 103.541 1.368 103.765 1.368C103.989 1.368 104.157 1.41467 104.269 1.508C104.381 1.60133 104.437 1.746 104.437 1.942V2.138C104.437 2.334 104.377 2.47867 104.255 2.572C104.143 2.66533 103.975 2.712 103.751 2.712ZM107.555 10.426C107.555 10.5847 107.499 10.72 107.387 10.832C107.275 10.944 107.14 11 106.981 11C106.822 11 106.692 10.944 106.589 10.832C106.486 10.72 106.435 10.5847 106.435 10.426V1.2C106.435 1.04133 106.486 0.910666 106.589 0.807999C106.701 0.696 106.836 0.64 106.995 0.64C107.163 0.64 107.298 0.696 107.401 0.807999C107.504 0.910666 107.555 1.04133 107.555 1.2V10.426ZM119.547 3.692C119.706 3.692 119.836 3.748 119.939 3.86C120.051 3.96267 120.107 4.09333 120.107 4.252V10.426C120.107 10.5847 120.051 10.72 119.939 10.832C119.836 10.944 119.706 11 119.547 11C119.379 11 119.244 10.944 119.141 10.832C119.038 10.72 118.987 10.5847 118.987 10.426V9.096L119.253 9.068C119.253 9.27333 119.183 9.49733 119.043 9.74C118.903 9.98267 118.712 10.2113 118.469 10.426C118.226 10.6313 117.937 10.804 117.601 10.944C117.274 11.0747 116.92 11.14 116.537 11.14C115.902 11.14 115.333 10.9767 114.829 10.65C114.325 10.314 113.924 9.86133 113.625 9.292C113.336 8.72267 113.191 8.074 113.191 7.346C113.191 6.60867 113.336 5.96 113.625 5.4C113.924 4.83067 114.325 4.38733 114.829 4.07C115.333 3.74333 115.893 3.58 116.509 3.58C116.91 3.58 117.284 3.64533 117.629 3.776C117.974 3.90667 118.273 4.084 118.525 4.308C118.786 4.532 118.987 4.77933 119.127 5.05C119.276 5.32067 119.351 5.59133 119.351 5.862L118.987 5.778V4.252C118.987 4.09333 119.038 3.96267 119.141 3.86C119.244 3.748 119.379 3.692 119.547 3.692ZM116.663 10.104C117.13 10.104 117.54 9.98267 117.895 9.74C118.259 9.49733 118.539 9.17067 118.735 8.76C118.94 8.34 119.043 7.86867 119.043 7.346C119.043 6.83267 118.94 6.37067 118.735 5.96C118.539 5.54 118.259 5.21333 117.895 4.98C117.54 4.73733 117.13 4.616 116.663 4.616C116.206 4.616 115.795 4.73267 115.431 4.966C115.076 5.19933 114.796 5.52133 114.591 5.932C114.386 6.34267 114.283 6.814 114.283 7.346C114.283 7.86867 114.381 8.34 114.577 8.76C114.782 9.17067 115.062 9.49733 115.417 9.74C115.781 9.98267 116.196 10.104 116.663 10.104ZM128.146 0.64C128.305 0.64 128.436 0.696 128.538 0.807999C128.65 0.910666 128.706 1.04133 128.706 1.2V10.426C128.706 10.5847 128.65 10.72 128.538 10.832C128.436 10.944 128.305 11 128.146 11C127.978 11 127.843 10.944 127.74 10.832C127.638 10.72 127.586 10.5847 127.586 10.426V9.096L127.852 8.998C127.852 9.222 127.782 9.46 127.642 9.712C127.502 9.95467 127.311 10.1833 127.068 10.398C126.826 10.6127 126.536 10.79 126.2 10.93C125.874 11.07 125.519 11.14 125.136 11.14C124.511 11.14 123.942 10.9767 123.428 10.65C122.924 10.3233 122.523 9.87533 122.224 9.306C121.935 8.73667 121.79 8.088 121.79 7.36C121.79 6.62267 121.935 5.96933 122.224 5.4C122.523 4.83067 122.924 4.38733 123.428 4.07C123.932 3.74333 124.492 3.58 125.108 3.58C125.5 3.58 125.869 3.64533 126.214 3.776C126.56 3.90667 126.858 4.084 127.11 4.308C127.372 4.532 127.577 4.77933 127.726 5.05C127.876 5.32067 127.95 5.59133 127.95 5.862L127.586 5.778V1.2C127.586 1.04133 127.638 0.910666 127.74 0.807999C127.843 0.696 127.978 0.64 128.146 0.64ZM125.262 10.104C125.729 10.104 126.14 9.98733 126.494 9.754C126.858 9.51133 127.138 9.18467 127.334 8.774C127.54 8.354 127.642 7.88267 127.642 7.36C127.642 6.828 127.54 6.35667 127.334 5.946C127.138 5.53533 126.858 5.21333 126.494 4.98C126.14 4.73733 125.729 4.616 125.262 4.616C124.805 4.616 124.394 4.73733 124.03 4.98C123.676 5.21333 123.396 5.53533 123.19 5.946C122.985 6.35667 122.882 6.828 122.882 7.36C122.882 7.87333 122.985 8.34 123.19 8.76C123.396 9.17067 123.676 9.49733 124.03 9.74C124.394 9.98267 124.805 10.104 125.262 10.104ZM136.746 0.64C136.905 0.64 137.035 0.696 137.138 0.807999C137.25 0.910666 137.306 1.04133 137.306 1.2V10.426C137.306 10.5847 137.25 10.72 137.138 10.832C137.035 10.944 136.905 11 136.746 11C136.578 11 136.443 10.944 136.34 10.832C136.237 10.72 136.186 10.5847 136.186 10.426V9.096L136.452 8.998C136.452 9.222 136.382 9.46 136.242 9.712C136.102 9.95467 135.911 10.1833 135.668 10.398C135.425 10.6127 135.136 10.79 134.8 10.93C134.473 11.07 134.119 11.14 133.736 11.14C133.111 11.14 132.541 10.9767 132.028 10.65C131.524 10.3233 131.123 9.87533 130.824 9.306C130.535 8.73667 130.39 8.088 130.39 7.36C130.39 6.62267 130.535 5.96933 130.824 5.4C131.123 4.83067 131.524 4.38733 132.028 4.07C132.532 3.74333 133.092 3.58 133.708 3.58C134.1 3.58 134.469 3.64533 134.814 3.776C135.159 3.90667 135.458 4.084 135.71 4.308C135.971 4.532 136.177 4.77933 136.326 5.05C136.475 5.32067 136.55 5.59133 136.55 5.862L136.186 5.778V1.2C136.186 1.04133 136.237 0.910666 136.34 0.807999C136.443 0.696 136.578 0.64 136.746 0.64ZM133.862 10.104C134.329 10.104 134.739 9.98733 135.094 9.754C135.458 9.51133 135.738 9.18467 135.934 8.774C136.139 8.354 136.242 7.88267 136.242 7.36C136.242 6.828 136.139 6.35667 135.934 5.946C135.738 5.53533 135.458 5.21333 135.094 4.98C134.739 4.73733 134.329 4.616 133.862 4.616C133.405 4.616 132.994 4.73733 132.63 4.98C132.275 5.21333 131.995 5.53533 131.79 5.946C131.585 6.35667 131.482 6.828 131.482 7.36C131.482 7.87333 131.585 8.34 131.79 8.76C131.995 9.17067 132.275 9.49733 132.63 9.74C132.994 9.98267 133.405 10.104 133.862 10.104ZM139.942 11C139.783 11 139.648 10.944 139.536 10.832C139.433 10.72 139.382 10.5847 139.382 10.426V4.322C139.382 4.16333 139.433 4.03267 139.536 3.93C139.648 3.818 139.783 3.762 139.942 3.762C140.11 3.762 140.245 3.818 140.348 3.93C140.45 4.03267 140.502 4.16333 140.502 4.322V6.17L140.334 5.876C140.39 5.58667 140.488 5.30667 140.628 5.036C140.777 4.756 140.964 4.50867 141.188 4.294C141.412 4.07 141.668 3.89733 141.958 3.776C142.247 3.64533 142.564 3.58 142.91 3.58C143.115 3.58 143.302 3.63133 143.47 3.734C143.647 3.82733 143.736 3.96267 143.736 4.14C143.736 4.336 143.684 4.48067 143.582 4.574C143.479 4.66733 143.362 4.714 143.232 4.714C143.11 4.714 142.994 4.69067 142.882 4.644C142.77 4.588 142.63 4.56 142.462 4.56C142.228 4.56 141.995 4.62533 141.762 4.756C141.538 4.87733 141.328 5.05467 141.132 5.288C140.945 5.52133 140.791 5.78733 140.67 6.086C140.558 6.37533 140.502 6.688 140.502 7.024V10.426C140.502 10.5847 140.446 10.72 140.334 10.832C140.231 10.944 140.1 11 139.942 11ZM148.032 11.14C147.286 11.14 146.632 10.9813 146.072 10.664C145.512 10.3467 145.074 9.91267 144.756 9.362C144.448 8.802 144.294 8.158 144.294 7.43C144.294 6.618 144.453 5.92733 144.77 5.358C145.097 4.77933 145.517 4.34067 146.03 4.042C146.553 3.734 147.104 3.58 147.682 3.58C148.112 3.58 148.527 3.65933 148.928 3.818C149.33 3.97667 149.684 4.21 149.992 4.518C150.3 4.81667 150.548 5.18067 150.734 5.61C150.921 6.03 151.019 6.50133 151.028 7.024C151.028 7.17333 150.972 7.29933 150.86 7.402C150.748 7.50467 150.618 7.556 150.468 7.556H144.938L144.686 6.59H150.076L149.852 6.786V6.478C149.815 6.09533 149.684 5.76867 149.46 5.498C149.246 5.218 148.98 5.00333 148.662 4.854C148.354 4.70467 148.028 4.63 147.682 4.63C147.402 4.63 147.122 4.68133 146.842 4.784C146.572 4.87733 146.324 5.036 146.1 5.26C145.886 5.47467 145.708 5.75467 145.568 6.1C145.438 6.44533 145.372 6.86067 145.372 7.346C145.372 7.88733 145.48 8.36333 145.694 8.774C145.918 9.18467 146.226 9.51133 146.618 9.754C147.01 9.98733 147.468 10.104 147.99 10.104C148.317 10.104 148.602 10.062 148.844 9.978C149.087 9.894 149.297 9.79133 149.474 9.67C149.652 9.53933 149.801 9.40867 149.922 9.278C150.044 9.194 150.16 9.152 150.272 9.152C150.412 9.152 150.524 9.19867 150.608 9.292C150.702 9.38533 150.748 9.49733 150.748 9.628C150.748 9.78667 150.674 9.92667 150.524 10.048C150.263 10.3373 149.908 10.594 149.46 10.818C149.012 11.0327 148.536 11.14 148.032 11.14ZM152.306 9.852C152.222 9.73067 152.184 9.60467 152.194 9.474C152.203 9.334 152.282 9.21267 152.432 9.11C152.525 9.04467 152.632 9.01667 152.754 9.026C152.884 9.03533 153.001 9.096 153.104 9.208C153.365 9.516 153.664 9.76333 154 9.95C154.336 10.1273 154.746 10.216 155.232 10.216C155.456 10.2067 155.68 10.1693 155.904 10.104C156.128 10.0387 156.314 9.92667 156.464 9.768C156.622 9.6 156.702 9.38067 156.702 9.11C156.702 8.84867 156.622 8.64333 156.464 8.494C156.305 8.33533 156.1 8.20933 155.848 8.116C155.596 8.01333 155.32 7.92467 155.022 7.85C154.714 7.766 154.41 7.67267 154.112 7.57C153.813 7.458 153.542 7.32267 153.3 7.164C153.066 6.996 152.875 6.79067 152.726 6.548C152.586 6.296 152.516 5.99267 152.516 5.638C152.516 5.218 152.628 4.854 152.852 4.546C153.085 4.238 153.393 4 153.776 3.832C154.168 3.664 154.592 3.58 155.05 3.58C155.311 3.58 155.582 3.61267 155.862 3.678C156.151 3.734 156.431 3.83667 156.702 3.986C156.972 4.126 157.21 4.322 157.416 4.574C157.5 4.66733 157.546 4.784 157.556 4.924C157.565 5.064 157.504 5.19 157.374 5.302C157.271 5.37667 157.154 5.40933 157.024 5.4C156.902 5.39067 156.8 5.344 156.716 5.26C156.52 5.02667 156.272 4.84933 155.974 4.728C155.684 4.59733 155.362 4.532 155.008 4.532C154.784 4.532 154.564 4.56467 154.35 4.63C154.135 4.69533 153.953 4.80733 153.804 4.966C153.664 5.11533 153.594 5.32533 153.594 5.596C153.603 5.848 153.687 6.05333 153.846 6.212C154.004 6.37067 154.219 6.50133 154.49 6.604C154.76 6.69733 155.059 6.79067 155.386 6.884C155.684 6.95867 155.969 7.04733 156.24 7.15C156.52 7.24333 156.772 7.36933 156.996 7.528C157.22 7.68667 157.397 7.892 157.528 8.144C157.658 8.38667 157.724 8.69467 157.724 9.068C157.724 9.49733 157.602 9.87067 157.36 10.188C157.117 10.496 156.795 10.734 156.394 10.902C156.002 11.0607 155.577 11.14 155.12 11.14C154.606 11.14 154.098 11.042 153.594 10.846C153.099 10.65 152.67 10.3187 152.306 9.852ZM158.937 9.852C158.853 9.73067 158.815 9.60467 158.825 9.474C158.834 9.334 158.913 9.21267 159.063 9.11C159.156 9.04467 159.263 9.01667 159.385 9.026C159.515 9.03533 159.632 9.096 159.735 9.208C159.996 9.516 160.295 9.76333 160.631 9.95C160.967 10.1273 161.377 10.216 161.863 10.216C162.087 10.2067 162.311 10.1693 162.535 10.104C162.759 10.0387 162.945 9.92667 163.095 9.768C163.253 9.6 163.333 9.38067 163.333 9.11C163.333 8.84867 163.253 8.64333 163.095 8.494C162.936 8.33533 162.731 8.20933 162.479 8.116C162.227 8.01333 161.951 7.92467 161.653 7.85C161.345 7.766 161.041 7.67267 160.743 7.57C160.444 7.458 160.173 7.32267 159.931 7.164C159.697 6.996 159.506 6.79067 159.357 6.548C159.217 6.296 159.147 5.99267 159.147 5.638C159.147 5.218 159.259 4.854 159.483 4.546C159.716 4.238 160.024 4 160.407 3.832C160.799 3.664 161.223 3.58 161.681 3.58C161.942 3.58 162.213 3.61267 162.493 3.678C162.782 3.734 163.062 3.83667 163.333 3.986C163.603 4.126 163.841 4.322 164.047 4.574C164.131 4.66733 164.177 4.784 164.187 4.924C164.196 5.064 164.135 5.19 164.005 5.302C163.902 5.37667 163.785 5.40933 163.655 5.4C163.533 5.39067 163.431 5.344 163.347 5.26C163.151 5.02667 162.903 4.84933 162.605 4.728C162.315 4.59733 161.993 4.532 161.639 4.532C161.415 4.532 161.195 4.56467 160.981 4.63C160.766 4.69533 160.584 4.80733 160.435 4.966C160.295 5.11533 160.225 5.32533 160.225 5.596C160.234 5.848 160.318 6.05333 160.477 6.212C160.635 6.37067 160.85 6.50133 161.121 6.604C161.391 6.69733 161.69 6.79067 162.017 6.884C162.315 6.95867 162.6 7.04733 162.871 7.15C163.151 7.24333 163.403 7.36933 163.627 7.528C163.851 7.68667 164.028 7.892 164.159 8.144C164.289 8.38667 164.355 8.69467 164.355 9.068C164.355 9.49733 164.233 9.87067 163.991 10.188C163.748 10.496 163.426 10.734 163.025 10.902C162.633 11.0607 162.208 11.14 161.751 11.14C161.237 11.14 160.729 11.042 160.225 10.846C159.73 10.65 159.301 10.3187 158.937 9.852ZM166.31 10.986C166.114 10.986 165.96 10.93 165.848 10.818C165.745 10.706 165.694 10.552 165.694 10.356V10.076C165.694 9.87067 165.745 9.712 165.848 9.6C165.96 9.488 166.114 9.432 166.31 9.432H166.422C166.627 9.432 166.781 9.488 166.884 9.6C166.986 9.712 167.038 9.87067 167.038 10.076V10.356C167.038 10.552 166.986 10.706 166.884 10.818C166.781 10.93 166.627 10.986 166.422 10.986H166.31ZM12.46 19.158C12.6093 19.158 12.7447 19.2093 12.866 19.312C12.9967 19.4147 13.062 19.5593 13.062 19.746C13.062 19.8113 13.0527 19.8813 13.034 19.956L10.052 28.636C10.0147 28.748 9.94467 28.8367 9.842 28.902C9.74867 28.958 9.65067 28.9907 9.548 29C9.436 29 9.32867 28.972 9.226 28.916C9.12333 28.8507 9.044 28.7573 8.988 28.636L6.65 22.98L6.762 23.022L4.438 28.636C4.382 28.7573 4.30267 28.8507 4.2 28.916C4.09733 28.972 3.99 29 3.878 29C3.77533 28.9907 3.67267 28.958 3.57 28.902C3.47667 28.8367 3.41133 28.748 3.374 28.636L0.392 19.956C0.373333 19.8813 0.364 19.816 0.364 19.76C0.364 19.5733 0.429333 19.4287 0.56 19.326C0.7 19.214 0.84 19.158 0.98 19.158C1.092 19.158 1.19933 19.1907 1.302 19.256C1.40467 19.3213 1.47467 19.41 1.512 19.522L4.13 27.25H3.934L6.216 21.608C6.26267 21.496 6.33267 21.4073 6.426 21.342C6.51933 21.2767 6.62667 21.244 6.748 21.244C6.86 21.244 6.96267 21.2767 7.056 21.342C7.15867 21.4073 7.22867 21.496 7.266 21.608L9.478 27.166L9.31 27.236L11.914 19.522C11.9513 19.41 12.0213 19.3213 12.124 19.256C12.2267 19.1907 12.3387 19.158 12.46 19.158ZM17.6027 29.14C16.856 29.14 16.2027 28.9813 15.6427 28.664C15.0827 28.3467 14.644 27.9127 14.3267 27.362C14.0187 26.802 13.8647 26.158 13.8647 25.43C13.8647 24.618 14.0234 23.9273 14.3407 23.358C14.6674 22.7793 15.0874 22.3407 15.6007 22.042C16.1234 21.734 16.674 21.58 17.2527 21.58C17.682 21.58 18.0974 21.6593 18.4987 21.818C18.9 21.9767 19.2547 22.21 19.5627 22.518C19.8707 22.8167 20.118 23.1807 20.3047 23.61C20.4914 24.03 20.5894 24.5013 20.5987 25.024C20.5987 25.1733 20.5427 25.2993 20.4307 25.402C20.3187 25.5047 20.188 25.556 20.0387 25.556H14.5087L14.2567 24.59H19.6467L19.4227 24.786V24.478C19.3854 24.0953 19.2547 23.7687 19.0307 23.498C18.816 23.218 18.55 23.0033 18.2327 22.854C17.9247 22.7047 17.598 22.63 17.2527 22.63C16.9727 22.63 16.6927 22.6813 16.4127 22.784C16.142 22.8773 15.8947 23.036 15.6707 23.26C15.456 23.4747 15.2787 23.7547 15.1387 24.1C15.008 24.4453 14.9427 24.8607 14.9427 25.346C14.9427 25.8873 15.05 26.3633 15.2647 26.774C15.4887 27.1847 15.7967 27.5113 16.1887 27.754C16.5807 27.9873 17.038 28.104 17.5607 28.104C17.8874 28.104 18.172 28.062 18.4147 27.978C18.6574 27.894 18.8674 27.7913 19.0447 27.67C19.222 27.5393 19.3714 27.4087 19.4927 27.278C19.614 27.194 19.7307 27.152 19.8427 27.152C19.9827 27.152 20.0947 27.1987 20.1787 27.292C20.272 27.3853 20.3187 27.4973 20.3187 27.628C20.3187 27.7867 20.244 27.9267 20.0947 28.048C19.8334 28.3373 19.4787 28.594 19.0307 28.818C18.5827 29.0327 18.1067 29.14 17.6027 29.14ZM34.6776 21.636C34.8269 21.636 34.9529 21.6873 35.0556 21.79C35.1676 21.8927 35.2236 22.028 35.2236 22.196C35.2236 22.2333 35.2189 22.2753 35.2096 22.322C35.2096 22.3593 35.2002 22.3967 35.1816 22.434L33.0256 28.636C32.9789 28.7573 32.8996 28.8507 32.7876 28.916C32.6849 28.9813 32.5729 29.0093 32.4516 29C32.2369 28.9907 32.0736 28.8693 31.9616 28.636L30.1976 24.212L30.4776 24.254L28.8816 28.636C28.7789 28.8693 28.6156 28.9907 28.3916 29C28.2702 29.0093 28.1536 28.9813 28.0416 28.916C27.9296 28.8507 27.8549 28.7573 27.8176 28.636L25.6196 22.434C25.5916 22.35 25.5776 22.2707 25.5776 22.196C25.5776 22.0467 25.6289 21.916 25.7316 21.804C25.8342 21.692 25.9742 21.636 26.1516 21.636C26.2636 21.636 26.3662 21.664 26.4596 21.72C26.5529 21.776 26.6182 21.8647 26.6556 21.986L28.5456 27.502L28.2516 27.488L29.8896 23.288C29.9829 23.0547 30.1556 22.938 30.4076 22.938C30.5382 22.938 30.6409 22.9707 30.7156 23.036C30.7996 23.092 30.8602 23.176 30.8976 23.288L32.6056 27.488L32.2556 27.516L34.1456 21.986C34.2296 21.7527 34.4069 21.636 34.6776 21.636ZM37.8113 28.426C37.8113 28.5847 37.7553 28.72 37.6433 28.832C37.5406 28.944 37.4099 29 37.2513 29C37.0833 29 36.9479 28.944 36.8453 28.832C36.7426 28.72 36.6913 28.5847 36.6913 28.426V22.21C36.6913 22.0513 36.7426 21.9207 36.8453 21.818C36.9573 21.706 37.0926 21.65 37.2513 21.65C37.4099 21.65 37.5406 21.706 37.6433 21.818C37.7553 21.9207 37.8113 22.0513 37.8113 22.21V28.426ZM37.2513 20.712C37.0179 20.712 36.8453 20.6653 36.7333 20.572C36.6213 20.4787 36.5653 20.334 36.5653 20.138V19.942C36.5653 19.746 36.6259 19.6013 36.7473 19.508C36.8686 19.4147 37.0413 19.368 37.2653 19.368C37.4893 19.368 37.6573 19.4147 37.7693 19.508C37.8813 19.6013 37.9373 19.746 37.9373 19.942V20.138C37.9373 20.334 37.8766 20.4787 37.7553 20.572C37.6433 20.6653 37.4753 20.712 37.2513 20.712ZM41.0551 28.426C41.0551 28.5847 40.9991 28.72 40.8871 28.832C40.7751 28.944 40.6398 29 40.4811 29C40.3224 29 40.1918 28.944 40.0891 28.832C39.9864 28.72 39.9351 28.5847 39.9351 28.426V19.2C39.9351 19.0413 39.9864 18.9107 40.0891 18.808C40.2011 18.696 40.3364 18.64 40.4951 18.64C40.6631 18.64 40.7984 18.696 40.9011 18.808C41.0038 18.9107 41.0551 19.0413 41.0551 19.2V28.426ZM44.4594 28.426C44.4594 28.5847 44.4034 28.72 44.2914 28.832C44.1794 28.944 44.0441 29 43.8854 29C43.7267 29 43.5961 28.944 43.4934 28.832C43.3907 28.72 43.3394 28.5847 43.3394 28.426V19.2C43.3394 19.0413 43.3907 18.9107 43.4934 18.808C43.6054 18.696 43.7407 18.64 43.8994 18.64C44.0674 18.64 44.2027 18.696 44.3054 18.808C44.4081 18.9107 44.4594 19.0413 44.4594 19.2V28.426ZM50.0812 27.852C49.9972 27.7307 49.9598 27.6047 49.9692 27.474C49.9785 27.334 50.0578 27.2127 50.2072 27.11C50.3005 27.0447 50.4078 27.0167 50.5292 27.026C50.6598 27.0353 50.7765 27.096 50.8792 27.208C51.1405 27.516 51.4392 27.7633 51.7752 27.95C52.1112 28.1273 52.5218 28.216 53.0072 28.216C53.2312 28.2067 53.4552 28.1693 53.6792 28.104C53.9032 28.0387 54.0898 27.9267 54.2392 27.768C54.3978 27.6 54.4772 27.3807 54.4772 27.11C54.4772 26.8487 54.3978 26.6433 54.2392 26.494C54.0805 26.3353 53.8752 26.2093 53.6232 26.116C53.3712 26.0133 53.0958 25.9247 52.7972 25.85C52.4892 25.766 52.1858 25.6727 51.8872 25.57C51.5885 25.458 51.3178 25.3227 51.0752 25.164C50.8418 24.996 50.6505 24.7907 50.5012 24.548C50.3612 24.296 50.2912 23.9927 50.2912 23.638C50.2912 23.218 50.4032 22.854 50.6272 22.546C50.8605 22.238 51.1685 22 51.5512 21.832C51.9432 21.664 52.3678 21.58 52.8252 21.58C53.0865 21.58 53.3572 21.6127 53.6372 21.678C53.9265 21.734 54.2065 21.8367 54.4772 21.986C54.7478 22.126 54.9858 22.322 55.1912 22.574C55.2752 22.6673 55.3218 22.784 55.3312 22.924C55.3405 23.064 55.2798 23.19 55.1492 23.302C55.0465 23.3767 54.9298 23.4093 54.7992 23.4C54.6778 23.3907 54.5752 23.344 54.4912 23.26C54.2952 23.0267 54.0478 22.8493 53.7492 22.728C53.4598 22.5973 53.1378 22.532 52.7832 22.532C52.5592 22.532 52.3398 22.5647 52.1252 22.63C51.9105 22.6953 51.7285 22.8073 51.5792 22.966C51.4392 23.1153 51.3692 23.3253 51.3692 23.596C51.3785 23.848 51.4625 24.0533 51.6212 24.212C51.7798 24.3707 51.9945 24.5013 52.2652 24.604C52.5358 24.6973 52.8345 24.7907 53.1612 24.884C53.4598 24.9587 53.7445 25.0473 54.0152 25.15C54.2952 25.2433 54.5472 25.3693 54.7712 25.528C54.9952 25.6867 55.1725 25.892 55.3032 26.144C55.4338 26.3867 55.4992 26.6947 55.4992 27.068C55.4992 27.4973 55.3778 27.8707 55.1352 28.188C54.8925 28.496 54.5705 28.734 54.1692 28.902C53.7772 29.0607 53.3525 29.14 52.8952 29.14C52.3818 29.14 51.8732 29.042 51.3692 28.846C50.8745 28.65 50.4452 28.3187 50.0812 27.852ZM60.464 29.14C59.7174 29.14 59.064 28.9813 58.504 28.664C57.944 28.3467 57.5054 27.9127 57.188 27.362C56.88 26.802 56.726 26.158 56.726 25.43C56.726 24.618 56.8847 23.9273 57.202 23.358C57.5287 22.7793 57.9487 22.3407 58.462 22.042C58.9847 21.734 59.5354 21.58 60.114 21.58C60.5434 21.58 60.9587 21.6593 61.36 21.818C61.7614 21.9767 62.116 22.21 62.424 22.518C62.732 22.8167 62.9794 23.1807 63.166 23.61C63.3527 24.03 63.4507 24.5013 63.46 25.024C63.46 25.1733 63.404 25.2993 63.292 25.402C63.18 25.5047 63.0494 25.556 62.9 25.556H57.37L57.118 24.59H62.508L62.284 24.786V24.478C62.2467 24.0953 62.116 23.7687 61.892 23.498C61.6774 23.218 61.4114 23.0033 61.094 22.854C60.786 22.7047 60.4594 22.63 60.114 22.63C59.834 22.63 59.554 22.6813 59.274 22.784C59.0034 22.8773 58.756 23.036 58.532 23.26C58.3174 23.4747 58.14 23.7547 58 24.1C57.8694 24.4453 57.804 24.8607 57.804 25.346C57.804 25.8873 57.9114 26.3633 58.126 26.774C58.35 27.1847 58.658 27.5113 59.05 27.754C59.442 27.9873 59.8994 28.104 60.422 28.104C60.7487 28.104 61.0334 28.062 61.276 27.978C61.5187 27.894 61.7287 27.7913 61.906 27.67C62.0834 27.5393 62.2327 27.4087 62.354 27.278C62.4754 27.194 62.592 27.152 62.704 27.152C62.844 27.152 62.956 27.1987 63.04 27.292C63.1334 27.3853 63.18 27.4973 63.18 27.628C63.18 27.7867 63.1054 27.9267 62.956 28.048C62.6947 28.3373 62.34 28.594 61.892 28.818C61.444 29.0327 60.968 29.14 60.464 29.14ZM68.7414 21.58C69.3761 21.58 69.8754 21.7107 70.2394 21.972C70.6034 22.2333 70.8601 22.5833 71.0094 23.022C71.1681 23.4607 71.2474 23.9507 71.2474 24.492V28.426C71.2474 28.5847 71.1914 28.72 71.0794 28.832C70.9768 28.944 70.8461 29 70.6874 29C70.5288 29 70.3934 28.944 70.2814 28.832C70.1788 28.72 70.1274 28.5847 70.1274 28.426V24.52C70.1274 24.1653 70.0714 23.848 69.9594 23.568C69.8568 23.2787 69.6794 23.05 69.4274 22.882C69.1848 22.7047 68.8488 22.616 68.4194 22.616C68.0274 22.616 67.6681 22.7047 67.3414 22.882C67.0148 23.05 66.7534 23.2787 66.5574 23.568C66.3614 23.848 66.2634 24.1653 66.2634 24.52V28.426C66.2634 28.5847 66.2074 28.72 66.0954 28.832C65.9928 28.944 65.8621 29 65.7034 29C65.5448 29 65.4094 28.944 65.2974 28.832C65.1948 28.72 65.1434 28.5847 65.1434 28.426V22.322C65.1434 22.1633 65.1948 22.0327 65.2974 21.93C65.4094 21.818 65.5448 21.762 65.7034 21.762C65.8714 21.762 66.0068 21.818 66.1094 21.93C66.2121 22.0327 66.2634 22.1633 66.2634 22.322V23.316L65.9834 23.624C66.0301 23.3813 66.1374 23.1387 66.3054 22.896C66.4734 22.644 66.6834 22.42 66.9354 22.224C67.1874 22.028 67.4674 21.874 67.7754 21.762C68.0834 21.6407 68.4054 21.58 68.7414 21.58ZM79.2832 18.64C79.4419 18.64 79.5725 18.696 79.6752 18.808C79.7872 18.9107 79.8432 19.0413 79.8432 19.2V28.426C79.8432 28.5847 79.7872 28.72 79.6752 28.832C79.5725 28.944 79.4419 29 79.2832 29C79.1152 29 78.9799 28.944 78.8772 28.832C78.7745 28.72 78.7232 28.5847 78.7232 28.426V27.096L78.9892 26.998C78.9892 27.222 78.9192 27.46 78.7792 27.712C78.6392 27.9547 78.4479 28.1833 78.2052 28.398C77.9625 28.6127 77.6732 28.79 77.3372 28.93C77.0105 29.07 76.6559 29.14 76.2732 29.14C75.6479 29.14 75.0785 28.9767 74.5652 28.65C74.0612 28.3233 73.6599 27.8753 73.3612 27.306C73.0719 26.7367 72.9272 26.088 72.9272 25.36C72.9272 24.6227 73.0719 23.9693 73.3612 23.4C73.6599 22.8307 74.0612 22.3873 74.5652 22.07C75.0692 21.7433 75.6292 21.58 76.2452 21.58C76.6372 21.58 77.0059 21.6453 77.3512 21.776C77.6965 21.9067 77.9952 22.084 78.2472 22.308C78.5085 22.532 78.7139 22.7793 78.8632 23.05C79.0125 23.3207 79.0872 23.5913 79.0872 23.862L78.7232 23.778V19.2C78.7232 19.0413 78.7745 18.9107 78.8772 18.808C78.9799 18.696 79.1152 18.64 79.2832 18.64ZM76.3992 28.104C76.8659 28.104 77.2765 27.9873 77.6312 27.754C77.9952 27.5113 78.2752 27.1847 78.4712 26.774C78.6765 26.354 78.7792 25.8827 78.7792 25.36C78.7792 24.828 78.6765 24.3567 78.4712 23.946C78.2752 23.5353 77.9952 23.2133 77.6312 22.98C77.2765 22.7373 76.8659 22.616 76.3992 22.616C75.9419 22.616 75.5312 22.7373 75.1672 22.98C74.8125 23.2133 74.5325 23.5353 74.3272 23.946C74.1219 24.3567 74.0192 24.828 74.0192 25.36C74.0192 25.8733 74.1219 26.34 74.3272 26.76C74.5325 27.1707 74.8125 27.4973 75.1672 27.74C75.5312 27.9827 75.9419 28.104 76.3992 28.104ZM91.1923 21.65C91.3509 21.65 91.4816 21.706 91.5843 21.818C91.6963 21.9207 91.7523 22.0513 91.7523 22.21V28.314C91.7523 29.098 91.5983 29.7467 91.2903 30.26C90.9823 30.7827 90.5669 31.17 90.0443 31.422C89.5309 31.674 88.9476 31.8 88.2943 31.8C87.9303 31.8 87.5803 31.7627 87.2443 31.688C86.9083 31.6133 86.6329 31.5153 86.4183 31.394C86.2409 31.31 86.1149 31.2027 86.0403 31.072C85.9749 30.9507 85.9656 30.82 86.0123 30.68C86.0776 30.512 86.1709 30.3953 86.2923 30.33C86.4229 30.2647 86.5583 30.2647 86.6983 30.33C86.8476 30.3953 87.0623 30.484 87.3423 30.596C87.6316 30.7173 87.9536 30.778 88.3083 30.778C88.7936 30.778 89.2089 30.6847 89.5543 30.498C89.8996 30.3113 90.1656 30.036 90.3523 29.672C90.5389 29.3173 90.6323 28.874 90.6323 28.342V27.348L90.8003 27.698C90.6509 27.9873 90.4503 28.2393 90.1983 28.454C89.9463 28.6687 89.6569 28.8367 89.3303 28.958C89.0036 29.0793 88.6443 29.14 88.2523 29.14C87.7203 29.14 87.2676 29.028 86.8943 28.804C86.5303 28.5707 86.2503 28.2533 86.0543 27.852C85.8676 27.4413 85.7743 26.97 85.7743 26.438V22.21C85.7743 22.0513 85.8256 21.9207 85.9283 21.818C86.0403 21.706 86.1756 21.65 86.3343 21.65C86.5023 21.65 86.6376 21.706 86.7403 21.818C86.8429 21.9207 86.8943 22.0513 86.8943 22.21V26.186C86.8943 26.8207 87.0343 27.3013 87.3143 27.628C87.5943 27.9453 88.0283 28.104 88.6163 28.104C88.9896 28.104 89.3256 28.02 89.6243 27.852C89.9323 27.684 90.1749 27.4553 90.3523 27.166C90.5389 26.8673 90.6323 26.5407 90.6323 26.186V22.21C90.6323 22.0513 90.6836 21.9207 90.7863 21.818C90.8889 21.706 91.0243 21.65 91.1923 21.65ZM100.633 25.36C100.633 26.088 100.469 26.7367 100.143 27.306C99.8253 27.8753 99.3913 28.3233 98.8407 28.65C98.2993 28.9767 97.688 29.14 97.0067 29.14C96.3253 29.14 95.7093 28.9767 95.1587 28.65C94.608 28.3233 94.1693 27.8753 93.8427 27.306C93.5253 26.7367 93.3667 26.088 93.3667 25.36C93.3667 24.632 93.5253 23.9833 93.8427 23.414C94.1693 22.8447 94.608 22.3967 95.1587 22.07C95.7093 21.7433 96.3253 21.58 97.0067 21.58C97.688 21.58 98.2993 21.7433 98.8407 22.07C99.3913 22.3967 99.8253 22.8447 100.143 23.414C100.469 23.9833 100.633 24.632 100.633 25.36ZM99.5127 25.36C99.5127 24.8187 99.4007 24.3427 99.1767 23.932C98.962 23.5213 98.6633 23.1993 98.2807 22.966C97.9073 22.7327 97.4827 22.616 97.0067 22.616C96.5307 22.616 96.1013 22.7327 95.7187 22.966C95.3453 23.1993 95.0467 23.5213 94.8227 23.932C94.5987 24.3427 94.4867 24.8187 94.4867 25.36C94.4867 25.892 94.5987 26.3633 94.8227 26.774C95.0467 27.1847 95.3453 27.5113 95.7187 27.754C96.1013 27.9873 96.5307 28.104 97.0067 28.104C97.4827 28.104 97.9073 27.9873 98.2807 27.754C98.6633 27.5113 98.962 27.1847 99.1767 26.774C99.4007 26.3633 99.5127 25.892 99.5127 25.36ZM107.735 21.762C107.903 21.762 108.039 21.818 108.141 21.93C108.244 22.0327 108.295 22.1633 108.295 22.322V26.144C108.295 27.0867 108.029 27.8193 107.497 28.342C106.975 28.8553 106.242 29.112 105.299 29.112C104.366 29.112 103.633 28.8553 103.101 28.342C102.579 27.8193 102.317 27.0867 102.317 26.144V22.322C102.317 22.1633 102.369 22.0327 102.471 21.93C102.583 21.818 102.719 21.762 102.877 21.762C103.045 21.762 103.181 21.818 103.283 21.93C103.386 22.0327 103.437 22.1633 103.437 22.322V26.144C103.437 26.7787 103.601 27.2593 103.927 27.586C104.254 27.9127 104.711 28.076 105.299 28.076C105.906 28.076 106.368 27.9127 106.685 27.586C107.012 27.2593 107.175 26.7787 107.175 26.144V22.322C107.175 22.1633 107.227 22.0327 107.329 21.93C107.441 21.818 107.577 21.762 107.735 21.762ZM120.189 21.692C120.348 21.692 120.479 21.748 120.581 21.86C120.693 21.9627 120.749 22.0933 120.749 22.252V28.426C120.749 28.5847 120.693 28.72 120.581 28.832C120.479 28.944 120.348 29 120.189 29C120.021 29 119.886 28.944 119.783 28.832C119.681 28.72 119.629 28.5847 119.629 28.426V27.096L119.895 27.068C119.895 27.2733 119.825 27.4973 119.685 27.74C119.545 27.9827 119.354 28.2113 119.111 28.426C118.869 28.6313 118.579 28.804 118.243 28.944C117.917 29.0747 117.562 29.14 117.179 29.14C116.545 29.14 115.975 28.9767 115.471 28.65C114.967 28.314 114.566 27.8613 114.267 27.292C113.978 26.7227 113.833 26.074 113.833 25.346C113.833 24.6087 113.978 23.96 114.267 23.4C114.566 22.8307 114.967 22.3873 115.471 22.07C115.975 21.7433 116.535 21.58 117.151 21.58C117.553 21.58 117.926 21.6453 118.271 21.776C118.617 21.9067 118.915 22.084 119.167 22.308C119.429 22.532 119.629 22.7793 119.769 23.05C119.919 23.3207 119.993 23.5913 119.993 23.862L119.629 23.778V22.252C119.629 22.0933 119.681 21.9627 119.783 21.86C119.886 21.748 120.021 21.692 120.189 21.692ZM117.305 28.104C117.772 28.104 118.183 27.9827 118.537 27.74C118.901 27.4973 119.181 27.1707 119.377 26.76C119.583 26.34 119.685 25.8687 119.685 25.346C119.685 24.8327 119.583 24.3707 119.377 23.96C119.181 23.54 118.901 23.2133 118.537 22.98C118.183 22.7373 117.772 22.616 117.305 22.616C116.848 22.616 116.437 22.7327 116.073 22.966C115.719 23.1993 115.439 23.5213 115.233 23.932C115.028 24.3427 114.925 24.814 114.925 25.346C114.925 25.8687 115.023 26.34 115.219 26.76C115.425 27.1707 115.705 27.4973 116.059 27.74C116.423 27.9827 116.839 28.104 117.305 28.104ZM130.251 21.65C130.885 21.65 131.455 21.8087 131.959 22.126C132.463 22.4433 132.859 22.882 133.149 23.442C133.447 24.002 133.597 24.646 133.597 25.374C133.597 26.0927 133.447 26.7367 133.149 27.306C132.859 27.866 132.463 28.3093 131.959 28.636C131.464 28.9533 130.904 29.112 130.279 29.112C129.933 29.112 129.607 29.0607 129.299 28.958C129 28.846 128.725 28.706 128.473 28.538C128.23 28.3607 128.025 28.1647 127.857 27.95C127.689 27.726 127.567 27.5067 127.493 27.292L127.801 27.096V31.226C127.801 31.3847 127.749 31.52 127.647 31.632C127.544 31.744 127.409 31.8 127.241 31.8C127.082 31.8 126.947 31.744 126.835 31.632C126.732 31.5293 126.681 31.394 126.681 31.226V22.28C126.681 22.1213 126.732 21.9907 126.835 21.888C126.947 21.776 127.082 21.72 127.241 21.72C127.409 21.72 127.544 21.776 127.647 21.888C127.749 21.9907 127.801 22.1213 127.801 22.28V23.526L127.591 23.414C127.656 23.1807 127.768 22.9567 127.927 22.742C128.095 22.5273 128.295 22.3407 128.529 22.182C128.771 22.014 129.037 21.8833 129.327 21.79C129.625 21.6967 129.933 21.65 130.251 21.65ZM130.125 22.686C129.658 22.686 129.243 22.8027 128.879 23.036C128.524 23.2693 128.244 23.5867 128.039 23.988C127.843 24.3893 127.745 24.8513 127.745 25.374C127.745 25.8873 127.843 26.3493 128.039 26.76C128.244 27.1707 128.524 27.4927 128.879 27.726C129.243 27.9593 129.658 28.076 130.125 28.076C130.591 28.076 131.002 27.9593 131.357 27.726C131.711 27.4927 131.991 27.1707 132.197 26.76C132.402 26.3493 132.505 25.8873 132.505 25.374C132.505 24.8513 132.402 24.3893 132.197 23.988C131.991 23.5867 131.711 23.2693 131.357 23.036C131.002 22.8027 130.591 22.686 130.125 22.686ZM141.244 21.692C141.403 21.692 141.533 21.748 141.636 21.86C141.748 21.9627 141.804 22.0933 141.804 22.252V28.426C141.804 28.5847 141.748 28.72 141.636 28.832C141.533 28.944 141.403 29 141.244 29C141.076 29 140.941 28.944 140.838 28.832C140.735 28.72 140.684 28.5847 140.684 28.426V27.096L140.95 27.068C140.95 27.2733 140.88 27.4973 140.74 27.74C140.6 27.9827 140.409 28.2113 140.166 28.426C139.923 28.6313 139.634 28.804 139.298 28.944C138.971 29.0747 138.617 29.14 138.234 29.14C137.599 29.14 137.03 28.9767 136.526 28.65C136.022 28.314 135.621 27.8613 135.322 27.292C135.033 26.7227 134.888 26.074 134.888 25.346C134.888 24.6087 135.033 23.96 135.322 23.4C135.621 22.8307 136.022 22.3873 136.526 22.07C137.03 21.7433 137.59 21.58 138.206 21.58C138.607 21.58 138.981 21.6453 139.326 21.776C139.671 21.9067 139.97 22.084 140.222 22.308C140.483 22.532 140.684 22.7793 140.824 23.05C140.973 23.3207 141.048 23.5913 141.048 23.862L140.684 23.778V22.252C140.684 22.0933 140.735 21.9627 140.838 21.86C140.941 21.748 141.076 21.692 141.244 21.692ZM138.36 28.104C138.827 28.104 139.237 27.9827 139.592 27.74C139.956 27.4973 140.236 27.1707 140.432 26.76C140.637 26.34 140.74 25.8687 140.74 25.346C140.74 24.8327 140.637 24.3707 140.432 23.96C140.236 23.54 139.956 23.2133 139.592 22.98C139.237 22.7373 138.827 22.616 138.36 22.616C137.903 22.616 137.492 22.7327 137.128 22.966C136.773 23.1993 136.493 23.5213 136.288 23.932C136.083 24.3427 135.98 24.814 135.98 25.346C135.98 25.8687 136.078 26.34 136.274 26.76C136.479 27.1707 136.759 27.4973 137.114 27.74C137.478 27.9827 137.893 28.104 138.36 28.104ZM143.474 27.852C143.39 27.7307 143.352 27.6047 143.362 27.474C143.371 27.334 143.45 27.2127 143.6 27.11C143.693 27.0447 143.8 27.0167 143.922 27.026C144.052 27.0353 144.169 27.096 144.272 27.208C144.533 27.516 144.832 27.7633 145.168 27.95C145.504 28.1273 145.914 28.216 146.4 28.216C146.624 28.2067 146.848 28.1693 147.072 28.104C147.296 28.0387 147.482 27.9267 147.632 27.768C147.79 27.6 147.87 27.3807 147.87 27.11C147.87 26.8487 147.79 26.6433 147.632 26.494C147.473 26.3353 147.268 26.2093 147.016 26.116C146.764 26.0133 146.488 25.9247 146.19 25.85C145.882 25.766 145.578 25.6727 145.28 25.57C144.981 25.458 144.71 25.3227 144.468 25.164C144.234 24.996 144.043 24.7907 143.894 24.548C143.754 24.296 143.684 23.9927 143.684 23.638C143.684 23.218 143.796 22.854 144.02 22.546C144.253 22.238 144.561 22 144.944 21.832C145.336 21.664 145.76 21.58 146.218 21.58C146.479 21.58 146.75 21.6127 147.03 21.678C147.319 21.734 147.599 21.8367 147.87 21.986C148.14 22.126 148.378 22.322 148.584 22.574C148.668 22.6673 148.714 22.784 148.724 22.924C148.733 23.064 148.672 23.19 148.542 23.302C148.439 23.3767 148.322 23.4093 148.192 23.4C148.07 23.3907 147.968 23.344 147.884 23.26C147.688 23.0267 147.44 22.8493 147.142 22.728C146.852 22.5973 146.53 22.532 146.176 22.532C145.952 22.532 145.732 22.5647 145.518 22.63C145.303 22.6953 145.121 22.8073 144.972 22.966C144.832 23.1153 144.762 23.3253 144.762 23.596C144.771 23.848 144.855 24.0533 145.014 24.212C145.172 24.3707 145.387 24.5013 145.658 24.604C145.928 24.6973 146.227 24.7907 146.554 24.884C146.852 24.9587 147.137 25.0473 147.408 25.15C147.688 25.2433 147.94 25.3693 148.164 25.528C148.388 25.6867 148.565 25.892 148.696 26.144C148.826 26.3867 148.892 26.6947 148.892 27.068C148.892 27.4973 148.77 27.8707 148.528 28.188C148.285 28.496 147.963 28.734 147.562 28.902C147.17 29.0607 146.745 29.14 146.288 29.14C145.774 29.14 145.266 29.042 144.762 28.846C144.267 28.65 143.838 28.3187 143.474 27.852ZM150.105 27.852C150.021 27.7307 149.983 27.6047 149.993 27.474C150.002 27.334 150.081 27.2127 150.231 27.11C150.324 27.0447 150.431 27.0167 150.553 27.026C150.683 27.0353 150.8 27.096 150.903 27.208C151.164 27.516 151.463 27.7633 151.799 27.95C152.135 28.1273 152.545 28.216 153.031 28.216C153.255 28.2067 153.479 28.1693 153.703 28.104C153.927 28.0387 154.113 27.9267 154.263 27.768C154.421 27.6 154.501 27.3807 154.501 27.11C154.501 26.8487 154.421 26.6433 154.263 26.494C154.104 26.3353 153.899 26.2093 153.647 26.116C153.395 26.0133 153.119 25.9247 152.821 25.85C152.513 25.766 152.209 25.6727 151.911 25.57C151.612 25.458 151.341 25.3227 151.099 25.164C150.865 24.996 150.674 24.7907 150.525 24.548C150.385 24.296 150.315 23.9927 150.315 23.638C150.315 23.218 150.427 22.854 150.651 22.546C150.884 22.238 151.192 22 151.575 21.832C151.967 21.664 152.391 21.58 152.849 21.58C153.11 21.58 153.381 21.6127 153.661 21.678C153.95 21.734 154.23 21.8367 154.501 21.986C154.771 22.126 155.009 22.322 155.215 22.574C155.299 22.6673 155.345 22.784 155.355 22.924C155.364 23.064 155.303 23.19 155.173 23.302C155.07 23.3767 154.953 23.4093 154.823 23.4C154.701 23.3907 154.599 23.344 154.515 23.26C154.319 23.0267 154.071 22.8493 153.773 22.728C153.483 22.5973 153.161 22.532 152.807 22.532C152.583 22.532 152.363 22.5647 152.149 22.63C151.934 22.6953 151.752 22.8073 151.603 22.966C151.463 23.1153 151.393 23.3253 151.393 23.596C151.402 23.848 151.486 24.0533 151.645 24.212C151.803 24.3707 152.018 24.5013 152.289 24.604C152.559 24.6973 152.858 24.7907 153.185 24.884C153.483 24.9587 153.768 25.0473 154.039 25.15C154.319 25.2433 154.571 25.3693 154.795 25.528C155.019 25.6867 155.196 25.892 155.327 26.144C155.457 26.3867 155.523 26.6947 155.523 27.068C155.523 27.4973 155.401 27.8707 155.159 28.188C154.916 28.496 154.594 28.734 154.193 28.902C153.801 29.0607 153.376 29.14 152.919 29.14C152.405 29.14 151.897 29.042 151.393 28.846C150.898 28.65 150.469 28.3187 150.105 27.852ZM165.681 21.636C165.831 21.636 165.957 21.6873 166.059 21.79C166.171 21.8927 166.227 22.028 166.227 22.196C166.227 22.2333 166.223 22.2753 166.213 22.322C166.213 22.3593 166.204 22.3967 166.185 22.434L164.029 28.636C163.983 28.7573 163.903 28.8507 163.791 28.916C163.689 28.9813 163.577 29.0093 163.455 29C163.241 28.9907 163.077 28.8693 162.965 28.636L161.201 24.212L161.481 24.254L159.885 28.636C159.783 28.8693 159.619 28.9907 159.395 29C159.274 29.0093 159.157 28.9813 159.045 28.916C158.933 28.8507 158.859 28.7573 158.821 28.636L156.623 22.434C156.595 22.35 156.581 22.2707 156.581 22.196C156.581 22.0467 156.633 21.916 156.735 21.804C156.838 21.692 156.978 21.636 157.155 21.636C157.267 21.636 157.37 21.664 157.463 21.72C157.557 21.776 157.622 21.8647 157.659 21.986L159.549 27.502L159.255 27.488L160.893 23.288C160.987 23.0547 161.159 22.938 161.411 22.938C161.542 22.938 161.645 22.9707 161.719 23.036C161.803 23.092 161.864 23.176 161.901 23.288L163.609 27.488L163.259 27.516L165.149 21.986C165.233 21.7527 165.411 21.636 165.681 21.636ZM174.611 25.36C174.611 26.088 174.448 26.7367 174.121 27.306C173.804 27.8753 173.37 28.3233 172.819 28.65C172.278 28.9767 171.667 29.14 170.985 29.14C170.304 29.14 169.688 28.9767 169.137 28.65C168.587 28.3233 168.148 27.8753 167.821 27.306C167.504 26.7367 167.345 26.088 167.345 25.36C167.345 24.632 167.504 23.9833 167.821 23.414C168.148 22.8447 168.587 22.3967 169.137 22.07C169.688 21.7433 170.304 21.58 170.985 21.58C171.667 21.58 172.278 21.7433 172.819 22.07C173.37 22.3967 173.804 22.8447 174.121 23.414C174.448 23.9833 174.611 24.632 174.611 25.36ZM173.491 25.36C173.491 24.8187 173.379 24.3427 173.155 23.932C172.941 23.5213 172.642 23.1993 172.259 22.966C171.886 22.7327 171.461 22.616 170.985 22.616C170.509 22.616 170.08 22.7327 169.697 22.966C169.324 23.1993 169.025 23.5213 168.801 23.932C168.577 24.3427 168.465 24.8187 168.465 25.36C168.465 25.892 168.577 26.3633 168.801 26.774C169.025 27.1847 169.324 27.5113 169.697 27.754C170.08 27.9873 170.509 28.104 170.985 28.104C171.461 28.104 171.886 27.9873 172.259 27.754C172.642 27.5113 172.941 27.1847 173.155 26.774C173.379 26.3633 173.491 25.892 173.491 25.36ZM176.856 29C176.697 29 176.562 28.944 176.45 28.832C176.347 28.72 176.296 28.5847 176.296 28.426V22.322C176.296 22.1633 176.347 22.0327 176.45 21.93C176.562 21.818 176.697 21.762 176.856 21.762C177.024 21.762 177.159 21.818 177.262 21.93C177.364 22.0327 177.416 22.1633 177.416 22.322V24.17L177.248 23.876C177.304 23.5867 177.402 23.3067 177.542 23.036C177.691 22.756 177.878 22.5087 178.102 22.294C178.326 22.07 178.582 21.8973 178.872 21.776C179.161 21.6453 179.478 21.58 179.824 21.58C180.029 21.58 180.216 21.6313 180.384 21.734C180.561 21.8273 180.65 21.9627 180.65 22.14C180.65 22.336 180.598 22.4807 180.496 22.574C180.393 22.6673 180.276 22.714 180.146 22.714C180.024 22.714 179.908 22.6907 179.796 22.644C179.684 22.588 179.544 22.56 179.376 22.56C179.142 22.56 178.909 22.6253 178.676 22.756C178.452 22.8773 178.242 23.0547 178.046 23.288C177.859 23.5213 177.705 23.7873 177.584 24.086C177.472 24.3753 177.416 24.688 177.416 25.024V28.426C177.416 28.5847 177.36 28.72 177.248 28.832C177.145 28.944 177.014 29 176.856 29ZM187.564 18.64C187.723 18.64 187.854 18.696 187.956 18.808C188.068 18.9107 188.124 19.0413 188.124 19.2V28.426C188.124 28.5847 188.068 28.72 187.956 28.832C187.854 28.944 187.723 29 187.564 29C187.396 29 187.261 28.944 187.158 28.832C187.056 28.72 187.004 28.5847 187.004 28.426V27.096L187.27 26.998C187.27 27.222 187.2 27.46 187.06 27.712C186.92 27.9547 186.729 28.1833 186.486 28.398C186.244 28.6127 185.954 28.79 185.618 28.93C185.292 29.07 184.937 29.14 184.554 29.14C183.929 29.14 183.36 28.9767 182.846 28.65C182.342 28.3233 181.941 27.8753 181.642 27.306C181.353 26.7367 181.208 26.088 181.208 25.36C181.208 24.6227 181.353 23.9693 181.642 23.4C181.941 22.8307 182.342 22.3873 182.846 22.07C183.35 21.7433 183.91 21.58 184.526 21.58C184.918 21.58 185.287 21.6453 185.632 21.776C185.978 21.9067 186.276 22.084 186.528 22.308C186.79 22.532 186.995 22.7793 187.144 23.05C187.294 23.3207 187.368 23.5913 187.368 23.862L187.004 23.778V19.2C187.004 19.0413 187.056 18.9107 187.158 18.808C187.261 18.696 187.396 18.64 187.564 18.64ZM184.68 28.104C185.147 28.104 185.558 27.9873 185.912 27.754C186.276 27.5113 186.556 27.1847 186.752 26.774C186.958 26.354 187.06 25.8827 187.06 25.36C187.06 24.828 186.958 24.3567 186.752 23.946C186.556 23.5353 186.276 23.2133 185.912 22.98C185.558 22.7373 185.147 22.616 184.68 22.616C184.223 22.616 183.812 22.7373 183.448 22.98C183.094 23.2133 182.814 23.5353 182.608 23.946C182.403 24.3567 182.3 24.828 182.3 25.36C182.3 25.8733 182.403 26.34 182.608 26.76C182.814 27.1707 183.094 27.4973 183.448 27.74C183.812 27.9827 184.223 28.104 184.68 28.104ZM194.616 29C194.457 29 194.322 28.944 194.21 28.832C194.107 28.72 194.056 28.5847 194.056 28.426V22.322C194.056 22.1633 194.107 22.0327 194.21 21.93C194.322 21.818 194.457 21.762 194.616 21.762C194.784 21.762 194.919 21.818 195.022 21.93C195.124 22.0327 195.176 22.1633 195.176 22.322V24.17L195.008 23.876C195.064 23.5867 195.162 23.3067 195.302 23.036C195.451 22.756 195.638 22.5087 195.862 22.294C196.086 22.07 196.342 21.8973 196.632 21.776C196.921 21.6453 197.238 21.58 197.584 21.58C197.789 21.58 197.976 21.6313 198.144 21.734C198.321 21.8273 198.41 21.9627 198.41 22.14C198.41 22.336 198.358 22.4807 198.256 22.574C198.153 22.6673 198.036 22.714 197.906 22.714C197.784 22.714 197.668 22.6907 197.556 22.644C197.444 22.588 197.304 22.56 197.136 22.56C196.902 22.56 196.669 22.6253 196.436 22.756C196.212 22.8773 196.002 23.0547 195.806 23.288C195.619 23.5213 195.465 23.7873 195.344 24.086C195.232 24.3753 195.176 24.688 195.176 25.024V28.426C195.176 28.5847 195.12 28.72 195.008 28.832C194.905 28.944 194.774 29 194.616 29ZM202.706 29.14C201.96 29.14 201.306 28.9813 200.746 28.664C200.186 28.3467 199.748 27.9127 199.43 27.362C199.122 26.802 198.968 26.158 198.968 25.43C198.968 24.618 199.127 23.9273 199.444 23.358C199.771 22.7793 200.191 22.3407 200.704 22.042C201.227 21.734 201.778 21.58 202.356 21.58C202.786 21.58 203.201 21.6593 203.602 21.818C204.004 21.9767 204.358 22.21 204.666 22.518C204.974 22.8167 205.222 23.1807 205.408 23.61C205.595 24.03 205.693 24.5013 205.702 25.024C205.702 25.1733 205.646 25.2993 205.534 25.402C205.422 25.5047 205.292 25.556 205.142 25.556H199.612L199.36 24.59H204.75L204.526 24.786V24.478C204.489 24.0953 204.358 23.7687 204.134 23.498C203.92 23.218 203.654 23.0033 203.336 22.854C203.028 22.7047 202.702 22.63 202.356 22.63C202.076 22.63 201.796 22.6813 201.516 22.784C201.246 22.8773 200.998 23.036 200.774 23.26C200.56 23.4747 200.382 23.7547 200.242 24.1C200.112 24.4453 200.046 24.8607 200.046 25.346C200.046 25.8873 200.154 26.3633 200.368 26.774C200.592 27.1847 200.9 27.5113 201.292 27.754C201.684 27.9873 202.142 28.104 202.664 28.104C202.991 28.104 203.276 28.062 203.518 27.978C203.761 27.894 203.971 27.7913 204.148 27.67C204.326 27.5393 204.475 27.4087 204.596 27.278C204.718 27.194 204.834 27.152 204.946 27.152C205.086 27.152 205.198 27.1987 205.282 27.292C205.376 27.3853 205.422 27.4973 205.422 27.628C205.422 27.7867 205.348 27.9267 205.198 28.048C204.937 28.3373 204.582 28.594 204.134 28.818C203.686 29.0327 203.21 29.14 202.706 29.14ZM206.98 27.852C206.896 27.7307 206.858 27.6047 206.868 27.474C206.877 27.334 206.956 27.2127 207.106 27.11C207.199 27.0447 207.306 27.0167 207.428 27.026C207.558 27.0353 207.675 27.096 207.778 27.208C208.039 27.516 208.338 27.7633 208.674 27.95C209.01 28.1273 209.42 28.216 209.906 28.216C210.13 28.2067 210.354 28.1693 210.578 28.104C210.802 28.0387 210.988 27.9267 211.138 27.768C211.296 27.6 211.376 27.3807 211.376 27.11C211.376 26.8487 211.296 26.6433 211.138 26.494C210.979 26.3353 210.774 26.2093 210.522 26.116C210.27 26.0133 209.994 25.9247 209.696 25.85C209.388 25.766 209.084 25.6727 208.786 25.57C208.487 25.458 208.216 25.3227 207.974 25.164C207.74 24.996 207.549 24.7907 207.4 24.548C207.26 24.296 207.19 23.9927 207.19 23.638C207.19 23.218 207.302 22.854 207.526 22.546C207.759 22.238 208.067 22 208.45 21.832C208.842 21.664 209.266 21.58 209.724 21.58C209.985 21.58 210.256 21.6127 210.536 21.678C210.825 21.734 211.105 21.8367 211.376 21.986C211.646 22.126 211.884 22.322 212.09 22.574C212.174 22.6673 212.22 22.784 212.23 22.924C212.239 23.064 212.178 23.19 212.048 23.302C211.945 23.3767 211.828 23.4093 211.698 23.4C211.576 23.3907 211.474 23.344 211.39 23.26C211.194 23.0267 210.946 22.8493 210.648 22.728C210.358 22.5973 210.036 22.532 209.682 22.532C209.458 22.532 209.238 22.5647 209.024 22.63C208.809 22.6953 208.627 22.8073 208.478 22.966C208.338 23.1153 208.268 23.3253 208.268 23.596C208.277 23.848 208.361 24.0533 208.52 24.212C208.678 24.3707 208.893 24.5013 209.164 24.604C209.434 24.6973 209.733 24.7907 210.06 24.884C210.358 24.9587 210.643 25.0473 210.914 25.15C211.194 25.2433 211.446 25.3693 211.67 25.528C211.894 25.6867 212.071 25.892 212.202 26.144C212.332 26.3867 212.398 26.6947 212.398 27.068C212.398 27.4973 212.276 27.8707 212.034 28.188C211.791 28.496 211.469 28.734 211.068 28.902C210.676 29.0607 210.251 29.14 209.794 29.14C209.28 29.14 208.772 29.042 208.268 28.846C207.773 28.65 207.344 28.3187 206.98 27.852ZM217.362 29.14C216.616 29.14 215.962 28.9813 215.402 28.664C214.842 28.3467 214.404 27.9127 214.086 27.362C213.778 26.802 213.624 26.158 213.624 25.43C213.624 24.618 213.783 23.9273 214.1 23.358C214.427 22.7793 214.847 22.3407 215.36 22.042C215.883 21.734 216.434 21.58 217.012 21.58C217.442 21.58 217.857 21.6593 218.258 21.818C218.66 21.9767 219.014 22.21 219.322 22.518C219.63 22.8167 219.878 23.1807 220.064 23.61C220.251 24.03 220.349 24.5013 220.358 25.024C220.358 25.1733 220.302 25.2993 220.19 25.402C220.078 25.5047 219.948 25.556 219.798 25.556H214.268L214.016 24.59H219.406L219.182 24.786V24.478C219.145 24.0953 219.014 23.7687 218.79 23.498C218.576 23.218 218.31 23.0033 217.992 22.854C217.684 22.7047 217.358 22.63 217.012 22.63C216.732 22.63 216.452 22.6813 216.172 22.784C215.902 22.8773 215.654 23.036 215.43 23.26C215.216 23.4747 215.038 23.7547 214.898 24.1C214.768 24.4453 214.702 24.8607 214.702 25.346C214.702 25.8873 214.81 26.3633 215.024 26.774C215.248 27.1847 215.556 27.5113 215.948 27.754C216.34 27.9873 216.798 28.104 217.32 28.104C217.647 28.104 217.932 28.062 218.174 27.978C218.417 27.894 218.627 27.7913 218.804 27.67C218.982 27.5393 219.131 27.4087 219.252 27.278C219.374 27.194 219.49 27.152 219.602 27.152C219.742 27.152 219.854 27.1987 219.938 27.292C220.032 27.3853 220.078 27.4973 220.078 27.628C220.078 27.7867 220.004 27.9267 219.854 28.048C219.593 28.3373 219.238 28.594 218.79 28.818C218.342 29.0327 217.866 29.14 217.362 29.14ZM221.762 21.804H225.052C225.201 21.804 225.323 21.8553 225.416 21.958C225.519 22.0607 225.57 22.182 225.57 22.322C225.57 22.4713 225.519 22.5973 225.416 22.7C225.323 22.7933 225.201 22.84 225.052 22.84H221.762C221.622 22.84 221.501 22.7887 221.398 22.686C221.295 22.5833 221.244 22.4573 221.244 22.308C221.244 22.168 221.295 22.0513 221.398 21.958C221.501 21.8553 221.622 21.804 221.762 21.804ZM223.232 19.9C223.391 19.9 223.521 19.956 223.624 20.068C223.727 20.1707 223.778 20.3013 223.778 20.46V27.222C223.778 27.446 223.811 27.614 223.876 27.726C223.941 27.838 224.025 27.9173 224.128 27.964C224.24 28.0013 224.347 28.02 224.45 28.02C224.543 28.02 224.623 28.006 224.688 27.978C224.763 27.9407 224.847 27.922 224.94 27.922C225.033 27.922 225.117 27.9687 225.192 28.062C225.276 28.146 225.318 28.258 225.318 28.398C225.318 28.566 225.22 28.7107 225.024 28.832C224.828 28.944 224.609 29 224.366 29C224.235 29 224.072 28.9907 223.876 28.972C223.689 28.9533 223.503 28.8927 223.316 28.79C223.129 28.6873 222.971 28.5193 222.84 28.286C222.719 28.0433 222.658 27.7073 222.658 27.278V20.46C222.658 20.3013 222.714 20.1707 222.826 20.068C222.938 19.956 223.073 19.9 223.232 19.9ZM232.215 28.426C232.215 28.5847 232.159 28.72 232.047 28.832C231.935 28.944 231.8 29 231.641 29C231.483 29 231.352 28.944 231.249 28.832C231.147 28.72 231.095 28.5847 231.095 28.426V19.2C231.095 19.0413 231.147 18.9107 231.249 18.808C231.361 18.696 231.497 18.64 231.655 18.64C231.823 18.64 231.959 18.696 232.061 18.808C232.164 18.9107 232.215 19.0413 232.215 19.2V28.426ZM235.466 28.426C235.466 28.5847 235.41 28.72 235.298 28.832C235.195 28.944 235.064 29 234.906 29C234.738 29 234.602 28.944 234.5 28.832C234.397 28.72 234.346 28.5847 234.346 28.426V22.21C234.346 22.0513 234.397 21.9207 234.5 21.818C234.612 21.706 234.747 21.65 234.906 21.65C235.064 21.65 235.195 21.706 235.298 21.818C235.41 21.9207 235.466 22.0513 235.466 22.21V28.426ZM234.906 20.712C234.672 20.712 234.5 20.6653 234.388 20.572C234.276 20.4787 234.22 20.334 234.22 20.138V19.942C234.22 19.746 234.28 19.6013 234.402 19.508C234.523 19.4147 234.696 19.368 234.92 19.368C235.144 19.368 235.312 19.4147 235.424 19.508C235.536 19.6013 235.592 19.746 235.592 19.942V20.138C235.592 20.334 235.531 20.4787 235.41 20.572C235.298 20.6653 235.13 20.712 234.906 20.712ZM241.075 21.58C241.71 21.58 242.209 21.7107 242.573 21.972C242.937 22.2333 243.194 22.5833 243.343 23.022C243.502 23.4607 243.581 23.9507 243.581 24.492V28.426C243.581 28.5847 243.525 28.72 243.413 28.832C243.311 28.944 243.18 29 243.021 29C242.863 29 242.727 28.944 242.615 28.832C242.513 28.72 242.461 28.5847 242.461 28.426V24.52C242.461 24.1653 242.405 23.848 242.293 23.568C242.191 23.2787 242.013 23.05 241.761 22.882C241.519 22.7047 241.183 22.616 240.753 22.616C240.361 22.616 240.002 22.7047 239.675 22.882C239.349 23.05 239.087 23.2787 238.891 23.568C238.695 23.848 238.597 24.1653 238.597 24.52V28.426C238.597 28.5847 238.541 28.72 238.429 28.832C238.327 28.944 238.196 29 238.037 29C237.879 29 237.743 28.944 237.631 28.832C237.529 28.72 237.477 28.5847 237.477 28.426V22.322C237.477 22.1633 237.529 22.0327 237.631 21.93C237.743 21.818 237.879 21.762 238.037 21.762C238.205 21.762 238.341 21.818 238.443 21.93C238.546 22.0327 238.597 22.1633 238.597 22.322V23.316L238.317 23.624C238.364 23.3813 238.471 23.1387 238.639 22.896C238.807 22.644 239.017 22.42 239.269 22.224C239.521 22.028 239.801 21.874 240.109 21.762C240.417 21.6407 240.739 21.58 241.075 21.58ZM246.325 29C246.157 29 246.022 28.944 245.919 28.832C245.817 28.72 245.765 28.5847 245.765 28.426V19.2C245.765 19.0413 245.817 18.9107 245.919 18.808C246.022 18.696 246.157 18.64 246.325 18.64C246.484 18.64 246.615 18.696 246.717 18.808C246.829 18.9107 246.885 19.0413 246.885 19.2V28.426C246.885 28.5847 246.829 28.72 246.717 28.832C246.615 28.944 246.484 29 246.325 29ZM250.973 21.72C251.123 21.72 251.249 21.7807 251.351 21.902C251.463 22.014 251.519 22.1307 251.519 22.252C251.519 22.4107 251.445 22.5507 251.295 22.672L246.759 26.634L246.717 25.332L250.581 21.888C250.693 21.776 250.824 21.72 250.973 21.72ZM251.127 28.986C250.969 28.986 250.829 28.9253 250.707 28.804L247.725 25.626L248.565 24.856L251.519 28.02C251.631 28.1413 251.687 28.2813 251.687 28.44C251.687 28.608 251.622 28.7433 251.491 28.846C251.361 28.9393 251.239 28.986 251.127 28.986ZM253.645 28.986C253.449 28.986 253.295 28.93 253.183 28.818C253.081 28.706 253.029 28.552 253.029 28.356V28.076C253.029 27.8707 253.081 27.712 253.183 27.6C253.295 27.488 253.449 27.432 253.645 27.432H253.757C253.963 27.432 254.117 27.488 254.219 27.6C254.322 27.712 254.373 27.8707 254.373 28.076V28.356C254.373 28.552 254.322 28.706 254.219 28.818C254.117 28.93 253.963 28.986 253.757 28.986H253.645Z" fill="black" fill-opacity="0.6"/>
</svg>
