<svg width="193" height="23" viewBox="0 0 193 23" fill="none" xmlns="http://www.w3.org/2000/svg">
<path d="M2.312 18C1.864 18 1.496 17.864 1.208 17.592C0.936 17.304 0.8 16.952 0.8 16.536V2.664C0.8 2.248 0.936 1.904 1.208 1.632C1.496 1.344 1.848 1.2 2.264 1.2H10.064C10.48 1.2 10.824 1.336 11.096 1.608C11.384 1.864 11.528 2.2 11.528 2.616C11.528 2.968 11.384 3.28 11.096 3.552C10.824 3.824 10.48 3.96 10.064 3.96H3.584L3.8 3.672V8.496L3.632 8.184H8.984C9.4 8.184 9.744 8.32 10.016 8.592C10.304 8.848 10.448 9.184 10.448 9.6C10.448 9.952 10.304 10.264 10.016 10.536C9.744 10.808 9.4 10.944 8.984 10.944H3.584L3.8 10.728V16.536C3.8 16.952 3.648 17.304 3.344 17.592C3.056 17.864 2.712 18 2.312 18ZM26.141 11.592C26.141 12.904 25.845 14.064 25.253 15.072C24.677 16.064 23.893 16.84 22.901 17.4C21.925 17.96 20.829 18.24 19.613 18.24C18.397 18.24 17.293 17.96 16.301 17.4C15.325 16.84 14.541 16.064 13.949 15.072C13.373 14.064 13.085 12.904 13.085 11.592C13.085 10.28 13.373 9.128 13.949 8.136C14.541 7.128 15.325 6.344 16.301 5.784C17.293 5.208 18.397 4.92 19.613 4.92C20.829 4.92 21.925 5.208 22.901 5.784C23.893 6.344 24.677 7.128 25.253 8.136C25.845 9.128 26.141 10.28 26.141 11.592ZM23.261 11.592C23.261 10.776 23.093 10.072 22.757 9.48C22.437 8.872 21.997 8.4 21.437 8.064C20.893 7.728 20.285 7.56 19.613 7.56C18.941 7.56 18.325 7.728 17.765 8.064C17.221 8.4 16.781 8.872 16.445 9.48C16.125 10.072 15.965 10.776 15.965 11.592C15.965 12.392 16.125 13.096 16.445 13.704C16.781 14.296 17.221 14.76 17.765 15.096C18.325 15.432 18.941 15.6 19.613 15.6C20.285 15.6 20.893 15.432 21.437 15.096C21.997 14.76 22.437 14.296 22.757 13.704C23.093 13.096 23.261 12.392 23.261 11.592ZM30.1016 18C29.6856 18 29.3416 17.864 29.0696 17.592C28.7976 17.304 28.6616 16.952 28.6616 16.536V6.624C28.6616 6.208 28.7976 5.864 29.0696 5.592C29.3416 5.304 29.6856 5.16 30.1016 5.16C30.5176 5.16 30.8616 5.304 31.1336 5.592C31.4056 5.864 31.5416 6.208 31.5416 6.624V8.88L31.3736 7.272C31.5496 6.888 31.7736 6.552 32.0456 6.264C32.3336 5.96 32.6536 5.712 33.0056 5.52C33.3576 5.312 33.7336 5.16 34.1336 5.064C34.5336 4.968 34.9336 4.92 35.3336 4.92C35.8136 4.92 36.2136 5.056 36.5336 5.328C36.8696 5.6 37.0376 5.92 37.0376 6.288C37.0376 6.816 36.9016 7.2 36.6296 7.44C36.3576 7.664 36.0616 7.776 35.7416 7.776C35.4376 7.776 35.1576 7.72 34.9016 7.608C34.6616 7.496 34.3816 7.44 34.0616 7.44C33.7736 7.44 33.4776 7.512 33.1736 7.656C32.8856 7.784 32.6136 7.992 32.3576 8.28C32.1176 8.568 31.9176 8.928 31.7576 9.36C31.6136 9.776 31.5416 10.272 31.5416 10.848V16.536C31.5416 16.952 31.4056 17.304 31.1336 17.592C30.8616 17.864 30.5176 18 30.1016 18ZM44.0443 4.92C44.7163 4.92 45.3323 5.024 45.8923 5.232C46.4523 5.44 46.9323 5.704 47.3323 6.024C47.7483 6.344 48.0683 6.672 48.2923 7.008C48.5323 7.328 48.6523 7.6 48.6523 7.824L48.0283 8.136V6.384C48.0283 5.968 48.1643 5.624 48.4363 5.352C48.7083 5.064 49.0523 4.92 49.4683 4.92C49.8843 4.92 50.2283 5.056 50.5003 5.328C50.7723 5.6 50.9083 5.952 50.9083 6.384V17.064C50.9083 18.456 50.6043 19.568 49.9963 20.4C49.4043 21.248 48.6203 21.856 47.6443 22.224C46.6683 22.608 45.6203 22.8 44.5003 22.8C44.1803 22.8 43.7643 22.76 43.2523 22.68C42.7403 22.6 42.2523 22.504 41.7883 22.392C41.3243 22.28 40.9723 22.176 40.7323 22.08C40.2523 21.872 39.9163 21.608 39.7243 21.288C39.5483 20.984 39.5163 20.656 39.6283 20.304C39.7723 19.84 40.0043 19.52 40.3242 19.344C40.6443 19.184 40.9803 19.168 41.3323 19.296C41.4923 19.344 41.7563 19.44 42.1243 19.584C42.4923 19.728 42.8923 19.856 43.3242 19.968C43.7723 20.096 44.1643 20.16 44.5003 20.16C45.7003 20.16 46.5883 19.92 47.1643 19.44C47.7403 18.96 48.0283 18.296 48.0283 17.448V15.36L48.3163 15.576C48.3163 15.784 48.2043 16.04 47.9803 16.344C47.7723 16.632 47.4763 16.92 47.0923 17.208C46.7243 17.496 46.2843 17.744 45.7723 17.952C45.2603 18.144 44.7163 18.24 44.1403 18.24C43.0043 18.24 41.9803 17.96 41.0683 17.4C40.1563 16.824 39.4363 16.04 38.9083 15.048C38.3803 14.04 38.1163 12.888 38.1163 11.592C38.1163 10.28 38.3803 9.128 38.9083 8.136C39.4363 7.128 40.1483 6.344 41.0443 5.784C41.9403 5.208 42.9403 4.92 44.0443 4.92ZM44.5003 7.56C43.7803 7.56 43.1483 7.736 42.6043 8.088C42.0603 8.44 41.6363 8.92 41.3323 9.528C41.0283 10.136 40.8763 10.824 40.8763 11.592C40.8763 12.344 41.0283 13.024 41.3323 13.632C41.6363 14.24 42.0603 14.72 42.6043 15.072C43.1483 15.424 43.7803 15.6 44.5003 15.6C45.2363 15.6 45.8763 15.424 46.4203 15.072C46.9643 14.72 47.3883 14.24 47.6923 13.632C47.9963 13.024 48.1483 12.344 48.1483 11.592C48.1483 10.824 47.9963 10.136 47.6923 9.528C47.3883 8.92 46.9643 8.44 46.4203 8.088C45.8763 7.736 45.2363 7.56 44.5003 7.56ZM66.0082 11.592C66.0082 12.904 65.7122 14.064 65.1202 15.072C64.5442 16.064 63.7602 16.84 62.7682 17.4C61.7922 17.96 60.6962 18.24 59.4802 18.24C58.2642 18.24 57.1602 17.96 56.1682 17.4C55.1922 16.84 54.4082 16.064 53.8162 15.072C53.2402 14.064 52.9522 12.904 52.9522 11.592C52.9522 10.28 53.2402 9.128 53.8162 8.136C54.4082 7.128 55.1922 6.344 56.1682 5.784C57.1602 5.208 58.2642 4.92 59.4802 4.92C60.6962 4.92 61.7922 5.208 62.7682 5.784C63.7602 6.344 64.5442 7.128 65.1202 8.136C65.7122 9.128 66.0082 10.28 66.0082 11.592ZM63.1282 11.592C63.1282 10.776 62.9602 10.072 62.6242 9.48C62.3042 8.872 61.8642 8.4 61.3042 8.064C60.7602 7.728 60.1522 7.56 59.4802 7.56C58.8082 7.56 58.1922 7.728 57.6322 8.064C57.0882 8.4 56.6482 8.872 56.3122 9.48C55.9922 10.072 55.8322 10.776 55.8322 11.592C55.8322 12.392 55.9922 13.096 56.3122 13.704C56.6482 14.296 57.0882 14.76 57.6322 15.096C58.1922 15.432 58.8082 15.6 59.4802 15.6C60.1522 15.6 60.7602 15.432 61.3042 15.096C61.8642 14.76 62.3042 14.296 62.6242 13.704C62.9602 13.096 63.1282 12.392 63.1282 11.592ZM68.6728 5.4H74.3608C74.7448 5.4 75.0648 5.528 75.3208 5.784C75.5768 6.04 75.7048 6.36 75.7048 6.744C75.7048 7.112 75.5768 7.424 75.3208 7.68C75.0648 7.92 74.7448 8.04 74.3608 8.04H68.6728C68.2888 8.04 67.9688 7.912 67.7128 7.656C67.4568 7.4 67.3288 7.08 67.3288 6.696C67.3288 6.328 67.4568 6.024 67.7128 5.784C67.9688 5.528 68.2888 5.4 68.6728 5.4ZM71.2408 2.4C71.6568 2.4 71.9928 2.544 72.2488 2.832C72.5208 3.104 72.6568 3.448 72.6568 3.864V14.544C72.6568 14.768 72.6968 14.952 72.7768 15.096C72.8728 15.24 72.9928 15.344 73.1367 15.408C73.2968 15.472 73.4648 15.504 73.6408 15.504C73.8328 15.504 74.0088 15.472 74.1688 15.408C74.3288 15.328 74.5128 15.288 74.7208 15.288C74.9448 15.288 75.1448 15.392 75.3208 15.6C75.5128 15.808 75.6088 16.096 75.6088 16.464C75.6088 16.912 75.3608 17.28 74.8648 17.568C74.3848 17.856 73.8648 18 73.3047 18C72.9688 18 72.5928 17.976 72.1768 17.928C71.7768 17.864 71.3928 17.728 71.0248 17.52C70.6728 17.296 70.3767 16.96 70.1367 16.512C69.8968 16.064 69.7768 15.448 69.7768 14.664V3.864C69.7768 3.448 69.9128 3.104 70.1848 2.832C70.4728 2.544 70.8248 2.4 71.2408 2.4ZM92.2516 1.2C93.0836 1.2 93.8596 1.44 94.5796 1.92C95.3156 2.4 95.9076 3.048 96.3556 3.864C96.8036 4.68 97.0276 5.592 97.0276 6.6C97.0276 7.592 96.8036 8.496 96.3556 9.312C95.9076 10.128 95.3156 10.784 94.5796 11.28C93.8596 11.76 93.0836 12 92.2516 12H87.8356L88.0756 11.568V16.536C88.0756 16.952 87.9476 17.304 87.6916 17.592C87.4356 17.864 87.0996 18 86.6836 18C86.2836 18 85.9556 17.864 85.6996 17.592C85.4436 17.304 85.3156 16.952 85.3156 16.536V2.664C85.3156 2.248 85.4516 1.904 85.7236 1.632C86.0116 1.344 86.3636 1.2 86.7796 1.2H92.2516ZM92.2516 9.264C92.5556 9.264 92.8516 9.136 93.1396 8.88C93.4276 8.624 93.6676 8.296 93.8596 7.896C94.0516 7.48 94.1476 7.048 94.1476 6.6C94.1476 6.136 94.0516 5.704 93.8596 5.304C93.6676 4.904 93.4276 4.584 93.1396 4.344C92.8516 4.088 92.5556 3.96 92.2516 3.96H87.7876L88.0756 3.528V9.648L87.8116 9.264H92.2516ZM109.931 4.92C110.347 4.92 110.691 5.056 110.963 5.328C111.235 5.6 111.371 5.952 111.371 6.384V16.536C111.371 16.952 111.235 17.304 110.963 17.592C110.691 17.864 110.347 18 109.931 18C109.515 18 109.171 17.864 108.899 17.592C108.627 17.304 108.491 16.952 108.491 16.536V15.36L109.019 15.576C109.019 15.784 108.907 16.04 108.683 16.344C108.459 16.632 108.155 16.92 107.771 17.208C107.387 17.496 106.931 17.744 106.403 17.952C105.891 18.144 105.331 18.24 104.723 18.24C103.619 18.24 102.619 17.96 101.723 17.4C100.827 16.824 100.115 16.04 99.5874 15.048C99.0754 14.04 98.8194 12.888 98.8194 11.592C98.8194 10.28 99.0754 9.128 99.5874 8.136C100.115 7.128 100.819 6.344 101.699 5.784C102.579 5.208 103.555 4.92 104.627 4.92C105.315 4.92 105.947 5.024 106.523 5.232C107.099 5.44 107.595 5.704 108.011 6.024C108.443 6.344 108.771 6.672 108.995 7.008C109.235 7.328 109.355 7.6 109.355 7.824L108.491 8.136V6.384C108.491 5.968 108.627 5.624 108.899 5.352C109.171 5.064 109.515 4.92 109.931 4.92ZM105.083 15.6C105.787 15.6 106.403 15.424 106.931 15.072C107.459 14.72 107.867 14.24 108.155 13.632C108.459 13.024 108.611 12.344 108.611 11.592C108.611 10.824 108.459 10.136 108.155 9.528C107.867 8.92 107.459 8.44 106.931 8.088C106.403 7.736 105.787 7.56 105.083 7.56C104.395 7.56 103.787 7.736 103.259 8.088C102.731 8.44 102.315 8.92 102.011 9.528C101.723 10.136 101.579 10.824 101.579 11.592C101.579 12.344 101.723 13.024 102.011 13.632C102.315 14.24 102.731 14.72 103.259 15.072C103.787 15.424 104.395 15.6 105.083 15.6ZM113.746 16.008C113.586 15.784 113.514 15.496 113.53 15.144C113.546 14.792 113.754 14.488 114.154 14.232C114.41 14.072 114.682 14.008 114.97 14.04C115.258 14.056 115.538 14.2 115.81 14.472C116.274 14.936 116.762 15.296 117.274 15.552C117.786 15.808 118.426 15.936 119.194 15.936C119.434 15.92 119.698 15.888 119.986 15.84C120.274 15.776 120.522 15.648 120.73 15.456C120.954 15.248 121.066 14.936 121.066 14.52C121.066 14.168 120.946 13.888 120.706 13.68C120.466 13.472 120.146 13.296 119.746 13.152C119.362 13.008 118.93 12.872 118.45 12.744C117.954 12.6 117.442 12.44 116.914 12.264C116.402 12.088 115.93 11.864 115.498 11.592C115.066 11.304 114.714 10.928 114.442 10.464C114.17 10 114.034 9.416 114.034 8.712C114.034 7.912 114.258 7.232 114.706 6.672C115.154 6.112 115.73 5.68 116.434 5.376C117.154 5.072 117.906 4.92 118.69 4.92C119.186 4.92 119.706 4.984 120.25 5.112C120.794 5.224 121.314 5.416 121.81 5.688C122.306 5.944 122.722 6.288 123.058 6.72C123.234 6.96 123.338 7.248 123.37 7.584C123.402 7.92 123.25 8.224 122.914 8.496C122.674 8.688 122.394 8.776 122.074 8.76C121.754 8.728 121.49 8.616 121.282 8.424C121.01 8.072 120.642 7.792 120.178 7.584C119.73 7.376 119.21 7.272 118.618 7.272C118.378 7.272 118.114 7.304 117.826 7.368C117.554 7.416 117.314 7.536 117.106 7.728C116.898 7.904 116.794 8.192 116.794 8.592C116.794 8.96 116.914 9.256 117.154 9.48C117.394 9.688 117.714 9.864 118.114 10.008C118.53 10.136 118.97 10.264 119.434 10.392C119.914 10.52 120.402 10.672 120.898 10.848C121.394 11.024 121.85 11.256 122.266 11.544C122.682 11.832 123.018 12.208 123.274 12.672C123.53 13.12 123.658 13.696 123.658 14.4C123.658 15.216 123.418 15.912 122.938 16.488C122.458 17.064 121.858 17.504 121.138 17.808C120.418 18.096 119.682 18.24 118.93 18.24C117.986 18.24 117.042 18.08 116.098 17.76C115.154 17.424 114.37 16.84 113.746 16.008ZM125.324 16.008C125.164 15.784 125.092 15.496 125.108 15.144C125.124 14.792 125.332 14.488 125.732 14.232C125.988 14.072 126.26 14.008 126.548 14.04C126.836 14.056 127.116 14.2 127.388 14.472C127.852 14.936 128.34 15.296 128.852 15.552C129.364 15.808 130.004 15.936 130.772 15.936C131.012 15.92 131.276 15.888 131.564 15.84C131.852 15.776 132.1 15.648 132.308 15.456C132.532 15.248 132.644 14.936 132.644 14.52C132.644 14.168 132.524 13.888 132.284 13.68C132.044 13.472 131.724 13.296 131.324 13.152C130.94 13.008 130.508 12.872 130.028 12.744C129.532 12.6 129.02 12.44 128.492 12.264C127.98 12.088 127.508 11.864 127.076 11.592C126.644 11.304 126.292 10.928 126.02 10.464C125.748 10 125.612 9.416 125.612 8.712C125.612 7.912 125.836 7.232 126.284 6.672C126.732 6.112 127.308 5.68 128.012 5.376C128.732 5.072 129.484 4.92 130.268 4.92C130.764 4.92 131.284 4.984 131.828 5.112C132.372 5.224 132.892 5.416 133.388 5.688C133.884 5.944 134.3 6.288 134.636 6.72C134.812 6.96 134.916 7.248 134.948 7.584C134.98 7.92 134.828 8.224 134.492 8.496C134.252 8.688 133.972 8.776 133.652 8.76C133.332 8.728 133.068 8.616 132.86 8.424C132.588 8.072 132.22 7.792 131.756 7.584C131.308 7.376 130.788 7.272 130.196 7.272C129.956 7.272 129.692 7.304 129.404 7.368C129.132 7.416 128.892 7.536 128.684 7.728C128.476 7.904 128.372 8.192 128.372 8.592C128.372 8.96 128.492 9.256 128.732 9.48C128.972 9.688 129.292 9.864 129.692 10.008C130.108 10.136 130.548 10.264 131.012 10.392C131.492 10.52 131.98 10.672 132.476 10.848C132.972 11.024 133.428 11.256 133.844 11.544C134.26 11.832 134.596 12.208 134.852 12.672C135.108 13.12 135.236 13.696 135.236 14.4C135.236 15.216 134.996 15.912 134.516 16.488C134.036 17.064 133.436 17.504 132.716 17.808C131.996 18.096 131.26 18.24 130.508 18.24C129.564 18.24 128.62 18.08 127.676 17.76C126.732 17.424 125.948 16.84 125.324 16.008ZM152.43 5.16C152.798 5.16 153.118 5.304 153.39 5.592C153.662 5.864 153.798 6.216 153.798 6.648C153.798 6.76 153.79 6.864 153.774 6.96C153.758 7.04 153.734 7.12 153.702 7.2L150.03 17.088C149.918 17.408 149.718 17.656 149.43 17.832C149.142 17.992 148.838 18.048 148.518 18C147.974 17.968 147.566 17.664 147.294 17.088L144.918 10.248L145.542 10.272L143.31 17.088C143.038 17.664 142.63 17.968 142.086 18C141.782 18.048 141.478 17.992 141.174 17.832C140.886 17.656 140.686 17.408 140.574 17.088L136.902 7.2C136.838 7.024 136.806 6.84 136.806 6.648C136.806 6.264 136.934 5.92 137.19 5.616C137.446 5.312 137.798 5.16 138.246 5.16C138.55 5.16 138.822 5.232 139.062 5.376C139.302 5.52 139.47 5.752 139.566 6.072L142.47 13.944L141.87 13.896L144.054 7.968C144.31 7.376 144.75 7.08 145.374 7.08C145.726 7.08 145.99 7.16 146.166 7.32C146.358 7.464 146.51 7.68 146.622 7.968L148.806 13.896L148.086 13.992L151.038 6.072C151.23 5.464 151.694 5.16 152.43 5.16ZM168.524 11.592C168.524 12.904 168.228 14.064 167.636 15.072C167.06 16.064 166.276 16.84 165.284 17.4C164.308 17.96 163.212 18.24 161.996 18.24C160.78 18.24 159.676 17.96 158.684 17.4C157.708 16.84 156.924 16.064 156.332 15.072C155.756 14.064 155.468 12.904 155.468 11.592C155.468 10.28 155.756 9.128 156.332 8.136C156.924 7.128 157.708 6.344 158.684 5.784C159.676 5.208 160.78 4.92 161.996 4.92C163.212 4.92 164.308 5.208 165.284 5.784C166.276 6.344 167.06 7.128 167.636 8.136C168.228 9.128 168.524 10.28 168.524 11.592ZM165.644 11.592C165.644 10.776 165.476 10.072 165.14 9.48C164.82 8.872 164.38 8.4 163.82 8.064C163.276 7.728 162.668 7.56 161.996 7.56C161.324 7.56 160.708 7.728 160.148 8.064C159.604 8.4 159.164 8.872 158.828 9.48C158.508 10.072 158.348 10.776 158.348 11.592C158.348 12.392 158.508 13.096 158.828 13.704C159.164 14.296 159.604 14.76 160.148 15.096C160.708 15.432 161.324 15.6 161.996 15.6C162.668 15.6 163.276 15.432 163.82 15.096C164.38 14.76 164.82 14.296 165.14 13.704C165.476 13.096 165.644 12.392 165.644 11.592ZM172.484 18C172.068 18 171.724 17.864 171.452 17.592C171.18 17.304 171.044 16.952 171.044 16.536V6.624C171.044 6.208 171.18 5.864 171.452 5.592C171.724 5.304 172.068 5.16 172.484 5.16C172.9 5.16 173.244 5.304 173.516 5.592C173.788 5.864 173.924 6.208 173.924 6.624V8.88L173.756 7.272C173.932 6.888 174.156 6.552 174.428 6.264C174.716 5.96 175.036 5.712 175.388 5.52C175.74 5.312 176.116 5.16 176.516 5.064C176.916 4.968 177.316 4.92 177.716 4.92C178.196 4.92 178.596 5.056 178.916 5.328C179.252 5.6 179.42 5.92 179.42 6.288C179.42 6.816 179.284 7.2 179.012 7.44C178.74 7.664 178.444 7.776 178.124 7.776C177.82 7.776 177.54 7.72 177.284 7.608C177.044 7.496 176.764 7.44 176.444 7.44C176.156 7.44 175.86 7.512 175.556 7.656C175.268 7.784 174.996 7.992 174.74 8.28C174.5 8.568 174.3 8.928 174.14 9.36C173.996 9.776 173.924 10.272 173.924 10.848V16.536C173.924 16.952 173.788 17.304 173.516 17.592C173.244 17.864 172.9 18 172.484 18ZM191.424 0.24C191.84 0.24 192.184 0.375999 192.456 0.647999C192.728 0.919999 192.864 1.272 192.864 1.704V16.536C192.864 16.952 192.728 17.304 192.456 17.592C192.184 17.864 191.84 18 191.424 18C191.008 18 190.664 17.864 190.392 17.592C190.12 17.304 189.984 16.952 189.984 16.536V15.36L190.512 15.576C190.512 15.784 190.4 16.04 190.176 16.344C189.952 16.632 189.648 16.92 189.264 17.208C188.88 17.496 188.424 17.744 187.896 17.952C187.384 18.144 186.824 18.24 186.216 18.24C185.112 18.24 184.112 17.96 183.216 17.4C182.32 16.824 181.608 16.04 181.08 15.048C180.568 14.04 180.312 12.888 180.312 11.592C180.312 10.28 180.568 9.128 181.08 8.136C181.608 7.128 182.312 6.344 183.192 5.784C184.072 5.208 185.048 4.92 186.12 4.92C186.808 4.92 187.44 5.024 188.016 5.232C188.592 5.44 189.088 5.704 189.504 6.024C189.936 6.344 190.264 6.672 190.488 7.008C190.728 7.328 190.848 7.6 190.848 7.824L189.984 8.136V1.704C189.984 1.288 190.12 0.943999 190.392 0.671999C190.664 0.383999 191.008 0.24 191.424 0.24ZM186.576 15.6C187.28 15.6 187.896 15.424 188.424 15.072C188.952 14.72 189.36 14.24 189.648 13.632C189.952 13.024 190.104 12.344 190.104 11.592C190.104 10.824 189.952 10.136 189.648 9.528C189.36 8.92 188.952 8.44 188.424 8.088C187.896 7.736 187.28 7.56 186.576 7.56C185.888 7.56 185.28 7.736 184.752 8.088C184.224 8.44 183.808 8.92 183.504 9.528C183.216 10.136 183.072 10.824 183.072 11.592C183.072 12.344 183.216 13.024 183.504 13.632C183.808 14.24 184.224 14.72 184.752 15.072C185.28 15.424 185.888 15.6 186.576 15.6Z" fill="#16A9CF"/>
</svg>
