<svg width="211" height="51" viewBox="0 0 211 51" fill="none" xmlns="http://www.w3.org/2000/svg">
<path d="M0.907288 32.8505C0.907288 38.6605 2.51729 43.1405 5.73729 46.2205C8.95729 49.3705 13.4373 50.9105 19.1073 50.9105C23.3073 50.9105 28.2773 50.2105 33.8773 48.8105C34.8573 48.6005 35.6273 48.1105 36.3273 47.2705C36.9573 46.4305 37.3073 45.5205 37.3073 44.5405V27.8805C37.3073 26.9005 37.0273 26.0605 36.5373 25.5005C35.9773 24.9405 35.2773 24.7305 34.2973 24.7305L30.5873 25.0105C28.4873 25.1505 27.5073 26.3405 27.5073 28.5805V41.5305C24.9873 42.2305 22.6773 42.5105 20.5073 42.5105C17.4273 42.5105 15.1173 41.7405 13.5773 40.2005C12.0373 38.6605 11.2673 35.9305 11.2673 32.0805V19.0605C11.2673 15.2805 12.0373 12.5505 13.5773 11.0105C15.1173 9.47047 17.4273 8.63047 20.5073 8.63047C22.6073 8.63047 25.1273 8.91047 28.0673 9.47047C29.0473 9.75047 29.8873 9.61047 30.6573 9.19047C31.4273 8.77047 31.9173 8.14047 32.1273 7.16047L32.4773 5.48047C32.8973 3.38047 32.0573 2.05047 29.8873 1.42047C26.5273 0.650468 22.8873 0.230469 19.1073 0.230469C13.4373 0.230469 8.95729 1.84047 5.73729 4.99047C2.51729 8.14047 0.907288 12.5505 0.907288 18.2905V32.8505Z" fill="#16A9CF"/>
<path d="M44.9242 46.2205C44.6442 47.2005 44.7842 48.1105 45.2742 48.8805C45.7642 49.6505 46.5342 50.0005 47.5842 50.0005H51.1542C53.1142 50.0005 54.3742 48.8805 54.9342 46.5705L57.1742 37.4705H73.1342L75.4442 46.6405C76.0042 48.8805 77.2642 50.0005 79.3642 50.0005H82.7242C83.7742 50.0005 84.5442 49.6505 85.0342 48.8805C85.5242 48.1805 85.6642 47.2705 85.4542 46.2905L75.5842 8.84047C74.8842 6.46047 73.6942 4.43047 71.8742 2.75047C70.0542 1.07047 67.8142 0.230469 65.1542 0.230469C62.3542 0.230469 60.1142 1.07047 58.2942 2.68047C56.4742 4.29047 55.2842 6.32047 54.6542 8.84047L44.9242 46.2205ZM59.2042 29.2105L63.9642 10.0305C64.1042 9.26047 64.4542 8.84047 65.1542 8.84047C65.7842 8.84047 66.2042 9.26047 66.3442 10.0305L71.1042 29.2105H59.2042Z" fill="#16A9CF"/>
<path d="M93.5036 46.6405C93.5036 47.6905 93.7836 48.5305 94.4136 49.0905C94.9736 49.7205 95.8136 50.0005 96.8636 50.0005H109.324C114.784 50.0005 119.194 48.6005 122.414 45.8005C125.634 43.0005 127.314 39.4305 127.314 35.2305C127.314 30.0505 124.724 26.2705 119.684 23.9605C123.044 21.8605 124.794 18.7105 124.794 14.5105C124.794 10.4505 123.254 7.09047 120.314 4.36047C117.304 1.63047 113.314 0.230469 108.344 0.230469C105.054 0.230469 101.274 0.930468 96.9336 2.33047C95.9536 2.68047 95.1136 3.24047 94.4836 4.08047C93.7836 4.92047 93.5036 5.83047 93.5036 6.88047V46.6405ZM103.584 20.7405V9.47047C105.124 8.91047 106.664 8.63047 108.204 8.63047C110.234 8.63047 111.774 9.19047 112.824 10.2405C113.874 11.3605 114.434 12.7605 114.434 14.5105C114.434 16.3305 113.874 17.8005 112.754 18.9905C111.634 20.1805 110.094 20.7405 108.134 20.7405H103.584ZM103.584 41.6005V28.5105H108.974C111.634 28.5105 113.594 29.1405 114.854 30.3305C116.114 31.5905 116.744 33.2005 116.744 35.2305C116.744 37.1905 116.044 38.7305 114.644 39.8505C113.244 41.0405 111.354 41.6005 108.974 41.6005H103.584Z" fill="#16A9CF"/>
<path d="M133.039 46.2205C132.759 47.2005 132.899 48.1105 133.389 48.8805C133.879 49.6505 134.649 50.0005 135.699 50.0005H139.269C141.229 50.0005 142.489 48.8805 143.049 46.5705L145.289 37.4705H161.249L163.559 46.6405C164.119 48.8805 165.379 50.0005 167.479 50.0005H170.839C171.889 50.0005 172.659 49.6505 173.149 48.8805C173.639 48.1805 173.779 47.2705 173.569 46.2905L163.699 8.84047C162.999 6.46047 161.809 4.43047 159.989 2.75047C158.169 1.07047 155.929 0.230469 153.269 0.230469C150.469 0.230469 148.229 1.07047 146.409 2.68047C144.589 4.29047 143.399 6.32047 142.769 8.84047L133.039 46.2205ZM147.319 29.2105L152.079 10.0305C152.219 9.26047 152.569 8.84047 153.269 8.84047C153.899 8.84047 154.319 9.26047 154.459 10.0305L159.219 29.2105H147.319Z" fill="#16A9CF"/>
<path d="M187.477 46.6405C187.477 47.6905 187.757 48.5305 188.387 49.0905C188.947 49.7205 189.787 50.0005 190.837 50.0005H194.127C195.107 50.0005 195.947 49.7205 196.577 49.0905C197.137 48.5305 197.487 47.6905 197.487 46.6405V30.6105C202.807 29.1405 206.167 25.0105 207.567 18.1505L210.297 4.85047C210.507 3.80047 210.367 2.89047 209.877 2.19047C209.317 1.49047 208.547 1.14047 207.567 1.14047H204.137C202.037 1.14047 200.707 2.33047 200.287 4.64047L197.977 15.9805C197.487 18.4305 196.857 20.1805 196.087 21.3005C195.317 22.4205 194.127 22.9805 192.447 22.9805C190.767 22.9805 189.507 22.4205 188.737 21.2305C187.967 20.1105 187.337 18.2905 186.917 15.8405L184.607 4.57047C184.327 3.59047 183.907 2.75047 183.207 2.12047C182.507 1.49047 181.737 1.14047 180.757 1.14047H177.397C176.347 1.14047 175.577 1.56047 175.017 2.26047C174.457 2.96047 174.317 3.87047 174.597 4.92047L177.327 18.1505C178.727 25.0105 182.087 29.1405 187.477 30.6105V46.6405Z" fill="#16A9CF"/>
</svg>
