<svg width="71" height="18" viewBox="0 0 71 18" fill="none" xmlns="http://www.w3.org/2000/svg">
<path d="M0.5625 11.1866C0.5625 13.179 1.10261 14.7154 2.18282 15.7716C3.26303 16.8519 4.76594 17.38 6.66805 17.38C8.07703 17.38 9.74431 17.1399 11.6229 16.6598C11.9517 16.5878 12.21 16.4198 12.4448 16.1317C12.6562 15.8436 12.7736 15.5316 12.7736 15.1955V9.48218C12.7736 9.1461 12.6797 8.85804 12.5153 8.66599C12.3274 8.47395 12.0926 8.40193 11.7638 8.40193L10.5192 8.49796C9.81476 8.54597 9.486 8.95406 9.486 9.72224V14.1633C8.64062 14.4033 7.86568 14.4993 7.13771 14.4993C6.10446 14.4993 5.32953 14.2353 4.8129 13.7072C4.29628 13.179 4.03797 12.2428 4.03797 10.9225V6.45749C4.03797 5.16119 4.29628 4.22497 4.8129 3.69685C5.32953 3.16873 6.10446 2.88066 7.13771 2.88066C7.8422 2.88066 8.68758 2.97669 9.67386 3.16873C10.0026 3.26475 10.2844 3.21674 10.5427 3.07271C10.801 2.92867 10.9654 2.71262 11.0359 2.37655L11.1533 1.80041C11.2942 1.08025 11.0124 0.624143 10.2844 0.408094C9.15724 0.144033 7.93613 0 6.66805 0C4.76594 0 3.26303 0.552127 2.18282 1.63238C1.10261 2.71262 0.5625 4.22497 0.5625 6.19343V11.1866Z" fill="white"/>
<path d="M15.3288 15.7716C15.2349 16.1077 15.2819 16.4198 15.4463 16.6838C15.6106 16.9479 15.8689 17.0679 16.2212 17.0679H17.4188C18.0763 17.0679 18.499 16.6838 18.6869 15.8917L19.4383 12.7709H24.7924L25.5674 15.9157C25.7552 16.6838 26.1779 17.0679 26.8824 17.0679H28.0096C28.3618 17.0679 28.6202 16.9479 28.7845 16.6838C28.9489 16.4438 28.9959 16.1317 28.9254 15.7956L25.6143 2.95268C25.3795 2.13649 24.9803 1.44033 24.3698 0.864199C23.7592 0.288065 23.0077 0 22.1154 0C21.1761 0 20.4246 0.288065 19.8141 0.840192C19.2035 1.39232 18.8043 2.08848 18.593 2.95268L15.3288 15.7716ZM20.1193 9.93829L21.7162 3.36077C21.7632 3.09671 21.8806 2.95268 22.1154 2.95268C22.3267 2.95268 22.4676 3.09671 22.5146 3.36077L24.1114 9.93829H20.1193Z" fill="white"/>
<path d="M31.6258 15.9157C31.6258 16.2757 31.7197 16.5638 31.9311 16.7559C32.1189 16.9719 32.4007 17.0679 32.753 17.0679H36.9329C38.7646 17.0679 40.244 16.5878 41.3242 15.6276C42.4044 14.6674 42.968 13.4431 42.968 12.0028C42.968 10.2264 42.0992 8.93005 40.4084 8.13787C41.5356 7.41771 42.1226 6.33746 42.1226 4.89713C42.1226 3.50481 41.606 2.35254 40.6197 1.41633C39.61 0.48011 38.2714 0 36.6042 0C35.5005 0 34.2324 0.240055 32.7764 0.720165C32.4477 0.840192 32.1659 1.03224 31.9545 1.3203C31.7197 1.60837 31.6258 1.92044 31.6258 2.28052V15.9157ZM35.0073 7.03362V3.16873C35.5239 2.97669 36.0406 2.88066 36.5572 2.88066C37.2382 2.88066 37.7548 3.07271 38.1071 3.43279C38.4593 3.81688 38.6472 4.29699 38.6472 4.89713C38.6472 5.52127 38.4593 6.02539 38.0836 6.43348C37.7079 6.84157 37.1912 7.03362 36.5337 7.03362H35.0073ZM35.0073 14.1873V9.69823H36.8155C37.7079 9.69823 38.3654 9.91428 38.7881 10.3224C39.2108 10.7545 39.4221 11.3066 39.4221 12.0028C39.4221 12.6749 39.1873 13.203 38.7176 13.5871C38.248 13.9952 37.6139 14.1873 36.8155 14.1873H35.0073Z" fill="white"/>
<path d="M44.8889 15.7716C44.7949 16.1077 44.8419 16.4198 45.0063 16.6838C45.1706 16.9479 45.429 17.0679 45.7812 17.0679H46.9788C47.6363 17.0679 48.059 16.6838 48.2469 15.8917L48.9984 12.7709H54.3525L55.1274 15.9157C55.3153 16.6838 55.7379 17.0679 56.4424 17.0679H57.5696C57.9219 17.0679 58.1802 16.9479 58.3446 16.6838C58.5089 16.4438 58.5559 16.1317 58.4854 15.7956L55.1744 2.95268C54.9395 2.13649 54.5403 1.44033 53.9298 0.864199C53.3192 0.288065 52.5678 0 51.6754 0C50.7361 0 49.9846 0.288065 49.3741 0.840192C48.7635 1.39232 48.3643 2.08848 48.153 2.95268L44.8889 15.7716ZM49.6794 9.93829L51.2762 3.36077C51.3232 3.09671 51.4406 2.95268 51.6754 2.95268C51.8867 2.95268 52.0276 3.09671 52.0746 3.36077L53.6715 9.93829H49.6794Z" fill="white"/>
<path d="M63.151 15.9157C63.151 16.2757 63.245 16.5638 63.4563 16.7559C63.6442 16.9719 63.926 17.0679 64.2782 17.0679H65.3819C65.7107 17.0679 65.9924 16.9719 66.2038 16.7559C66.3917 16.5638 66.5091 16.2757 66.5091 15.9157V10.4184C68.2938 9.91428 69.421 8.49796 69.8906 6.14541L70.8064 1.58436C70.8769 1.22428 70.8299 0.91221 70.6655 0.672155C70.4777 0.4321 70.2194 0.312072 69.8906 0.312072H68.74C68.0355 0.312072 67.5893 0.720165 67.4484 1.51235L66.6735 5.40124C66.5091 6.24144 66.2977 6.84157 66.0394 7.22566C65.7811 7.60975 65.3819 7.8018 64.8183 7.8018C64.2547 7.8018 63.832 7.60975 63.5737 7.20166C63.3154 6.81757 63.1041 6.19343 62.9632 5.35323L62.1882 1.48834C62.0943 1.15226 61.9534 0.864199 61.7186 0.648149C61.4837 0.4321 61.2254 0.312072 60.8967 0.312072H59.7695C59.4172 0.312072 59.1589 0.456105 58.9711 0.69616C58.7832 0.936215 58.7362 1.24829 58.8302 1.60837L59.746 6.14541C60.2157 8.49796 61.3428 9.91428 63.151 10.4184V15.9157Z" fill="white"/>
</svg>
