<svg width="133" height="18" viewBox="0 0 133 18" fill="none" xmlns="http://www.w3.org/2000/svg">
<path d="M1.78 0.999999C2.1 0.999999 2.38 1.12 2.62 1.36C2.87333 1.58667 3 1.87333 3 2.22V13.78C3 14.1267 2.87333 14.42 2.62 14.66C2.36667 14.8867 2.07333 15 1.74 15C1.36667 15 1.06667 14.8867 0.84 14.66C0.613333 14.42 0.5 14.1267 0.5 13.78V2.22C0.5 1.87333 0.62 1.58667 0.86 1.36C1.1 1.12 1.40667 0.999999 1.78 0.999999ZM10.64 0.999999C11.0133 0.999999 11.3133 1.12 11.54 1.36C11.7667 1.58667 11.88 1.87333 11.88 2.22V13.78C11.88 14.1267 11.76 14.42 11.52 14.66C11.2933 14.8867 10.9867 15 10.6 15C10.28 15 9.99333 14.8867 9.74 14.66C9.5 14.42 9.38 14.1267 9.38 13.78V2.22C9.38 1.87333 9.50667 1.58667 9.76 1.36C10.0133 1.12 10.3067 0.999999 10.64 0.999999ZM1.72 6.82H10.64V9.12H1.72V6.82ZM19.715 15.2C18.5817 15.2 17.595 14.9667 16.755 14.5C15.9283 14.02 15.2883 13.3733 14.835 12.56C14.395 11.7467 14.175 10.8267 14.175 9.8C14.175 8.6 14.415 7.58 14.895 6.74C15.3883 5.88667 16.0283 5.23333 16.815 4.78C17.6017 4.32667 18.435 4.1 19.315 4.1C19.995 4.1 20.635 4.24 21.235 4.52C21.8483 4.8 22.3883 5.18667 22.855 5.68C23.3217 6.16 23.6883 6.72 23.955 7.36C24.235 8 24.375 8.68 24.375 9.4C24.3617 9.72 24.235 9.98 23.995 10.18C23.755 10.38 23.475 10.48 23.155 10.48H15.515L14.915 8.48H22.255L21.815 8.88V8.34C21.7883 7.95333 21.6483 7.60667 21.395 7.3C21.155 6.99333 20.8483 6.75333 20.475 6.58C20.115 6.39333 19.7283 6.3 19.315 6.3C18.915 6.3 18.5417 6.35333 18.195 6.46C17.8483 6.56667 17.5483 6.74667 17.295 7C17.0417 7.25333 16.8417 7.59333 16.695 8.02C16.5483 8.44667 16.475 8.98667 16.475 9.64C16.475 10.36 16.6217 10.9733 16.915 11.48C17.2217 11.9733 17.6083 12.3533 18.075 12.62C18.555 12.8733 19.0617 13 19.595 13C20.0883 13 20.4817 12.96 20.775 12.88C21.0683 12.8 21.3017 12.7067 21.475 12.6C21.6617 12.48 21.8283 12.38 21.975 12.3C22.215 12.18 22.4417 12.12 22.655 12.12C22.9483 12.12 23.1883 12.22 23.375 12.42C23.575 12.62 23.675 12.8533 23.675 13.12C23.675 13.48 23.4883 13.8067 23.115 14.1C22.7683 14.3933 22.2817 14.6533 21.655 14.88C21.0283 15.0933 20.3817 15.2 19.715 15.2ZM29.0719 13.78C29.0719 14.1267 28.9519 14.42 28.7119 14.66C28.4852 14.8867 28.1985 15 27.8519 15C27.5185 15 27.2385 14.8867 27.0119 14.66C26.7852 14.42 26.6719 14.1267 26.6719 13.78V1.42C26.6719 1.07333 26.7852 0.786666 27.0119 0.559999C27.2519 0.319999 27.5452 0.2 27.8919 0.2C28.2385 0.2 28.5185 0.319999 28.7319 0.559999C28.9585 0.786666 29.0719 1.07333 29.0719 1.42V13.78ZM34.4625 13.78C34.4625 14.1267 34.3425 14.42 34.1025 14.66C33.8758 14.8867 33.5892 15 33.2425 15C32.9092 15 32.6292 14.8867 32.4025 14.66C32.1758 14.42 32.0625 14.1267 32.0625 13.78V1.42C32.0625 1.07333 32.1758 0.786666 32.4025 0.559999C32.6425 0.319999 32.9358 0.2 33.2825 0.2C33.6292 0.2 33.9092 0.319999 34.1225 0.559999C34.3492 0.786666 34.4625 1.07333 34.4625 1.42V13.78ZM47.4378 9.66C47.4378 10.7533 47.1911 11.72 46.6978 12.56C46.2178 13.3867 45.5645 14.0333 44.7378 14.5C43.9245 14.9667 43.0111 15.2 41.9978 15.2C40.9845 15.2 40.0645 14.9667 39.2378 14.5C38.4245 14.0333 37.7711 13.3867 37.2778 12.56C36.7978 11.72 36.5578 10.7533 36.5578 9.66C36.5578 8.56667 36.7978 7.60667 37.2778 6.78C37.7711 5.94 38.4245 5.28667 39.2378 4.82C40.0645 4.34 40.9845 4.1 41.9978 4.1C43.0111 4.1 43.9245 4.34 44.7378 4.82C45.5645 5.28667 46.2178 5.94 46.6978 6.78C47.1911 7.60667 47.4378 8.56667 47.4378 9.66ZM45.0378 9.66C45.0378 8.98 44.8978 8.39333 44.6178 7.9C44.3511 7.39333 43.9845 7 43.5178 6.72C43.0645 6.44 42.5578 6.3 41.9978 6.3C41.4378 6.3 40.9245 6.44 40.4578 6.72C40.0045 7 39.6378 7.39333 39.3578 7.9C39.0911 8.39333 38.9578 8.98 38.9578 9.66C38.9578 10.3267 39.0911 10.9133 39.3578 11.42C39.6378 11.9133 40.0045 12.3 40.4578 12.58C40.9245 12.86 41.4378 13 41.9978 13C42.5578 13 43.0645 12.86 43.5178 12.58C43.9845 12.3 44.3511 11.9133 44.6178 11.42C44.8978 10.9133 45.0378 10.3267 45.0378 9.66ZM52.5783 14.84C52.5783 15.28 52.4516 15.72 52.1983 16.16C51.9583 16.6133 51.6383 16.9867 51.2383 17.28C50.8516 17.5867 50.4383 17.74 49.9983 17.74C49.8516 17.74 49.6916 17.68 49.5183 17.56C49.3583 17.44 49.2783 17.2333 49.2783 16.94C49.2783 16.6333 49.3716 16.4467 49.5583 16.38C49.7583 16.3267 49.9249 16.2667 50.0583 16.2C50.2316 16.1067 50.3649 15.9933 50.4583 15.86C50.5649 15.74 50.6183 15.5867 50.6183 15.4C50.6183 15.2533 50.5449 15.12 50.3983 15C50.2649 14.8933 50.0849 14.84 49.8583 14.84C49.7783 14.84 49.6849 14.8533 49.5783 14.88C49.4716 14.8933 49.3783 14.9267 49.2983 14.98C49.1649 14.9133 49.0449 14.8333 48.9383 14.74C48.8449 14.6333 48.7983 14.4667 48.7983 14.24C48.7983 13.8267 48.9849 13.4733 49.3583 13.18C49.7449 12.8733 50.1916 12.72 50.6983 12.72C51.2716 12.72 51.7249 12.9133 52.0583 13.3C52.4049 13.6867 52.5783 14.2 52.5783 14.84ZM65.3516 15.2C64.4182 15.2 63.5782 15.0867 62.8316 14.86C62.0849 14.62 61.3716 14.2067 60.6916 13.62C60.5182 13.4733 60.3849 13.3067 60.2916 13.12C60.1982 12.9333 60.1516 12.7467 60.1516 12.56C60.1516 12.2533 60.2582 11.9867 60.4716 11.76C60.6982 11.52 60.9782 11.4 61.3116 11.4C61.5649 11.4 61.7916 11.48 61.9916 11.64C62.4982 12.0533 62.9982 12.3667 63.4916 12.58C63.9982 12.7933 64.6182 12.9 65.3516 12.9C65.8449 12.9 66.2982 12.8267 66.7116 12.68C67.1249 12.52 67.4582 12.3133 67.7116 12.06C67.9649 11.7933 68.0916 11.4933 68.0916 11.16C68.0916 10.76 67.9716 10.42 67.7316 10.14C67.4916 9.86 67.1249 9.62667 66.6316 9.44C66.1382 9.24 65.5116 9.08667 64.7516 8.98C64.0316 8.87333 63.3982 8.71333 62.8516 8.5C62.3049 8.27333 61.8449 7.99333 61.4716 7.66C61.1116 7.31333 60.8382 6.91333 60.6516 6.46C60.4649 5.99333 60.3716 5.47333 60.3716 4.9C60.3716 4.03333 60.5916 3.29333 61.0316 2.68C61.4849 2.06667 62.0916 1.6 62.8516 1.28C63.6116 0.959999 64.4516 0.799999 65.3716 0.799999C66.2382 0.799999 67.0382 0.933332 67.7716 1.2C68.5182 1.45333 69.1249 1.78 69.5916 2.18C69.9782 2.48667 70.1716 2.84 70.1716 3.24C70.1716 3.53333 70.0582 3.8 69.8316 4.04C69.6049 4.28 69.3382 4.4 69.0316 4.4C68.8316 4.4 68.6516 4.34 68.4916 4.22C68.2782 4.03333 67.9916 3.86 67.6316 3.7C67.2716 3.52667 66.8916 3.38667 66.4916 3.28C66.0916 3.16 65.7182 3.1 65.3716 3.1C64.7982 3.1 64.3116 3.17333 63.9116 3.32C63.5249 3.46667 63.2316 3.66667 63.0316 3.92C62.8316 4.17333 62.7316 4.46667 62.7316 4.8C62.7316 5.2 62.8449 5.53333 63.0716 5.8C63.3116 6.05333 63.6516 6.26 64.0916 6.42C64.5316 6.56667 65.0582 6.7 65.6716 6.82C66.4716 6.96667 67.1716 7.14 67.7716 7.34C68.3849 7.54 68.8916 7.8 69.2916 8.12C69.6916 8.42667 69.9916 8.82 70.1916 9.3C70.3916 9.76667 70.4916 10.34 70.4916 11.02C70.4916 11.8867 70.2516 12.6333 69.7716 13.26C69.2916 13.8867 68.6582 14.3667 67.8716 14.7C67.0982 15.0333 66.2582 15.2 65.3516 15.2ZM81.3452 4.1C81.6918 4.1 81.9785 4.21333 82.2052 4.44C82.4318 4.66667 82.5452 4.96 82.5452 5.32V13.78C82.5452 14.1267 82.4318 14.42 82.2052 14.66C81.9785 14.8867 81.6918 15 81.3452 15C80.9985 15 80.7118 14.8867 80.4852 14.66C80.2585 14.42 80.1452 14.1267 80.1452 13.78V12.8L80.5852 12.98C80.5852 13.1533 80.4918 13.3667 80.3052 13.62C80.1185 13.86 79.8652 14.1 79.5452 14.34C79.2252 14.58 78.8452 14.7867 78.4052 14.96C77.9785 15.12 77.5118 15.2 77.0052 15.2C76.0852 15.2 75.2518 14.9667 74.5052 14.5C73.7585 14.02 73.1652 13.3667 72.7252 12.54C72.2985 11.7 72.0852 10.74 72.0852 9.66C72.0852 8.56667 72.2985 7.60667 72.7252 6.78C73.1652 5.94 73.7518 5.28667 74.4852 4.82C75.2185 4.34 76.0318 4.1 76.9252 4.1C77.4985 4.1 78.0252 4.18667 78.5052 4.36C78.9852 4.53333 79.3985 4.75333 79.7452 5.02C80.1052 5.28667 80.3785 5.56 80.5652 5.84C80.7652 6.10667 80.8652 6.33333 80.8652 6.52L80.1452 6.78V5.32C80.1452 4.97333 80.2585 4.68667 80.4852 4.46C80.7118 4.22 80.9985 4.1 81.3452 4.1ZM77.3052 13C77.8918 13 78.4052 12.8533 78.8452 12.56C79.2852 12.2667 79.6252 11.8667 79.8652 11.36C80.1185 10.8533 80.2452 10.2867 80.2452 9.66C80.2452 9.02 80.1185 8.44667 79.8652 7.94C79.6252 7.43333 79.2852 7.03333 78.8452 6.74C78.4052 6.44667 77.8918 6.3 77.3052 6.3C76.7318 6.3 76.2252 6.44667 75.7852 6.74C75.3452 7.03333 74.9985 7.43333 74.7452 7.94C74.5052 8.44667 74.3852 9.02 74.3852 9.66C74.3852 10.2867 74.5052 10.8533 74.7452 11.36C74.9985 11.8667 75.3452 12.2667 75.7852 12.56C76.2252 12.8533 76.7318 13 77.3052 13ZM90.6838 4.1C91.6171 4.1 92.4504 4.34 93.1838 4.82C93.9304 5.28667 94.5171 5.93333 94.9438 6.76C95.3838 7.58667 95.6037 8.54667 95.6037 9.64C95.6037 10.7333 95.3838 11.7 94.9438 12.54C94.5171 13.3667 93.9371 14.02 93.2038 14.5C92.4838 14.9667 91.6704 15.2 90.7638 15.2C90.2304 15.2 89.7304 15.1133 89.2638 14.94C88.7971 14.7667 88.3838 14.5467 88.0238 14.28C87.6771 14.0133 87.4038 13.7467 87.2038 13.48C87.0171 13.2 86.9238 12.9667 86.9238 12.78L87.5438 12.52V13.98C87.5438 14.3267 87.4304 14.62 87.2038 14.86C86.9771 15.0867 86.6904 15.2 86.3438 15.2C85.9971 15.2 85.7104 15.0867 85.4838 14.86C85.2571 14.6333 85.1438 14.34 85.1438 13.98V1.42C85.1438 1.07333 85.2571 0.786666 85.4838 0.559999C85.7104 0.319999 85.9971 0.2 86.3438 0.2C86.6904 0.2 86.9771 0.319999 87.2038 0.559999C87.4304 0.786666 87.5438 1.07333 87.5438 1.42V6.5L87.2038 6.32C87.2038 6.14667 87.2971 5.94 87.4838 5.7C87.6704 5.44667 87.9238 5.2 88.2438 4.96C88.5638 4.70667 88.9304 4.5 89.3438 4.34C89.7704 4.18 90.2171 4.1 90.6838 4.1ZM90.3838 6.3C89.7971 6.3 89.2838 6.44667 88.8438 6.74C88.4038 7.03333 88.0571 7.43333 87.8038 7.94C87.5638 8.43333 87.4438 9 87.4438 9.64C87.4438 10.2667 87.5638 10.84 87.8038 11.36C88.0571 11.8667 88.4038 12.2667 88.8438 12.56C89.2838 12.8533 89.7971 13 90.3838 13C90.9704 13 91.4771 12.8533 91.9038 12.56C92.3438 12.2667 92.6838 11.8667 92.9238 11.36C93.1771 10.84 93.3038 10.2667 93.3038 9.64C93.3038 9 93.1771 8.43333 92.9238 7.94C92.6838 7.43333 92.3438 7.03333 91.9038 6.74C91.4771 6.44667 90.9704 6.3 90.3838 6.3ZM98.9023 15C98.5557 15 98.269 14.8867 98.0423 14.66C97.8157 14.42 97.7023 14.1267 97.7023 13.78V5.52C97.7023 5.17333 97.8157 4.88667 98.0423 4.66C98.269 4.42 98.5557 4.3 98.9023 4.3C99.249 4.3 99.5357 4.42 99.7623 4.66C99.989 4.88667 100.102 5.17333 100.102 5.52V7.4L99.9623 6.06C100.109 5.74 100.296 5.46 100.522 5.22C100.762 4.96667 101.029 4.76 101.322 4.6C101.616 4.42667 101.929 4.3 102.262 4.22C102.596 4.14 102.929 4.1 103.262 4.1C103.662 4.1 103.996 4.21333 104.262 4.44C104.542 4.66667 104.682 4.93333 104.682 5.24C104.682 5.68 104.569 6 104.342 6.2C104.116 6.38667 103.869 6.48 103.602 6.48C103.349 6.48 103.116 6.43333 102.902 6.34C102.702 6.24667 102.469 6.2 102.202 6.2C101.962 6.2 101.716 6.26 101.462 6.38C101.222 6.48667 100.996 6.66 100.782 6.9C100.582 7.14 100.416 7.44 100.282 7.8C100.162 8.14667 100.102 8.56 100.102 9.04V13.78C100.102 14.1267 99.989 14.42 99.7623 14.66C99.5357 14.8867 99.249 15 98.9023 15ZM108.634 13.78C108.634 14.1267 108.521 14.42 108.294 14.66C108.068 14.8867 107.781 15 107.434 15C107.088 15 106.801 14.8867 106.574 14.66C106.348 14.42 106.234 14.1267 106.234 13.78V5.52C106.234 5.17333 106.348 4.88667 106.574 4.66C106.801 4.42 107.088 4.3 107.434 4.3C107.781 4.3 108.068 4.42 108.294 4.66C108.521 4.88667 108.634 5.17333 108.634 5.52V13.78ZM107.414 3C106.961 3 106.641 2.92667 106.454 2.78C106.268 2.63333 106.174 2.37333 106.174 2V1.62C106.174 1.23333 106.274 0.973333 106.474 0.84C106.688 0.693333 107.008 0.619999 107.434 0.619999C107.901 0.619999 108.228 0.693333 108.414 0.84C108.601 0.986666 108.694 1.24667 108.694 1.62V2C108.694 2.38667 108.594 2.65333 108.394 2.8C108.194 2.93333 107.868 3 107.414 3ZM116.821 4.1C117.807 4.1 118.554 4.30667 119.061 4.72C119.581 5.13333 119.934 5.68667 120.121 6.38C120.321 7.06 120.421 7.82 120.421 8.66V13.78C120.421 14.1267 120.307 14.42 120.081 14.66C119.854 14.8867 119.567 15 119.221 15C118.874 15 118.587 14.8867 118.361 14.66C118.134 14.42 118.021 14.1267 118.021 13.78V8.66C118.021 8.22 117.961 7.82667 117.841 7.48C117.734 7.12 117.534 6.83333 117.241 6.62C116.947 6.40667 116.527 6.3 115.981 6.3C115.447 6.3 114.994 6.40667 114.621 6.62C114.261 6.83333 113.981 7.12 113.781 7.48C113.594 7.82667 113.501 8.22 113.501 8.66V13.78C113.501 14.1267 113.387 14.42 113.161 14.66C112.934 14.8867 112.647 15 112.301 15C111.954 15 111.667 14.8867 111.441 14.66C111.214 14.42 111.101 14.1267 111.101 13.78V5.52C111.101 5.17333 111.214 4.88667 111.441 4.66C111.667 4.42 111.954 4.3 112.301 4.3C112.647 4.3 112.934 4.42 113.161 4.66C113.387 4.88667 113.501 5.17333 113.501 5.52V6.38L113.201 6.32C113.321 6.09333 113.494 5.85333 113.721 5.6C113.947 5.33333 114.214 5.08667 114.521 4.86C114.827 4.63333 115.174 4.45333 115.561 4.32C115.947 4.17333 116.367 4.1 116.821 4.1ZM131.775 4.1C132.122 4.1 132.408 4.21333 132.635 4.44C132.862 4.66667 132.975 4.96 132.975 5.32V13.78C132.975 14.1267 132.862 14.42 132.635 14.66C132.408 14.8867 132.122 15 131.775 15C131.428 15 131.142 14.8867 130.915 14.66C130.688 14.42 130.575 14.1267 130.575 13.78V12.8L131.015 12.98C131.015 13.1533 130.922 13.3667 130.735 13.62C130.548 13.86 130.295 14.1 129.975 14.34C129.655 14.58 129.275 14.7867 128.835 14.96C128.408 15.12 127.942 15.2 127.435 15.2C126.515 15.2 125.682 14.9667 124.935 14.5C124.188 14.02 123.595 13.3667 123.155 12.54C122.728 11.7 122.515 10.74 122.515 9.66C122.515 8.56667 122.728 7.60667 123.155 6.78C123.595 5.94 124.182 5.28667 124.915 4.82C125.648 4.34 126.462 4.1 127.355 4.1C127.928 4.1 128.455 4.18667 128.935 4.36C129.415 4.53333 129.828 4.75333 130.175 5.02C130.535 5.28667 130.808 5.56 130.995 5.84C131.195 6.10667 131.295 6.33333 131.295 6.52L130.575 6.78V5.32C130.575 4.97333 130.688 4.68667 130.915 4.46C131.142 4.22 131.428 4.1 131.775 4.1ZM127.735 13C128.322 13 128.835 12.8533 129.275 12.56C129.715 12.2667 130.055 11.8667 130.295 11.36C130.548 10.8533 130.675 10.2867 130.675 9.66C130.675 9.02 130.548 8.44667 130.295 7.94C130.055 7.43333 129.715 7.03333 129.275 6.74C128.835 6.44667 128.322 6.3 127.735 6.3C127.162 6.3 126.655 6.44667 126.215 6.74C125.775 7.03333 125.428 7.43333 125.175 7.94C124.935 8.44667 124.815 9.02 124.815 9.66C124.815 10.2867 124.935 10.8533 125.175 11.36C125.428 11.8667 125.775 12.2667 126.215 12.56C126.655 12.8533 127.162 13 127.735 13Z" fill="#0191B6"/>
</svg>
