<svg width="279" height="23" viewBox="0 0 279 23" fill="none" xmlns="http://www.w3.org/2000/svg">
<path d="M0.824 16.848C0.824 17.208 0.92 17.496 1.136 17.688C1.328 17.904 1.616 18 1.976 18H3.128C3.464 18 3.752 17.904 3.968 17.688C4.16 17.496 4.28 17.208 4.28 16.848V10.8H9.872V16.848C9.872 17.208 9.968 17.496 10.184 17.688C10.376 17.904 10.664 18 11.024 18H12.176C12.512 18 12.8 17.904 13.016 17.688C13.208 17.496 13.328 17.208 13.328 16.848V2.4C13.328 2.064 13.208 1.776 13.016 1.56C12.8 1.368 12.512 1.248 12.176 1.248H11.024C10.664 1.248 10.376 1.368 10.184 1.56C9.968 1.776 9.872 2.064 9.872 2.4V7.968H4.28V2.4C4.28 2.064 4.16 1.776 3.968 1.56C3.752 1.368 3.464 1.248 3.128 1.248H1.976C1.616 1.248 1.328 1.368 1.136 1.56C0.92 1.776 0.824 2.064 0.824 2.4V16.848ZM16.2524 12.6C16.2524 14.376 16.7324 15.768 17.7164 16.776C18.6764 17.808 20.0204 18.312 21.7484 18.312C23.4524 18.312 24.7964 17.808 25.7804 16.776C26.7404 15.768 27.2444 14.376 27.2444 12.6V10.872C27.2444 9.168 26.7404 7.8 25.7804 6.744C24.8204 5.712 23.4764 5.184 21.7484 5.184C20.0204 5.184 18.6524 5.712 17.6924 6.744C16.7324 7.8 16.2524 9.168 16.2524 10.872V12.6ZM21.7484 15.48C20.9324 15.48 20.3804 15.24 20.0924 14.76C19.8044 14.28 19.6604 13.488 19.6604 12.408V11.088C19.6604 10.056 19.8044 9.288 20.0924 8.784C20.3804 8.28 20.9324 8.016 21.7484 8.016C22.5404 8.016 23.0924 8.28 23.3804 8.784C23.6684 9.288 23.8364 10.056 23.8364 11.088V12.408C23.8364 13.488 23.6684 14.28 23.3804 14.76C23.0924 15.24 22.5404 15.48 21.7484 15.48ZM31.8026 16.824C31.9946 17.616 32.4986 18 33.2666 18H34.5866C34.9226 18 35.2106 17.904 35.4746 17.688C35.7146 17.496 35.8826 17.208 35.9786 16.872L37.5866 10.608L39.1946 16.872C39.2666 17.208 39.4346 17.496 39.6986 17.688C39.9386 17.904 40.2506 18 40.5866 18H41.9066C42.6746 18 43.1546 17.616 43.3706 16.824L46.0826 6.768C46.1786 6.432 46.1306 6.12 45.9626 5.88C45.7946 5.64 45.5306 5.496 45.1946 5.496H43.9706C43.2026 5.496 42.7466 5.856 42.6026 6.552L41.9066 9.912C41.7146 10.848 41.4746 12.192 41.1866 13.944C40.8266 12.048 40.5386 10.704 40.3466 9.936L39.6266 7.2C39.5306 6.888 39.3626 6.624 39.0986 6.408C38.8346 6.216 38.5226 6.096 38.1866 6.096H36.9866C36.6266 6.096 36.3146 6.216 36.0506 6.408C35.7866 6.624 35.6186 6.888 35.5466 7.2L34.8266 9.936C34.5626 10.92 34.2746 12.264 33.9626 13.944C33.7226 12.504 33.5066 11.16 33.2666 9.912L32.5706 6.552C32.4266 5.856 31.9706 5.496 31.2026 5.496H29.9786C29.6186 5.496 29.3546 5.616 29.1866 5.856C29.0186 6.096 28.9946 6.408 29.0906 6.744L31.8026 16.824ZM53.0259 12.528C53.0259 14.256 53.4819 15.648 54.4419 16.704C55.3779 17.784 56.7699 18.312 58.5939 18.312C59.5299 18.312 60.5139 18.192 61.5459 17.904C62.3139 17.712 62.5779 17.232 62.3859 16.44L62.2419 15.912C62.0499 15.24 61.5939 15.024 60.8739 15.216C60.2259 15.408 59.5299 15.48 58.8099 15.48C57.2259 15.48 56.4339 14.424 56.4339 12.288V11.184C56.4339 9.072 57.2259 8.016 58.8099 8.016C59.5299 8.016 60.1779 8.088 60.7539 8.232C61.0899 8.328 61.4019 8.328 61.6899 8.208C61.9779 8.088 62.1459 7.872 62.2419 7.56L62.4099 6.936C62.6019 6.24 62.3139 5.784 61.5459 5.568C60.5379 5.328 59.5539 5.184 58.5939 5.184C56.7699 5.184 55.3779 5.736 54.4419 6.792C53.4819 7.848 53.0259 9.24 53.0259 10.944V12.528ZM64.5303 14.208C64.5303 15.504 64.8903 16.512 65.6583 17.232C66.4263 17.952 67.4343 18.312 68.7063 18.312C69.9303 18.312 70.9383 17.832 71.7063 16.872L71.7303 17.064C71.7783 17.424 71.8743 17.664 72.0663 17.808C72.2583 17.952 72.5223 18 72.9063 18H73.5783C73.9143 18 74.1783 17.904 74.3703 17.688C74.5623 17.496 74.6583 17.208 74.6583 16.848V9.936C74.6583 8.544 74.2023 7.392 73.2903 6.504C72.3783 5.64 71.1063 5.184 69.4503 5.184C68.4903 5.184 67.5063 5.328 66.4743 5.616C66.1383 5.712 65.8743 5.904 65.7063 6.144C65.5383 6.384 65.5143 6.696 65.6103 7.032L65.7543 7.56C65.9223 8.256 66.3783 8.496 67.1223 8.304C67.9863 8.112 68.7543 8.016 69.4503 8.016C70.1223 8.016 70.6023 8.184 70.8903 8.52C71.1543 8.856 71.2983 9.36 71.2983 10.056V10.272H70.2663C68.5383 10.272 67.1463 10.584 66.0903 11.208C65.0343 11.832 64.5303 12.84 64.5303 14.208ZM67.9383 14.184C67.9383 13.584 68.1543 13.176 68.6103 12.984C69.0423 12.792 69.6903 12.672 70.5303 12.672H71.2983V14.544C70.7943 15.168 70.1463 15.48 69.3543 15.48C68.3943 15.48 67.9383 15.048 67.9383 14.184ZM77.4562 16.848C77.4562 17.208 77.5522 17.496 77.7682 17.688C77.9602 17.904 78.2482 18 78.6082 18H79.6642C80.0002 18 80.2882 17.904 80.5042 17.688C80.6962 17.496 80.8162 17.208 80.8162 16.848V9.096C81.5362 8.376 82.2562 8.016 83.0242 8.016C83.5042 8.016 83.8402 8.16 84.0562 8.448C84.2722 8.736 84.3922 9.192 84.3922 9.84V16.848C84.3922 17.208 84.4882 17.496 84.7042 17.688C84.8962 17.904 85.1842 18 85.5442 18H86.6002C86.9362 18 87.2242 17.904 87.4402 17.688C87.6322 17.496 87.7522 17.208 87.7522 16.848V9.456C87.7522 8.112 87.3922 7.056 86.6962 6.312C86.0002 5.568 85.0162 5.184 83.7442 5.184C82.5442 5.184 81.4402 5.664 80.4562 6.576L80.4322 6.408C80.3602 5.808 79.9522 5.496 79.1842 5.496H78.6082C78.2482 5.496 77.9602 5.616 77.7682 5.808C77.5522 6.024 77.4562 6.312 77.4562 6.648V16.848ZM95.6392 12.12C95.6392 14.112 96.1912 15.648 97.2952 16.704C98.3992 17.784 99.9352 18.312 101.879 18.312C103.319 18.312 105.023 18.072 106.943 17.592C107.279 17.52 107.543 17.352 107.783 17.064C107.999 16.776 108.119 16.464 108.119 16.128V10.416C108.119 10.08 108.023 9.792 107.855 9.6C107.663 9.408 107.423 9.336 107.087 9.336L105.815 9.432C105.095 9.48 104.759 9.888 104.759 10.656V15.096C103.895 15.336 103.103 15.432 102.359 15.432C101.303 15.432 100.511 15.168 99.9832 14.64C99.4552 14.112 99.1912 13.176 99.1912 11.856V7.392C99.1912 6.096 99.4552 5.16 99.9832 4.632C100.511 4.104 101.303 3.816 102.359 3.816C103.079 3.816 103.943 3.912 104.951 4.104C105.287 4.2 105.575 4.152 105.839 4.008C106.103 3.864 106.271 3.648 106.343 3.312L106.463 2.736C106.607 2.016 106.319 1.56 105.575 1.344C104.423 1.08 103.175 0.935999 101.879 0.935999C99.9352 0.935999 98.3992 1.488 97.2952 2.568C96.1912 3.648 95.6392 5.16 95.6392 7.128V12.12ZM110.515 14.208C110.515 15.504 110.875 16.512 111.643 17.232C112.411 17.952 113.419 18.312 114.691 18.312C115.915 18.312 116.923 17.832 117.691 16.872L117.715 17.064C117.763 17.424 117.859 17.664 118.051 17.808C118.243 17.952 118.507 18 118.891 18H119.563C119.899 18 120.163 17.904 120.355 17.688C120.547 17.496 120.643 17.208 120.643 16.848V9.936C120.643 8.544 120.187 7.392 119.275 6.504C118.363 5.64 117.091 5.184 115.435 5.184C114.475 5.184 113.491 5.328 112.459 5.616C112.123 5.712 111.859 5.904 111.691 6.144C111.523 6.384 111.499 6.696 111.595 7.032L111.739 7.56C111.907 8.256 112.363 8.496 113.107 8.304C113.971 8.112 114.739 8.016 115.435 8.016C116.107 8.016 116.587 8.184 116.875 8.52C117.139 8.856 117.283 9.36 117.283 10.056V10.272H116.251C114.523 10.272 113.131 10.584 112.075 11.208C111.019 11.832 110.515 12.84 110.515 14.208ZM113.923 14.184C113.923 13.584 114.139 13.176 114.595 12.984C115.027 12.792 115.675 12.672 116.515 12.672H117.283V14.544C116.779 15.168 116.131 15.48 115.339 15.48C114.379 15.48 113.923 15.048 113.923 14.184ZM123.441 16.848C123.441 17.208 123.537 17.496 123.729 17.688C123.921 17.904 124.185 18 124.521 18H125.265C125.985 18 126.369 17.736 126.441 17.184L126.465 16.968C127.425 17.88 128.433 18.312 129.489 18.312C130.905 18.312 132.033 17.856 132.849 16.944C133.665 16.032 134.073 14.736 134.073 13.104V10.392C134.073 8.76 133.665 7.464 132.849 6.552C132.033 5.64 130.905 5.184 129.489 5.184C128.529 5.184 127.641 5.544 126.801 6.24V1.728C126.801 1.392 126.681 1.104 126.489 0.887999C126.273 0.696 125.985 0.576 125.649 0.576H124.593C124.233 0.576 123.945 0.696 123.753 0.887999C123.537 1.104 123.441 1.392 123.441 1.728V16.848ZM126.801 14.4V9.096C127.617 8.376 128.337 8.016 128.937 8.016C129.561 8.016 129.993 8.232 130.257 8.664C130.521 9.096 130.665 9.816 130.665 10.776V12.72C130.665 13.704 130.521 14.4 130.257 14.832C129.993 15.264 129.561 15.48 128.937 15.48C128.265 15.48 127.569 15.12 126.801 14.4ZM136.132 14.208C136.132 15.504 136.492 16.512 137.26 17.232C138.028 17.952 139.036 18.312 140.308 18.312C141.532 18.312 142.54 17.832 143.308 16.872L143.332 17.064C143.38 17.424 143.476 17.664 143.668 17.808C143.86 17.952 144.124 18 144.508 18H145.18C145.516 18 145.78 17.904 145.972 17.688C146.164 17.496 146.26 17.208 146.26 16.848V9.936C146.26 8.544 145.804 7.392 144.892 6.504C143.98 5.64 142.708 5.184 141.052 5.184C140.092 5.184 139.108 5.328 138.076 5.616C137.74 5.712 137.476 5.904 137.308 6.144C137.14 6.384 137.116 6.696 137.212 7.032L137.356 7.56C137.524 8.256 137.98 8.496 138.724 8.304C139.588 8.112 140.356 8.016 141.052 8.016C141.724 8.016 142.204 8.184 142.492 8.52C142.756 8.856 142.9 9.36 142.9 10.056V10.272H141.868C140.14 10.272 138.748 10.584 137.692 11.208C136.636 11.832 136.132 12.84 136.132 14.208ZM139.54 14.184C139.54 13.584 139.756 13.176 140.212 12.984C140.644 12.792 141.292 12.672 142.132 12.672H142.9V14.544C142.396 15.168 141.748 15.48 140.956 15.48C139.996 15.48 139.54 15.048 139.54 14.184ZM149.538 13.728C149.922 16.584 151.41 18 154.05 18C154.386 18 154.89 17.928 155.538 17.784L155.49 18.432C155.442 18.96 155.322 19.368 155.13 19.632C154.938 19.92 154.602 20.04 154.122 20.04H152.514C151.746 20.04 151.386 20.4 151.434 21.12L151.482 21.768C151.53 22.488 151.938 22.824 152.706 22.824H154.026C155.514 22.824 156.642 22.464 157.434 21.72C158.202 21 158.634 19.944 158.73 18.6L159.354 6.648C159.402 5.88 159.018 5.496 158.202 5.496H157.314C156.546 5.496 156.138 5.88 156.09 6.648L155.658 15C155.322 15.096 154.89 15.144 154.362 15.144C153.834 15.144 153.45 15 153.234 14.688C152.994 14.376 152.85 13.896 152.778 13.272L151.866 6.576C151.77 5.856 151.338 5.496 150.57 5.496H149.634C149.274 5.496 148.986 5.616 148.794 5.856C148.602 6.096 148.53 6.384 148.578 6.72L149.538 13.728ZM168.784 21.288L168.832 21.72C168.904 22.464 169.336 22.824 170.104 22.824H172.72C174.208 22.824 175.36 22.44 176.176 21.672C176.992 20.904 177.4 19.848 177.4 18.504V6.648C177.4 5.88 177.04 5.496 176.344 5.496H175.552C174.856 5.496 174.472 5.736 174.424 6.192L174.376 6.528C173.416 5.64 172.408 5.184 171.352 5.184C169.912 5.184 168.808 5.64 167.992 6.552C167.176 7.464 166.768 8.76 166.768 10.392V12.792C166.768 14.448 167.176 15.72 167.992 16.632C168.808 17.544 169.912 18 171.352 18C172.336 18 173.224 17.664 174.04 16.968V18.6C174.04 19.032 173.92 19.368 173.68 19.632C173.44 19.92 173.128 20.04 172.72 20.04H169.84C169.48 20.04 169.192 20.16 169 20.376C168.808 20.616 168.736 20.904 168.784 21.288ZM171.904 15.168C171.28 15.168 170.824 14.952 170.56 14.52C170.296 14.088 170.176 13.392 170.176 12.408V10.776C170.176 9.816 170.296 9.096 170.56 8.664C170.824 8.232 171.28 8.016 171.904 8.016C172.528 8.016 173.248 8.4 174.04 9.12V14.16C173.224 14.832 172.528 15.168 171.904 15.168ZM180.203 14.04C180.203 15.408 180.539 16.464 181.235 17.208C181.931 17.952 182.915 18.312 184.211 18.312C185.411 18.312 186.491 17.856 187.499 16.92L187.523 17.136C187.547 17.472 187.667 17.712 187.883 17.832C188.075 17.952 188.387 18 188.819 18H189.347C189.683 18 189.971 17.904 190.187 17.688C190.379 17.496 190.499 17.208 190.499 16.848V6.648C190.499 6.312 190.379 6.024 190.187 5.808C189.971 5.616 189.683 5.496 189.347 5.496H188.291C187.931 5.496 187.643 5.616 187.451 5.808C187.235 6.024 187.139 6.312 187.139 6.648V14.4C186.419 15.12 185.675 15.48 184.931 15.48C184.451 15.48 184.091 15.36 183.875 15.072C183.659 14.784 183.563 14.328 183.563 13.656V6.648C183.563 6.312 183.443 6.024 183.251 5.808C183.035 5.616 182.747 5.496 182.411 5.496H181.355C180.995 5.496 180.707 5.616 180.515 5.808C180.299 6.024 180.203 6.312 180.203 6.648V14.04ZM195.105 3.816C195.633 3.816 196.089 3.648 196.449 3.288C196.809 2.952 197.001 2.52 197.001 1.992C197.001 1.488 196.809 1.056 196.449 0.696C196.089 0.36 195.633 0.167999 195.105 0.167999C194.553 0.167999 194.097 0.36 193.737 0.696C193.377 1.056 193.209 1.488 193.209 1.992C193.209 2.52 193.377 2.952 193.737 3.288C194.097 3.648 194.553 3.816 195.105 3.816ZM193.425 16.848C193.425 17.208 193.521 17.496 193.737 17.688C193.929 17.904 194.217 18 194.577 18H195.633C195.969 18 196.257 17.904 196.473 17.688C196.665 17.496 196.785 17.208 196.785 16.848V6.648C196.785 6.312 196.665 6.024 196.473 5.808C196.257 5.616 195.969 5.496 195.633 5.496H194.577C194.217 5.496 193.929 5.616 193.737 5.808C193.521 6.024 193.425 6.312 193.425 6.648V16.848ZM199.346 13.104C199.346 14.736 199.754 16.032 200.57 16.944C201.386 17.856 202.49 18.312 203.93 18.312C204.986 18.312 205.994 17.88 206.954 16.968L206.978 17.16C207.002 17.496 207.098 17.736 207.29 17.832C207.482 17.952 207.77 18 208.154 18H208.898C209.234 18 209.498 17.904 209.69 17.688C209.882 17.496 209.978 17.208 209.978 16.848V1.728C209.978 1.392 209.858 1.104 209.666 0.887999C209.45 0.696 209.162 0.576 208.826 0.576H207.77C207.41 0.576 207.122 0.696 206.93 0.887999C206.714 1.104 206.618 1.392 206.618 1.728V6.24C205.802 5.544 204.89 5.184 203.93 5.184C202.49 5.184 201.386 5.64 200.57 6.552C199.754 7.464 199.346 8.76 199.346 10.392V13.104ZM204.482 15.48C203.858 15.48 203.402 15.264 203.138 14.832C202.874 14.4 202.754 13.704 202.754 12.72V10.776C202.754 9.816 202.874 9.096 203.138 8.664C203.402 8.232 203.858 8.016 204.482 8.016C205.178 8.016 205.898 8.376 206.618 9.096V14.424C205.826 15.144 205.106 15.48 204.482 15.48ZM212.542 13.008C212.542 14.496 212.998 15.744 213.958 16.776C214.918 17.808 216.334 18.312 218.254 18.312C219.238 18.312 220.294 18.144 221.422 17.808C222.142 17.592 222.406 17.112 222.214 16.392L222.094 15.936C221.902 15.264 221.422 15 220.654 15.168C219.718 15.384 218.902 15.48 218.23 15.48C216.67 15.48 215.902 14.664 215.902 13.008V12.816H222.502C222.67 12.816 222.814 12.768 222.934 12.648C223.054 12.528 223.126 12.384 223.126 12.192V10.464C223.126 9.072 222.646 7.824 221.686 6.768C220.726 5.712 219.43 5.184 217.822 5.184C216.19 5.184 214.918 5.712 213.958 6.744C212.998 7.8 212.542 9.024 212.542 10.464V13.008ZM215.902 10.512V10.2C215.902 9.576 216.046 9.072 216.358 8.64C216.646 8.232 217.15 8.016 217.846 8.016C219.118 8.016 219.766 8.76 219.766 10.2V10.512H215.902ZM231.335 13.728C231.719 16.584 233.207 18 235.847 18C236.183 18 236.687 17.928 237.335 17.784L237.287 18.432C237.239 18.96 237.119 19.368 236.927 19.632C236.735 19.92 236.399 20.04 235.919 20.04H234.311C233.543 20.04 233.183 20.4 233.231 21.12L233.279 21.768C233.327 22.488 233.735 22.824 234.503 22.824H235.823C237.311 22.824 238.439 22.464 239.231 21.72C239.999 21 240.431 19.944 240.527 18.6L241.151 6.648C241.199 5.88 240.815 5.496 239.999 5.496H239.111C238.343 5.496 237.935 5.88 237.887 6.648L237.455 15C237.119 15.096 236.687 15.144 236.159 15.144C235.631 15.144 235.247 15 235.031 14.688C234.791 14.376 234.647 13.896 234.575 13.272L233.663 6.576C233.567 5.856 233.135 5.496 232.367 5.496H231.431C231.071 5.496 230.783 5.616 230.591 5.856C230.399 6.096 230.327 6.384 230.375 6.72L231.335 13.728ZM243.292 12.6C243.292 14.376 243.771 15.768 244.756 16.776C245.715 17.808 247.06 18.312 248.788 18.312C250.492 18.312 251.836 17.808 252.82 16.776C253.78 15.768 254.284 14.376 254.284 12.6V10.872C254.284 9.168 253.78 7.8 252.82 6.744C251.86 5.712 250.516 5.184 248.788 5.184C247.06 5.184 245.692 5.712 244.732 6.744C243.771 7.8 243.292 9.168 243.292 10.872V12.6ZM248.788 15.48C247.972 15.48 247.42 15.24 247.132 14.76C246.844 14.28 246.7 13.488 246.7 12.408V11.088C246.7 10.056 246.844 9.288 247.132 8.784C247.42 8.28 247.972 8.016 248.788 8.016C249.58 8.016 250.132 8.28 250.42 8.784C250.708 9.288 250.876 10.056 250.876 11.088V12.408C250.876 13.488 250.708 14.28 250.42 14.76C250.132 15.24 249.58 15.48 248.788 15.48ZM256.727 14.04C256.727 15.408 257.063 16.464 257.759 17.208C258.455 17.952 259.439 18.312 260.735 18.312C261.935 18.312 263.015 17.856 264.023 16.92L264.047 17.136C264.071 17.472 264.191 17.712 264.407 17.832C264.599 17.952 264.911 18 265.343 18H265.871C266.207 18 266.495 17.904 266.711 17.688C266.903 17.496 267.023 17.208 267.023 16.848V6.648C267.023 6.312 266.903 6.024 266.711 5.808C266.495 5.616 266.207 5.496 265.871 5.496H264.815C264.455 5.496 264.167 5.616 263.975 5.808C263.759 6.024 263.663 6.312 263.663 6.648V14.4C262.943 15.12 262.199 15.48 261.455 15.48C260.975 15.48 260.615 15.36 260.399 15.072C260.183 14.784 260.087 14.328 260.087 13.656V6.648C260.087 6.312 259.967 6.024 259.775 5.808C259.559 5.616 259.271 5.496 258.935 5.496H257.879C257.519 5.496 257.231 5.616 257.039 5.808C256.823 6.024 256.727 6.312 256.727 6.648V14.04ZM273.452 12.864L274.58 12.744C275.252 12.672 275.612 12.312 275.66 11.664C275.708 10.896 275.924 10.2 276.26 9.552C276.596 8.904 276.932 8.376 277.316 7.992C277.676 7.608 278.012 7.152 278.324 6.624C278.612 6.096 278.78 5.52 278.78 4.944C278.78 3.816 278.348 2.856 277.508 2.088C276.668 1.32 275.564 0.935999 274.172 0.935999C272.972 0.935999 271.844 1.224 270.812 1.8C270.524 1.968 270.356 2.184 270.284 2.472C270.188 2.76 270.236 3.024 270.38 3.288L270.74 3.984C271.028 4.56 271.484 4.704 272.108 4.368C272.804 4.008 273.5 3.816 274.172 3.816C274.604 3.816 274.916 3.936 275.156 4.176C275.396 4.416 275.516 4.728 275.516 5.064C275.516 5.424 275.42 5.76 275.228 6.048C275.036 6.36 274.796 6.672 274.508 6.96C274.22 7.248 273.956 7.584 273.668 7.944C273.38 8.328 273.116 8.832 272.876 9.504C272.636 10.176 272.492 10.944 272.444 11.808C272.372 12.576 272.708 12.936 273.452 12.864ZM272.036 16.368C272.036 16.92 272.228 17.376 272.612 17.76C272.996 18.144 273.452 18.312 273.98 18.312C274.508 18.312 274.988 18.144 275.372 17.76C275.756 17.376 275.948 16.92 275.948 16.368C275.948 15.84 275.756 15.36 275.372 14.976C274.988 14.592 274.508 14.4 273.98 14.4C273.452 14.4 272.996 14.592 272.612 14.976C272.228 15.36 272.036 15.84 272.036 16.368Z" fill="#16A9CF"/>
</svg>
