<svg width="223" height="23" viewBox="0 0 223 23" fill="none" xmlns="http://www.w3.org/2000/svg">
<path d="M0.824 16.848C0.824 17.208 0.92 17.496 1.136 17.688C1.328 17.904 1.616 18 1.976 18H3.128C3.464 18 3.752 17.904 3.968 17.688C4.16 17.496 4.28 17.208 4.28 16.848V2.4C4.28 2.064 4.16 1.776 3.968 1.56C3.752 1.368 3.464 1.248 3.128 1.248H1.976C1.616 1.248 1.328 1.368 1.136 1.56C0.92 1.776 0.824 2.064 0.824 2.4V16.848ZM8.42956 7.344H8.88556C9.50956 7.344 9.91756 7.08 10.1096 6.504L11.4296 2.376C11.5256 2.088 11.5016 1.824 11.3576 1.584C11.2136 1.368 10.9736 1.248 10.6856 1.248H9.84556C9.53356 1.248 9.26956 1.344 9.02956 1.536C8.78956 1.728 8.64556 1.944 8.59756 2.232L7.68556 6.36C7.54156 7.032 7.78156 7.344 8.42956 7.344ZM14.1281 16.848C14.1281 17.208 14.2241 17.496 14.4401 17.688C14.6321 17.904 14.9201 18 15.2801 18H16.3361C16.6721 18 16.9601 17.904 17.1761 17.688C17.3681 17.496 17.4881 17.208 17.4881 16.848V9.096C18.2561 8.376 18.9281 8.016 19.5281 8.016C20.0081 8.016 20.3441 8.16 20.5601 8.448C20.7761 8.736 20.8961 9.192 20.8961 9.84V16.848C20.8961 17.208 20.9921 17.496 21.2081 17.688C21.4001 17.904 21.6881 18 22.0481 18H23.1041C23.4401 18 23.7281 17.904 23.9441 17.688C24.1361 17.496 24.2561 17.208 24.2561 16.848V9.552C24.2561 9.504 24.2321 9.408 24.2321 9.288C24.2321 9.192 24.2321 9.096 24.2321 9.024C24.9281 8.352 25.6241 8.016 26.2961 8.016C26.7761 8.016 27.1121 8.16 27.3281 8.448C27.5441 8.736 27.6641 9.192 27.6641 9.84V16.848C27.6641 17.208 27.7601 17.496 27.9761 17.688C28.1681 17.904 28.4561 18 28.8161 18H29.8721C30.2081 18 30.4961 17.904 30.7121 17.688C30.9041 17.496 31.0241 17.208 31.0241 16.848V9.456C31.0241 8.112 30.6641 7.056 29.9681 6.312C29.2721 5.568 28.2881 5.184 27.0161 5.184C25.8641 5.184 24.7121 5.712 23.5601 6.744C22.9121 5.712 21.8081 5.184 20.2481 5.184C19.1441 5.184 18.1121 5.664 17.1281 6.576L17.1041 6.408C17.0081 5.808 16.6241 5.496 15.9281 5.496H15.2801C14.9201 5.496 14.6321 5.616 14.4401 5.808C14.2241 6.024 14.1281 6.312 14.1281 6.648V16.848ZM39.1124 16.848C39.1124 17.208 39.2084 17.496 39.4244 17.688C39.6164 17.904 39.9044 18 40.2644 18H41.3204C41.6564 18 41.9444 17.904 42.1604 17.688C42.3524 17.496 42.4724 17.208 42.4724 16.848V9.6C43.3844 8.568 44.2244 8.04 45.0164 8.04C45.2084 8.04 45.3524 8.04 45.4244 8.04C45.4724 8.04 45.5684 7.992 45.7124 7.92C45.8324 7.848 45.9284 7.728 46.0004 7.536C46.0724 7.344 46.1444 7.104 46.1924 6.768C46.3844 5.712 46.0484 5.184 45.1844 5.184C44.6084 5.184 44.0324 5.376 43.4804 5.712C42.9284 6.048 42.4724 6.48 42.1364 7.008L42.0644 6.624C41.9204 5.88 41.5364 5.496 40.8884 5.496H40.2644C39.9044 5.496 39.6164 5.616 39.4244 5.808C39.2084 6.024 39.1124 6.312 39.1124 6.648V16.848ZM47.7993 13.008C47.7993 14.496 48.2553 15.744 49.2153 16.776C50.1753 17.808 51.5913 18.312 53.5113 18.312C54.4953 18.312 55.5513 18.144 56.6793 17.808C57.3993 17.592 57.6633 17.112 57.4713 16.392L57.3513 15.936C57.1593 15.264 56.6793 15 55.9113 15.168C54.9753 15.384 54.1593 15.48 53.4873 15.48C51.9273 15.48 51.1593 14.664 51.1593 13.008V12.816H57.7593C57.9273 12.816 58.0713 12.768 58.1913 12.648C58.3113 12.528 58.3833 12.384 58.3833 12.192V10.464C58.3833 9.072 57.9033 7.824 56.9433 6.768C55.9833 5.712 54.6873 5.184 53.0793 5.184C51.4473 5.184 50.1753 5.712 49.2153 6.744C48.2553 7.8 47.7993 9.024 47.7993 10.464V13.008ZM51.1593 10.512V10.2C51.1593 9.576 51.3033 9.072 51.6153 8.64C51.9033 8.232 52.4073 8.016 53.1033 8.016C54.3753 8.016 55.0233 8.76 55.0233 10.2V10.512H51.1593ZM60.335 14.208C60.335 15.504 60.695 16.512 61.463 17.232C62.231 17.952 63.239 18.312 64.511 18.312C65.735 18.312 66.743 17.832 67.511 16.872L67.535 17.064C67.583 17.424 67.679 17.664 67.871 17.808C68.063 17.952 68.327 18 68.711 18H69.383C69.719 18 69.983 17.904 70.175 17.688C70.367 17.496 70.463 17.208 70.463 16.848V9.936C70.463 8.544 70.007 7.392 69.095 6.504C68.183 5.64 66.911 5.184 65.255 5.184C64.295 5.184 63.311 5.328 62.279 5.616C61.943 5.712 61.679 5.904 61.511 6.144C61.343 6.384 61.319 6.696 61.415 7.032L61.559 7.56C61.727 8.256 62.183 8.496 62.927 8.304C63.791 8.112 64.559 8.016 65.255 8.016C65.927 8.016 66.407 8.184 66.695 8.52C66.959 8.856 67.103 9.36 67.103 10.056V10.272H66.071C64.343 10.272 62.951 10.584 61.895 11.208C60.839 11.832 60.335 12.84 60.335 14.208ZM63.743 14.184C63.743 13.584 63.959 13.176 64.415 12.984C64.847 12.792 65.495 12.672 66.335 12.672H67.103V14.544C66.599 15.168 65.951 15.48 65.159 15.48C64.199 15.48 63.743 15.048 63.743 14.184ZM72.9009 13.104C72.9009 14.736 73.3089 16.032 74.1249 16.944C74.9409 17.856 76.0449 18.312 77.4849 18.312C78.5409 18.312 79.5489 17.88 80.5089 16.968L80.5329 17.16C80.5569 17.496 80.6529 17.736 80.8449 17.832C81.0369 17.952 81.3249 18 81.7089 18H82.4529C82.7889 18 83.0529 17.904 83.2449 17.688C83.4369 17.496 83.5329 17.208 83.5329 16.848V1.728C83.5329 1.392 83.4129 1.104 83.2209 0.887999C83.0049 0.696 82.7169 0.576 82.3809 0.576H81.3249C80.9649 0.576 80.6769 0.696 80.4849 0.887999C80.2689 1.104 80.1729 1.392 80.1729 1.728V6.24C79.3569 5.544 78.4449 5.184 77.4849 5.184C76.0449 5.184 74.9409 5.64 74.1249 6.552C73.3089 7.464 72.9009 8.76 72.9009 10.392V13.104ZM78.0369 15.48C77.4129 15.48 76.9569 15.264 76.6929 14.832C76.4289 14.4 76.3089 13.704 76.3089 12.72V10.776C76.3089 9.816 76.4289 9.096 76.6929 8.664C76.9569 8.232 77.4129 8.016 78.0369 8.016C78.7329 8.016 79.4529 8.376 80.1729 9.096V14.424C79.3809 15.144 78.6609 15.48 78.0369 15.48ZM86.9362 13.728C87.3202 16.584 88.8082 18 91.4482 18C91.7842 18 92.2882 17.928 92.9362 17.784L92.8882 18.432C92.8402 18.96 92.7202 19.368 92.5282 19.632C92.3362 19.92 92.0002 20.04 91.5202 20.04H89.9122C89.1442 20.04 88.7842 20.4 88.8322 21.12L88.8802 21.768C88.9282 22.488 89.3362 22.824 90.1042 22.824H91.4242C92.9122 22.824 94.0402 22.464 94.8322 21.72C95.6002 21 96.0322 19.944 96.1282 18.6L96.7522 6.648C96.8002 5.88 96.4162 5.496 95.6002 5.496H94.7122C93.9442 5.496 93.5362 5.88 93.4882 6.648L93.0562 15C92.7202 15.096 92.2882 15.144 91.7602 15.144C91.2322 15.144 90.8482 15 90.6322 14.688C90.3922 14.376 90.2482 13.896 90.1762 13.272L89.2642 6.576C89.1682 5.856 88.7362 5.496 87.9682 5.496H87.0322C86.6722 5.496 86.3842 5.616 86.1922 5.856C86.0002 6.096 85.9282 6.384 85.9762 6.72L86.9362 13.728ZM104.023 14.208C104.023 15.504 104.383 16.512 105.151 17.232C105.919 17.952 106.927 18.312 108.199 18.312C109.423 18.312 110.431 17.832 111.199 16.872L111.223 17.064C111.271 17.424 111.367 17.664 111.559 17.808C111.751 17.952 112.015 18 112.399 18H113.071C113.407 18 113.671 17.904 113.863 17.688C114.055 17.496 114.151 17.208 114.151 16.848V9.936C114.151 8.544 113.695 7.392 112.783 6.504C111.871 5.64 110.599 5.184 108.943 5.184C107.983 5.184 106.999 5.328 105.967 5.616C105.631 5.712 105.367 5.904 105.199 6.144C105.031 6.384 105.007 6.696 105.103 7.032L105.247 7.56C105.415 8.256 105.871 8.496 106.615 8.304C107.479 8.112 108.247 8.016 108.943 8.016C109.615 8.016 110.095 8.184 110.383 8.52C110.647 8.856 110.791 9.36 110.791 10.056V10.272H109.759C108.031 10.272 106.639 10.584 105.583 11.208C104.527 11.832 104.023 12.84 104.023 14.208ZM107.431 14.184C107.431 13.584 107.647 13.176 108.103 12.984C108.535 12.792 109.183 12.672 110.023 12.672H110.791V14.544C110.287 15.168 109.639 15.48 108.847 15.48C107.887 15.48 107.431 15.048 107.431 14.184ZM116.948 16.848C116.948 17.208 117.044 17.496 117.26 17.688C117.452 17.904 117.74 18 118.1 18H119.156C119.492 18 119.78 17.904 119.996 17.688C120.188 17.496 120.308 17.208 120.308 16.848V9.096C121.028 8.376 121.748 8.016 122.516 8.016C122.996 8.016 123.332 8.16 123.548 8.448C123.764 8.736 123.884 9.192 123.884 9.84V16.848C123.884 17.208 123.98 17.496 124.196 17.688C124.388 17.904 124.676 18 125.036 18H126.092C126.428 18 126.716 17.904 126.932 17.688C127.124 17.496 127.244 17.208 127.244 16.848V9.456C127.244 8.112 126.884 7.056 126.188 6.312C125.492 5.568 124.508 5.184 123.236 5.184C122.036 5.184 120.932 5.664 119.948 6.576L119.924 6.408C119.852 5.808 119.444 5.496 118.676 5.496H118.1C117.74 5.496 117.452 5.616 117.26 5.808C117.044 6.024 116.948 6.312 116.948 6.648V16.848ZM129.69 13.104C129.69 14.736 130.098 16.032 130.914 16.944C131.73 17.856 132.834 18.312 134.274 18.312C135.33 18.312 136.338 17.88 137.298 16.968L137.322 17.16C137.346 17.496 137.442 17.736 137.634 17.832C137.826 17.952 138.114 18 138.498 18H139.242C139.578 18 139.842 17.904 140.034 17.688C140.226 17.496 140.322 17.208 140.322 16.848V1.728C140.322 1.392 140.202 1.104 140.01 0.887999C139.794 0.696 139.506 0.576 139.17 0.576H138.114C137.754 0.576 137.466 0.696 137.274 0.887999C137.058 1.104 136.962 1.392 136.962 1.728V6.24C136.146 5.544 135.234 5.184 134.274 5.184C132.834 5.184 131.73 5.64 130.914 6.552C130.098 7.464 129.69 8.76 129.69 10.392V13.104ZM134.826 15.48C134.202 15.48 133.746 15.264 133.482 14.832C133.218 14.4 133.098 13.704 133.098 12.72V10.776C133.098 9.816 133.218 9.096 133.482 8.664C133.746 8.232 134.202 8.016 134.826 8.016C135.522 8.016 136.242 8.376 136.962 9.096V14.424C136.17 15.144 135.45 15.48 134.826 15.48ZM150.631 16.824C150.823 17.616 151.327 18 152.095 18H153.415C153.751 18 154.039 17.904 154.303 17.688C154.543 17.496 154.711 17.208 154.807 16.872L156.415 10.608L158.023 16.872C158.095 17.208 158.263 17.496 158.527 17.688C158.767 17.904 159.079 18 159.415 18H160.735C161.503 18 161.983 17.616 162.199 16.824L164.911 6.768C165.007 6.432 164.959 6.12 164.791 5.88C164.623 5.64 164.359 5.496 164.023 5.496H162.799C162.031 5.496 161.575 5.856 161.431 6.552L160.735 9.912C160.543 10.848 160.303 12.192 160.015 13.944C159.655 12.048 159.367 10.704 159.175 9.936L158.455 7.2C158.359 6.888 158.191 6.624 157.927 6.408C157.663 6.216 157.351 6.096 157.015 6.096H155.815C155.455 6.096 155.143 6.216 154.879 6.408C154.615 6.624 154.447 6.888 154.375 7.2L153.655 9.936C153.391 10.92 153.103 12.264 152.791 13.944C152.551 12.504 152.335 11.16 152.095 9.912L151.399 6.552C151.255 5.856 150.799 5.496 150.031 5.496H148.807C148.447 5.496 148.183 5.616 148.015 5.856C147.847 6.096 147.823 6.408 147.919 6.744L150.631 16.824ZM168.621 3.816C169.149 3.816 169.605 3.648 169.965 3.288C170.325 2.952 170.517 2.52 170.517 1.992C170.517 1.488 170.325 1.056 169.965 0.696C169.605 0.36 169.149 0.167999 168.621 0.167999C168.069 0.167999 167.613 0.36 167.253 0.696C166.893 1.056 166.725 1.488 166.725 1.992C166.725 2.52 166.893 2.952 167.253 3.288C167.613 3.648 168.069 3.816 168.621 3.816ZM166.941 16.848C166.941 17.208 167.037 17.496 167.253 17.688C167.445 17.904 167.733 18 168.093 18H169.149C169.485 18 169.773 17.904 169.989 17.688C170.181 17.496 170.301 17.208 170.301 16.848V6.648C170.301 6.312 170.181 6.024 169.989 5.808C169.773 5.616 169.485 5.496 169.149 5.496H168.093C167.733 5.496 167.445 5.616 167.253 5.808C167.037 6.024 166.941 6.312 166.941 6.648V16.848ZM173.246 15.168C173.246 16.824 174.038 17.832 175.67 18.192C176.342 18.312 176.774 18.072 176.942 17.448L177.158 16.656C177.278 16.176 177.158 15.816 176.822 15.576C176.678 15.48 176.606 15.216 176.606 14.808V1.728C176.606 1.392 176.486 1.104 176.294 0.887999C176.078 0.696 175.79 0.576 175.454 0.576H174.398C174.038 0.576 173.75 0.696 173.558 0.887999C173.342 1.104 173.246 1.392 173.246 1.728V15.168ZM179.621 15.168C179.621 16.824 180.413 17.832 182.045 18.192C182.717 18.312 183.149 18.072 183.317 17.448L183.533 16.656C183.653 16.176 183.533 15.816 183.197 15.576C183.053 15.48 182.981 15.216 182.981 14.808V1.728C182.981 1.392 182.861 1.104 182.669 0.887999C182.453 0.696 182.165 0.576 181.829 0.576H180.773C180.413 0.576 180.125 0.696 179.933 0.887999C179.717 1.104 179.621 1.392 179.621 1.728V15.168ZM187.652 3.816C188.18 3.816 188.636 3.648 188.996 3.288C189.356 2.952 189.548 2.52 189.548 1.992C189.548 1.488 189.356 1.056 188.996 0.696C188.636 0.36 188.18 0.167999 187.652 0.167999C187.1 0.167999 186.644 0.36 186.284 0.696C185.924 1.056 185.756 1.488 185.756 1.992C185.756 2.52 185.924 2.952 186.284 3.288C186.644 3.648 187.1 3.816 187.652 3.816ZM185.972 16.848C185.972 17.208 186.068 17.496 186.284 17.688C186.476 17.904 186.764 18 187.124 18H188.18C188.516 18 188.804 17.904 189.02 17.688C189.212 17.496 189.332 17.208 189.332 16.848V6.648C189.332 6.312 189.212 6.024 189.02 5.808C188.804 5.616 188.516 5.496 188.18 5.496H187.124C186.764 5.496 186.476 5.616 186.284 5.808C186.068 6.024 185.972 6.312 185.972 6.648V16.848ZM192.253 16.848C192.253 17.208 192.349 17.496 192.565 17.688C192.757 17.904 193.045 18 193.405 18H194.461C194.797 18 195.085 17.904 195.301 17.688C195.493 17.496 195.613 17.208 195.613 16.848V9.096C196.333 8.376 197.053 8.016 197.821 8.016C198.301 8.016 198.637 8.16 198.853 8.448C199.069 8.736 199.189 9.192 199.189 9.84V16.848C199.189 17.208 199.285 17.496 199.501 17.688C199.693 17.904 199.981 18 200.341 18H201.397C201.733 18 202.021 17.904 202.237 17.688C202.429 17.496 202.549 17.208 202.549 16.848V9.456C202.549 8.112 202.189 7.056 201.493 6.312C200.797 5.568 199.813 5.184 198.541 5.184C197.341 5.184 196.237 5.664 195.253 6.576L195.229 6.408C195.157 5.808 194.749 5.496 193.981 5.496H193.405C193.045 5.496 192.757 5.616 192.565 5.808C192.349 6.024 192.253 6.312 192.253 6.648V16.848ZM207.011 21.288L207.059 21.72C207.131 22.464 207.563 22.824 208.331 22.824H210.947C212.435 22.824 213.587 22.44 214.403 21.672C215.219 20.904 215.627 19.848 215.627 18.504V6.648C215.627 5.88 215.267 5.496 214.571 5.496H213.779C213.083 5.496 212.699 5.736 212.651 6.192L212.603 6.528C211.643 5.64 210.635 5.184 209.579 5.184C208.139 5.184 207.035 5.64 206.219 6.552C205.403 7.464 204.995 8.76 204.995 10.392V12.792C204.995 14.448 205.403 15.72 206.219 16.632C207.035 17.544 208.139 18 209.579 18C210.563 18 211.451 17.664 212.267 16.968V18.6C212.267 19.032 212.147 19.368 211.907 19.632C211.667 19.92 211.355 20.04 210.947 20.04H208.067C207.707 20.04 207.419 20.16 207.227 20.376C207.035 20.616 206.963 20.904 207.011 21.288ZM210.131 15.168C209.507 15.168 209.051 14.952 208.787 14.52C208.523 14.088 208.403 13.392 208.403 12.408V10.776C208.403 9.816 208.523 9.096 208.787 8.664C209.051 8.232 209.507 8.016 210.131 8.016C210.755 8.016 211.475 8.4 212.267 9.12V14.16C211.451 14.832 210.755 15.168 210.131 15.168ZM218.142 16.368C218.142 16.92 218.334 17.376 218.718 17.76C219.102 18.144 219.558 18.312 220.086 18.312C220.614 18.312 221.094 18.144 221.478 17.76C221.862 17.376 222.054 16.92 222.054 16.368C222.054 15.84 221.862 15.36 221.478 14.976C221.094 14.592 220.638 14.4 220.086 14.4C219.558 14.4 219.102 14.592 218.718 14.976C218.334 15.36 218.142 15.84 218.142 16.368Z" fill="white"/>
</svg>
