<svg width="141" height="16" viewBox="0 0 141 16" fill="none" xmlns="http://www.w3.org/2000/svg">
<path d="M4.088 12.14C3.39733 12.14 2.79067 12.0373 2.268 11.832C1.74533 11.6267 1.24133 11.3 0.756 10.852C0.690667 10.7867 0.634667 10.7167 0.588 10.642C0.550667 10.558 0.532 10.4693 0.532 10.376C0.532 10.2267 0.583333 10.096 0.686 9.984C0.798 9.86267 0.933333 9.802 1.092 9.802C1.22267 9.802 1.33933 9.85333 1.442 9.956C1.806 10.3107 2.198 10.5813 2.618 10.768C3.04733 10.9547 3.528 11.048 4.06 11.048C4.47067 11.048 4.83933 10.9827 5.166 10.852C5.502 10.7213 5.768 10.5393 5.964 10.306C6.16 10.0727 6.258 9.802 6.258 9.494C6.24867 9.12067 6.13667 8.81267 5.922 8.57C5.71667 8.32733 5.42733 8.12667 5.054 7.968C4.69 7.8 4.26533 7.66 3.78 7.548C3.35067 7.44533 2.954 7.31933 2.59 7.17C2.23533 7.02067 1.92733 6.83867 1.666 6.624C1.40467 6.4 1.19933 6.134 1.05 5.826C0.91 5.50867 0.84 5.14 0.84 4.72C0.84 4.188 0.98 3.72133 1.26 3.32C1.54 2.91867 1.92733 2.61067 2.422 2.396C2.91667 2.172 3.486 2.06 4.13 2.06C4.69933 2.06 5.236 2.15333 5.74 2.34C6.25333 2.52667 6.664 2.78333 6.972 3.11C7.15867 3.28733 7.252 3.46 7.252 3.628C7.252 3.768 7.19133 3.89867 7.07 4.02C6.958 4.132 6.82733 4.188 6.678 4.188C6.57533 4.188 6.482 4.15067 6.398 4.076C6.23933 3.89867 6.03867 3.74 5.796 3.6C5.55333 3.46 5.28733 3.348 4.998 3.264C4.70867 3.18 4.41933 3.138 4.13 3.138C3.70067 3.138 3.32267 3.20333 2.996 3.334C2.66933 3.45533 2.41267 3.63267 2.226 3.866C2.04867 4.09 1.96 4.36067 1.96 4.678C1.96 5.03267 2.06267 5.32667 2.268 5.56C2.47333 5.784 2.74867 5.97067 3.094 6.12C3.43933 6.26 3.822 6.386 4.242 6.498C4.69933 6.61 5.11933 6.74067 5.502 6.89C5.894 7.03 6.23 7.20733 6.51 7.422C6.79 7.63667 7.00467 7.912 7.154 8.248C7.31267 8.57467 7.392 8.98067 7.392 9.466C7.392 9.97933 7.24733 10.4367 6.958 10.838C6.66867 11.2393 6.272 11.5567 5.768 11.79C5.27333 12.014 4.71333 12.1307 4.088 12.14ZM12.4211 12.14C11.6744 12.14 11.0211 11.9813 10.4611 11.664C9.90106 11.3467 9.4624 10.9127 9.14506 10.362C8.83706 9.802 8.68306 9.158 8.68306 8.43C8.68306 7.618 8.84173 6.92733 9.15906 6.358C9.48573 5.77933 9.90573 5.34067 10.4191 5.042C10.9417 4.734 11.4924 4.58 12.0711 4.58C12.5004 4.58 12.9157 4.65933 13.3171 4.818C13.7184 4.97667 14.0731 5.21 14.3811 5.518C14.6891 5.81667 14.9364 6.18067 15.1231 6.61C15.3097 7.03 15.4077 7.50133 15.4171 8.024C15.4171 8.17333 15.3611 8.29933 15.2491 8.402C15.1371 8.50467 15.0064 8.556 14.8571 8.556H9.32706L9.07506 7.59H14.4651L14.2411 7.786V7.478C14.2037 7.09533 14.0731 6.76867 13.8491 6.498C13.6344 6.218 13.3684 6.00333 13.0511 5.854C12.7431 5.70467 12.4164 5.63 12.0711 5.63C11.7911 5.63 11.5111 5.68133 11.2311 5.784C10.9604 5.87733 10.7131 6.036 10.4891 6.26C10.2744 6.47467 10.0971 6.75467 9.95706 7.1C9.8264 7.44533 9.76106 7.86067 9.76106 8.346C9.76106 8.88733 9.8684 9.36333 10.0831 9.774C10.3071 10.1847 10.6151 10.5113 11.0071 10.754C11.3991 10.9873 11.8564 11.104 12.3791 11.104C12.7057 11.104 12.9904 11.062 13.2331 10.978C13.4757 10.894 13.6857 10.7913 13.8631 10.67C14.0404 10.5393 14.1897 10.4087 14.3111 10.278C14.4324 10.194 14.5491 10.152 14.6611 10.152C14.8011 10.152 14.9131 10.1987 14.9971 10.292C15.0904 10.3853 15.1371 10.4973 15.1371 10.628C15.1371 10.7867 15.0624 10.9267 14.9131 11.048C14.6517 11.3373 14.2971 11.594 13.8491 11.818C13.4011 12.0327 12.9251 12.14 12.4211 12.14ZM18.3325 11.426C18.3325 11.5847 18.2765 11.72 18.1645 11.832C18.0525 11.944 17.9171 12 17.7585 12C17.5998 12 17.4691 11.944 17.3665 11.832C17.2638 11.72 17.2125 11.5847 17.2125 11.426V2.2C17.2125 2.04133 17.2638 1.91067 17.3665 1.808C17.4785 1.696 17.6138 1.64 17.7725 1.64C17.9405 1.64 18.0758 1.696 18.1785 1.808C18.2811 1.91067 18.3325 2.04133 18.3325 2.2V11.426ZM23.714 12.14C22.9674 12.14 22.314 11.9813 21.754 11.664C21.194 11.3467 20.7554 10.9127 20.438 10.362C20.13 9.802 19.976 9.158 19.976 8.43C19.976 7.618 20.1347 6.92733 20.452 6.358C20.7787 5.77933 21.1987 5.34067 21.712 5.042C22.2347 4.734 22.7854 4.58 23.364 4.58C23.7934 4.58 24.2087 4.65933 24.61 4.818C25.0114 4.97667 25.366 5.21 25.674 5.518C25.982 5.81667 26.2294 6.18067 26.416 6.61C26.6027 7.03 26.7007 7.50133 26.71 8.024C26.71 8.17333 26.654 8.29933 26.542 8.402C26.43 8.50467 26.2994 8.556 26.15 8.556H20.62L20.368 7.59H25.758L25.534 7.786V7.478C25.4967 7.09533 25.366 6.76867 25.142 6.498C24.9274 6.218 24.6614 6.00333 24.344 5.854C24.036 5.70467 23.7094 5.63 23.364 5.63C23.084 5.63 22.804 5.68133 22.524 5.784C22.2534 5.87733 22.006 6.036 21.782 6.26C21.5674 6.47467 21.39 6.75467 21.25 7.1C21.1194 7.44533 21.054 7.86067 21.054 8.346C21.054 8.88733 21.1614 9.36333 21.376 9.774C21.6 10.1847 21.908 10.5113 22.3 10.754C22.692 10.9873 23.1494 11.104 23.672 11.104C23.9987 11.104 24.2834 11.062 24.526 10.978C24.7687 10.894 24.9787 10.7913 25.156 10.67C25.3334 10.5393 25.4827 10.4087 25.604 10.278C25.7254 10.194 25.842 10.152 25.954 10.152C26.094 10.152 26.206 10.1987 26.29 10.292C26.3834 10.3853 26.43 10.4973 26.43 10.628C26.43 10.7867 26.3554 10.9267 26.206 11.048C25.9447 11.3373 25.59 11.594 25.142 11.818C24.694 12.0327 24.218 12.14 23.714 12.14ZM31.6134 4.58C32.0894 4.58 32.5188 4.63133 32.9014 4.734C33.2841 4.83667 33.5874 4.97667 33.8114 5.154C34.0354 5.33133 34.1474 5.532 34.1474 5.756C34.1474 5.87733 34.1054 5.994 34.0214 6.106C33.9374 6.218 33.8254 6.274 33.6854 6.274C33.5548 6.274 33.4474 6.25067 33.3634 6.204C33.2888 6.15733 33.2141 6.09667 33.1394 6.022C33.0741 5.94733 32.9808 5.882 32.8594 5.826C32.7474 5.76067 32.5841 5.70933 32.3694 5.672C32.1548 5.63467 31.9401 5.616 31.7254 5.616C31.2121 5.616 30.7594 5.73733 30.3674 5.98C29.9848 6.22267 29.6814 6.54933 29.4574 6.96C29.2334 7.37067 29.1214 7.83733 29.1214 8.36C29.1214 8.88267 29.2288 9.34933 29.4434 9.76C29.6581 10.1707 29.9568 10.4973 30.3394 10.74C30.7221 10.9827 31.1654 11.104 31.6694 11.104C31.9961 11.104 32.2574 11.076 32.4534 11.02C32.6494 10.964 32.8128 10.8987 32.9434 10.824C33.1114 10.7307 33.2374 10.6373 33.3214 10.544C33.4148 10.4507 33.5361 10.404 33.6854 10.404C33.8441 10.404 33.9654 10.4553 34.0494 10.558C34.1428 10.6607 34.1894 10.7867 34.1894 10.936C34.1894 11.104 34.0728 11.2813 33.8394 11.468C33.6061 11.6547 33.2888 11.8133 32.8874 11.944C32.4954 12.0747 32.0474 12.14 31.5434 12.14C30.8341 12.14 30.2134 11.9767 29.6814 11.65C29.1494 11.314 28.7341 10.8613 28.4354 10.292C28.1461 9.71333 28.0014 9.06933 28.0014 8.36C28.0014 7.65067 28.1508 7.01133 28.4494 6.442C28.7574 5.87267 29.1821 5.42 29.7234 5.084C30.2648 4.748 30.8948 4.58 31.6134 4.58ZM35.3732 4.804H38.6632C38.8125 4.804 38.9339 4.85533 39.0272 4.958C39.1299 5.06067 39.1812 5.182 39.1812 5.322C39.1812 5.47133 39.1299 5.59733 39.0272 5.7C38.9339 5.79333 38.8125 5.84 38.6632 5.84H35.3732C35.2332 5.84 35.1119 5.78867 35.0092 5.686C34.9065 5.58333 34.8552 5.45733 34.8552 5.308C34.8552 5.168 34.9065 5.05133 35.0092 4.958C35.1119 4.85533 35.2332 4.804 35.3732 4.804ZM36.8432 2.9C37.0019 2.9 37.1325 2.956 37.2352 3.068C37.3379 3.17067 37.3892 3.30133 37.3892 3.46V10.222C37.3892 10.446 37.4219 10.614 37.4872 10.726C37.5525 10.838 37.6365 10.9173 37.7392 10.964C37.8512 11.0013 37.9585 11.02 38.0612 11.02C38.1545 11.02 38.2339 11.006 38.2992 10.978C38.3739 10.9407 38.4579 10.922 38.5512 10.922C38.6445 10.922 38.7285 10.9687 38.8032 11.062C38.8872 11.146 38.9292 11.258 38.9292 11.398C38.9292 11.566 38.8312 11.7107 38.6352 11.832C38.4392 11.944 38.2199 12 37.9772 12C37.8465 12 37.6832 11.9907 37.4872 11.972C37.3005 11.9533 37.1139 11.8927 36.9272 11.79C36.7405 11.6873 36.5819 11.5193 36.4512 11.286C36.3299 11.0433 36.2692 10.7073 36.2692 10.278V3.46C36.2692 3.30133 36.3252 3.17067 36.4372 3.068C36.5492 2.956 36.6845 2.9 36.8432 2.9ZM50.0126 4.762C50.1806 4.762 50.3159 4.818 50.4186 4.93C50.5213 5.03267 50.5726 5.16333 50.5726 5.322V9.144C50.5726 10.0867 50.3066 10.8193 49.7746 11.342C49.2519 11.8553 48.5193 12.112 47.5766 12.112C46.6433 12.112 45.9106 11.8553 45.3786 11.342C44.8559 10.8193 44.5946 10.0867 44.5946 9.144V5.322C44.5946 5.16333 44.6459 5.03267 44.7486 4.93C44.8606 4.818 44.9959 4.762 45.1546 4.762C45.3226 4.762 45.4579 4.818 45.5606 4.93C45.6633 5.03267 45.7146 5.16333 45.7146 5.322V9.144C45.7146 9.77867 45.8779 10.2593 46.2046 10.586C46.5313 10.9127 46.9886 11.076 47.5766 11.076C48.1833 11.076 48.6453 10.9127 48.9626 10.586C49.2893 10.2593 49.4526 9.77867 49.4526 9.144V5.322C49.4526 5.16333 49.5039 5.03267 49.6066 4.93C49.7186 4.818 49.8539 4.762 50.0126 4.762ZM56.2173 4.65C56.852 4.65 57.4213 4.80867 57.9253 5.126C58.4293 5.44333 58.826 5.882 59.1153 6.442C59.414 7.002 59.5633 7.646 59.5633 8.374C59.5633 9.09267 59.414 9.73667 59.1153 10.306C58.826 10.866 58.4293 11.3093 57.9253 11.636C57.4307 11.9533 56.8707 12.112 56.2453 12.112C55.9 12.112 55.5733 12.0607 55.2653 11.958C54.9667 11.846 54.6913 11.706 54.4393 11.538C54.1967 11.3607 53.9913 11.1647 53.8233 10.95C53.6553 10.726 53.534 10.5067 53.4593 10.292L53.7673 10.096V14.226C53.7673 14.3847 53.716 14.52 53.6133 14.632C53.5107 14.744 53.3753 14.8 53.2073 14.8C53.0487 14.8 52.9133 14.744 52.8013 14.632C52.6987 14.5293 52.6473 14.394 52.6473 14.226V5.28C52.6473 5.12133 52.6987 4.99067 52.8013 4.888C52.9133 4.776 53.0487 4.72 53.2073 4.72C53.3753 4.72 53.5107 4.776 53.6133 4.888C53.716 4.99067 53.7673 5.12133 53.7673 5.28V6.526L53.5573 6.414C53.6227 6.18067 53.7347 5.95667 53.8933 5.742C54.0613 5.52733 54.262 5.34067 54.4953 5.182C54.738 5.014 55.004 4.88333 55.2933 4.79C55.592 4.69667 55.9 4.65 56.2173 4.65ZM56.0913 5.686C55.6247 5.686 55.2093 5.80267 54.8453 6.036C54.4907 6.26933 54.2107 6.58667 54.0053 6.988C53.8093 7.38933 53.7113 7.85133 53.7113 8.374C53.7113 8.88733 53.8093 9.34933 54.0053 9.76C54.2107 10.1707 54.4907 10.4927 54.8453 10.726C55.2093 10.9593 55.6247 11.076 56.0913 11.076C56.558 11.076 56.9687 10.9593 57.3233 10.726C57.678 10.4927 57.958 10.1707 58.1633 9.76C58.3687 9.34933 58.4713 8.88733 58.4713 8.374C58.4713 7.85133 58.3687 7.38933 58.1633 6.988C57.958 6.58667 57.678 6.26933 57.3233 6.036C56.9687 5.80267 56.558 5.686 56.0913 5.686ZM64.8224 4.804H68.1124C68.2617 4.804 68.3831 4.85533 68.4764 4.958C68.5791 5.06067 68.6304 5.182 68.6304 5.322C68.6304 5.47133 68.5791 5.59733 68.4764 5.7C68.3831 5.79333 68.2617 5.84 68.1124 5.84H64.8224C64.6824 5.84 64.5611 5.78867 64.4584 5.686C64.3557 5.58333 64.3044 5.45733 64.3044 5.308C64.3044 5.168 64.3557 5.05133 64.4584 4.958C64.5611 4.85533 64.6824 4.804 64.8224 4.804ZM66.2924 2.9C66.4511 2.9 66.5817 2.956 66.6844 3.068C66.7871 3.17067 66.8384 3.30133 66.8384 3.46V10.222C66.8384 10.446 66.8711 10.614 66.9364 10.726C67.0017 10.838 67.0857 10.9173 67.1884 10.964C67.3004 11.0013 67.4077 11.02 67.5104 11.02C67.6037 11.02 67.6831 11.006 67.7484 10.978C67.8231 10.9407 67.9071 10.922 68.0004 10.922C68.0937 10.922 68.1777 10.9687 68.2524 11.062C68.3364 11.146 68.3784 11.258 68.3784 11.398C68.3784 11.566 68.2804 11.7107 68.0844 11.832C67.8884 11.944 67.6691 12 67.4264 12C67.2957 12 67.1324 11.9907 66.9364 11.972C66.7497 11.9533 66.5631 11.8927 66.3764 11.79C66.1897 11.6873 66.0311 11.5193 65.9004 11.286C65.7791 11.0433 65.7184 10.7073 65.7184 10.278V3.46C65.7184 3.30133 65.7744 3.17067 65.8864 3.068C65.9984 2.956 66.1337 2.9 66.2924 2.9ZM76.994 8.36C76.994 9.088 76.8307 9.73667 76.504 10.306C76.1867 10.8753 75.7527 11.3233 75.202 11.65C74.6607 11.9767 74.0493 12.14 73.368 12.14C72.6867 12.14 72.0707 11.9767 71.52 11.65C70.9693 11.3233 70.5307 10.8753 70.204 10.306C69.8867 9.73667 69.728 9.088 69.728 8.36C69.728 7.632 69.8867 6.98333 70.204 6.414C70.5307 5.84467 70.9693 5.39667 71.52 5.07C72.0707 4.74333 72.6867 4.58 73.368 4.58C74.0493 4.58 74.6607 4.74333 75.202 5.07C75.7527 5.39667 76.1867 5.84467 76.504 6.414C76.8307 6.98333 76.994 7.632 76.994 8.36ZM75.874 8.36C75.874 7.81867 75.762 7.34267 75.538 6.932C75.3233 6.52133 75.0247 6.19933 74.642 5.966C74.2687 5.73267 73.844 5.616 73.368 5.616C72.892 5.616 72.4627 5.73267 72.08 5.966C71.7067 6.19933 71.408 6.52133 71.184 6.932C70.96 7.34267 70.848 7.81867 70.848 8.36C70.848 8.892 70.96 9.36333 71.184 9.774C71.408 10.1847 71.7067 10.5113 72.08 10.754C72.4627 10.9873 72.892 11.104 73.368 11.104C73.844 11.104 74.2687 10.9873 74.642 10.754C75.0247 10.5113 75.3233 10.1847 75.538 9.774C75.762 9.36333 75.874 8.892 75.874 8.36ZM83.919 9.744C84.015 9.744 84.1163 9.76 84.223 9.792C84.3403 9.824 84.4683 9.888 84.607 9.984C84.7883 10.1227 85.0016 10.2453 85.247 10.352C85.503 10.4587 85.7963 10.512 86.127 10.512C86.4576 10.512 86.767 10.432 87.055 10.272C87.3536 10.1013 87.599 9.86667 87.791 9.568C87.983 9.25867 88.079 8.89067 88.079 8.464C88.079 8.05867 87.9936 7.72267 87.823 7.456C87.663 7.18933 87.4443 6.98667 87.167 6.848C86.9003 6.70933 86.6123 6.64 86.303 6.64C86.0683 6.64 85.871 6.66133 85.711 6.704C85.5616 6.74667 85.4123 6.79467 85.263 6.848C85.1243 6.89067 84.959 6.912 84.767 6.912C84.5216 6.912 84.3296 6.82667 84.191 6.656C84.063 6.48533 83.999 6.28267 83.999 6.048C83.999 5.89867 84.0256 5.76533 84.079 5.648C84.143 5.53067 84.2336 5.40267 84.351 5.264L87.167 2.272L87.599 2.64H83.663C83.407 2.64 83.1936 2.55467 83.023 2.384C82.8523 2.21333 82.767 2 82.767 1.744C82.767 1.49867 82.8523 1.296 83.023 1.136C83.1936 0.965333 83.407 0.879999 83.663 0.879999H88.559C88.8896 0.879999 89.135 0.970666 89.295 1.152C89.4656 1.33333 89.551 1.56267 89.551 1.84C89.551 1.97867 89.5136 2.11733 89.439 2.256C89.3643 2.384 89.2736 2.50133 89.167 2.608L86.335 5.648L85.903 5.104C86.0203 5.05067 86.1803 5.00267 86.383 4.96C86.5963 4.91733 86.7723 4.896 86.911 4.896C87.5403 4.896 88.0843 5.06133 88.543 5.392C89.0123 5.712 89.3696 6.13333 89.615 6.656C89.871 7.168 89.999 7.72267 89.999 8.32C89.999 9.10933 89.823 9.792 89.471 10.368C89.119 10.944 88.623 11.3867 87.983 11.696C87.343 12.0053 86.5963 12.16 85.743 12.16C85.3483 12.16 84.959 12.112 84.575 12.016C84.191 11.92 83.8603 11.792 83.583 11.632C83.3483 11.504 83.1883 11.3653 83.103 11.216C83.0283 11.056 82.991 10.9067 82.991 10.768C82.991 10.5227 83.0763 10.2933 83.247 10.08C83.4283 9.856 83.6523 9.744 83.919 9.744ZM99.7971 3.28C100.245 3.28 100.656 3.34933 101.029 3.488C101.402 3.62667 101.722 3.80267 101.989 4.016C102.266 4.22933 102.48 4.448 102.629 4.672C102.789 4.88533 102.869 5.06667 102.869 5.216L102.453 5.424V4.256C102.453 3.97867 102.544 3.74933 102.725 3.568C102.906 3.376 103.136 3.28 103.413 3.28C103.69 3.28 103.92 3.37067 104.101 3.552C104.282 3.73333 104.373 3.968 104.373 4.256V11.376C104.373 12.304 104.17 13.0453 103.765 13.6C103.37 14.1653 102.848 14.5707 102.197 14.816C101.546 15.072 100.848 15.2 100.101 15.2C99.8877 15.2 99.6104 15.1733 99.2691 15.12C98.9277 15.0667 98.6024 15.0027 98.2931 14.928C97.9837 14.8533 97.7491 14.784 97.5891 14.72C97.2691 14.5813 97.0451 14.4053 96.9171 14.192C96.7997 13.9893 96.7784 13.7707 96.8531 13.536C96.9491 13.2267 97.1037 13.0133 97.3171 12.896C97.5304 12.7893 97.7544 12.7787 97.9891 12.864C98.0957 12.896 98.2717 12.96 98.5171 13.056C98.7624 13.152 99.0291 13.2373 99.3171 13.312C99.6157 13.3973 99.8771 13.44 100.101 13.44C100.901 13.44 101.493 13.28 101.877 12.96C102.261 12.64 102.453 12.1973 102.453 11.632V10.24L102.645 10.384C102.645 10.5227 102.57 10.6933 102.421 10.896C102.282 11.088 102.085 11.28 101.829 11.472C101.584 11.664 101.29 11.8293 100.949 11.968C100.608 12.096 100.245 12.16 99.8611 12.16C99.1037 12.16 98.4211 11.9733 97.8131 11.6C97.2051 11.216 96.7251 10.6933 96.3731 10.032C96.0211 9.36 95.8451 8.592 95.8451 7.728C95.8451 6.85333 96.0211 6.08533 96.3731 5.424C96.7251 4.752 97.1997 4.22933 97.7971 3.856C98.3944 3.472 99.0611 3.28 99.7971 3.28ZM100.101 5.04C99.6211 5.04 99.1997 5.15733 98.8371 5.392C98.4744 5.62667 98.1917 5.94667 97.9891 6.352C97.7864 6.75733 97.6851 7.216 97.6851 7.728C97.6851 8.22933 97.7864 8.68267 97.9891 9.088C98.1917 9.49333 98.4744 9.81333 98.8371 10.048C99.1997 10.2827 99.6211 10.4 100.101 10.4C100.592 10.4 101.018 10.2827 101.381 10.048C101.744 9.81333 102.026 9.49333 102.229 9.088C102.432 8.68267 102.533 8.22933 102.533 7.728C102.533 7.216 102.432 6.75733 102.229 6.352C102.026 5.94667 101.744 5.62667 101.381 5.392C101.018 5.15733 100.592 5.04 100.101 5.04ZM114.44 7.728C114.44 8.60267 114.242 9.376 113.848 10.048C113.464 10.7093 112.941 11.2267 112.28 11.6C111.629 11.9733 110.898 12.16 110.088 12.16C109.277 12.16 108.541 11.9733 107.88 11.6C107.229 11.2267 106.706 10.7093 106.312 10.048C105.928 9.376 105.736 8.60267 105.736 7.728C105.736 6.85333 105.928 6.08533 106.312 5.424C106.706 4.752 107.229 4.22933 107.88 3.856C108.541 3.472 109.277 3.28 110.088 3.28C110.898 3.28 111.629 3.472 112.28 3.856C112.941 4.22933 113.464 4.752 113.848 5.424C114.242 6.08533 114.44 6.85333 114.44 7.728ZM112.52 7.728C112.52 7.184 112.408 6.71467 112.184 6.32C111.97 5.91467 111.677 5.6 111.304 5.376C110.941 5.152 110.536 5.04 110.088 5.04C109.64 5.04 109.229 5.152 108.856 5.376C108.493 5.6 108.2 5.91467 107.976 6.32C107.762 6.71467 107.656 7.184 107.656 7.728C107.656 8.26133 107.762 8.73067 107.976 9.136C108.2 9.53067 108.493 9.84 108.856 10.064C109.229 10.288 109.64 10.4 110.088 10.4C110.536 10.4 110.941 10.288 111.304 10.064C111.677 9.84 111.97 9.53067 112.184 9.136C112.408 8.73067 112.52 8.26133 112.52 7.728ZM123.128 3.28C123.405 3.28 123.635 3.37067 123.816 3.552C123.997 3.73333 124.088 3.968 124.088 4.256V11.024C124.088 11.3013 123.997 11.536 123.816 11.728C123.635 11.9093 123.405 12 123.128 12C122.851 12 122.621 11.9093 122.44 11.728C122.259 11.536 122.168 11.3013 122.168 11.024V10.24L122.52 10.384C122.52 10.5227 122.445 10.6933 122.296 10.896C122.147 11.088 121.944 11.28 121.688 11.472C121.432 11.664 121.128 11.8293 120.776 11.968C120.435 12.096 120.061 12.16 119.656 12.16C118.92 12.16 118.253 11.9733 117.656 11.6C117.059 11.216 116.584 10.6933 116.232 10.032C115.891 9.36 115.72 8.592 115.72 7.728C115.72 6.85333 115.891 6.08533 116.232 5.424C116.584 4.752 117.053 4.22933 117.64 3.856C118.227 3.472 118.877 3.28 119.592 3.28C120.051 3.28 120.472 3.34933 120.856 3.488C121.24 3.62667 121.571 3.80267 121.848 4.016C122.136 4.22933 122.355 4.448 122.504 4.672C122.664 4.88533 122.744 5.06667 122.744 5.216L122.168 5.424V4.256C122.168 3.97867 122.259 3.74933 122.44 3.568C122.621 3.376 122.851 3.28 123.128 3.28ZM119.896 10.4C120.365 10.4 120.776 10.2827 121.128 10.048C121.48 9.81333 121.752 9.49333 121.944 9.088C122.147 8.68267 122.248 8.22933 122.248 7.728C122.248 7.216 122.147 6.75733 121.944 6.352C121.752 5.94667 121.48 5.62667 121.128 5.392C120.776 5.15733 120.365 5.04 119.896 5.04C119.437 5.04 119.032 5.15733 118.68 5.392C118.328 5.62667 118.051 5.94667 117.848 6.352C117.656 6.75733 117.56 7.216 117.56 7.728C117.56 8.22933 117.656 8.68267 117.848 9.088C118.051 9.49333 118.328 9.81333 118.68 10.048C119.032 10.2827 119.437 10.4 119.896 10.4ZM128.247 11.024C128.247 11.3013 128.151 11.536 127.959 11.728C127.778 11.9093 127.548 12 127.271 12C127.004 12 126.78 11.9093 126.599 11.728C126.418 11.536 126.327 11.3013 126.327 11.024V1.136C126.327 0.858666 126.418 0.629333 126.599 0.447999C126.791 0.256 127.026 0.16 127.303 0.16C127.58 0.16 127.804 0.256 127.975 0.447999C128.156 0.629333 128.247 0.858666 128.247 1.136V11.024ZM129.983 10.672C129.877 10.5227 129.829 10.3307 129.839 10.096C129.85 9.86133 129.989 9.65867 130.255 9.488C130.426 9.38133 130.607 9.33867 130.799 9.36C130.991 9.37067 131.178 9.46667 131.359 9.648C131.669 9.95733 131.994 10.1973 132.335 10.368C132.677 10.5387 133.103 10.624 133.615 10.624C133.775 10.6133 133.951 10.592 134.143 10.56C134.335 10.5173 134.501 10.432 134.639 10.304C134.789 10.1653 134.863 9.95733 134.863 9.68C134.863 9.44533 134.783 9.25867 134.623 9.12C134.463 8.98133 134.25 8.864 133.983 8.768C133.727 8.672 133.439 8.58133 133.119 8.496C132.789 8.4 132.447 8.29333 132.095 8.176C131.754 8.05867 131.439 7.90933 131.151 7.728C130.863 7.536 130.629 7.28533 130.447 6.976C130.266 6.66667 130.175 6.27733 130.175 5.808C130.175 5.27467 130.325 4.82133 130.623 4.448C130.922 4.07467 131.306 3.78667 131.775 3.584C132.255 3.38133 132.757 3.28 133.279 3.28C133.61 3.28 133.957 3.32267 134.319 3.408C134.682 3.48267 135.029 3.61067 135.359 3.792C135.69 3.96267 135.967 4.192 136.191 4.48C136.309 4.64 136.378 4.832 136.399 5.056C136.421 5.28 136.319 5.48267 136.095 5.664C135.935 5.792 135.749 5.85067 135.535 5.84C135.322 5.81867 135.146 5.744 135.007 5.616C134.826 5.38133 134.581 5.19467 134.271 5.056C133.973 4.91733 133.626 4.848 133.231 4.848C133.071 4.848 132.895 4.86933 132.703 4.912C132.522 4.944 132.362 5.024 132.223 5.152C132.085 5.26933 132.015 5.46133 132.015 5.728C132.015 5.97333 132.095 6.17067 132.255 6.32C132.415 6.45867 132.629 6.576 132.895 6.672C133.173 6.75733 133.466 6.84267 133.775 6.928C134.095 7.01333 134.421 7.11467 134.751 7.232C135.082 7.34933 135.386 7.504 135.663 7.696C135.941 7.888 136.165 8.13867 136.335 8.448C136.506 8.74667 136.591 9.13067 136.591 9.6C136.591 10.144 136.431 10.608 136.111 10.992C135.791 11.376 135.391 11.6693 134.911 11.872C134.431 12.064 133.941 12.16 133.439 12.16C132.81 12.16 132.181 12.0533 131.551 11.84C130.922 11.616 130.399 11.2267 129.983 10.672ZM139.046 11.984C138.737 11.984 138.497 11.904 138.326 11.744C138.166 11.5733 138.086 11.3333 138.086 11.024V10.752C138.086 10.4427 138.166 10.208 138.326 10.048C138.497 9.87733 138.737 9.792 139.046 9.792H139.254C139.564 9.792 139.798 9.87733 139.958 10.048C140.129 10.208 140.214 10.4427 140.214 10.752V11.024C140.214 11.3333 140.129 11.5733 139.958 11.744C139.798 11.904 139.564 11.984 139.254 11.984H139.046Z" fill="#343434"/>
</svg>
