<svg width="176" height="23" viewBox="0 0 176 23" fill="none" xmlns="http://www.w3.org/2000/svg">
<path d="M1.136 17.664C2.528 18.096 3.824 18.312 5.024 18.312C6.8 18.312 8.216 17.88 9.32 16.968C10.4 16.08 10.952 14.904 10.952 13.416C10.952 12.36 10.712 11.472 10.232 10.728C9.752 9.984 9.176 9.408 8.504 9.024C7.832 8.64 7.136 8.28 6.464 7.968C5.792 7.68 5.216 7.344 4.736 6.96C4.256 6.6 4.016 6.168 4.016 5.64C4.016 5.088 4.184 4.656 4.568 4.32C4.928 3.984 5.456 3.816 6.176 3.816C6.944 3.816 7.712 3.936 8.504 4.176C9.224 4.416 9.728 4.176 9.968 3.456L10.136 2.928C10.376 2.208 10.112 1.728 9.368 1.464C8.264 1.128 7.184 0.935999 6.176 0.935999C4.472 0.935999 3.08 1.368 2 2.208C0.92 3.048 0.392 4.2 0.392 5.64C0.392 6.696 0.632 7.608 1.112 8.328C1.592 9.048 2.168 9.6 2.84 9.936C3.512 10.296 4.184 10.608 4.856 10.896C5.528 11.184 6.128 11.544 6.608 11.928C7.088 12.336 7.328 12.84 7.328 13.416C7.328 14.04 7.136 14.52 6.752 14.88C6.368 15.264 5.792 15.432 5.024 15.432C4.256 15.432 3.176 15.264 1.784 14.88C1.04 14.664 0.584 14.904 0.44 15.624L0.296 16.248C0.128 16.968 0.416 17.448 1.136 17.664ZM12.7134 13.008C12.7134 14.496 13.1694 15.744 14.1294 16.776C15.0894 17.808 16.5054 18.312 18.4254 18.312C19.4094 18.312 20.4654 18.144 21.5934 17.808C22.3134 17.592 22.5774 17.112 22.3854 16.392L22.2654 15.936C22.0734 15.264 21.5934 15 20.8254 15.168C19.8894 15.384 19.0734 15.48 18.4014 15.48C16.8414 15.48 16.0734 14.664 16.0734 13.008V12.816H22.6734C22.8414 12.816 22.9854 12.768 23.1054 12.648C23.2254 12.528 23.2974 12.384 23.2974 12.192V10.464C23.2974 9.072 22.8174 7.824 21.8574 6.768C20.8974 5.712 19.6014 5.184 17.9934 5.184C16.3614 5.184 15.0894 5.712 14.1294 6.744C13.1694 7.8 12.7134 9.024 12.7134 10.464V13.008ZM16.0734 10.512V10.2C16.0734 9.576 16.2174 9.072 16.5294 8.64C16.8174 8.232 17.3214 8.016 18.0174 8.016C19.2894 8.016 19.9374 8.76 19.9374 10.2V10.512H16.0734ZM26.5451 14.424C26.5451 15.648 26.9051 16.608 27.6731 17.28C28.4411 17.976 29.5451 18.312 31.0091 18.312C31.5131 18.312 32.0171 18.264 32.4971 18.168C32.8331 18.096 33.0971 17.952 33.2651 17.712C33.4091 17.472 33.4571 17.184 33.4091 16.848L33.2651 16.128C33.1211 15.528 32.7371 15.288 32.0651 15.408C31.7771 15.456 31.4891 15.48 31.2011 15.48C30.3371 15.48 29.9051 15.024 29.9051 14.064V7.896H31.5611C32.3291 7.896 32.7131 7.56 32.7131 6.888V6.504C32.7131 5.832 32.3291 5.496 31.5611 5.496H29.9051V2.832C29.9051 2.496 29.7851 2.208 29.5931 1.992C29.3771 1.8 29.0891 1.68 28.7531 1.68H27.6971C27.3371 1.68 27.0491 1.8 26.8571 1.992C26.6411 2.208 26.5451 2.496 26.5451 2.832V5.496H25.7051C24.9371 5.496 24.5531 5.808 24.5531 6.432V6.768C24.5531 7.104 24.6251 7.344 24.7931 7.488C24.9611 7.632 25.2731 7.728 25.7051 7.776L26.5451 7.896V14.424ZM40.4456 14.04C40.4456 15.408 40.7816 16.464 41.4776 17.208C42.1736 17.952 43.1576 18.312 44.4536 18.312C45.6536 18.312 46.7336 17.856 47.7416 16.92L47.7656 17.136C47.7896 17.472 47.9096 17.712 48.1256 17.832C48.3176 17.952 48.6296 18 49.0616 18H49.5896C49.9256 18 50.2136 17.904 50.4296 17.688C50.6216 17.496 50.7416 17.208 50.7416 16.848V6.648C50.7416 6.312 50.6216 6.024 50.4296 5.808C50.2136 5.616 49.9256 5.496 49.5896 5.496H48.5336C48.1736 5.496 47.8856 5.616 47.6936 5.808C47.4776 6.024 47.3816 6.312 47.3816 6.648V14.4C46.6616 15.12 45.9176 15.48 45.1736 15.48C44.6936 15.48 44.3336 15.36 44.1176 15.072C43.9016 14.784 43.8056 14.328 43.8056 13.656V6.648C43.8056 6.312 43.6856 6.024 43.4936 5.808C43.2776 5.616 42.9896 5.496 42.6536 5.496H41.5976C41.2376 5.496 40.9496 5.616 40.7576 5.808C40.5416 6.024 40.4456 6.312 40.4456 6.648V14.04ZM53.6671 21.672C53.6671 22.032 53.7631 22.32 53.9791 22.512C54.1711 22.728 54.4591 22.824 54.8191 22.824H55.8751C56.2111 22.824 56.4991 22.728 56.7151 22.512C56.9071 22.32 57.0271 22.032 57.0271 21.672V17.232C57.8911 17.952 58.8031 18.312 59.7151 18.312C61.1311 18.312 62.2591 17.856 63.0751 16.944C63.8911 16.032 64.2991 14.736 64.2991 13.104V10.392C64.2991 8.76 63.8911 7.464 63.0751 6.552C62.2591 5.64 61.1311 5.184 59.7151 5.184C58.6351 5.184 57.6271 5.64 56.6911 6.528L56.6671 6.36C56.5951 5.784 56.1871 5.496 55.4191 5.496H54.8191C54.4591 5.496 54.1711 5.616 53.9791 5.808C53.7631 6.024 53.6671 6.312 53.6671 6.648V21.672ZM57.0271 14.424V9.12C57.7951 8.4 58.5151 8.016 59.1631 8.016C59.7871 8.016 60.2191 8.232 60.4831 8.664C60.7471 9.096 60.8911 9.816 60.8911 10.776V12.72C60.8911 13.704 60.7471 14.4 60.4831 14.832C60.2191 15.264 59.7871 15.48 59.1631 15.48C58.5871 15.48 57.8671 15.144 57.0271 14.424ZM72.4959 16.848C72.4959 17.208 72.5919 17.496 72.8079 17.688C72.9999 17.904 73.2879 18 73.6479 18H74.7999C75.1359 18 75.4239 17.904 75.6399 17.688C75.8319 17.496 75.9519 17.208 75.9519 16.848V12.24H77.3679C79.2399 12.24 80.7279 11.736 81.8079 10.68C82.8879 9.624 83.4399 8.328 83.4399 6.744C83.4399 5.208 82.8879 3.888 81.8079 2.832C80.7279 1.776 79.2399 1.248 77.3679 1.248H73.6479C73.2879 1.248 72.9999 1.368 72.8079 1.56C72.5919 1.776 72.4959 2.064 72.4959 2.4V16.848ZM75.9519 9.384V4.128H77.2239C78.0399 4.128 78.6879 4.392 79.1439 4.872C79.5759 5.352 79.8159 5.976 79.8159 6.744C79.8159 7.512 79.5759 8.136 79.1439 8.64C78.7119 9.144 78.0639 9.384 77.2479 9.384H75.9519ZM85.1553 14.208C85.1553 15.504 85.5153 16.512 86.2833 17.232C87.0513 17.952 88.0593 18.312 89.3313 18.312C90.5553 18.312 91.5633 17.832 92.3313 16.872L92.3553 17.064C92.4033 17.424 92.4993 17.664 92.6913 17.808C92.8833 17.952 93.1473 18 93.5313 18H94.2033C94.5393 18 94.8033 17.904 94.9953 17.688C95.1873 17.496 95.2833 17.208 95.2833 16.848V9.936C95.2833 8.544 94.8273 7.392 93.9153 6.504C93.0033 5.64 91.7313 5.184 90.0753 5.184C89.1153 5.184 88.1313 5.328 87.0993 5.616C86.7633 5.712 86.4993 5.904 86.3313 6.144C86.1633 6.384 86.1393 6.696 86.2353 7.032L86.3793 7.56C86.5473 8.256 87.0033 8.496 87.7473 8.304C88.6113 8.112 89.3793 8.016 90.0753 8.016C90.7473 8.016 91.2273 8.184 91.5153 8.52C91.7793 8.856 91.9233 9.36 91.9233 10.056V10.272H90.8913C89.1633 10.272 87.7713 10.584 86.7153 11.208C85.6593 11.832 85.1553 12.84 85.1553 14.208ZM88.5633 14.184C88.5633 13.584 88.7793 13.176 89.2353 12.984C89.6673 12.792 90.3153 12.672 91.1553 12.672H91.9233V14.544C91.4193 15.168 90.7713 15.48 89.9793 15.48C89.0193 15.48 88.5633 15.048 88.5633 14.184ZM98.6572 17.832C99.6412 18.168 100.649 18.312 101.681 18.312C103.097 18.312 104.273 17.952 105.185 17.232C106.097 16.512 106.553 15.576 106.553 14.4C106.553 13.584 106.361 12.912 106.025 12.336C105.689 11.76 105.257 11.352 104.777 11.064C104.273 10.8 103.769 10.56 103.289 10.368C102.809 10.176 102.377 9.984 102.041 9.744C101.705 9.528 101.537 9.264 101.537 8.952C101.537 8.664 101.633 8.448 101.849 8.256C102.065 8.088 102.377 7.992 102.809 7.992C103.241 7.992 103.697 8.064 104.225 8.184C104.537 8.28 104.825 8.256 105.065 8.112C105.305 7.968 105.497 7.728 105.593 7.392L105.737 6.912C105.953 6.192 105.713 5.736 104.993 5.496C104.201 5.304 103.433 5.184 102.713 5.184C101.369 5.184 100.265 5.544 99.3532 6.24C98.4412 6.936 98.0092 7.848 98.0092 8.952C98.0092 9.816 98.1772 10.536 98.5132 11.112C98.8492 11.688 99.2812 12.096 99.7852 12.336C100.265 12.576 100.769 12.792 101.249 12.96C101.729 13.152 102.161 13.344 102.497 13.56C102.833 13.776 103.025 14.064 103.025 14.4C103.025 15.12 102.545 15.48 101.609 15.48C100.937 15.48 100.217 15.36 99.4492 15.12C98.7292 14.88 98.2972 15.12 98.1052 15.84L97.9612 16.368C97.8652 16.704 97.8892 17.016 98.0092 17.28C98.1292 17.544 98.3452 17.736 98.6572 17.832ZM109.462 17.832C110.446 18.168 111.454 18.312 112.486 18.312C113.902 18.312 115.078 17.952 115.99 17.232C116.902 16.512 117.358 15.576 117.358 14.4C117.358 13.584 117.166 12.912 116.83 12.336C116.494 11.76 116.062 11.352 115.582 11.064C115.078 10.8 114.574 10.56 114.094 10.368C113.614 10.176 113.182 9.984 112.846 9.744C112.51 9.528 112.342 9.264 112.342 8.952C112.342 8.664 112.438 8.448 112.654 8.256C112.87 8.088 113.182 7.992 113.614 7.992C114.046 7.992 114.502 8.064 115.03 8.184C115.342 8.28 115.63 8.256 115.87 8.112C116.11 7.968 116.302 7.728 116.398 7.392L116.542 6.912C116.758 6.192 116.518 5.736 115.798 5.496C115.006 5.304 114.238 5.184 113.518 5.184C112.174 5.184 111.07 5.544 110.158 6.24C109.246 6.936 108.814 7.848 108.814 8.952C108.814 9.816 108.982 10.536 109.318 11.112C109.654 11.688 110.086 12.096 110.59 12.336C111.07 12.576 111.574 12.792 112.054 12.96C112.534 13.152 112.966 13.344 113.302 13.56C113.638 13.776 113.83 14.064 113.83 14.4C113.83 15.12 113.35 15.48 112.414 15.48C111.742 15.48 111.022 15.36 110.254 15.12C109.534 14.88 109.102 15.12 108.91 15.84L108.766 16.368C108.67 16.704 108.694 17.016 108.814 17.28C108.934 17.544 109.15 17.736 109.462 17.832ZM124.772 12.12C124.772 14.112 125.324 15.648 126.428 16.704C127.532 17.784 129.068 18.312 131.012 18.312C132.428 18.312 133.748 18.168 134.996 17.832C135.236 17.784 135.428 17.64 135.548 17.424C135.644 17.208 135.692 16.968 135.644 16.704L135.428 15.72C135.284 15.144 134.948 14.928 134.396 15.072C133.292 15.312 132.332 15.432 131.492 15.432C130.436 15.432 129.644 15.168 129.116 14.64C128.588 14.112 128.324 13.176 128.324 11.856V7.392C128.324 6.096 128.588 5.16 129.116 4.632C129.644 4.104 130.436 3.816 131.492 3.816C132.332 3.816 133.268 3.936 134.276 4.152C134.54 4.248 134.78 4.224 134.996 4.104C135.212 3.984 135.356 3.792 135.428 3.528L135.644 2.544C135.764 1.968 135.548 1.584 134.996 1.416C133.676 1.104 132.356 0.935999 131.012 0.935999C129.068 0.935999 127.532 1.488 126.428 2.568C125.324 3.648 124.772 5.16 124.772 7.128V12.12ZM138.057 12.6C138.057 14.376 138.537 15.768 139.521 16.776C140.481 17.808 141.825 18.312 143.553 18.312C145.257 18.312 146.601 17.808 147.585 16.776C148.545 15.768 149.049 14.376 149.049 12.6V10.872C149.049 9.168 148.545 7.8 147.585 6.744C146.625 5.712 145.281 5.184 143.553 5.184C141.825 5.184 140.457 5.712 139.497 6.744C138.537 7.8 138.057 9.168 138.057 10.872V12.6ZM143.553 15.48C142.737 15.48 142.185 15.24 141.897 14.76C141.609 14.28 141.465 13.488 141.465 12.408V11.088C141.465 10.056 141.609 9.288 141.897 8.784C142.185 8.28 142.737 8.016 143.553 8.016C144.345 8.016 144.897 8.28 145.185 8.784C145.473 9.288 145.641 10.056 145.641 11.088V12.408C145.641 13.488 145.473 14.28 145.185 14.76C144.897 15.24 144.345 15.48 143.553 15.48ZM151.252 13.104C151.252 14.736 151.66 16.032 152.476 16.944C153.292 17.856 154.396 18.312 155.836 18.312C156.892 18.312 157.9 17.88 158.86 16.968L158.884 17.16C158.908 17.496 159.004 17.736 159.196 17.832C159.388 17.952 159.676 18 160.06 18H160.804C161.14 18 161.404 17.904 161.596 17.688C161.788 17.496 161.884 17.208 161.884 16.848V1.728C161.884 1.392 161.764 1.104 161.572 0.887999C161.356 0.696 161.068 0.576 160.732 0.576H159.676C159.316 0.576 159.028 0.696 158.836 0.887999C158.62 1.104 158.524 1.392 158.524 1.728V6.24C157.708 5.544 156.796 5.184 155.836 5.184C154.396 5.184 153.292 5.64 152.476 6.552C151.66 7.464 151.252 8.76 151.252 10.392V13.104ZM156.388 15.48C155.764 15.48 155.308 15.264 155.044 14.832C154.78 14.4 154.66 13.704 154.66 12.72V10.776C154.66 9.816 154.78 9.096 155.044 8.664C155.308 8.232 155.764 8.016 156.388 8.016C157.084 8.016 157.804 8.376 158.524 9.096V14.424C157.732 15.144 157.012 15.48 156.388 15.48ZM164.448 13.008C164.448 14.496 164.904 15.744 165.864 16.776C166.824 17.808 168.24 18.312 170.16 18.312C171.144 18.312 172.2 18.144 173.328 17.808C174.048 17.592 174.312 17.112 174.12 16.392L174 15.936C173.808 15.264 173.328 15 172.56 15.168C171.624 15.384 170.808 15.48 170.136 15.48C168.576 15.48 167.808 14.664 167.808 13.008V12.816H174.408C174.576 12.816 174.72 12.768 174.84 12.648C174.96 12.528 175.032 12.384 175.032 12.192V10.464C175.032 9.072 174.552 7.824 173.592 6.768C172.632 5.712 171.336 5.184 169.728 5.184C168.096 5.184 166.824 5.712 165.864 6.744C164.904 7.8 164.448 9.024 164.448 10.464V13.008ZM167.808 10.512V10.2C167.808 9.576 167.952 9.072 168.264 8.64C168.552 8.232 169.056 8.016 169.752 8.016C171.024 8.016 171.672 8.76 171.672 10.2V10.512H167.808Z" fill="#16A9CF"/>
</svg>
