<svg width="279" height="14" viewBox="0 0 279 14" fill="none" xmlns="http://www.w3.org/2000/svg">
<path d="M0.792 1.2H5.776C5.93467 1.2 6.07 1.25133 6.182 1.354C6.294 1.45667 6.35 1.58733 6.35 1.746C6.35 1.90467 6.294 2.03533 6.182 2.138C6.07 2.23133 5.93467 2.278 5.776 2.278H1.268L1.394 2.04V5.582L1.254 5.428H5.146C5.30467 5.428 5.44 5.47933 5.552 5.582C5.664 5.68467 5.72 5.81533 5.72 5.974C5.72 6.13267 5.664 6.26333 5.552 6.366C5.44 6.45933 5.30467 6.506 5.146 6.506H1.296L1.394 6.38V10.006L1.31 9.908H5.776C5.93467 9.908 6.07 9.964 6.182 10.076C6.294 10.188 6.35 10.314 6.35 10.454C6.35 10.6127 6.294 10.7433 6.182 10.846C6.07 10.9487 5.93467 11 5.776 11H0.792C0.633333 11 0.498 10.944 0.386 10.832C0.283333 10.72 0.232 10.5847 0.232 10.426V1.76C0.232 1.60133 0.283333 1.47067 0.386 1.368C0.498 1.256 0.633333 1.2 0.792 1.2ZM11.6184 3.58C12.253 3.58 12.7524 3.71067 13.1164 3.972C13.4804 4.23333 13.737 4.58333 13.8864 5.022C14.045 5.46067 14.1244 5.95067 14.1244 6.492V10.426C14.1244 10.5847 14.0684 10.72 13.9564 10.832C13.8537 10.944 13.723 11 13.5644 11C13.4057 11 13.2704 10.944 13.1584 10.832C13.0557 10.72 13.0044 10.5847 13.0044 10.426V6.52C13.0044 6.16533 12.9484 5.848 12.8364 5.568C12.7337 5.27867 12.5564 5.05 12.3044 4.882C12.0617 4.70467 11.7257 4.616 11.2964 4.616C10.9044 4.616 10.545 4.70467 10.2184 4.882C9.89171 5.05 9.63038 5.27867 9.43438 5.568C9.23838 5.848 9.14038 6.16533 9.14038 6.52V10.426C9.14038 10.5847 9.08438 10.72 8.97238 10.832C8.86971 10.944 8.73904 11 8.58038 11C8.42171 11 8.28638 10.944 8.17438 10.832C8.07171 10.72 8.02038 10.5847 8.02038 10.426V4.322C8.02038 4.16333 8.07171 4.03267 8.17438 3.93C8.28638 3.818 8.42171 3.762 8.58038 3.762C8.74838 3.762 8.88371 3.818 8.98638 3.93C9.08904 4.03267 9.14038 4.16333 9.14038 4.322V5.316L8.86038 5.624C8.90704 5.38133 9.01438 5.13867 9.18238 4.896C9.35038 4.644 9.56038 4.42 9.81238 4.224C10.0644 4.028 10.3444 3.874 10.6524 3.762C10.9604 3.64067 11.2824 3.58 11.6184 3.58ZM15.9162 3.804H19.2062C19.3555 3.804 19.4768 3.85533 19.5702 3.958C19.6728 4.06067 19.7242 4.182 19.7242 4.322C19.7242 4.47133 19.6728 4.59733 19.5702 4.7C19.4768 4.79333 19.3555 4.84 19.2062 4.84H15.9162C15.7762 4.84 15.6548 4.78867 15.5522 4.686C15.4495 4.58333 15.3982 4.45733 15.3982 4.308C15.3982 4.168 15.4495 4.05133 15.5522 3.958C15.6548 3.85533 15.7762 3.804 15.9162 3.804ZM17.3862 1.9C17.5448 1.9 17.6755 1.956 17.7782 2.068C17.8808 2.17067 17.9322 2.30133 17.9322 2.46V9.222C17.9322 9.446 17.9648 9.614 18.0302 9.726C18.0955 9.838 18.1795 9.91733 18.2822 9.964C18.3942 10.0013 18.5015 10.02 18.6042 10.02C18.6975 10.02 18.7768 10.006 18.8422 9.978C18.9168 9.94067 19.0008 9.922 19.0942 9.922C19.1875 9.922 19.2715 9.96867 19.3462 10.062C19.4302 10.146 19.4722 10.258 19.4722 10.398C19.4722 10.566 19.3742 10.7107 19.1782 10.832C18.9822 10.944 18.7628 11 18.5202 11C18.3895 11 18.2262 10.9907 18.0302 10.972C17.8435 10.9533 17.6568 10.8927 17.4702 10.79C17.2835 10.6873 17.1248 10.5193 16.9942 10.286C16.8728 10.0433 16.8122 9.70733 16.8122 9.278V2.46C16.8122 2.30133 16.8682 2.17067 16.9802 2.068C17.0922 1.956 17.2275 1.9 17.3862 1.9ZM24.5597 11.14C23.8131 11.14 23.1597 10.9813 22.5997 10.664C22.0397 10.3467 21.6011 9.91267 21.2837 9.362C20.9757 8.802 20.8217 8.158 20.8217 7.43C20.8217 6.618 20.9804 5.92733 21.2977 5.358C21.6244 4.77933 22.0444 4.34067 22.5577 4.042C23.0804 3.734 23.6311 3.58 24.2097 3.58C24.6391 3.58 25.0544 3.65933 25.4557 3.818C25.8571 3.97667 26.2117 4.21 26.5197 4.518C26.8277 4.81667 27.0751 5.18067 27.2617 5.61C27.4484 6.03 27.5464 6.50133 27.5557 7.024C27.5557 7.17333 27.4997 7.29933 27.3877 7.402C27.2757 7.50467 27.1451 7.556 26.9957 7.556H21.4657L21.2137 6.59H26.6037L26.3797 6.786V6.478C26.3424 6.09533 26.2117 5.76867 25.9877 5.498C25.7731 5.218 25.5071 5.00333 25.1897 4.854C24.8817 4.70467 24.5551 4.63 24.2097 4.63C23.9297 4.63 23.6497 4.68133 23.3697 4.784C23.0991 4.87733 22.8517 5.036 22.6277 5.26C22.4131 5.47467 22.2357 5.75467 22.0957 6.1C21.9651 6.44533 21.8997 6.86067 21.8997 7.346C21.8997 7.88733 22.0071 8.36333 22.2217 8.774C22.4457 9.18467 22.7537 9.51133 23.1457 9.754C23.5377 9.98733 23.9951 10.104 24.5177 10.104C24.8444 10.104 25.1291 10.062 25.3717 9.978C25.6144 9.894 25.8244 9.79133 26.0017 9.67C26.1791 9.53933 26.3284 9.40867 26.4497 9.278C26.5711 9.194 26.6877 9.152 26.7997 9.152C26.9397 9.152 27.0517 9.19867 27.1357 9.292C27.2291 9.38533 27.2757 9.49733 27.2757 9.628C27.2757 9.78667 27.2011 9.92667 27.0517 10.048C26.7904 10.3373 26.4357 10.594 25.9877 10.818C25.5397 11.0327 25.0637 11.14 24.5597 11.14ZM29.7991 11C29.6405 11 29.5051 10.944 29.3931 10.832C29.2905 10.72 29.2391 10.5847 29.2391 10.426V4.322C29.2391 4.16333 29.2905 4.03267 29.3931 3.93C29.5051 3.818 29.6405 3.762 29.7991 3.762C29.9671 3.762 30.1025 3.818 30.2051 3.93C30.3078 4.03267 30.3591 4.16333 30.3591 4.322V6.17L30.1911 5.876C30.2471 5.58667 30.3451 5.30667 30.4851 5.036C30.6345 4.756 30.8211 4.50867 31.0451 4.294C31.2691 4.07 31.5258 3.89733 31.8151 3.776C32.1045 3.64533 32.4218 3.58 32.7671 3.58C32.9725 3.58 33.1591 3.63133 33.3271 3.734C33.5045 3.82733 33.5931 3.96267 33.5931 4.14C33.5931 4.336 33.5418 4.48067 33.4391 4.574C33.3365 4.66733 33.2198 4.714 33.0891 4.714C32.9678 4.714 32.8511 4.69067 32.7391 4.644C32.6271 4.588 32.4871 4.56 32.3191 4.56C32.0858 4.56 31.8525 4.62533 31.6191 4.756C31.3951 4.87733 31.1851 5.05467 30.9891 5.288C30.8025 5.52133 30.6485 5.78733 30.5271 6.086C30.4151 6.37533 30.3591 6.688 30.3591 7.024V10.426C30.3591 10.5847 30.3031 10.72 30.1911 10.832C30.0885 10.944 29.9578 11 29.7991 11ZM44.6777 3.692C44.8364 3.692 44.9671 3.748 45.0697 3.86C45.1817 3.96267 45.2377 4.09333 45.2377 4.252V10.426C45.2377 10.5847 45.1817 10.72 45.0697 10.832C44.9671 10.944 44.8364 11 44.6777 11C44.5097 11 44.3744 10.944 44.2717 10.832C44.1691 10.72 44.1177 10.5847 44.1177 10.426V9.096L44.3837 9.068C44.3837 9.27333 44.3137 9.49733 44.1737 9.74C44.0337 9.98267 43.8424 10.2113 43.5997 10.426C43.3571 10.6313 43.0677 10.804 42.7317 10.944C42.4051 11.0747 42.0504 11.14 41.6677 11.14C41.0331 11.14 40.4637 10.9767 39.9597 10.65C39.4557 10.314 39.0544 9.86133 38.7557 9.292C38.4664 8.72267 38.3217 8.074 38.3217 7.346C38.3217 6.60867 38.4664 5.96 38.7557 5.4C39.0544 4.83067 39.4557 4.38733 39.9597 4.07C40.4637 3.74333 41.0237 3.58 41.6397 3.58C42.0411 3.58 42.4144 3.64533 42.7597 3.776C43.1051 3.90667 43.4037 4.084 43.6557 4.308C43.9171 4.532 44.1177 4.77933 44.2577 5.05C44.4071 5.32067 44.4817 5.59133 44.4817 5.862L44.1177 5.778V4.252C44.1177 4.09333 44.1691 3.96267 44.2717 3.86C44.3744 3.748 44.5097 3.692 44.6777 3.692ZM41.7937 10.104C42.2604 10.104 42.6711 9.98267 43.0257 9.74C43.3897 9.49733 43.6697 9.17067 43.8657 8.76C44.0711 8.34 44.1737 7.86867 44.1737 7.346C44.1737 6.83267 44.0711 6.37067 43.8657 5.96C43.6697 5.54 43.3897 5.21333 43.0257 4.98C42.6711 4.73733 42.2604 4.616 41.7937 4.616C41.3364 4.616 40.9257 4.73267 40.5617 4.966C40.2071 5.19933 39.9271 5.52133 39.7217 5.932C39.5164 6.34267 39.4137 6.814 39.4137 7.346C39.4137 7.86867 39.5117 8.34 39.7077 8.76C39.9131 9.17067 40.1931 9.49733 40.5477 9.74C40.9117 9.98267 41.3271 10.104 41.7937 10.104ZM55.3828 11C55.2241 11 55.0888 10.944 54.9768 10.832C54.8741 10.72 54.8228 10.5847 54.8228 10.426V2.768L55.0468 2.852L51.7008 7.22L51.6448 7.052H56.8808C57.0301 7.052 57.1561 7.10333 57.2588 7.206C57.3615 7.30867 57.4128 7.43467 57.4128 7.584C57.4128 7.724 57.3615 7.84533 57.2588 7.948C57.1561 8.04133 57.0301 8.088 56.8808 8.088H50.8748C50.7348 8.088 50.6041 8.032 50.4828 7.92C50.3708 7.808 50.3148 7.67733 50.3148 7.528C50.3148 7.388 50.3615 7.26667 50.4548 7.164L54.9208 1.424C54.9861 1.34 55.0608 1.284 55.1448 1.256C55.2288 1.21867 55.3128 1.2 55.3968 1.2C55.5555 1.2 55.6861 1.256 55.7888 1.368C55.8915 1.47067 55.9428 1.60133 55.9428 1.76V10.426C55.9428 10.5847 55.8868 10.72 55.7748 10.832C55.6721 10.944 55.5415 11 55.3828 11ZM59.1191 7.206C58.9604 7.206 58.8251 7.15467 58.7131 7.052C58.6104 6.94 58.5591 6.8 58.5591 6.632C58.5591 6.47333 58.6104 6.34267 58.7131 6.24C58.8251 6.13733 58.9604 6.086 59.1191 6.086H61.9471C62.1057 6.086 62.2364 6.142 62.3391 6.254C62.4511 6.366 62.5071 6.50133 62.5071 6.66C62.5071 6.81867 62.4511 6.94933 62.3391 7.052C62.2364 7.15467 62.1057 7.206 61.9471 7.206H59.1191ZM70.2715 0.64C70.4302 0.64 70.5608 0.696 70.6635 0.807999C70.7755 0.910666 70.8315 1.04133 70.8315 1.2V10.426C70.8315 10.5847 70.7755 10.72 70.6635 10.832C70.5608 10.944 70.4302 11 70.2715 11C70.1035 11 69.9682 10.944 69.8655 10.832C69.7628 10.72 69.7115 10.5847 69.7115 10.426V9.096L69.9775 8.998C69.9775 9.222 69.9075 9.46 69.7675 9.712C69.6275 9.95467 69.4362 10.1833 69.1935 10.398C68.9508 10.6127 68.6615 10.79 68.3255 10.93C67.9988 11.07 67.6442 11.14 67.2615 11.14C66.6362 11.14 66.0668 10.9767 65.5535 10.65C65.0495 10.3233 64.6482 9.87533 64.3495 9.306C64.0602 8.73667 63.9155 8.088 63.9155 7.36C63.9155 6.62267 64.0602 5.96933 64.3495 5.4C64.6482 4.83067 65.0495 4.38733 65.5535 4.07C66.0575 3.74333 66.6175 3.58 67.2335 3.58C67.6255 3.58 67.9942 3.64533 68.3395 3.776C68.6848 3.90667 68.9835 4.084 69.2355 4.308C69.4968 4.532 69.7022 4.77933 69.8515 5.05C70.0008 5.32067 70.0755 5.59133 70.0755 5.862L69.7115 5.778V1.2C69.7115 1.04133 69.7628 0.910666 69.8655 0.807999C69.9682 0.696 70.1035 0.64 70.2715 0.64ZM67.3875 10.104C67.8542 10.104 68.2648 9.98733 68.6195 9.754C68.9835 9.51133 69.2635 9.18467 69.4595 8.774C69.6648 8.354 69.7675 7.88267 69.7675 7.36C69.7675 6.828 69.6648 6.35667 69.4595 5.946C69.2635 5.53533 68.9835 5.21333 68.6195 4.98C68.2648 4.73733 67.8542 4.616 67.3875 4.616C66.9302 4.616 66.5195 4.73733 66.1555 4.98C65.8008 5.21333 65.5208 5.53533 65.3155 5.946C65.1102 6.35667 65.0075 6.828 65.0075 7.36C65.0075 7.87333 65.1102 8.34 65.3155 8.76C65.5208 9.17067 65.8008 9.49733 66.1555 9.74C66.5195 9.98267 66.9302 10.104 67.3875 10.104ZM73.9851 10.426C73.9851 10.5847 73.9291 10.72 73.8171 10.832C73.7144 10.944 73.5838 11 73.4251 11C73.2571 11 73.1218 10.944 73.0191 10.832C72.9164 10.72 72.8651 10.5847 72.8651 10.426V4.21C72.8651 4.05133 72.9164 3.92067 73.0191 3.818C73.1311 3.706 73.2664 3.65 73.4251 3.65C73.5838 3.65 73.7144 3.706 73.8171 3.818C73.9291 3.92067 73.9851 4.05133 73.9851 4.21V10.426ZM73.4251 2.712C73.1918 2.712 73.0191 2.66533 72.9071 2.572C72.7951 2.47867 72.7391 2.334 72.7391 2.138V1.942C72.7391 1.746 72.7998 1.60133 72.9211 1.508C73.0424 1.41467 73.2151 1.368 73.4391 1.368C73.6631 1.368 73.8311 1.41467 73.9431 1.508C74.0551 1.60133 74.1111 1.746 74.1111 1.942V2.138C74.1111 2.334 74.0504 2.47867 73.9291 2.572C73.8171 2.66533 73.6491 2.712 73.4251 2.712ZM79.0349 3.58C79.4363 3.58 79.8096 3.65 80.1549 3.79C80.5003 3.92067 80.7989 4.09333 81.0509 4.308C81.3123 4.52267 81.5129 4.74667 81.6529 4.98C81.8023 5.21333 81.8769 5.43267 81.8769 5.638L81.6109 5.47V4.252C81.6109 4.09333 81.6623 3.96267 81.7649 3.86C81.8676 3.748 82.0029 3.692 82.1709 3.692C82.3296 3.692 82.4603 3.748 82.5629 3.86C82.6749 3.96267 82.7309 4.09333 82.7309 4.252V10.384C82.7309 11.1493 82.5676 11.784 82.2409 12.288C81.9236 12.792 81.4943 13.17 80.9529 13.422C80.4116 13.674 79.8049 13.8 79.1329 13.8C78.8529 13.8 78.5449 13.7627 78.2089 13.688C77.8729 13.6133 77.5743 13.52 77.3129 13.408C77.0516 13.3053 76.8836 13.198 76.8089 13.086C76.6689 12.9927 76.5803 12.8853 76.5429 12.764C76.5149 12.652 76.5383 12.5447 76.6129 12.442C76.6969 12.3113 76.8043 12.246 76.9349 12.246C77.0749 12.246 77.2476 12.288 77.4529 12.372C77.5369 12.4 77.6676 12.4467 77.8449 12.512C78.0316 12.5773 78.2369 12.6333 78.4609 12.68C78.6943 12.736 78.9229 12.764 79.1469 12.764C79.9403 12.764 80.5469 12.554 80.9669 12.134C81.3963 11.7233 81.6109 11.1773 81.6109 10.496V9.194L81.7649 9.264C81.7089 9.52533 81.5923 9.768 81.4149 9.992C81.2469 10.216 81.0369 10.4167 80.7849 10.594C80.5423 10.762 80.2716 10.8973 79.9729 11C79.6743 11.0933 79.3709 11.14 79.0629 11.14C78.4096 11.14 77.8216 10.9767 77.2989 10.65C76.7763 10.3233 76.3609 9.87533 76.0529 9.306C75.7543 8.73667 75.6049 8.088 75.6049 7.36C75.6049 6.62267 75.7543 5.96933 76.0529 5.4C76.3609 4.83067 76.7716 4.38733 77.2849 4.07C77.8076 3.74333 78.3909 3.58 79.0349 3.58ZM79.1749 4.616C78.6989 4.616 78.2696 4.73733 77.8869 4.98C77.5136 5.21333 77.2196 5.53533 77.0049 5.946C76.7996 6.35667 76.6969 6.828 76.6969 7.36C76.6969 7.87333 76.7996 8.34 77.0049 8.76C77.2196 9.17067 77.5136 9.49733 77.8869 9.74C78.2696 9.98267 78.6989 10.104 79.1749 10.104C79.6603 10.104 80.0896 9.98733 80.4629 9.754C80.8363 9.51133 81.1303 9.18467 81.3449 8.774C81.5596 8.36333 81.6669 7.892 81.6669 7.36C81.6669 6.81867 81.5596 6.34267 81.3449 5.932C81.1303 5.52133 80.8363 5.19933 80.4629 4.966C80.0896 4.73267 79.6603 4.616 79.1749 4.616ZM85.8796 10.426C85.8796 10.5847 85.8236 10.72 85.7116 10.832C85.609 10.944 85.4783 11 85.3196 11C85.1516 11 85.0163 10.944 84.9136 10.832C84.811 10.72 84.7596 10.5847 84.7596 10.426V4.21C84.7596 4.05133 84.811 3.92067 84.9136 3.818C85.0256 3.706 85.161 3.65 85.3196 3.65C85.4783 3.65 85.609 3.706 85.7116 3.818C85.8236 3.92067 85.8796 4.05133 85.8796 4.21V10.426ZM85.3196 2.712C85.0863 2.712 84.9136 2.66533 84.8016 2.572C84.6896 2.47867 84.6336 2.334 84.6336 2.138V1.942C84.6336 1.746 84.6943 1.60133 84.8156 1.508C84.937 1.41467 85.1096 1.368 85.3336 1.368C85.5576 1.368 85.7256 1.41467 85.8376 1.508C85.9496 1.60133 86.0056 1.746 86.0056 1.942V2.138C86.0056 2.334 85.945 2.47867 85.8236 2.572C85.7116 2.66533 85.5436 2.712 85.3196 2.712ZM87.6115 3.804H90.9015C91.0508 3.804 91.1721 3.85533 91.2655 3.958C91.3681 4.06067 91.4195 4.182 91.4195 4.322C91.4195 4.47133 91.3681 4.59733 91.2655 4.7C91.1721 4.79333 91.0508 4.84 90.9015 4.84H87.6115C87.4715 4.84 87.3501 4.78867 87.2475 4.686C87.1448 4.58333 87.0935 4.45733 87.0935 4.308C87.0935 4.168 87.1448 4.05133 87.2475 3.958C87.3501 3.85533 87.4715 3.804 87.6115 3.804ZM89.0815 1.9C89.2401 1.9 89.3708 1.956 89.4735 2.068C89.5761 2.17067 89.6275 2.30133 89.6275 2.46V9.222C89.6275 9.446 89.6601 9.614 89.7255 9.726C89.7908 9.838 89.8748 9.91733 89.9775 9.964C90.0895 10.0013 90.1968 10.02 90.2995 10.02C90.3928 10.02 90.4721 10.006 90.5375 9.978C90.6121 9.94067 90.6961 9.922 90.7895 9.922C90.8828 9.922 90.9668 9.96867 91.0415 10.062C91.1255 10.146 91.1675 10.258 91.1675 10.398C91.1675 10.566 91.0695 10.7107 90.8735 10.832C90.6775 10.944 90.4581 11 90.2155 11C90.0848 11 89.9215 10.9907 89.7255 10.972C89.5388 10.9533 89.3521 10.8927 89.1655 10.79C88.9788 10.6873 88.8201 10.5193 88.6895 10.286C88.5681 10.0433 88.5075 9.70733 88.5075 9.278V2.46C88.5075 2.30133 88.5635 2.17067 88.6755 2.068C88.7875 1.956 88.9228 1.9 89.0815 1.9ZM100.053 3.58C100.529 3.58 100.958 3.63133 101.341 3.734C101.724 3.83667 102.027 3.97667 102.251 4.154C102.475 4.33133 102.587 4.532 102.587 4.756C102.587 4.87733 102.545 4.994 102.461 5.106C102.377 5.218 102.265 5.274 102.125 5.274C101.994 5.274 101.887 5.25067 101.803 5.204C101.728 5.15733 101.654 5.09667 101.579 5.022C101.514 4.94733 101.42 4.882 101.299 4.826C101.187 4.76067 101.024 4.70933 100.809 4.672C100.594 4.63467 100.38 4.616 100.165 4.616C99.6515 4.616 99.1989 4.73733 98.8069 4.98C98.4242 5.22267 98.1209 5.54933 97.8969 5.96C97.6729 6.37067 97.5609 6.83733 97.5609 7.36C97.5609 7.88267 97.6682 8.34933 97.8829 8.76C98.0975 9.17067 98.3962 9.49733 98.7789 9.74C99.1615 9.98267 99.6049 10.104 100.109 10.104C100.436 10.104 100.697 10.076 100.893 10.02C101.089 9.964 101.252 9.89867 101.383 9.824C101.551 9.73067 101.677 9.63733 101.761 9.544C101.854 9.45067 101.976 9.404 102.125 9.404C102.284 9.404 102.405 9.45533 102.489 9.558C102.582 9.66067 102.629 9.78667 102.629 9.936C102.629 10.104 102.512 10.2813 102.279 10.468C102.046 10.6547 101.728 10.8133 101.327 10.944C100.935 11.0747 100.487 11.14 99.9829 11.14C99.2735 11.14 98.6529 10.9767 98.1209 10.65C97.5889 10.314 97.1735 9.86133 96.8749 9.292C96.5855 8.71333 96.4409 8.06933 96.4409 7.36C96.4409 6.65067 96.5902 6.01133 96.8889 5.442C97.1969 4.87267 97.6215 4.42 98.1629 4.084C98.7042 3.748 99.3342 3.58 100.053 3.58ZM110.967 7.36C110.967 8.088 110.803 8.73667 110.477 9.306C110.159 9.87533 109.725 10.3233 109.175 10.65C108.633 10.9767 108.022 11.14 107.341 11.14C106.659 11.14 106.043 10.9767 105.493 10.65C104.942 10.3233 104.503 9.87533 104.177 9.306C103.859 8.73667 103.701 8.088 103.701 7.36C103.701 6.632 103.859 5.98333 104.177 5.414C104.503 4.84467 104.942 4.39667 105.493 4.07C106.043 3.74333 106.659 3.58 107.341 3.58C108.022 3.58 108.633 3.74333 109.175 4.07C109.725 4.39667 110.159 4.84467 110.477 5.414C110.803 5.98333 110.967 6.632 110.967 7.36ZM109.847 7.36C109.847 6.81867 109.735 6.34267 109.511 5.932C109.296 5.52133 108.997 5.19933 108.615 4.966C108.241 4.73267 107.817 4.616 107.341 4.616C106.865 4.616 106.435 4.73267 106.053 4.966C105.679 5.19933 105.381 5.52133 105.157 5.932C104.933 6.34267 104.821 6.81867 104.821 7.36C104.821 7.892 104.933 8.36333 105.157 8.774C105.381 9.18467 105.679 9.51133 106.053 9.754C106.435 9.98733 106.865 10.104 107.341 10.104C107.817 10.104 108.241 9.98733 108.615 9.754C108.997 9.51133 109.296 9.18467 109.511 8.774C109.735 8.36333 109.847 7.892 109.847 7.36ZM118.615 0.64C118.774 0.64 118.905 0.696 119.007 0.807999C119.119 0.910666 119.175 1.04133 119.175 1.2V10.426C119.175 10.5847 119.119 10.72 119.007 10.832C118.905 10.944 118.774 11 118.615 11C118.447 11 118.312 10.944 118.209 10.832C118.107 10.72 118.055 10.5847 118.055 10.426V9.096L118.321 8.998C118.321 9.222 118.251 9.46 118.111 9.712C117.971 9.95467 117.78 10.1833 117.537 10.398C117.295 10.6127 117.005 10.79 116.669 10.93C116.343 11.07 115.988 11.14 115.605 11.14C114.98 11.14 114.411 10.9767 113.897 10.65C113.393 10.3233 112.992 9.87533 112.693 9.306C112.404 8.73667 112.259 8.088 112.259 7.36C112.259 6.62267 112.404 5.96933 112.693 5.4C112.992 4.83067 113.393 4.38733 113.897 4.07C114.401 3.74333 114.961 3.58 115.577 3.58C115.969 3.58 116.338 3.64533 116.683 3.776C117.029 3.90667 117.327 4.084 117.579 4.308C117.841 4.532 118.046 4.77933 118.195 5.05C118.345 5.32067 118.419 5.59133 118.419 5.862L118.055 5.778V1.2C118.055 1.04133 118.107 0.910666 118.209 0.807999C118.312 0.696 118.447 0.64 118.615 0.64ZM115.731 10.104C116.198 10.104 116.609 9.98733 116.963 9.754C117.327 9.51133 117.607 9.18467 117.803 8.774C118.009 8.354 118.111 7.88267 118.111 7.36C118.111 6.828 118.009 6.35667 117.803 5.946C117.607 5.53533 117.327 5.21333 116.963 4.98C116.609 4.73733 116.198 4.616 115.731 4.616C115.274 4.616 114.863 4.73733 114.499 4.98C114.145 5.21333 113.865 5.53533 113.659 5.946C113.454 6.35667 113.351 6.828 113.351 7.36C113.351 7.87333 113.454 8.34 113.659 8.76C113.865 9.17067 114.145 9.49733 114.499 9.74C114.863 9.98267 115.274 10.104 115.731 10.104ZM124.597 11.14C123.85 11.14 123.197 10.9813 122.637 10.664C122.077 10.3467 121.638 9.91267 121.321 9.362C121.013 8.802 120.859 8.158 120.859 7.43C120.859 6.618 121.018 5.92733 121.335 5.358C121.662 4.77933 122.082 4.34067 122.595 4.042C123.118 3.734 123.668 3.58 124.247 3.58C124.676 3.58 125.092 3.65933 125.493 3.818C125.894 3.97667 126.249 4.21 126.557 4.518C126.865 4.81667 127.112 5.18067 127.299 5.61C127.486 6.03 127.584 6.50133 127.593 7.024C127.593 7.17333 127.537 7.29933 127.425 7.402C127.313 7.50467 127.182 7.556 127.033 7.556H121.503L121.251 6.59H126.641L126.417 6.786V6.478C126.38 6.09533 126.249 5.76867 126.025 5.498C125.81 5.218 125.544 5.00333 125.227 4.854C124.919 4.70467 124.592 4.63 124.247 4.63C123.967 4.63 123.687 4.68133 123.407 4.784C123.136 4.87733 122.889 5.036 122.665 5.26C122.45 5.47467 122.273 5.75467 122.133 6.1C122.002 6.44533 121.937 6.86067 121.937 7.346C121.937 7.88733 122.044 8.36333 122.259 8.774C122.483 9.18467 122.791 9.51133 123.183 9.754C123.575 9.98733 124.032 10.104 124.555 10.104C124.882 10.104 125.166 10.062 125.409 9.978C125.652 9.894 125.862 9.79133 126.039 9.67C126.216 9.53933 126.366 9.40867 126.487 9.278C126.608 9.194 126.725 9.152 126.837 9.152C126.977 9.152 127.089 9.19867 127.173 9.292C127.266 9.38533 127.313 9.49733 127.313 9.628C127.313 9.78667 127.238 9.92667 127.089 10.048C126.828 10.3373 126.473 10.594 126.025 10.818C125.577 11.0327 125.101 11.14 124.597 11.14ZM136.156 0.668C136.314 0.668 136.478 0.686666 136.646 0.724C136.823 0.761333 136.972 0.826666 137.094 0.92C137.224 1.01333 137.29 1.13933 137.29 1.298C137.29 1.44733 137.243 1.57333 137.15 1.676C137.056 1.76933 136.944 1.816 136.814 1.816C136.73 1.816 136.613 1.79267 136.464 1.746C136.314 1.69 136.16 1.662 136.002 1.662C135.787 1.662 135.61 1.70867 135.47 1.802C135.339 1.89533 135.241 2.02133 135.176 2.18C135.12 2.32933 135.092 2.49733 135.092 2.684V10.426C135.092 10.5847 135.036 10.72 134.924 10.832C134.821 10.944 134.69 11 134.532 11C134.364 11 134.228 10.944 134.126 10.832C134.023 10.72 133.972 10.5847 133.972 10.426V2.698C133.972 2.07267 134.163 1.578 134.546 1.214C134.938 0.849999 135.474 0.668 136.156 0.668ZM136.548 3.874C136.697 3.874 136.823 3.92533 136.926 4.028C137.028 4.12133 137.08 4.24267 137.08 4.392C137.08 4.54133 137.028 4.66733 136.926 4.77C136.823 4.86333 136.697 4.91 136.548 4.91H133.034C132.884 4.91 132.758 4.85867 132.656 4.756C132.553 4.65333 132.502 4.532 132.502 4.392C132.502 4.23333 132.553 4.10733 132.656 4.014C132.758 3.92067 132.884 3.874 133.034 3.874H136.548ZM144.914 7.36C144.914 8.088 144.751 8.73667 144.424 9.306C144.107 9.87533 143.673 10.3233 143.122 10.65C142.581 10.9767 141.969 11.14 141.288 11.14C140.607 11.14 139.991 10.9767 139.44 10.65C138.889 10.3233 138.451 9.87533 138.124 9.306C137.807 8.73667 137.648 8.088 137.648 7.36C137.648 6.632 137.807 5.98333 138.124 5.414C138.451 4.84467 138.889 4.39667 139.44 4.07C139.991 3.74333 140.607 3.58 141.288 3.58C141.969 3.58 142.581 3.74333 143.122 4.07C143.673 4.39667 144.107 4.84467 144.424 5.414C144.751 5.98333 144.914 6.632 144.914 7.36ZM143.794 7.36C143.794 6.81867 143.682 6.34267 143.458 5.932C143.243 5.52133 142.945 5.19933 142.562 4.966C142.189 4.73267 141.764 4.616 141.288 4.616C140.812 4.616 140.383 4.73267 140 4.966C139.627 5.19933 139.328 5.52133 139.104 5.932C138.88 6.34267 138.768 6.81867 138.768 7.36C138.768 7.892 138.88 8.36333 139.104 8.774C139.328 9.18467 139.627 9.51133 140 9.754C140.383 9.98733 140.812 10.104 141.288 10.104C141.764 10.104 142.189 9.98733 142.562 9.754C142.945 9.51133 143.243 9.18467 143.458 8.774C143.682 8.36333 143.794 7.892 143.794 7.36ZM147.159 11C147 11 146.865 10.944 146.753 10.832C146.65 10.72 146.599 10.5847 146.599 10.426V4.322C146.599 4.16333 146.65 4.03267 146.753 3.93C146.865 3.818 147 3.762 147.159 3.762C147.327 3.762 147.462 3.818 147.565 3.93C147.667 4.03267 147.719 4.16333 147.719 4.322V6.17L147.551 5.876C147.607 5.58667 147.705 5.30667 147.845 5.036C147.994 4.756 148.181 4.50867 148.405 4.294C148.629 4.07 148.885 3.89733 149.175 3.776C149.464 3.64533 149.781 3.58 150.127 3.58C150.332 3.58 150.519 3.63133 150.687 3.734C150.864 3.82733 150.953 3.96267 150.953 4.14C150.953 4.336 150.901 4.48067 150.799 4.574C150.696 4.66733 150.579 4.714 150.449 4.714C150.327 4.714 150.211 4.69067 150.099 4.644C149.987 4.588 149.847 4.56 149.678 4.56C149.445 4.56 149.212 4.62533 148.979 4.756C148.755 4.87733 148.545 5.05467 148.349 5.288C148.162 5.52133 148.008 5.78733 147.887 6.086C147.775 6.37533 147.719 6.688 147.719 7.024V10.426C147.719 10.5847 147.663 10.72 147.551 10.832C147.448 10.944 147.317 11 147.159 11ZM162.037 3.692C162.196 3.692 162.326 3.748 162.429 3.86C162.541 3.96267 162.597 4.09333 162.597 4.252V10.426C162.597 10.5847 162.541 10.72 162.429 10.832C162.326 10.944 162.196 11 162.037 11C161.869 11 161.734 10.944 161.631 10.832C161.528 10.72 161.477 10.5847 161.477 10.426V9.096L161.743 9.068C161.743 9.27333 161.673 9.49733 161.533 9.74C161.393 9.98267 161.202 10.2113 160.959 10.426C160.716 10.6313 160.427 10.804 160.091 10.944C159.764 11.0747 159.41 11.14 159.027 11.14C158.392 11.14 157.823 10.9767 157.319 10.65C156.815 10.314 156.414 9.86133 156.115 9.292C155.826 8.72267 155.681 8.074 155.681 7.346C155.681 6.60867 155.826 5.96 156.115 5.4C156.414 4.83067 156.815 4.38733 157.319 4.07C157.823 3.74333 158.383 3.58 158.999 3.58C159.4 3.58 159.774 3.64533 160.119 3.776C160.464 3.90667 160.763 4.084 161.015 4.308C161.276 4.532 161.477 4.77933 161.617 5.05C161.766 5.32067 161.841 5.59133 161.841 5.862L161.477 5.778V4.252C161.477 4.09333 161.528 3.96267 161.631 3.86C161.734 3.748 161.869 3.692 162.037 3.692ZM159.153 10.104C159.62 10.104 160.03 9.98267 160.385 9.74C160.749 9.49733 161.029 9.17067 161.225 8.76C161.43 8.34 161.533 7.86867 161.533 7.346C161.533 6.83267 161.43 6.37067 161.225 5.96C161.029 5.54 160.749 5.21333 160.385 4.98C160.03 4.73733 159.62 4.616 159.153 4.616C158.696 4.616 158.285 4.73267 157.921 4.966C157.566 5.19933 157.286 5.52133 157.081 5.932C156.876 6.34267 156.773 6.814 156.773 7.346C156.773 7.86867 156.871 8.34 157.067 8.76C157.272 9.17067 157.552 9.49733 157.907 9.74C158.271 9.98267 158.686 10.104 159.153 10.104ZM170.637 0.64C170.795 0.64 170.926 0.696 171.029 0.807999C171.141 0.910666 171.197 1.04133 171.197 1.2V10.426C171.197 10.5847 171.141 10.72 171.029 10.832C170.926 10.944 170.795 11 170.637 11C170.469 11 170.333 10.944 170.231 10.832C170.128 10.72 170.077 10.5847 170.077 10.426V9.096L170.343 8.998C170.343 9.222 170.273 9.46 170.133 9.712C169.993 9.95467 169.801 10.1833 169.559 10.398C169.316 10.6127 169.027 10.79 168.691 10.93C168.364 11.07 168.009 11.14 167.627 11.14C167.001 11.14 166.432 10.9767 165.919 10.65C165.415 10.3233 165.013 9.87533 164.715 9.306C164.425 8.73667 164.281 8.088 164.281 7.36C164.281 6.62267 164.425 5.96933 164.715 5.4C165.013 4.83067 165.415 4.38733 165.919 4.07C166.423 3.74333 166.983 3.58 167.599 3.58C167.991 3.58 168.359 3.64533 168.705 3.776C169.05 3.90667 169.349 4.084 169.601 4.308C169.862 4.532 170.067 4.77933 170.217 5.05C170.366 5.32067 170.441 5.59133 170.441 5.862L170.077 5.778V1.2C170.077 1.04133 170.128 0.910666 170.231 0.807999C170.333 0.696 170.469 0.64 170.637 0.64ZM167.753 10.104C168.219 10.104 168.63 9.98733 168.985 9.754C169.349 9.51133 169.629 9.18467 169.825 8.774C170.03 8.354 170.133 7.88267 170.133 7.36C170.133 6.828 170.03 6.35667 169.825 5.946C169.629 5.53533 169.349 5.21333 168.985 4.98C168.63 4.73733 168.219 4.616 167.753 4.616C167.295 4.616 166.885 4.73733 166.521 4.98C166.166 5.21333 165.886 5.53533 165.681 5.946C165.475 6.35667 165.373 6.828 165.373 7.36C165.373 7.87333 165.475 8.34 165.681 8.76C165.886 9.17067 166.166 9.49733 166.521 9.74C166.885 9.98267 167.295 10.104 167.753 10.104ZM179.236 0.64C179.395 0.64 179.526 0.696 179.628 0.807999C179.74 0.910666 179.796 1.04133 179.796 1.2V10.426C179.796 10.5847 179.74 10.72 179.628 10.832C179.526 10.944 179.395 11 179.236 11C179.068 11 178.933 10.944 178.83 10.832C178.728 10.72 178.676 10.5847 178.676 10.426V9.096L178.942 8.998C178.942 9.222 178.872 9.46 178.732 9.712C178.592 9.95467 178.401 10.1833 178.158 10.398C177.916 10.6127 177.626 10.79 177.29 10.93C176.964 11.07 176.609 11.14 176.226 11.14C175.601 11.14 175.032 10.9767 174.518 10.65C174.014 10.3233 173.613 9.87533 173.314 9.306C173.025 8.73667 172.88 8.088 172.88 7.36C172.88 6.62267 173.025 5.96933 173.314 5.4C173.613 4.83067 174.014 4.38733 174.518 4.07C175.022 3.74333 175.582 3.58 176.198 3.58C176.59 3.58 176.959 3.64533 177.304 3.776C177.65 3.90667 177.948 4.084 178.2 4.308C178.462 4.532 178.667 4.77933 178.816 5.05C178.966 5.32067 179.04 5.59133 179.04 5.862L178.676 5.778V1.2C178.676 1.04133 178.728 0.910666 178.83 0.807999C178.933 0.696 179.068 0.64 179.236 0.64ZM176.352 10.104C176.819 10.104 177.23 9.98733 177.584 9.754C177.948 9.51133 178.228 9.18467 178.424 8.774C178.63 8.354 178.732 7.88267 178.732 7.36C178.732 6.828 178.63 6.35667 178.424 5.946C178.228 5.53533 177.948 5.21333 177.584 4.98C177.23 4.73733 176.819 4.616 176.352 4.616C175.895 4.616 175.484 4.73733 175.12 4.98C174.766 5.21333 174.486 5.53533 174.28 5.946C174.075 6.35667 173.972 6.828 173.972 7.36C173.972 7.87333 174.075 8.34 174.28 8.76C174.486 9.17067 174.766 9.49733 175.12 9.74C175.484 9.98267 175.895 10.104 176.352 10.104ZM182.95 10.426C182.95 10.5847 182.894 10.72 182.782 10.832C182.679 10.944 182.549 11 182.39 11C182.222 11 182.087 10.944 181.984 10.832C181.881 10.72 181.83 10.5847 181.83 10.426V4.21C181.83 4.05133 181.881 3.92067 181.984 3.818C182.096 3.706 182.231 3.65 182.39 3.65C182.549 3.65 182.679 3.706 182.782 3.818C182.894 3.92067 182.95 4.05133 182.95 4.21V10.426ZM182.39 2.712C182.157 2.712 181.984 2.66533 181.872 2.572C181.76 2.47867 181.704 2.334 181.704 2.138V1.942C181.704 1.746 181.765 1.60133 181.886 1.508C182.007 1.41467 182.18 1.368 182.404 1.368C182.628 1.368 182.796 1.41467 182.908 1.508C183.02 1.60133 183.076 1.746 183.076 1.942V2.138C183.076 2.334 183.015 2.47867 182.894 2.572C182.782 2.66533 182.614 2.712 182.39 2.712ZM184.682 3.804H187.972C188.121 3.804 188.242 3.85533 188.336 3.958C188.438 4.06067 188.49 4.182 188.49 4.322C188.49 4.47133 188.438 4.59733 188.336 4.7C188.242 4.79333 188.121 4.84 187.972 4.84H184.682C184.542 4.84 184.42 4.78867 184.318 4.686C184.215 4.58333 184.164 4.45733 184.164 4.308C184.164 4.168 184.215 4.05133 184.318 3.958C184.42 3.85533 184.542 3.804 184.682 3.804ZM186.152 1.9C186.31 1.9 186.441 1.956 186.544 2.068C186.646 2.17067 186.698 2.30133 186.698 2.46V9.222C186.698 9.446 186.73 9.614 186.796 9.726C186.861 9.838 186.945 9.91733 187.048 9.964C187.16 10.0013 187.267 10.02 187.37 10.02C187.463 10.02 187.542 10.006 187.608 9.978C187.682 9.94067 187.766 9.922 187.86 9.922C187.953 9.922 188.037 9.96867 188.112 10.062C188.196 10.146 188.238 10.258 188.238 10.398C188.238 10.566 188.14 10.7107 187.944 10.832C187.748 10.944 187.528 11 187.286 11C187.155 11 186.992 10.9907 186.796 10.972C186.609 10.9533 186.422 10.8927 186.236 10.79C186.049 10.6873 185.89 10.5193 185.76 10.286C185.638 10.0433 185.578 9.70733 185.578 9.278V2.46C185.578 2.30133 185.634 2.17067 185.746 2.068C185.858 1.956 185.993 1.9 186.152 1.9ZM191.126 10.426C191.126 10.5847 191.07 10.72 190.958 10.832C190.855 10.944 190.724 11 190.566 11C190.398 11 190.262 10.944 190.16 10.832C190.057 10.72 190.006 10.5847 190.006 10.426V4.21C190.006 4.05133 190.057 3.92067 190.16 3.818C190.272 3.706 190.407 3.65 190.566 3.65C190.724 3.65 190.855 3.706 190.958 3.818C191.07 3.92067 191.126 4.05133 191.126 4.21V10.426ZM190.566 2.712C190.332 2.712 190.16 2.66533 190.048 2.572C189.936 2.47867 189.88 2.334 189.88 2.138V1.942C189.88 1.746 189.94 1.60133 190.062 1.508C190.183 1.41467 190.356 1.368 190.58 1.368C190.804 1.368 190.972 1.41467 191.084 1.508C191.196 1.60133 191.252 1.746 191.252 1.942V2.138C191.252 2.334 191.191 2.47867 191.07 2.572C190.958 2.66533 190.79 2.712 190.566 2.712ZM200.012 7.36C200.012 8.088 199.848 8.73667 199.522 9.306C199.204 9.87533 198.77 10.3233 198.22 10.65C197.678 10.9767 197.067 11.14 196.386 11.14C195.704 11.14 195.088 10.9767 194.538 10.65C193.987 10.3233 193.548 9.87533 193.222 9.306C192.904 8.73667 192.746 8.088 192.746 7.36C192.746 6.632 192.904 5.98333 193.222 5.414C193.548 4.84467 193.987 4.39667 194.538 4.07C195.088 3.74333 195.704 3.58 196.386 3.58C197.067 3.58 197.678 3.74333 198.22 4.07C198.77 4.39667 199.204 4.84467 199.522 5.414C199.848 5.98333 200.012 6.632 200.012 7.36ZM198.892 7.36C198.892 6.81867 198.78 6.34267 198.556 5.932C198.341 5.52133 198.042 5.19933 197.66 4.966C197.286 4.73267 196.862 4.616 196.386 4.616C195.91 4.616 195.48 4.73267 195.098 4.966C194.724 5.19933 194.426 5.52133 194.202 5.932C193.978 6.34267 193.866 6.81867 193.866 7.36C193.866 7.892 193.978 8.36333 194.202 8.774C194.426 9.18467 194.724 9.51133 195.098 9.754C195.48 9.98733 195.91 10.104 196.386 10.104C196.862 10.104 197.286 9.98733 197.66 9.754C198.042 9.51133 198.341 9.18467 198.556 8.774C198.78 8.36333 198.892 7.892 198.892 7.36ZM205.294 3.58C205.929 3.58 206.428 3.71067 206.792 3.972C207.156 4.23333 207.413 4.58333 207.562 5.022C207.721 5.46067 207.8 5.95067 207.8 6.492V10.426C207.8 10.5847 207.744 10.72 207.632 10.832C207.529 10.944 207.399 11 207.24 11C207.081 11 206.946 10.944 206.834 10.832C206.731 10.72 206.68 10.5847 206.68 10.426V6.52C206.68 6.16533 206.624 5.848 206.512 5.568C206.409 5.27867 206.232 5.05 205.98 4.882C205.737 4.70467 205.401 4.616 204.972 4.616C204.58 4.616 204.221 4.70467 203.894 4.882C203.567 5.05 203.306 5.27867 203.11 5.568C202.914 5.848 202.816 6.16533 202.816 6.52V10.426C202.816 10.5847 202.76 10.72 202.648 10.832C202.545 10.944 202.415 11 202.256 11C202.097 11 201.962 10.944 201.85 10.832C201.747 10.72 201.696 10.5847 201.696 10.426V4.322C201.696 4.16333 201.747 4.03267 201.85 3.93C201.962 3.818 202.097 3.762 202.256 3.762C202.424 3.762 202.559 3.818 202.662 3.93C202.765 4.03267 202.816 4.16333 202.816 4.322V5.316L202.536 5.624C202.583 5.38133 202.69 5.13867 202.858 4.896C203.026 4.644 203.236 4.42 203.488 4.224C203.74 4.028 204.02 3.874 204.328 3.762C204.636 3.64067 204.958 3.58 205.294 3.58ZM215.836 3.692C215.995 3.692 216.125 3.748 216.228 3.86C216.34 3.96267 216.396 4.09333 216.396 4.252V10.426C216.396 10.5847 216.34 10.72 216.228 10.832C216.125 10.944 215.995 11 215.836 11C215.668 11 215.533 10.944 215.43 10.832C215.327 10.72 215.276 10.5847 215.276 10.426V9.096L215.542 9.068C215.542 9.27333 215.472 9.49733 215.332 9.74C215.192 9.98267 215.001 10.2113 214.758 10.426C214.515 10.6313 214.226 10.804 213.89 10.944C213.563 11.0747 213.209 11.14 212.826 11.14C212.191 11.14 211.622 10.9767 211.118 10.65C210.614 10.314 210.213 9.86133 209.914 9.292C209.625 8.72267 209.48 8.074 209.48 7.346C209.48 6.60867 209.625 5.96 209.914 5.4C210.213 4.83067 210.614 4.38733 211.118 4.07C211.622 3.74333 212.182 3.58 212.798 3.58C213.199 3.58 213.573 3.64533 213.918 3.776C214.263 3.90667 214.562 4.084 214.814 4.308C215.075 4.532 215.276 4.77933 215.416 5.05C215.565 5.32067 215.64 5.59133 215.64 5.862L215.276 5.778V4.252C215.276 4.09333 215.327 3.96267 215.43 3.86C215.533 3.748 215.668 3.692 215.836 3.692ZM212.952 10.104C213.419 10.104 213.829 9.98267 214.184 9.74C214.548 9.49733 214.828 9.17067 215.024 8.76C215.229 8.34 215.332 7.86867 215.332 7.346C215.332 6.83267 215.229 6.37067 215.024 5.96C214.828 5.54 214.548 5.21333 214.184 4.98C213.829 4.73733 213.419 4.616 212.952 4.616C212.495 4.616 212.084 4.73267 211.72 4.966C211.365 5.19933 211.085 5.52133 210.88 5.932C210.675 6.34267 210.572 6.814 210.572 7.346C210.572 7.86867 210.67 8.34 210.866 8.76C211.071 9.17067 211.351 9.49733 211.706 9.74C212.07 9.98267 212.485 10.104 212.952 10.104ZM219.704 10.426C219.704 10.5847 219.648 10.72 219.536 10.832C219.424 10.944 219.288 11 219.13 11C218.971 11 218.84 10.944 218.738 10.832C218.635 10.72 218.584 10.5847 218.584 10.426V1.2C218.584 1.04133 218.635 0.910666 218.738 0.807999C218.85 0.696 218.985 0.64 219.144 0.64C219.312 0.64 219.447 0.696 219.55 0.807999C219.652 0.910666 219.704 1.04133 219.704 1.2V10.426ZM225.325 9.852C225.241 9.73067 225.204 9.60467 225.213 9.474C225.223 9.334 225.302 9.21267 225.451 9.11C225.545 9.04467 225.652 9.01667 225.773 9.026C225.904 9.03533 226.021 9.096 226.123 9.208C226.385 9.516 226.683 9.76333 227.019 9.95C227.355 10.1273 227.766 10.216 228.251 10.216C228.475 10.2067 228.699 10.1693 228.923 10.104C229.147 10.0387 229.334 9.92667 229.483 9.768C229.642 9.6 229.721 9.38067 229.721 9.11C229.721 8.84867 229.642 8.64333 229.483 8.494C229.325 8.33533 229.119 8.20933 228.867 8.116C228.615 8.01333 228.34 7.92467 228.041 7.85C227.733 7.766 227.43 7.67267 227.131 7.57C226.833 7.458 226.562 7.32267 226.319 7.164C226.086 6.996 225.895 6.79067 225.745 6.548C225.605 6.296 225.535 5.99267 225.535 5.638C225.535 5.218 225.647 4.854 225.871 4.546C226.105 4.238 226.413 4 226.795 3.832C227.187 3.664 227.612 3.58 228.069 3.58C228.331 3.58 228.601 3.61267 228.881 3.678C229.171 3.734 229.451 3.83667 229.721 3.986C229.992 4.126 230.23 4.322 230.435 4.574C230.519 4.66733 230.566 4.784 230.575 4.924C230.585 5.064 230.524 5.19 230.393 5.302C230.291 5.37667 230.174 5.40933 230.043 5.4C229.922 5.39067 229.819 5.344 229.735 5.26C229.539 5.02667 229.292 4.84933 228.993 4.728C228.704 4.59733 228.382 4.532 228.027 4.532C227.803 4.532 227.584 4.56467 227.369 4.63C227.155 4.69533 226.973 4.80733 226.823 4.966C226.683 5.11533 226.613 5.32533 226.613 5.596C226.623 5.848 226.707 6.05333 226.865 6.212C227.024 6.37067 227.239 6.50133 227.509 6.604C227.78 6.69733 228.079 6.79067 228.405 6.884C228.704 6.95867 228.989 7.04733 229.259 7.15C229.539 7.24333 229.791 7.36933 230.015 7.528C230.239 7.68667 230.417 7.892 230.547 8.144C230.678 8.38667 230.743 8.69467 230.743 9.068C230.743 9.49733 230.622 9.87067 230.379 10.188C230.137 10.496 229.815 10.734 229.413 10.902C229.021 11.0607 228.597 11.14 228.139 11.14C227.626 11.14 227.117 11.042 226.613 10.846C226.119 10.65 225.689 10.3187 225.325 9.852ZM235.708 11.14C234.962 11.14 234.308 10.9813 233.748 10.664C233.188 10.3467 232.75 9.91267 232.432 9.362C232.124 8.802 231.97 8.158 231.97 7.43C231.97 6.618 232.129 5.92733 232.446 5.358C232.773 4.77933 233.193 4.34067 233.706 4.042C234.229 3.734 234.78 3.58 235.358 3.58C235.788 3.58 236.203 3.65933 236.604 3.818C237.006 3.97667 237.36 4.21 237.668 4.518C237.976 4.81667 238.224 5.18067 238.41 5.61C238.597 6.03 238.695 6.50133 238.704 7.024C238.704 7.17333 238.648 7.29933 238.536 7.402C238.424 7.50467 238.294 7.556 238.144 7.556H232.614L232.362 6.59H237.752L237.528 6.786V6.478C237.491 6.09533 237.36 5.76867 237.136 5.498C236.922 5.218 236.656 5.00333 236.338 4.854C236.03 4.70467 235.704 4.63 235.358 4.63C235.078 4.63 234.798 4.68133 234.518 4.784C234.248 4.87733 234 5.036 233.776 5.26C233.562 5.47467 233.384 5.75467 233.244 6.1C233.114 6.44533 233.048 6.86067 233.048 7.346C233.048 7.88733 233.156 8.36333 233.37 8.774C233.594 9.18467 233.902 9.51133 234.294 9.754C234.686 9.98733 235.144 10.104 235.666 10.104C235.993 10.104 236.278 10.062 236.52 9.978C236.763 9.894 236.973 9.79133 237.15 9.67C237.328 9.53933 237.477 9.40867 237.598 9.278C237.72 9.194 237.836 9.152 237.948 9.152C238.088 9.152 238.2 9.19867 238.284 9.292C238.378 9.38533 238.424 9.49733 238.424 9.628C238.424 9.78667 238.35 9.92667 238.2 10.048C237.939 10.3373 237.584 10.594 237.136 10.818C236.688 11.0327 236.212 11.14 235.708 11.14ZM243.608 3.58C244.084 3.58 244.513 3.63133 244.896 3.734C245.278 3.83667 245.582 3.97667 245.806 4.154C246.03 4.33133 246.142 4.532 246.142 4.756C246.142 4.87733 246.1 4.994 246.016 5.106C245.932 5.218 245.82 5.274 245.68 5.274C245.549 5.274 245.442 5.25067 245.358 5.204C245.283 5.15733 245.208 5.09667 245.134 5.022C245.068 4.94733 244.975 4.882 244.854 4.826C244.742 4.76067 244.578 4.70933 244.364 4.672C244.149 4.63467 243.934 4.616 243.72 4.616C243.206 4.616 242.754 4.73733 242.362 4.98C241.979 5.22267 241.676 5.54933 241.452 5.96C241.228 6.37067 241.116 6.83733 241.116 7.36C241.116 7.88267 241.223 8.34933 241.438 8.76C241.652 9.17067 241.951 9.49733 242.334 9.74C242.716 9.98267 243.16 10.104 243.664 10.104C243.99 10.104 244.252 10.076 244.448 10.02C244.644 9.964 244.807 9.89867 244.938 9.824C245.106 9.73067 245.232 9.63733 245.316 9.544C245.409 9.45067 245.53 9.404 245.68 9.404C245.838 9.404 245.96 9.45533 246.044 9.558C246.137 9.66067 246.184 9.78667 246.184 9.936C246.184 10.104 246.067 10.2813 245.834 10.468C245.6 10.6547 245.283 10.8133 244.882 10.944C244.49 11.0747 244.042 11.14 243.538 11.14C242.828 11.14 242.208 10.9767 241.676 10.65C241.144 10.314 240.728 9.86133 240.43 9.292C240.14 8.71333 239.996 8.06933 239.996 7.36C239.996 6.65067 240.145 6.01133 240.444 5.442C240.752 4.87267 241.176 4.42 241.718 4.084C242.259 3.748 242.889 3.58 243.608 3.58ZM253.065 3.762C253.233 3.762 253.369 3.818 253.471 3.93C253.574 4.03267 253.625 4.16333 253.625 4.322V8.144C253.625 9.08667 253.359 9.81933 252.827 10.342C252.305 10.8553 251.572 11.112 250.629 11.112C249.696 11.112 248.963 10.8553 248.431 10.342C247.909 9.81933 247.647 9.08667 247.647 8.144V4.322C247.647 4.16333 247.699 4.03267 247.801 3.93C247.913 3.818 248.049 3.762 248.207 3.762C248.375 3.762 248.511 3.818 248.613 3.93C248.716 4.03267 248.767 4.16333 248.767 4.322V8.144C248.767 8.77867 248.931 9.25933 249.257 9.586C249.584 9.91267 250.041 10.076 250.629 10.076C251.236 10.076 251.698 9.91267 252.015 9.586C252.342 9.25933 252.505 8.77867 252.505 8.144V4.322C252.505 4.16333 252.557 4.03267 252.659 3.93C252.771 3.818 252.907 3.762 253.065 3.762ZM256.26 11C256.101 11 255.966 10.944 255.854 10.832C255.751 10.72 255.7 10.5847 255.7 10.426V4.322C255.7 4.16333 255.751 4.03267 255.854 3.93C255.966 3.818 256.101 3.762 256.26 3.762C256.428 3.762 256.563 3.818 256.666 3.93C256.769 4.03267 256.82 4.16333 256.82 4.322V6.17L256.652 5.876C256.708 5.58667 256.806 5.30667 256.946 5.036C257.095 4.756 257.282 4.50867 257.506 4.294C257.73 4.07 257.987 3.89733 258.276 3.776C258.565 3.64533 258.883 3.58 259.228 3.58C259.433 3.58 259.62 3.63133 259.788 3.734C259.965 3.82733 260.054 3.96267 260.054 4.14C260.054 4.336 260.003 4.48067 259.9 4.574C259.797 4.66733 259.681 4.714 259.55 4.714C259.429 4.714 259.312 4.69067 259.2 4.644C259.088 4.588 258.948 4.56 258.78 4.56C258.547 4.56 258.313 4.62533 258.08 4.756C257.856 4.87733 257.646 5.05467 257.45 5.288C257.263 5.52133 257.109 5.78733 256.988 6.086C256.876 6.37533 256.82 6.688 256.82 7.024V10.426C256.82 10.5847 256.764 10.72 256.652 10.832C256.549 10.944 256.419 11 256.26 11ZM262.397 10.426C262.397 10.5847 262.341 10.72 262.229 10.832C262.127 10.944 261.996 11 261.837 11C261.669 11 261.534 10.944 261.431 10.832C261.329 10.72 261.277 10.5847 261.277 10.426V4.21C261.277 4.05133 261.329 3.92067 261.431 3.818C261.543 3.706 261.679 3.65 261.837 3.65C261.996 3.65 262.127 3.706 262.229 3.818C262.341 3.92067 262.397 4.05133 262.397 4.21V10.426ZM261.837 2.712C261.604 2.712 261.431 2.66533 261.319 2.572C261.207 2.47867 261.151 2.334 261.151 2.138V1.942C261.151 1.746 261.212 1.60133 261.333 1.508C261.455 1.41467 261.627 1.368 261.851 1.368C262.075 1.368 262.243 1.41467 262.355 1.508C262.467 1.60133 262.523 1.746 262.523 1.942V2.138C262.523 2.334 262.463 2.47867 262.341 2.572C262.229 2.66533 262.061 2.712 261.837 2.712ZM264.129 3.804H267.419C267.568 3.804 267.69 3.85533 267.783 3.958C267.886 4.06067 267.937 4.182 267.937 4.322C267.937 4.47133 267.886 4.59733 267.783 4.7C267.69 4.79333 267.568 4.84 267.419 4.84H264.129C263.989 4.84 263.868 4.78867 263.765 4.686C263.662 4.58333 263.611 4.45733 263.611 4.308C263.611 4.168 263.662 4.05133 263.765 3.958C263.868 3.85533 263.989 3.804 264.129 3.804ZM265.599 1.9C265.758 1.9 265.888 1.956 265.991 2.068C266.094 2.17067 266.145 2.30133 266.145 2.46V9.222C266.145 9.446 266.178 9.614 266.243 9.726C266.308 9.838 266.392 9.91733 266.495 9.964C266.607 10.0013 266.714 10.02 266.817 10.02C266.91 10.02 266.99 10.006 267.055 9.978C267.13 9.94067 267.214 9.922 267.307 9.922C267.4 9.922 267.484 9.96867 267.559 10.062C267.643 10.146 267.685 10.258 267.685 10.398C267.685 10.566 267.587 10.7107 267.391 10.832C267.195 10.944 266.976 11 266.733 11C266.602 11 266.439 10.9907 266.243 10.972C266.056 10.9533 265.87 10.8927 265.683 10.79C265.496 10.6873 265.338 10.5193 265.207 10.286C265.086 10.0433 265.025 9.70733 265.025 9.278V2.46C265.025 2.30133 265.081 2.17067 265.193 2.068C265.305 1.956 265.44 1.9 265.599 1.9ZM274.913 3.65C275.072 3.65 275.202 3.706 275.305 3.818C275.417 3.92067 275.473 4.05133 275.473 4.21V10.314C275.473 11.098 275.319 11.7467 275.011 12.26C274.703 12.7827 274.288 13.17 273.765 13.422C273.252 13.674 272.668 13.8 272.015 13.8C271.651 13.8 271.301 13.7627 270.965 13.688C270.629 13.6133 270.354 13.5153 270.139 13.394C269.962 13.31 269.836 13.2027 269.761 13.072C269.696 12.9507 269.686 12.82 269.733 12.68C269.798 12.512 269.892 12.3953 270.013 12.33C270.144 12.2647 270.279 12.2647 270.419 12.33C270.568 12.3953 270.783 12.484 271.063 12.596C271.352 12.7173 271.674 12.778 272.029 12.778C272.514 12.778 272.93 12.6847 273.275 12.498C273.62 12.3113 273.886 12.036 274.073 11.672C274.26 11.3173 274.353 10.874 274.353 10.342V9.348L274.521 9.698C274.372 9.98733 274.171 10.2393 273.919 10.454C273.667 10.6687 273.378 10.8367 273.051 10.958C272.724 11.0793 272.365 11.14 271.973 11.14C271.441 11.14 270.988 11.028 270.615 10.804C270.251 10.5707 269.971 10.2533 269.775 9.852C269.588 9.44133 269.495 8.97 269.495 8.438V4.21C269.495 4.05133 269.546 3.92067 269.649 3.818C269.761 3.706 269.896 3.65 270.055 3.65C270.223 3.65 270.358 3.706 270.461 3.818C270.564 3.92067 270.615 4.05133 270.615 4.21V8.186C270.615 8.82067 270.755 9.30133 271.035 9.628C271.315 9.94533 271.749 10.104 272.337 10.104C272.71 10.104 273.046 10.02 273.345 9.852C273.653 9.684 273.896 9.45533 274.073 9.166C274.26 8.86733 274.353 8.54067 274.353 8.186V4.21C274.353 4.05133 274.404 3.92067 274.507 3.818C274.61 3.706 274.745 3.65 274.913 3.65ZM277.884 10.986C277.688 10.986 277.534 10.93 277.422 10.818C277.319 10.706 277.268 10.552 277.268 10.356V10.076C277.268 9.87067 277.319 9.712 277.422 9.6C277.534 9.488 277.688 9.432 277.884 9.432H277.996C278.201 9.432 278.355 9.488 278.458 9.6C278.56 9.712 278.612 9.87067 278.612 10.076V10.356C278.612 10.552 278.56 10.706 278.458 10.818C278.355 10.93 278.201 10.986 277.996 10.986H277.884Z" fill="black" fill-opacity="0.6"/>
</svg>
