<svg width="66" height="53" viewBox="0 0 66 53" fill="none" xmlns="http://www.w3.org/2000/svg">
<path fill-rule="evenodd" clip-rule="evenodd" d="M64.1808 4.95045C62.3654 2.2646 59.3333 0.657236 56.0915 0.66212H10.6092C5.22656 0.66212 0.863037 5.02564 0.863037 10.4083V42.8956C0.863037 48.2783 5.22656 52.6418 10.6092 52.6418H56.0915C61.4741 52.6418 65.8377 48.2783 65.8377 42.8956V10.4083C65.842 8.46451 65.265 6.5638 64.1808 4.95045ZM10.6091 7.15785H56.0914C57.0245 7.15904 57.912 7.5614 58.5279 8.26242L33.3502 22.9792L8.20506 8.22994C8.81926 7.54939 9.6924 7.16002 10.6091 7.15785ZM56.0916 46.1448C57.8858 46.1448 59.3403 44.6903 59.3403 42.896V15.2493L36.5992 28.5691C35.6121 29.1417 34.4916 29.4443 33.3505 29.4463C32.2123 29.4542 31.092 29.1629 30.1018 28.6016L7.36064 15.2493V42.896C7.36064 44.6903 8.81515 46.1448 10.6094 46.1448H56.0916Z" fill="white"/>
</svg>
