<svg width="261" height="51" viewBox="0 0 261 51" fill="none" xmlns="http://www.w3.org/2000/svg">
<path d="M4.512 16.848C4.512 17.208 4.608 17.496 4.824 17.688C5.016 17.904 5.304 18 5.664 18H6.816C7.152 18 7.44 17.904 7.656 17.688C7.848 17.496 7.968 17.208 7.968 16.848V4.128H10.704C11.04 4.128 11.328 4.032 11.544 3.816C11.736 3.624 11.856 3.336 11.856 2.976V2.4C11.856 2.064 11.736 1.776 11.544 1.56C11.328 1.368 11.04 1.248 10.704 1.248H1.776C1.416 1.248 1.128 1.368 0.936 1.56C0.72 1.776 0.624 2.064 0.624 2.4V2.976C0.624 3.336 0.72 3.624 0.936 3.816C1.128 4.032 1.416 4.128 1.776 4.128H4.512V16.848ZM11.2993 13.008C11.2993 14.496 11.7553 15.744 12.7153 16.776C13.6753 17.808 15.0913 18.312 17.0113 18.312C17.9953 18.312 19.0513 18.144 20.1793 17.808C20.8993 17.592 21.1633 17.112 20.9713 16.392L20.8513 15.936C20.6593 15.264 20.1793 15 19.4113 15.168C18.4753 15.384 17.6593 15.48 16.9873 15.48C15.4273 15.48 14.6593 14.664 14.6593 13.008V12.816H21.2593C21.4273 12.816 21.5713 12.768 21.6913 12.648C21.8113 12.528 21.8833 12.384 21.8833 12.192V10.464C21.8833 9.072 21.4033 7.824 20.4433 6.768C19.4833 5.712 18.1873 5.184 16.5793 5.184C14.9473 5.184 13.6753 5.712 12.7153 6.744C11.7553 7.8 11.2993 9.024 11.2993 10.464V13.008ZM14.6593 10.512V10.2C14.6593 9.576 14.8033 9.072 15.1153 8.64C15.4033 8.232 15.9073 8.016 16.6033 8.016C17.8753 8.016 18.5233 8.76 18.5233 10.2V10.512H14.6593ZM24.339 16.848C24.339 17.208 24.435 17.496 24.651 17.688C24.843 17.904 25.131 18 25.491 18H26.547C26.883 18 27.171 17.904 27.387 17.688C27.579 17.496 27.699 17.208 27.699 16.848V9.6C28.611 8.568 29.451 8.04 30.243 8.04C30.435 8.04 30.579 8.04 30.651 8.04C30.699 8.04 30.795 7.992 30.939 7.92C31.059 7.848 31.155 7.728 31.227 7.536C31.299 7.344 31.371 7.104 31.419 6.768C31.611 5.712 31.275 5.184 30.411 5.184C29.835 5.184 29.259 5.376 28.707 5.712C28.155 6.048 27.699 6.48 27.363 7.008L27.291 6.624C27.147 5.88 26.763 5.496 26.115 5.496H25.491C25.131 5.496 24.843 5.616 24.651 5.808C24.435 6.024 24.339 6.312 24.339 6.648V16.848ZM33.3859 16.848C33.3859 17.208 33.4819 17.496 33.6979 17.688C33.8899 17.904 34.1779 18 34.5379 18H35.5939C35.9299 18 36.2179 17.904 36.4339 17.688C36.6259 17.496 36.7459 17.208 36.7459 16.848V9.096C37.5139 8.376 38.1859 8.016 38.7859 8.016C39.2659 8.016 39.6019 8.16 39.8179 8.448C40.0339 8.736 40.1539 9.192 40.1539 9.84V16.848C40.1539 17.208 40.2499 17.496 40.4659 17.688C40.6579 17.904 40.9459 18 41.3059 18H42.3619C42.6979 18 42.9859 17.904 43.2019 17.688C43.3939 17.496 43.5139 17.208 43.5139 16.848V9.552C43.5139 9.504 43.4899 9.408 43.4899 9.288C43.4899 9.192 43.4899 9.096 43.4899 9.024C44.1859 8.352 44.8819 8.016 45.5539 8.016C46.0339 8.016 46.3699 8.16 46.5859 8.448C46.8019 8.736 46.9219 9.192 46.9219 9.84V16.848C46.9219 17.208 47.0179 17.496 47.2339 17.688C47.4259 17.904 47.7139 18 48.0739 18H49.1299C49.4659 18 49.7539 17.904 49.9699 17.688C50.1619 17.496 50.2819 17.208 50.2819 16.848V9.456C50.2819 8.112 49.9219 7.056 49.2259 6.312C48.5299 5.568 47.5459 5.184 46.2739 5.184C45.1219 5.184 43.9699 5.712 42.8179 6.744C42.1699 5.712 41.0659 5.184 39.5059 5.184C38.4019 5.184 37.3699 5.664 36.3859 6.576L36.3619 6.408C36.2659 5.808 35.8819 5.496 35.1859 5.496H34.5379C34.1779 5.496 33.8899 5.616 33.6979 5.808C33.4819 6.024 33.3859 6.312 33.3859 6.648V16.848ZM53.6728 17.832C54.6568 18.168 55.6648 18.312 56.6968 18.312C58.1128 18.312 59.2888 17.952 60.2008 17.232C61.1128 16.512 61.5688 15.576 61.5688 14.4C61.5688 13.584 61.3768 12.912 61.0408 12.336C60.7048 11.76 60.2728 11.352 59.7928 11.064C59.2888 10.8 58.7848 10.56 58.3048 10.368C57.8248 10.176 57.3928 9.984 57.0568 9.744C56.7208 9.528 56.5528 9.264 56.5528 8.952C56.5528 8.664 56.6488 8.448 56.8648 8.256C57.0808 8.088 57.3928 7.992 57.8248 7.992C58.2568 7.992 58.7128 8.064 59.2408 8.184C59.5528 8.28 59.8408 8.256 60.0808 8.112C60.3208 7.968 60.5128 7.728 60.6088 7.392L60.7528 6.912C60.9688 6.192 60.7288 5.736 60.0088 5.496C59.2168 5.304 58.4488 5.184 57.7288 5.184C56.3848 5.184 55.2808 5.544 54.3688 6.24C53.4568 6.936 53.0248 7.848 53.0248 8.952C53.0248 9.816 53.1928 10.536 53.5288 11.112C53.8648 11.688 54.2968 12.096 54.8008 12.336C55.2808 12.576 55.7848 12.792 56.2648 12.96C56.7448 13.152 57.1768 13.344 57.5128 13.56C57.8488 13.776 58.0408 14.064 58.0408 14.4C58.0408 15.12 57.5608 15.48 56.6248 15.48C55.9528 15.48 55.2328 15.36 54.4648 15.12C53.7448 14.88 53.3128 15.12 53.1208 15.84L52.9768 16.368C52.8808 16.704 52.9048 17.016 53.0248 17.28C53.1448 17.544 53.3608 17.736 53.6728 17.832ZM68.8149 12.6C68.8149 14.376 69.2949 15.768 70.2789 16.776C71.2389 17.808 72.5829 18.312 74.3109 18.312C76.0149 18.312 77.3589 17.808 78.3429 16.776C79.3029 15.768 79.8069 14.376 79.8069 12.6V10.872C79.8069 9.168 79.3029 7.8 78.3429 6.744C77.3829 5.712 76.0389 5.184 74.3109 5.184C72.5829 5.184 71.2149 5.712 70.2549 6.744C69.2949 7.8 68.8149 9.168 68.8149 10.872V12.6ZM74.3109 15.48C73.4949 15.48 72.9429 15.24 72.6549 14.76C72.3669 14.28 72.2229 13.488 72.2229 12.408V11.088C72.2229 10.056 72.3669 9.288 72.6549 8.784C72.9429 8.28 73.4949 8.016 74.3109 8.016C75.1029 8.016 75.6549 8.28 75.9429 8.784C76.2309 9.288 76.3989 10.056 76.3989 11.088V12.408C76.3989 13.488 76.2309 14.28 75.9429 14.76C75.6549 15.24 75.1029 15.48 74.3109 15.48ZM83.1623 16.848C83.1623 17.208 83.2583 17.496 83.4743 17.688C83.6663 17.904 83.9543 18 84.3143 18H85.3703C85.7063 18 85.9943 17.904 86.2103 17.688C86.4023 17.496 86.5223 17.208 86.5223 16.848V7.896H87.7223C88.4903 7.896 88.8743 7.584 88.8743 6.912V6.504C88.8743 5.832 88.4903 5.496 87.7223 5.496H86.5223V4.392C86.5223 3.528 86.9543 3.096 87.8183 3.096C88.0343 3.096 88.2983 3.12 88.6343 3.144C89.3543 3.288 89.7863 2.976 89.9303 2.256L90.0263 1.776C90.1703 1.032 89.8823 0.576 89.1623 0.407999C88.6823 0.311999 88.1783 0.263999 87.6983 0.263999C86.2583 0.263999 85.1303 0.647999 84.3383 1.368C83.5463 2.088 83.1623 3.072 83.1623 4.272V5.496H82.3223C81.5543 5.496 81.1703 5.808 81.1703 6.408V6.72C81.1703 7.32 81.5543 7.68 82.3223 7.776L83.1623 7.896V16.848ZM95.8937 11.664C95.8937 13.776 96.4457 15.408 97.5737 16.56C98.7017 17.736 100.286 18.312 102.35 18.312C104.414 18.312 105.998 17.736 107.102 16.56C108.206 15.384 108.782 13.752 108.782 11.664V2.4C108.782 2.064 108.662 1.776 108.47 1.56C108.254 1.368 107.966 1.248 107.63 1.248H106.478C106.118 1.248 105.83 1.368 105.638 1.56C105.422 1.776 105.326 2.064 105.326 2.4V12.072C105.326 12.984 105.062 13.776 104.582 14.448C104.078 15.12 103.334 15.432 102.35 15.432C101.318 15.432 100.55 15.12 100.07 14.448C99.5897 13.776 99.3497 12.984 99.3497 12.072V2.4C99.3497 2.064 99.2297 1.776 99.0377 1.56C98.8217 1.368 98.5337 1.248 98.1977 1.248H97.0457C96.6857 1.248 96.3977 1.368 96.2057 1.56C95.9897 1.776 95.8937 2.064 95.8937 2.4V11.664ZM112.29 17.832C113.274 18.168 114.282 18.312 115.314 18.312C116.73 18.312 117.906 17.952 118.818 17.232C119.73 16.512 120.186 15.576 120.186 14.4C120.186 13.584 119.994 12.912 119.658 12.336C119.322 11.76 118.89 11.352 118.41 11.064C117.906 10.8 117.402 10.56 116.922 10.368C116.442 10.176 116.01 9.984 115.674 9.744C115.338 9.528 115.17 9.264 115.17 8.952C115.17 8.664 115.266 8.448 115.482 8.256C115.698 8.088 116.01 7.992 116.442 7.992C116.874 7.992 117.33 8.064 117.858 8.184C118.17 8.28 118.458 8.256 118.698 8.112C118.938 7.968 119.13 7.728 119.226 7.392L119.37 6.912C119.586 6.192 119.346 5.736 118.626 5.496C117.834 5.304 117.066 5.184 116.346 5.184C115.002 5.184 113.898 5.544 112.986 6.24C112.074 6.936 111.642 7.848 111.642 8.952C111.642 9.816 111.81 10.536 112.146 11.112C112.482 11.688 112.914 12.096 113.418 12.336C113.898 12.576 114.402 12.792 114.882 12.96C115.362 13.152 115.794 13.344 116.13 13.56C116.466 13.776 116.658 14.064 116.658 14.4C116.658 15.12 116.178 15.48 115.242 15.48C114.57 15.48 113.85 15.36 113.082 15.12C112.362 14.88 111.93 15.12 111.738 15.84L111.594 16.368C111.498 16.704 111.522 17.016 111.642 17.28C111.762 17.544 111.978 17.736 112.29 17.832ZM122.159 13.008C122.159 14.496 122.615 15.744 123.575 16.776C124.535 17.808 125.951 18.312 127.871 18.312C128.855 18.312 129.911 18.144 131.039 17.808C131.759 17.592 132.023 17.112 131.831 16.392L131.711 15.936C131.519 15.264 131.039 15 130.271 15.168C129.335 15.384 128.519 15.48 127.847 15.48C126.287 15.48 125.519 14.664 125.519 13.008V12.816H132.119C132.287 12.816 132.431 12.768 132.551 12.648C132.671 12.528 132.743 12.384 132.743 12.192V10.464C132.743 9.072 132.263 7.824 131.303 6.768C130.343 5.712 129.047 5.184 127.439 5.184C125.807 5.184 124.535 5.712 123.575 6.744C122.615 7.8 122.159 9.024 122.159 10.464V13.008ZM125.519 10.512V10.2C125.519 9.576 125.663 9.072 125.975 8.64C126.263 8.232 126.767 8.016 127.463 8.016C128.735 8.016 129.383 8.76 129.383 10.2V10.512H125.519ZM139.968 14.208C139.968 15.504 140.328 16.512 141.096 17.232C141.864 17.952 142.872 18.312 144.144 18.312C145.368 18.312 146.376 17.832 147.144 16.872L147.168 17.064C147.216 17.424 147.312 17.664 147.504 17.808C147.696 17.952 147.96 18 148.344 18H149.016C149.352 18 149.616 17.904 149.808 17.688C150 17.496 150.096 17.208 150.096 16.848V9.936C150.096 8.544 149.64 7.392 148.728 6.504C147.816 5.64 146.544 5.184 144.888 5.184C143.928 5.184 142.944 5.328 141.912 5.616C141.576 5.712 141.312 5.904 141.144 6.144C140.976 6.384 140.952 6.696 141.048 7.032L141.192 7.56C141.36 8.256 141.816 8.496 142.56 8.304C143.424 8.112 144.192 8.016 144.888 8.016C145.56 8.016 146.04 8.184 146.328 8.52C146.592 8.856 146.736 9.36 146.736 10.056V10.272H145.704C143.976 10.272 142.584 10.584 141.528 11.208C140.472 11.832 139.968 12.84 139.968 14.208ZM143.376 14.184C143.376 13.584 143.592 13.176 144.048 12.984C144.48 12.792 145.128 12.672 145.968 12.672H146.736V14.544C146.232 15.168 145.584 15.48 144.792 15.48C143.832 15.48 143.376 15.048 143.376 14.184ZM152.894 16.848C152.894 17.208 152.99 17.496 153.206 17.688C153.398 17.904 153.686 18 154.046 18H155.102C155.438 18 155.726 17.904 155.942 17.688C156.134 17.496 156.254 17.208 156.254 16.848V9.096C156.974 8.376 157.694 8.016 158.462 8.016C158.942 8.016 159.278 8.16 159.494 8.448C159.71 8.736 159.83 9.192 159.83 9.84V16.848C159.83 17.208 159.926 17.496 160.142 17.688C160.334 17.904 160.622 18 160.982 18H162.038C162.374 18 162.662 17.904 162.878 17.688C163.07 17.496 163.19 17.208 163.19 16.848V9.456C163.19 8.112 162.83 7.056 162.134 6.312C161.438 5.568 160.454 5.184 159.182 5.184C157.982 5.184 156.878 5.664 155.894 6.576L155.87 6.408C155.798 5.808 155.39 5.496 154.622 5.496H154.046C153.686 5.496 153.398 5.616 153.206 5.808C152.99 6.024 152.894 6.312 152.894 6.648V16.848ZM165.635 13.104C165.635 14.736 166.043 16.032 166.859 16.944C167.675 17.856 168.779 18.312 170.219 18.312C171.275 18.312 172.283 17.88 173.243 16.968L173.267 17.16C173.291 17.496 173.387 17.736 173.579 17.832C173.771 17.952 174.059 18 174.443 18H175.187C175.523 18 175.787 17.904 175.979 17.688C176.171 17.496 176.267 17.208 176.267 16.848V1.728C176.267 1.392 176.147 1.104 175.955 0.887999C175.739 0.696 175.451 0.576 175.115 0.576H174.059C173.699 0.576 173.411 0.696 173.219 0.887999C173.003 1.104 172.907 1.392 172.907 1.728V6.24C172.091 5.544 171.179 5.184 170.219 5.184C168.779 5.184 167.675 5.64 166.859 6.552C166.043 7.464 165.635 8.76 165.635 10.392V13.104ZM170.771 15.48C170.147 15.48 169.691 15.264 169.427 14.832C169.163 14.4 169.043 13.704 169.043 12.72V10.776C169.043 9.816 169.163 9.096 169.427 8.664C169.691 8.232 170.147 8.016 170.771 8.016C171.467 8.016 172.187 8.376 172.907 9.096V14.424C172.115 15.144 171.395 15.48 170.771 15.48ZM184.824 16.848C184.824 17.208 184.92 17.496 185.136 17.688C185.328 17.904 185.616 18 185.976 18H187.128C187.464 18 187.752 17.904 187.968 17.688C188.16 17.496 188.28 17.208 188.28 16.848V12.24H189.696C191.568 12.24 193.056 11.736 194.136 10.68C195.216 9.624 195.768 8.328 195.768 6.744C195.768 5.208 195.216 3.888 194.136 2.832C193.056 1.776 191.568 1.248 189.696 1.248H185.976C185.616 1.248 185.328 1.368 185.136 1.56C184.92 1.776 184.824 2.064 184.824 2.4V16.848ZM188.28 9.384V4.128H189.552C190.368 4.128 191.016 4.392 191.472 4.872C191.904 5.352 192.144 5.976 192.144 6.744C192.144 7.512 191.904 8.136 191.472 8.64C191.04 9.144 190.392 9.384 189.576 9.384H188.28ZM197.987 16.848C197.987 17.208 198.083 17.496 198.299 17.688C198.491 17.904 198.779 18 199.139 18H200.195C200.531 18 200.819 17.904 201.035 17.688C201.227 17.496 201.347 17.208 201.347 16.848V9.6C202.259 8.568 203.099 8.04 203.891 8.04C204.083 8.04 204.227 8.04 204.299 8.04C204.347 8.04 204.443 7.992 204.587 7.92C204.707 7.848 204.803 7.728 204.875 7.536C204.947 7.344 205.019 7.104 205.067 6.768C205.259 5.712 204.923 5.184 204.059 5.184C203.483 5.184 202.907 5.376 202.355 5.712C201.803 6.048 201.347 6.48 201.011 7.008L200.939 6.624C200.795 5.88 200.411 5.496 199.763 5.496H199.139C198.779 5.496 198.491 5.616 198.299 5.808C198.083 6.024 197.987 6.312 197.987 6.648V16.848ZM208.714 3.816C209.242 3.816 209.698 3.648 210.058 3.288C210.418 2.952 210.61 2.52 210.61 1.992C210.61 1.488 210.418 1.056 210.058 0.696C209.698 0.36 209.242 0.167999 208.714 0.167999C208.162 0.167999 207.706 0.36 207.346 0.696C206.986 1.056 206.818 1.488 206.818 1.992C206.818 2.52 206.986 2.952 207.346 3.288C207.706 3.648 208.162 3.816 208.714 3.816ZM207.034 16.848C207.034 17.208 207.13 17.496 207.346 17.688C207.538 17.904 207.826 18 208.186 18H209.242C209.578 18 209.866 17.904 210.082 17.688C210.274 17.496 210.394 17.208 210.394 16.848V6.648C210.394 6.312 210.274 6.024 210.082 5.808C209.866 5.616 209.578 5.496 209.242 5.496H208.186C207.826 5.496 207.538 5.616 207.346 5.808C207.13 6.024 207.034 6.312 207.034 6.648V16.848ZM216.244 16.92C216.484 17.64 216.988 18 217.756 18H219.076C219.844 18 220.348 17.64 220.588 16.92L223.996 6.792C224.092 6.456 224.068 6.168 223.924 5.904C223.78 5.64 223.54 5.496 223.204 5.496H221.932C221.26 5.496 220.804 5.88 220.588 6.624L219.46 10.344C219.076 11.592 218.716 13.032 218.404 14.664C218.044 12.888 217.708 11.448 217.372 10.344L216.244 6.6C216.004 5.88 215.572 5.496 214.9 5.496H213.628C213.292 5.496 213.028 5.64 212.884 5.904C212.74 6.168 212.716 6.456 212.836 6.792L216.244 16.92ZM225.374 14.208C225.374 15.504 225.734 16.512 226.502 17.232C227.27 17.952 228.278 18.312 229.55 18.312C230.774 18.312 231.782 17.832 232.55 16.872L232.574 17.064C232.622 17.424 232.718 17.664 232.91 17.808C233.102 17.952 233.366 18 233.75 18H234.422C234.758 18 235.022 17.904 235.214 17.688C235.406 17.496 235.502 17.208 235.502 16.848V9.936C235.502 8.544 235.046 7.392 234.134 6.504C233.222 5.64 231.95 5.184 230.294 5.184C229.334 5.184 228.35 5.328 227.318 5.616C226.982 5.712 226.718 5.904 226.55 6.144C226.382 6.384 226.358 6.696 226.454 7.032L226.598 7.56C226.766 8.256 227.222 8.496 227.966 8.304C228.83 8.112 229.598 8.016 230.294 8.016C230.966 8.016 231.446 8.184 231.734 8.52C231.998 8.856 232.142 9.36 232.142 10.056V10.272H231.11C229.382 10.272 227.99 10.584 226.934 11.208C225.878 11.832 225.374 12.84 225.374 14.208ZM228.782 14.184C228.782 13.584 228.998 13.176 229.454 12.984C229.886 12.792 230.534 12.672 231.374 12.672H232.142V14.544C231.638 15.168 230.99 15.48 230.198 15.48C229.238 15.48 228.782 15.048 228.782 14.184ZM237.94 12.528C237.94 14.256 238.396 15.648 239.356 16.704C240.292 17.784 241.684 18.312 243.508 18.312C244.444 18.312 245.428 18.192 246.46 17.904C247.228 17.712 247.492 17.232 247.3 16.44L247.156 15.912C246.964 15.24 246.508 15.024 245.788 15.216C245.14 15.408 244.444 15.48 243.724 15.48C242.14 15.48 241.348 14.424 241.348 12.288V11.184C241.348 9.072 242.14 8.016 243.724 8.016C244.444 8.016 245.092 8.088 245.668 8.232C246.004 8.328 246.316 8.328 246.604 8.208C246.892 8.088 247.06 7.872 247.156 7.56L247.324 6.936C247.516 6.24 247.228 5.784 246.46 5.568C245.452 5.328 244.468 5.184 243.508 5.184C241.684 5.184 240.292 5.736 239.356 6.792C238.396 7.848 237.94 9.24 237.94 10.944V12.528ZM250.428 13.728C250.812 16.584 252.3 18 254.94 18C255.276 18 255.78 17.928 256.428 17.784L256.38 18.432C256.332 18.96 256.212 19.368 256.02 19.632C255.828 19.92 255.492 20.04 255.012 20.04H253.404C252.636 20.04 252.276 20.4 252.324 21.12L252.372 21.768C252.42 22.488 252.828 22.824 253.596 22.824H254.916C256.404 22.824 257.532 22.464 258.324 21.72C259.092 21 259.524 19.944 259.62 18.6L260.244 6.648C260.292 5.88 259.908 5.496 259.092 5.496H258.204C257.436 5.496 257.028 5.88 256.98 6.648L256.548 15C256.212 15.096 255.78 15.144 255.252 15.144C254.724 15.144 254.34 15 254.124 14.688C253.884 14.376 253.74 13.896 253.668 13.272L252.756 6.576C252.66 5.856 252.228 5.496 251.46 5.496H250.524C250.164 5.496 249.876 5.616 249.684 5.856C249.492 6.096 249.42 6.384 249.468 6.72L250.428 13.728ZM1.824 44.848C1.824 45.208 1.92 45.496 2.136 45.688C2.328 45.904 2.616 46 2.976 46H4.128C4.464 46 4.752 45.904 4.968 45.688C5.16 45.496 5.28 45.208 5.28 44.848V40.24H6.696C8.568 40.24 10.056 39.736 11.136 38.68C12.216 37.624 12.768 36.328 12.768 34.744C12.768 33.208 12.216 31.888 11.136 30.832C10.056 29.776 8.568 29.248 6.696 29.248H2.976C2.616 29.248 2.328 29.368 2.136 29.56C1.92 29.776 1.824 30.064 1.824 30.4V44.848ZM5.28 37.384V32.128H6.552C7.368 32.128 8.016 32.392 8.472 32.872C8.904 33.352 9.144 33.976 9.144 34.744C9.144 35.512 8.904 36.136 8.472 36.64C8.04 37.144 7.392 37.384 6.576 37.384H5.28ZM14.6274 40.6C14.6274 42.376 15.1074 43.768 16.0914 44.776C17.0514 45.808 18.3954 46.312 20.1234 46.312C21.8274 46.312 23.1714 45.808 24.1554 44.776C25.1154 43.768 25.6194 42.376 25.6194 40.6V38.872C25.6194 37.168 25.1154 35.8 24.1554 34.744C23.1954 33.712 21.8514 33.184 20.1234 33.184C18.3954 33.184 17.0274 33.712 16.0674 34.744C15.1074 35.8 14.6274 37.168 14.6274 38.872V40.6ZM20.1234 43.48C19.3074 43.48 18.7554 43.24 18.4674 42.76C18.1794 42.28 18.0354 41.488 18.0354 40.408V39.088C18.0354 38.056 18.1794 37.288 18.4674 36.784C18.7554 36.28 19.3074 36.016 20.1234 36.016C20.9154 36.016 21.4674 36.28 21.7554 36.784C22.0434 37.288 22.2114 38.056 22.2114 39.088V40.408C22.2114 41.488 22.0434 42.28 21.7554 42.76C21.4674 43.24 20.9154 43.48 20.1234 43.48ZM28.2068 43.168C28.2068 44.824 28.9988 45.832 30.6308 46.192C31.3028 46.312 31.7348 46.072 31.9028 45.448L32.1188 44.656C32.2388 44.176 32.1188 43.816 31.7828 43.576C31.6388 43.48 31.5668 43.216 31.5668 42.808V29.728C31.5668 29.392 31.4468 29.104 31.2548 28.888C31.0388 28.696 30.7508 28.576 30.4148 28.576H29.3588C28.9988 28.576 28.7108 28.696 28.5188 28.888C28.3027 29.104 28.2068 29.392 28.2068 29.728V43.168ZM36.2378 31.816C36.7658 31.816 37.2218 31.648 37.5818 31.288C37.9418 30.952 38.1338 30.52 38.1338 29.992C38.1338 29.488 37.9418 29.056 37.5818 28.696C37.2218 28.36 36.7658 28.168 36.2378 28.168C35.6858 28.168 35.2298 28.36 34.8698 28.696C34.5098 29.056 34.3418 29.488 34.3418 29.992C34.3418 30.52 34.5098 30.952 34.8698 31.288C35.2298 31.648 35.6858 31.816 36.2378 31.816ZM34.5578 44.848C34.5578 45.208 34.6538 45.496 34.8698 45.688C35.0618 45.904 35.3498 46 35.7098 46H36.7658C37.1018 46 37.3898 45.904 37.6058 45.688C37.7978 45.496 37.9178 45.208 37.9178 44.848V34.648C37.9178 34.312 37.7978 34.024 37.6058 33.808C37.3898 33.616 37.1018 33.496 36.7658 33.496H35.7098C35.3498 33.496 35.0618 33.616 34.8698 33.808C34.6538 34.024 34.5578 34.312 34.5578 34.648V44.848ZM40.479 40.528C40.479 42.256 40.935 43.648 41.895 44.704C42.831 45.784 44.223 46.312 46.047 46.312C46.983 46.312 47.967 46.192 48.999 45.904C49.767 45.712 50.031 45.232 49.839 44.44L49.695 43.912C49.503 43.24 49.047 43.024 48.327 43.216C47.679 43.408 46.983 43.48 46.263 43.48C44.679 43.48 43.887 42.424 43.887 40.288V39.184C43.887 37.072 44.679 36.016 46.263 36.016C46.983 36.016 47.631 36.088 48.207 36.232C48.543 36.328 48.855 36.328 49.143 36.208C49.431 36.088 49.599 35.872 49.695 35.56L49.863 34.936C50.055 34.24 49.767 33.784 48.999 33.568C47.991 33.328 47.007 33.184 46.047 33.184C44.223 33.184 42.831 33.736 41.895 34.792C40.935 35.848 40.479 37.24 40.479 38.944V40.528ZM52.9674 41.728C53.3514 44.584 54.8394 46 57.4794 46C57.8154 46 58.3194 45.928 58.9674 45.784L58.9194 46.432C58.8714 46.96 58.7514 47.368 58.5594 47.632C58.3674 47.92 58.0314 48.04 57.5514 48.04H55.9434C55.1754 48.04 54.8154 48.4 54.8634 49.12L54.9114 49.768C54.9594 50.488 55.3674 50.824 56.1354 50.824H57.4554C58.9434 50.824 60.0714 50.464 60.8634 49.72C61.6314 49 62.0634 47.944 62.1594 46.6L62.7834 34.648C62.8314 33.88 62.4474 33.496 61.6314 33.496H60.7434C59.9754 33.496 59.5674 33.88 59.5194 34.648L59.0874 43C58.7514 43.096 58.3194 43.144 57.7914 43.144C57.2634 43.144 56.8794 43 56.6634 42.688C56.4234 42.376 56.2794 41.896 56.2074 41.272L55.2954 34.576C55.1994 33.856 54.7674 33.496 53.9994 33.496H53.0634C52.7034 33.496 52.4154 33.616 52.2234 33.856C52.0314 34.096 51.9594 34.384 52.0074 34.72L52.9674 41.728Z" fill="white"/>
</svg>
