<svg width="206" height="14" viewBox="0 0 206 14" fill="none" xmlns="http://www.w3.org/2000/svg">
<path d="M4.068 1.2C4.58133 1.2 5.04333 1.326 5.454 1.578C5.86467 1.83 6.18667 2.17533 6.42 2.614C6.66267 3.05267 6.784 3.552 6.784 4.112C6.784 4.66267 6.66267 5.162 6.42 5.61C6.18667 6.058 5.86467 6.41267 5.454 6.674C5.04333 6.93533 4.58133 7.066 4.068 7.066H1.226L1.324 6.898V10.426C1.324 10.5847 1.27267 10.72 1.17 10.832C1.06733 10.944 0.936667 11 0.778 11C0.61 11 0.474667 10.944 0.372 10.832C0.278667 10.72 0.232 10.5847 0.232 10.426V1.76C0.232 1.60133 0.283333 1.47067 0.386 1.368C0.498 1.256 0.633333 1.2 0.792 1.2H4.068ZM4.068 5.988C4.376 5.988 4.64667 5.904 4.88 5.736C5.11333 5.568 5.3 5.33933 5.44 5.05C5.58 4.76067 5.65 4.448 5.65 4.112C5.65 3.75733 5.58 3.44467 5.44 3.174C5.3 2.90333 5.11333 2.68867 4.88 2.53C4.64667 2.362 4.376 2.278 4.068 2.278H1.226L1.324 2.124V6.128L1.226 5.988H4.068ZM9.64886 10.426C9.64886 10.5847 9.59286 10.72 9.48086 10.832C9.36886 10.944 9.23353 11 9.07486 11C8.91619 11 8.78553 10.944 8.68286 10.832C8.58019 10.72 8.52886 10.5847 8.52886 10.426V1.2C8.52886 1.04133 8.58019 0.910666 8.68286 0.807999C8.79486 0.696 8.93019 0.64 9.08886 0.64C9.25686 0.64 9.39219 0.696 9.49486 0.807999C9.59753 0.910666 9.64886 1.04133 9.64886 1.2V10.426ZM15.0304 11.14C14.2838 11.14 13.6304 10.9813 13.0704 10.664C12.5104 10.3467 12.0718 9.91267 11.7544 9.362C11.4464 8.802 11.2924 8.158 11.2924 7.43C11.2924 6.618 11.4511 5.92733 11.7684 5.358C12.0951 4.77933 12.5151 4.34067 13.0284 4.042C13.5511 3.734 14.1018 3.58 14.6804 3.58C15.1098 3.58 15.5251 3.65933 15.9264 3.818C16.3278 3.97667 16.6824 4.21 16.9904 4.518C17.2984 4.81667 17.5458 5.18067 17.7324 5.61C17.9191 6.03 18.0171 6.50133 18.0264 7.024C18.0264 7.17333 17.9704 7.29933 17.8584 7.402C17.7464 7.50467 17.6158 7.556 17.4664 7.556H11.9364L11.6844 6.59H17.0744L16.8504 6.786V6.478C16.8131 6.09533 16.6824 5.76867 16.4584 5.498C16.2438 5.218 15.9778 5.00333 15.6604 4.854C15.3524 4.70467 15.0258 4.63 14.6804 4.63C14.4004 4.63 14.1204 4.68133 13.8404 4.784C13.5698 4.87733 13.3224 5.036 13.0984 5.26C12.8838 5.47467 12.7064 5.75467 12.5664 6.1C12.4358 6.44533 12.3704 6.86067 12.3704 7.346C12.3704 7.88733 12.4778 8.36333 12.6924 8.774C12.9164 9.18467 13.2244 9.51133 13.6164 9.754C14.0084 9.98733 14.4658 10.104 14.9884 10.104C15.3151 10.104 15.5998 10.062 15.8424 9.978C16.0851 9.894 16.2951 9.79133 16.4724 9.67C16.6498 9.53933 16.7991 9.40867 16.9204 9.278C17.0418 9.194 17.1584 9.152 17.2704 9.152C17.4104 9.152 17.5224 9.19867 17.6064 9.292C17.6998 9.38533 17.7464 9.49733 17.7464 9.628C17.7464 9.78667 17.6718 9.92667 17.5224 10.048C17.2611 10.3373 16.9064 10.594 16.4584 10.818C16.0104 11.0327 15.5344 11.14 15.0304 11.14ZM25.7285 3.692C25.8872 3.692 26.0178 3.748 26.1205 3.86C26.2325 3.96267 26.2885 4.09333 26.2885 4.252V10.426C26.2885 10.5847 26.2325 10.72 26.1205 10.832C26.0178 10.944 25.8872 11 25.7285 11C25.5605 11 25.4252 10.944 25.3225 10.832C25.2198 10.72 25.1685 10.5847 25.1685 10.426V9.096L25.4345 9.068C25.4345 9.27333 25.3645 9.49733 25.2245 9.74C25.0845 9.98267 24.8932 10.2113 24.6505 10.426C24.4078 10.6313 24.1185 10.804 23.7825 10.944C23.4558 11.0747 23.1012 11.14 22.7185 11.14C22.0838 11.14 21.5145 10.9767 21.0105 10.65C20.5065 10.314 20.1052 9.86133 19.8065 9.292C19.5172 8.72267 19.3725 8.074 19.3725 7.346C19.3725 6.60867 19.5172 5.96 19.8065 5.4C20.1052 4.83067 20.5065 4.38733 21.0105 4.07C21.5145 3.74333 22.0745 3.58 22.6905 3.58C23.0918 3.58 23.4652 3.64533 23.8105 3.776C24.1558 3.90667 24.4545 4.084 24.7065 4.308C24.9678 4.532 25.1685 4.77933 25.3085 5.05C25.4578 5.32067 25.5325 5.59133 25.5325 5.862L25.1685 5.778V4.252C25.1685 4.09333 25.2198 3.96267 25.3225 3.86C25.4252 3.748 25.5605 3.692 25.7285 3.692ZM22.8445 10.104C23.3112 10.104 23.7218 9.98267 24.0765 9.74C24.4405 9.49733 24.7205 9.17067 24.9165 8.76C25.1218 8.34 25.2245 7.86867 25.2245 7.346C25.2245 6.83267 25.1218 6.37067 24.9165 5.96C24.7205 5.54 24.4405 5.21333 24.0765 4.98C23.7218 4.73733 23.3112 4.616 22.8445 4.616C22.3872 4.616 21.9765 4.73267 21.6125 4.966C21.2578 5.19933 20.9778 5.52133 20.7725 5.932C20.5672 6.34267 20.4645 6.814 20.4645 7.346C20.4645 7.86867 20.5625 8.34 20.7585 8.76C20.9638 9.17067 21.2438 9.49733 21.5985 9.74C21.9625 9.98267 22.3778 10.104 22.8445 10.104ZM27.9581 9.852C27.8741 9.73067 27.8368 9.60467 27.8461 9.474C27.8555 9.334 27.9348 9.21267 28.0841 9.11C28.1775 9.04467 28.2848 9.01667 28.4061 9.026C28.5368 9.03533 28.6535 9.096 28.7561 9.208C29.0175 9.516 29.3161 9.76333 29.6521 9.95C29.9881 10.1273 30.3988 10.216 30.8841 10.216C31.1081 10.2067 31.3321 10.1693 31.5561 10.104C31.7801 10.0387 31.9668 9.92667 32.1161 9.768C32.2748 9.6 32.3541 9.38067 32.3541 9.11C32.3541 8.84867 32.2748 8.64333 32.1161 8.494C31.9575 8.33533 31.7521 8.20933 31.5001 8.116C31.2481 8.01333 30.9728 7.92467 30.6741 7.85C30.3661 7.766 30.0628 7.67267 29.7641 7.57C29.4655 7.458 29.1948 7.32267 28.9521 7.164C28.7188 6.996 28.5275 6.79067 28.3781 6.548C28.2381 6.296 28.1681 5.99267 28.1681 5.638C28.1681 5.218 28.2801 4.854 28.5041 4.546C28.7375 4.238 29.0455 4 29.4281 3.832C29.8201 3.664 30.2448 3.58 30.7021 3.58C30.9635 3.58 31.2341 3.61267 31.5141 3.678C31.8035 3.734 32.0835 3.83667 32.3541 3.986C32.6248 4.126 32.8628 4.322 33.0681 4.574C33.1521 4.66733 33.1988 4.784 33.2081 4.924C33.2175 5.064 33.1568 5.19 33.0261 5.302C32.9235 5.37667 32.8068 5.40933 32.6761 5.4C32.5548 5.39067 32.4521 5.344 32.3681 5.26C32.1721 5.02667 31.9248 4.84933 31.6261 4.728C31.3368 4.59733 31.0148 4.532 30.6601 4.532C30.4361 4.532 30.2168 4.56467 30.0021 4.63C29.7875 4.69533 29.6055 4.80733 29.4561 4.966C29.3161 5.11533 29.2461 5.32533 29.2461 5.596C29.2555 5.848 29.3395 6.05333 29.4981 6.212C29.6568 6.37067 29.8715 6.50133 30.1421 6.604C30.4128 6.69733 30.7115 6.79067 31.0381 6.884C31.3368 6.95867 31.6215 7.04733 31.8921 7.15C32.1721 7.24333 32.4241 7.36933 32.6481 7.528C32.8721 7.68667 33.0495 7.892 33.1801 8.144C33.3108 8.38667 33.3761 8.69467 33.3761 9.068C33.3761 9.49733 33.2548 9.87067 33.0121 10.188C32.7695 10.496 32.4475 10.734 32.0461 10.902C31.6541 11.0607 31.2295 11.14 30.7721 11.14C30.2588 11.14 29.7501 11.042 29.2461 10.846C28.7515 10.65 28.3221 10.3187 27.9581 9.852ZM38.341 11.14C37.5943 11.14 36.941 10.9813 36.381 10.664C35.821 10.3467 35.3823 9.91267 35.065 9.362C34.757 8.802 34.603 8.158 34.603 7.43C34.603 6.618 34.7617 5.92733 35.079 5.358C35.4057 4.77933 35.8257 4.34067 36.339 4.042C36.8617 3.734 37.4123 3.58 37.991 3.58C38.4203 3.58 38.8357 3.65933 39.237 3.818C39.6383 3.97667 39.993 4.21 40.301 4.518C40.609 4.81667 40.8563 5.18067 41.043 5.61C41.2297 6.03 41.3277 6.50133 41.337 7.024C41.337 7.17333 41.281 7.29933 41.169 7.402C41.057 7.50467 40.9263 7.556 40.777 7.556H35.247L34.995 6.59H40.385L40.161 6.786V6.478C40.1237 6.09533 39.993 5.76867 39.769 5.498C39.5543 5.218 39.2883 5.00333 38.971 4.854C38.663 4.70467 38.3363 4.63 37.991 4.63C37.711 4.63 37.431 4.68133 37.151 4.784C36.8803 4.87733 36.633 5.036 36.409 5.26C36.1943 5.47467 36.017 5.75467 35.877 6.1C35.7463 6.44533 35.681 6.86067 35.681 7.346C35.681 7.88733 35.7883 8.36333 36.003 8.774C36.227 9.18467 36.535 9.51133 36.927 9.754C37.319 9.98733 37.7763 10.104 38.299 10.104C38.6257 10.104 38.9103 10.062 39.153 9.978C39.3957 9.894 39.6057 9.79133 39.783 9.67C39.9603 9.53933 40.1097 9.40867 40.231 9.278C40.3523 9.194 40.469 9.152 40.581 9.152C40.721 9.152 40.833 9.19867 40.917 9.292C41.0103 9.38533 41.057 9.49733 41.057 9.628C41.057 9.78667 40.9823 9.92667 40.833 10.048C40.5717 10.3373 40.217 10.594 39.769 10.818C39.321 11.0327 38.845 11.14 38.341 11.14ZM50.2218 11.14C49.4752 11.14 48.8218 10.9813 48.2618 10.664C47.7018 10.3467 47.2632 9.91267 46.9458 9.362C46.6378 8.802 46.4838 8.158 46.4838 7.43C46.4838 6.618 46.6425 5.92733 46.9598 5.358C47.2865 4.77933 47.7065 4.34067 48.2198 4.042C48.7425 3.734 49.2932 3.58 49.8718 3.58C50.3012 3.58 50.7165 3.65933 51.1178 3.818C51.5192 3.97667 51.8738 4.21 52.1818 4.518C52.4898 4.81667 52.7372 5.18067 52.9238 5.61C53.1105 6.03 53.2085 6.50133 53.2178 7.024C53.2178 7.17333 53.1618 7.29933 53.0498 7.402C52.9378 7.50467 52.8072 7.556 52.6578 7.556H47.1278L46.8758 6.59H52.2658L52.0418 6.786V6.478C52.0045 6.09533 51.8738 5.76867 51.6498 5.498C51.4352 5.218 51.1692 5.00333 50.8518 4.854C50.5438 4.70467 50.2172 4.63 49.8718 4.63C49.5918 4.63 49.3118 4.68133 49.0318 4.784C48.7612 4.87733 48.5138 5.036 48.2898 5.26C48.0752 5.47467 47.8978 5.75467 47.7578 6.1C47.6272 6.44533 47.5618 6.86067 47.5618 7.346C47.5618 7.88733 47.6692 8.36333 47.8838 8.774C48.1078 9.18467 48.4158 9.51133 48.8078 9.754C49.1998 9.98733 49.6572 10.104 50.1798 10.104C50.5065 10.104 50.7912 10.062 51.0338 9.978C51.2765 9.894 51.4865 9.79133 51.6638 9.67C51.8412 9.53933 51.9905 9.40867 52.1118 9.278C52.2332 9.194 52.3498 9.152 52.4618 9.152C52.6018 9.152 52.7138 9.19867 52.7978 9.292C52.8912 9.38533 52.9378 9.49733 52.9378 9.628C52.9378 9.78667 52.8632 9.92667 52.7138 10.048C52.4525 10.3373 52.0978 10.594 51.6498 10.818C51.2018 11.0327 50.7258 11.14 50.2218 11.14ZM58.4992 3.58C59.1339 3.58 59.6332 3.71067 59.9972 3.972C60.3612 4.23333 60.6179 4.58333 60.7672 5.022C60.9259 5.46067 61.0052 5.95067 61.0052 6.492V10.426C61.0052 10.5847 60.9492 10.72 60.8372 10.832C60.7346 10.944 60.6039 11 60.4452 11C60.2866 11 60.1512 10.944 60.0392 10.832C59.9366 10.72 59.8852 10.5847 59.8852 10.426V6.52C59.8852 6.16533 59.8292 5.848 59.7172 5.568C59.6146 5.27867 59.4372 5.05 59.1852 4.882C58.9426 4.70467 58.6066 4.616 58.1772 4.616C57.7852 4.616 57.4259 4.70467 57.0992 4.882C56.7726 5.05 56.5112 5.27867 56.3152 5.568C56.1192 5.848 56.0212 6.16533 56.0212 6.52V10.426C56.0212 10.5847 55.9652 10.72 55.8532 10.832C55.7506 10.944 55.6199 11 55.4612 11C55.3026 11 55.1672 10.944 55.0552 10.832C54.9526 10.72 54.9012 10.5847 54.9012 10.426V4.322C54.9012 4.16333 54.9526 4.03267 55.0552 3.93C55.1672 3.818 55.3026 3.762 55.4612 3.762C55.6292 3.762 55.7646 3.818 55.8672 3.93C55.9699 4.03267 56.0212 4.16333 56.0212 4.322V5.316L55.7412 5.624C55.7879 5.38133 55.8952 5.13867 56.0632 4.896C56.2312 4.644 56.4412 4.42 56.6932 4.224C56.9452 4.028 57.2252 3.874 57.5332 3.762C57.8412 3.64067 58.1632 3.58 58.4992 3.58ZM62.797 3.804H66.087C66.2363 3.804 66.3577 3.85533 66.451 3.958C66.5537 4.06067 66.605 4.182 66.605 4.322C66.605 4.47133 66.5537 4.59733 66.451 4.7C66.3577 4.79333 66.2363 4.84 66.087 4.84H62.797C62.657 4.84 62.5357 4.78867 62.433 4.686C62.3303 4.58333 62.279 4.45733 62.279 4.308C62.279 4.168 62.3303 4.05133 62.433 3.958C62.5357 3.85533 62.657 3.804 62.797 3.804ZM64.267 1.9C64.4257 1.9 64.5563 1.956 64.659 2.068C64.7617 2.17067 64.813 2.30133 64.813 2.46V9.222C64.813 9.446 64.8457 9.614 64.911 9.726C64.9763 9.838 65.0603 9.91733 65.163 9.964C65.275 10.0013 65.3823 10.02 65.485 10.02C65.5783 10.02 65.6577 10.006 65.723 9.978C65.7977 9.94067 65.8817 9.922 65.975 9.922C66.0683 9.922 66.1523 9.96867 66.227 10.062C66.311 10.146 66.353 10.258 66.353 10.398C66.353 10.566 66.255 10.7107 66.059 10.832C65.863 10.944 65.6437 11 65.401 11C65.2703 11 65.107 10.9907 64.911 10.972C64.7243 10.9533 64.5377 10.8927 64.351 10.79C64.1643 10.6873 64.0057 10.5193 63.875 10.286C63.7537 10.0433 63.693 9.70733 63.693 9.278V2.46C63.693 2.30133 63.749 2.17067 63.861 2.068C63.973 1.956 64.1083 1.9 64.267 1.9ZM71.4406 11.14C70.6939 11.14 70.0406 10.9813 69.4806 10.664C68.9206 10.3467 68.4819 9.91267 68.1646 9.362C67.8566 8.802 67.7026 8.158 67.7026 7.43C67.7026 6.618 67.8613 5.92733 68.1786 5.358C68.5053 4.77933 68.9253 4.34067 69.4386 4.042C69.9613 3.734 70.5119 3.58 71.0906 3.58C71.5199 3.58 71.9353 3.65933 72.3366 3.818C72.7379 3.97667 73.0926 4.21 73.4006 4.518C73.7086 4.81667 73.9559 5.18067 74.1426 5.61C74.3293 6.03 74.4273 6.50133 74.4366 7.024C74.4366 7.17333 74.3806 7.29933 74.2686 7.402C74.1566 7.50467 74.0259 7.556 73.8766 7.556H68.3466L68.0946 6.59H73.4846L73.2606 6.786V6.478C73.2233 6.09533 73.0926 5.76867 72.8686 5.498C72.6539 5.218 72.3879 5.00333 72.0706 4.854C71.7626 4.70467 71.4359 4.63 71.0906 4.63C70.8106 4.63 70.5306 4.68133 70.2506 4.784C69.9799 4.87733 69.7326 5.036 69.5086 5.26C69.2939 5.47467 69.1166 5.75467 68.9766 6.1C68.8459 6.44533 68.7806 6.86067 68.7806 7.346C68.7806 7.88733 68.8879 8.36333 69.1026 8.774C69.3266 9.18467 69.6346 9.51133 70.0266 9.754C70.4186 9.98733 70.8759 10.104 71.3986 10.104C71.7253 10.104 72.0099 10.062 72.2526 9.978C72.4953 9.894 72.7053 9.79133 72.8826 9.67C73.0599 9.53933 73.2093 9.40867 73.3306 9.278C73.4519 9.194 73.5686 9.152 73.6806 9.152C73.8206 9.152 73.9326 9.19867 74.0166 9.292C74.1099 9.38533 74.1566 9.49733 74.1566 9.628C74.1566 9.78667 74.0819 9.92667 73.9326 10.048C73.6713 10.3373 73.3166 10.594 72.8686 10.818C72.4206 11.0327 71.9446 11.14 71.4406 11.14ZM76.68 11C76.5213 11 76.386 10.944 76.274 10.832C76.1713 10.72 76.12 10.5847 76.12 10.426V4.322C76.12 4.16333 76.1713 4.03267 76.274 3.93C76.386 3.818 76.5213 3.762 76.68 3.762C76.848 3.762 76.9833 3.818 77.086 3.93C77.1887 4.03267 77.24 4.16333 77.24 4.322V6.17L77.072 5.876C77.128 5.58667 77.226 5.30667 77.366 5.036C77.5153 4.756 77.702 4.50867 77.926 4.294C78.15 4.07 78.4067 3.89733 78.696 3.776C78.9853 3.64533 79.3027 3.58 79.648 3.58C79.8533 3.58 80.04 3.63133 80.208 3.734C80.3853 3.82733 80.474 3.96267 80.474 4.14C80.474 4.336 80.4227 4.48067 80.32 4.574C80.2173 4.66733 80.1007 4.714 79.97 4.714C79.8487 4.714 79.732 4.69067 79.62 4.644C79.508 4.588 79.368 4.56 79.2 4.56C78.9667 4.56 78.7333 4.62533 78.5 4.756C78.276 4.87733 78.066 5.05467 77.87 5.288C77.6833 5.52133 77.5293 5.78733 77.408 6.086C77.296 6.37533 77.24 6.688 77.24 7.024V10.426C77.24 10.5847 77.184 10.72 77.072 10.832C76.9693 10.944 76.8387 11 76.68 11ZM91.0126 3.65C91.1713 3.65 91.3019 3.706 91.4046 3.818C91.5166 3.92067 91.5726 4.05133 91.5726 4.21V10.314C91.5726 11.098 91.4186 11.7467 91.1106 12.26C90.8026 12.7827 90.3873 13.17 89.8646 13.422C89.3513 13.674 88.7679 13.8 88.1146 13.8C87.7506 13.8 87.4006 13.7627 87.0646 13.688C86.7286 13.6133 86.4533 13.5153 86.2386 13.394C86.0613 13.31 85.9353 13.2027 85.8606 13.072C85.7953 12.9507 85.7859 12.82 85.8326 12.68C85.8979 12.512 85.9913 12.3953 86.1126 12.33C86.2433 12.2647 86.3786 12.2647 86.5186 12.33C86.6679 12.3953 86.8826 12.484 87.1626 12.596C87.4519 12.7173 87.7739 12.778 88.1286 12.778C88.6139 12.778 89.0293 12.6847 89.3746 12.498C89.7199 12.3113 89.9859 12.036 90.1726 11.672C90.3593 11.3173 90.4526 10.874 90.4526 10.342V9.348L90.6206 9.698C90.4713 9.98733 90.2706 10.2393 90.0186 10.454C89.7666 10.6687 89.4773 10.8367 89.1506 10.958C88.8239 11.0793 88.4646 11.14 88.0726 11.14C87.5406 11.14 87.0879 11.028 86.7146 10.804C86.3506 10.5707 86.0706 10.2533 85.8746 9.852C85.6879 9.44133 85.5946 8.97 85.5946 8.438V4.21C85.5946 4.05133 85.6459 3.92067 85.7486 3.818C85.8606 3.706 85.9959 3.65 86.1546 3.65C86.3226 3.65 86.4579 3.706 86.5606 3.818C86.6633 3.92067 86.7146 4.05133 86.7146 4.21V8.186C86.7146 8.82067 86.8546 9.30133 87.1346 9.628C87.4146 9.94533 87.8486 10.104 88.4366 10.104C88.8099 10.104 89.1459 10.02 89.4446 9.852C89.7526 9.684 89.9953 9.45533 90.1726 9.166C90.3593 8.86733 90.4526 8.54067 90.4526 8.186V4.21C90.4526 4.05133 90.5039 3.92067 90.6066 3.818C90.7093 3.706 90.8446 3.65 91.0126 3.65ZM100.453 7.36C100.453 8.088 100.29 8.73667 99.963 9.306C99.6456 9.87533 99.2116 10.3233 98.661 10.65C98.1196 10.9767 97.5083 11.14 96.827 11.14C96.1456 11.14 95.5296 10.9767 94.979 10.65C94.4283 10.3233 93.9896 9.87533 93.663 9.306C93.3456 8.73667 93.187 8.088 93.187 7.36C93.187 6.632 93.3456 5.98333 93.663 5.414C93.9896 4.84467 94.4283 4.39667 94.979 4.07C95.5296 3.74333 96.1456 3.58 96.827 3.58C97.5083 3.58 98.1196 3.74333 98.661 4.07C99.2116 4.39667 99.6456 4.84467 99.963 5.414C100.29 5.98333 100.453 6.632 100.453 7.36ZM99.333 7.36C99.333 6.81867 99.221 6.34267 98.997 5.932C98.7823 5.52133 98.4836 5.19933 98.101 4.966C97.7276 4.73267 97.303 4.616 96.827 4.616C96.351 4.616 95.9216 4.73267 95.539 4.966C95.1656 5.19933 94.867 5.52133 94.643 5.932C94.419 6.34267 94.307 6.81867 94.307 7.36C94.307 7.892 94.419 8.36333 94.643 8.774C94.867 9.18467 95.1656 9.51133 95.539 9.754C95.9216 9.98733 96.351 10.104 96.827 10.104C97.303 10.104 97.7276 9.98733 98.101 9.754C98.4836 9.51133 98.7823 9.18467 98.997 8.774C99.221 8.36333 99.333 7.892 99.333 7.36ZM107.556 3.762C107.724 3.762 107.859 3.818 107.962 3.93C108.064 4.03267 108.116 4.16333 108.116 4.322V8.144C108.116 9.08667 107.85 9.81933 107.318 10.342C106.795 10.8553 106.062 11.112 105.12 11.112C104.186 11.112 103.454 10.8553 102.922 10.342C102.399 9.81933 102.138 9.08667 102.138 8.144V4.322C102.138 4.16333 102.189 4.03267 102.292 3.93C102.404 3.818 102.539 3.762 102.698 3.762C102.866 3.762 103.001 3.818 103.104 3.93C103.206 4.03267 103.258 4.16333 103.258 4.322V8.144C103.258 8.77867 103.421 9.25933 103.748 9.586C104.074 9.91267 104.532 10.076 105.12 10.076C105.726 10.076 106.188 9.91267 106.506 9.586C106.832 9.25933 106.996 8.77867 106.996 8.144V4.322C106.996 4.16333 107.047 4.03267 107.15 3.93C107.262 3.818 107.397 3.762 107.556 3.762ZM110.75 11C110.592 11 110.456 10.944 110.344 10.832C110.242 10.72 110.19 10.5847 110.19 10.426V4.322C110.19 4.16333 110.242 4.03267 110.344 3.93C110.456 3.818 110.592 3.762 110.75 3.762C110.918 3.762 111.054 3.818 111.156 3.93C111.259 4.03267 111.31 4.16333 111.31 4.322V6.17L111.142 5.876C111.198 5.58667 111.296 5.30667 111.436 5.036C111.586 4.756 111.772 4.50867 111.996 4.294C112.22 4.07 112.477 3.89733 112.766 3.776C113.056 3.64533 113.373 3.58 113.718 3.58C113.924 3.58 114.11 3.63133 114.278 3.734C114.456 3.82733 114.544 3.96267 114.544 4.14C114.544 4.336 114.493 4.48067 114.39 4.574C114.288 4.66733 114.171 4.714 114.04 4.714C113.919 4.714 113.802 4.69067 113.69 4.644C113.578 4.588 113.438 4.56 113.27 4.56C113.037 4.56 112.804 4.62533 112.57 4.756C112.346 4.87733 112.136 5.05467 111.94 5.288C111.754 5.52133 111.6 5.78733 111.478 6.086C111.366 6.37533 111.31 6.688 111.31 7.024V10.426C111.31 10.5847 111.254 10.72 111.142 10.832C111.04 10.944 110.909 11 110.75 11ZM122.647 11.14C122.115 11.14 121.644 11.042 121.233 10.846C120.832 10.6407 120.496 10.3653 120.225 10.02C119.954 9.67467 119.749 9.28733 119.609 8.858C119.469 8.42867 119.399 7.98533 119.399 7.528C119.399 7.12667 119.45 6.67867 119.553 6.184C119.656 5.68933 119.81 5.18533 120.015 4.672C120.23 4.14933 120.505 3.65 120.841 3.174C121.177 2.698 121.578 2.27333 122.045 1.9C122.512 1.51733 123.048 1.22333 123.655 1.018C123.739 0.999333 123.814 0.99 123.879 0.99C124.028 0.99 124.159 1.032 124.271 1.116C124.392 1.19067 124.453 1.33067 124.453 1.536C124.453 1.66667 124.411 1.78333 124.327 1.886C124.243 1.97933 124.131 2.04933 123.991 2.096C123.618 2.236 123.249 2.44133 122.885 2.712C122.53 2.97333 122.199 3.286 121.891 3.65C121.592 4.00467 121.331 4.392 121.107 4.812C120.892 5.22267 120.743 5.652 120.659 6.1L120.323 6.212C120.482 5.96 120.682 5.722 120.925 5.498C121.168 5.274 121.448 5.092 121.765 4.952C122.092 4.812 122.446 4.742 122.829 4.742C123.24 4.742 123.622 4.83067 123.977 5.008C124.332 5.18533 124.644 5.42333 124.915 5.722C125.186 6.02067 125.396 6.366 125.545 6.758C125.704 7.14067 125.783 7.542 125.783 7.962C125.783 8.53133 125.643 9.05867 125.363 9.544C125.092 10.02 124.719 10.4073 124.243 10.706C123.776 10.9953 123.244 11.14 122.647 11.14ZM122.633 10.09C123.016 10.09 123.356 10.0013 123.655 9.824C123.963 9.63733 124.206 9.38533 124.383 9.068C124.56 8.74133 124.649 8.37267 124.649 7.962C124.649 7.57933 124.57 7.22467 124.411 6.898C124.252 6.57133 124.024 6.31 123.725 6.114C123.436 5.90867 123.086 5.806 122.675 5.806C122.236 5.806 121.858 5.904 121.541 6.1C121.224 6.296 120.976 6.562 120.799 6.898C120.631 7.22467 120.547 7.58867 120.547 7.99C120.547 8.36333 120.631 8.70867 120.799 9.026C120.967 9.34333 121.205 9.6 121.513 9.796C121.83 9.992 122.204 10.09 122.633 10.09ZM127.56 7.206C127.402 7.206 127.266 7.15467 127.154 7.052C127.052 6.94 127 6.8 127 6.632C127 6.47333 127.052 6.34267 127.154 6.24C127.266 6.13733 127.402 6.086 127.56 6.086H130.388C130.547 6.086 130.678 6.142 130.78 6.254C130.892 6.366 130.948 6.50133 130.948 6.66C130.948 6.81867 130.892 6.94933 130.78 7.052C130.678 7.15467 130.547 7.206 130.388 7.206H127.56ZM138.713 0.64C138.872 0.64 139.002 0.696 139.105 0.807999C139.217 0.910666 139.273 1.04133 139.273 1.2V10.426C139.273 10.5847 139.217 10.72 139.105 10.832C139.002 10.944 138.872 11 138.713 11C138.545 11 138.41 10.944 138.307 10.832C138.204 10.72 138.153 10.5847 138.153 10.426V9.096L138.419 8.998C138.419 9.222 138.349 9.46 138.209 9.712C138.069 9.95467 137.878 10.1833 137.635 10.398C137.392 10.6127 137.103 10.79 136.767 10.93C136.44 11.07 136.086 11.14 135.703 11.14C135.078 11.14 134.508 10.9767 133.995 10.65C133.491 10.3233 133.09 9.87533 132.791 9.306C132.502 8.73667 132.357 8.088 132.357 7.36C132.357 6.62267 132.502 5.96933 132.791 5.4C133.09 4.83067 133.491 4.38733 133.995 4.07C134.499 3.74333 135.059 3.58 135.675 3.58C136.067 3.58 136.436 3.64533 136.781 3.776C137.126 3.90667 137.425 4.084 137.677 4.308C137.938 4.532 138.144 4.77933 138.293 5.05C138.442 5.32067 138.517 5.59133 138.517 5.862L138.153 5.778V1.2C138.153 1.04133 138.204 0.910666 138.307 0.807999C138.41 0.696 138.545 0.64 138.713 0.64ZM135.829 10.104C136.296 10.104 136.706 9.98733 137.061 9.754C137.425 9.51133 137.705 9.18467 137.901 8.774C138.106 8.354 138.209 7.88267 138.209 7.36C138.209 6.828 138.106 6.35667 137.901 5.946C137.705 5.53533 137.425 5.21333 137.061 4.98C136.706 4.73733 136.296 4.616 135.829 4.616C135.372 4.616 134.961 4.73733 134.597 4.98C134.242 5.21333 133.962 5.53533 133.757 5.946C133.552 6.35667 133.449 6.828 133.449 7.36C133.449 7.87333 133.552 8.34 133.757 8.76C133.962 9.17067 134.242 9.49733 134.597 9.74C134.961 9.98267 135.372 10.104 135.829 10.104ZM142.427 10.426C142.427 10.5847 142.371 10.72 142.259 10.832C142.156 10.944 142.025 11 141.867 11C141.699 11 141.563 10.944 141.461 10.832C141.358 10.72 141.307 10.5847 141.307 10.426V4.21C141.307 4.05133 141.358 3.92067 141.461 3.818C141.573 3.706 141.708 3.65 141.867 3.65C142.025 3.65 142.156 3.706 142.259 3.818C142.371 3.92067 142.427 4.05133 142.427 4.21V10.426ZM141.867 2.712C141.633 2.712 141.461 2.66533 141.349 2.572C141.237 2.47867 141.181 2.334 141.181 2.138V1.942C141.181 1.746 141.241 1.60133 141.363 1.508C141.484 1.41467 141.657 1.368 141.881 1.368C142.105 1.368 142.273 1.41467 142.385 1.508C142.497 1.60133 142.553 1.746 142.553 1.942V2.138C142.553 2.334 142.492 2.47867 142.37 2.572C142.259 2.66533 142.091 2.712 141.867 2.712ZM147.476 3.58C147.878 3.58 148.251 3.65 148.596 3.79C148.942 3.92067 149.24 4.09333 149.492 4.308C149.754 4.52267 149.954 4.74667 150.094 4.98C150.244 5.21333 150.318 5.43267 150.318 5.638L150.052 5.47V4.252C150.052 4.09333 150.104 3.96267 150.206 3.86C150.309 3.748 150.444 3.692 150.612 3.692C150.771 3.692 150.902 3.748 151.004 3.86C151.116 3.96267 151.172 4.09333 151.172 4.252V10.384C151.172 11.1493 151.009 11.784 150.682 12.288C150.365 12.792 149.936 13.17 149.394 13.422C148.853 13.674 148.246 13.8 147.574 13.8C147.294 13.8 146.986 13.7627 146.65 13.688C146.314 13.6133 146.016 13.52 145.754 13.408C145.493 13.3053 145.325 13.198 145.25 13.086C145.11 12.9927 145.022 12.8853 144.984 12.764C144.956 12.652 144.98 12.5447 145.054 12.442C145.138 12.3113 145.246 12.246 145.376 12.246C145.516 12.246 145.689 12.288 145.894 12.372C145.978 12.4 146.109 12.4467 146.286 12.512C146.473 12.5773 146.678 12.6333 146.902 12.68C147.136 12.736 147.364 12.764 147.588 12.764C148.382 12.764 148.988 12.554 149.408 12.134C149.838 11.7233 150.052 11.1773 150.052 10.496V9.194L150.206 9.264C150.15 9.52533 150.034 9.768 149.856 9.992C149.688 10.216 149.478 10.4167 149.226 10.594C148.984 10.762 148.713 10.8973 148.414 11C148.116 11.0933 147.812 11.14 147.504 11.14C146.851 11.14 146.263 10.9767 145.74 10.65C145.218 10.3233 144.802 9.87533 144.494 9.306C144.196 8.73667 144.046 8.088 144.046 7.36C144.046 6.62267 144.196 5.96933 144.494 5.4C144.802 4.83067 145.213 4.38733 145.726 4.07C146.249 3.74333 146.832 3.58 147.476 3.58ZM147.616 4.616C147.14 4.616 146.711 4.73733 146.328 4.98C145.955 5.21333 145.661 5.53533 145.446 5.946C145.241 6.35667 145.138 6.828 145.138 7.36C145.138 7.87333 145.241 8.34 145.446 8.76C145.661 9.17067 145.955 9.49733 146.328 9.74C146.711 9.98267 147.14 10.104 147.616 10.104C148.102 10.104 148.531 9.98733 148.904 9.754C149.278 9.51133 149.572 9.18467 149.786 8.774C150.001 8.36333 150.108 7.892 150.108 7.36C150.108 6.81867 150.001 6.34267 149.786 5.932C149.572 5.52133 149.278 5.19933 148.904 4.966C148.531 4.73267 148.102 4.616 147.616 4.616ZM154.321 10.426C154.321 10.5847 154.265 10.72 154.153 10.832C154.05 10.944 153.92 11 153.761 11C153.593 11 153.458 10.944 153.355 10.832C153.252 10.72 153.201 10.5847 153.201 10.426V4.21C153.201 4.05133 153.252 3.92067 153.355 3.818C153.467 3.706 153.602 3.65 153.761 3.65C153.92 3.65 154.05 3.706 154.153 3.818C154.265 3.92067 154.321 4.05133 154.321 4.21V10.426ZM153.761 2.712C153.528 2.712 153.355 2.66533 153.243 2.572C153.131 2.47867 153.075 2.334 153.075 2.138V1.942C153.075 1.746 153.136 1.60133 153.257 1.508C153.378 1.41467 153.551 1.368 153.775 1.368C153.999 1.368 154.167 1.41467 154.279 1.508C154.391 1.60133 154.447 1.746 154.447 1.942V2.138C154.447 2.334 154.386 2.47867 154.265 2.572C154.153 2.66533 153.985 2.712 153.761 2.712ZM156.053 3.804H159.343C159.492 3.804 159.614 3.85533 159.707 3.958C159.81 4.06067 159.861 4.182 159.861 4.322C159.861 4.47133 159.81 4.59733 159.707 4.7C159.614 4.79333 159.492 4.84 159.343 4.84H156.053C155.913 4.84 155.792 4.78867 155.689 4.686C155.586 4.58333 155.535 4.45733 155.535 4.308C155.535 4.168 155.586 4.05133 155.689 3.958C155.792 3.85533 155.913 3.804 156.053 3.804ZM157.523 1.9C157.682 1.9 157.812 1.956 157.915 2.068C158.018 2.17067 158.069 2.30133 158.069 2.46V9.222C158.069 9.446 158.102 9.614 158.167 9.726C158.232 9.838 158.316 9.91733 158.419 9.964C158.531 10.0013 158.638 10.02 158.741 10.02C158.834 10.02 158.914 10.006 158.979 9.978C159.054 9.94067 159.138 9.922 159.231 9.922C159.324 9.922 159.408 9.96867 159.483 10.062C159.567 10.146 159.609 10.258 159.609 10.398C159.609 10.566 159.511 10.7107 159.315 10.832C159.119 10.944 158.9 11 158.657 11C158.526 11 158.363 10.9907 158.167 10.972C157.98 10.9533 157.794 10.8927 157.607 10.79C157.42 10.6873 157.262 10.5193 157.131 10.286C157.01 10.0433 156.949 9.70733 156.949 9.278V2.46C156.949 2.30133 157.005 2.17067 157.117 2.068C157.229 1.956 157.364 1.9 157.523 1.9ZM161.286 9.852C161.202 9.73067 161.165 9.60467 161.174 9.474C161.184 9.334 161.263 9.21267 161.412 9.11C161.506 9.04467 161.613 9.01667 161.734 9.026C161.865 9.03533 161.982 9.096 162.084 9.208C162.346 9.516 162.644 9.76333 162.98 9.95C163.316 10.1273 163.727 10.216 164.212 10.216C164.436 10.2067 164.66 10.1693 164.884 10.104C165.108 10.0387 165.295 9.92667 165.444 9.768C165.603 9.6 165.682 9.38067 165.682 9.11C165.682 8.84867 165.603 8.64333 165.444 8.494C165.286 8.33533 165.08 8.20933 164.828 8.116C164.576 8.01333 164.301 7.92467 164.002 7.85C163.694 7.766 163.391 7.67267 163.092 7.57C162.794 7.458 162.523 7.32267 162.28 7.164C162.047 6.996 161.856 6.79067 161.706 6.548C161.566 6.296 161.496 5.99267 161.496 5.638C161.496 5.218 161.608 4.854 161.832 4.546C162.066 4.238 162.374 4 162.756 3.832C163.148 3.664 163.573 3.58 164.03 3.58C164.292 3.58 164.562 3.61267 164.842 3.678C165.132 3.734 165.412 3.83667 165.682 3.986C165.953 4.126 166.191 4.322 166.396 4.574C166.48 4.66733 166.527 4.784 166.536 4.924C166.546 5.064 166.485 5.19 166.354 5.302C166.252 5.37667 166.135 5.40933 166.004 5.4C165.883 5.39067 165.78 5.344 165.696 5.26C165.5 5.02667 165.253 4.84933 164.954 4.728C164.665 4.59733 164.343 4.532 163.988 4.532C163.764 4.532 163.545 4.56467 163.33 4.63C163.116 4.69533 162.934 4.80733 162.784 4.966C162.644 5.11533 162.574 5.32533 162.574 5.596C162.584 5.848 162.668 6.05333 162.826 6.212C162.985 6.37067 163.2 6.50133 163.47 6.604C163.741 6.69733 164.04 6.79067 164.366 6.884C164.665 6.95867 164.95 7.04733 165.22 7.15C165.5 7.24333 165.752 7.36933 165.976 7.528C166.2 7.68667 166.378 7.892 166.508 8.144C166.639 8.38667 166.704 8.69467 166.704 9.068C166.704 9.49733 166.583 9.87067 166.34 10.188C166.098 10.496 165.776 10.734 165.374 10.902C164.982 11.0607 164.558 11.14 164.1 11.14C163.587 11.14 163.078 11.042 162.574 10.846C162.08 10.65 161.65 10.3187 161.286 9.852ZM175.399 3.58C175.875 3.58 176.304 3.63133 176.687 3.734C177.069 3.83667 177.373 3.97667 177.597 4.154C177.821 4.33133 177.933 4.532 177.933 4.756C177.933 4.87733 177.891 4.994 177.807 5.106C177.723 5.218 177.611 5.274 177.471 5.274C177.34 5.274 177.233 5.25067 177.149 5.204C177.074 5.15733 176.999 5.09667 176.925 5.022C176.859 4.94733 176.766 4.882 176.645 4.826C176.533 4.76067 176.369 4.70933 176.155 4.672C175.94 4.63467 175.725 4.616 175.511 4.616C174.997 4.616 174.545 4.73733 174.153 4.98C173.77 5.22267 173.467 5.54933 173.243 5.96C173.019 6.37067 172.907 6.83733 172.907 7.36C172.907 7.88267 173.014 8.34933 173.229 8.76C173.443 9.17067 173.742 9.49733 174.125 9.74C174.507 9.98267 174.951 10.104 175.455 10.104C175.781 10.104 176.043 10.076 176.239 10.02C176.435 9.964 176.598 9.89867 176.729 9.824C176.897 9.73067 177.023 9.63733 177.107 9.544C177.2 9.45067 177.321 9.404 177.471 9.404C177.629 9.404 177.751 9.45533 177.835 9.558C177.928 9.66067 177.975 9.78667 177.975 9.936C177.975 10.104 177.858 10.2813 177.625 10.468C177.391 10.6547 177.074 10.8133 176.673 10.944C176.281 11.0747 175.833 11.14 175.329 11.14C174.619 11.14 173.999 10.9767 173.467 10.65C172.935 10.314 172.519 9.86133 172.221 9.292C171.931 8.71333 171.787 8.06933 171.787 7.36C171.787 6.65067 171.936 6.01133 172.235 5.442C172.543 4.87267 172.967 4.42 173.509 4.084C174.05 3.748 174.68 3.58 175.399 3.58ZM186.312 7.36C186.312 8.088 186.149 8.73667 185.822 9.306C185.505 9.87533 185.071 10.3233 184.52 10.65C183.979 10.9767 183.368 11.14 182.686 11.14C182.005 11.14 181.389 10.9767 180.838 10.65C180.288 10.3233 179.849 9.87533 179.522 9.306C179.205 8.73667 179.046 8.088 179.046 7.36C179.046 6.632 179.205 5.98333 179.522 5.414C179.849 4.84467 180.288 4.39667 180.838 4.07C181.389 3.74333 182.005 3.58 182.686 3.58C183.368 3.58 183.979 3.74333 184.52 4.07C185.071 4.39667 185.505 4.84467 185.822 5.414C186.149 5.98333 186.312 6.632 186.312 7.36ZM185.192 7.36C185.192 6.81867 185.08 6.34267 184.856 5.932C184.642 5.52133 184.343 5.19933 183.96 4.966C183.587 4.73267 183.162 4.616 182.686 4.616C182.21 4.616 181.781 4.73267 181.398 4.966C181.025 5.19933 180.726 5.52133 180.502 5.932C180.278 6.34267 180.166 6.81867 180.166 7.36C180.166 7.892 180.278 8.36333 180.502 8.774C180.726 9.18467 181.025 9.51133 181.398 9.754C181.781 9.98733 182.21 10.104 182.686 10.104C183.162 10.104 183.587 9.98733 183.96 9.754C184.343 9.51133 184.642 9.18467 184.856 8.774C185.08 8.36333 185.192 7.892 185.192 7.36ZM193.961 0.64C194.12 0.64 194.25 0.696 194.353 0.807999C194.465 0.910666 194.521 1.04133 194.521 1.2V10.426C194.521 10.5847 194.465 10.72 194.353 10.832C194.25 10.944 194.12 11 193.961 11C193.793 11 193.658 10.944 193.555 10.832C193.452 10.72 193.401 10.5847 193.401 10.426V9.096L193.667 8.998C193.667 9.222 193.597 9.46 193.457 9.712C193.317 9.95467 193.126 10.1833 192.883 10.398C192.64 10.6127 192.351 10.79 192.015 10.93C191.688 11.07 191.334 11.14 190.951 11.14C190.326 11.14 189.756 10.9767 189.243 10.65C188.739 10.3233 188.338 9.87533 188.039 9.306C187.75 8.73667 187.605 8.088 187.605 7.36C187.605 6.62267 187.75 5.96933 188.039 5.4C188.338 4.83067 188.739 4.38733 189.243 4.07C189.747 3.74333 190.307 3.58 190.923 3.58C191.315 3.58 191.684 3.64533 192.029 3.776C192.374 3.90667 192.673 4.084 192.925 4.308C193.186 4.532 193.392 4.77933 193.541 5.05C193.69 5.32067 193.765 5.59133 193.765 5.862L193.401 5.778V1.2C193.401 1.04133 193.452 0.910666 193.555 0.807999C193.658 0.696 193.793 0.64 193.961 0.64ZM191.077 10.104C191.544 10.104 191.954 9.98733 192.309 9.754C192.673 9.51133 192.953 9.18467 193.149 8.774C193.354 8.354 193.457 7.88267 193.457 7.36C193.457 6.828 193.354 6.35667 193.149 5.946C192.953 5.53533 192.673 5.21333 192.309 4.98C191.954 4.73733 191.544 4.616 191.077 4.616C190.62 4.616 190.209 4.73733 189.845 4.98C189.49 5.21333 189.21 5.53533 189.005 5.946C188.8 6.35667 188.697 6.828 188.697 7.36C188.697 7.87333 188.8 8.34 189.005 8.76C189.21 9.17067 189.49 9.49733 189.845 9.74C190.209 9.98267 190.62 10.104 191.077 10.104ZM199.943 11.14C199.196 11.14 198.543 10.9813 197.983 10.664C197.423 10.3467 196.984 9.91267 196.667 9.362C196.359 8.802 196.205 8.158 196.205 7.43C196.205 6.618 196.363 5.92733 196.681 5.358C197.007 4.77933 197.427 4.34067 197.941 4.042C198.463 3.734 199.014 3.58 199.593 3.58C200.022 3.58 200.437 3.65933 200.839 3.818C201.24 3.97667 201.595 4.21 201.903 4.518C202.211 4.81667 202.458 5.18067 202.645 5.61C202.831 6.03 202.929 6.50133 202.939 7.024C202.939 7.17333 202.883 7.29933 202.771 7.402C202.659 7.50467 202.528 7.556 202.379 7.556H196.849L196.597 6.59H201.987L201.763 6.786V6.478C201.725 6.09533 201.595 5.76867 201.371 5.498C201.156 5.218 200.89 5.00333 200.573 4.854C200.265 4.70467 199.938 4.63 199.593 4.63C199.313 4.63 199.033 4.68133 198.753 4.784C198.482 4.87733 198.235 5.036 198.011 5.26C197.796 5.47467 197.619 5.75467 197.479 6.1C197.348 6.44533 197.283 6.86067 197.283 7.346C197.283 7.88733 197.39 8.36333 197.605 8.774C197.829 9.18467 198.137 9.51133 198.529 9.754C198.921 9.98733 199.378 10.104 199.901 10.104C200.227 10.104 200.512 10.062 200.755 9.978C200.997 9.894 201.207 9.79133 201.385 9.67C201.562 9.53933 201.711 9.40867 201.833 9.278C201.954 9.194 202.071 9.152 202.183 9.152C202.323 9.152 202.435 9.19867 202.519 9.292C202.612 9.38533 202.659 9.49733 202.659 9.628C202.659 9.78667 202.584 9.92667 202.435 10.048C202.173 10.3373 201.819 10.594 201.371 10.818C200.923 11.0327 200.447 11.14 199.943 11.14ZM204.958 10.986C204.762 10.986 204.608 10.93 204.496 10.818C204.393 10.706 204.342 10.552 204.342 10.356V10.076C204.342 9.87067 204.393 9.712 204.496 9.6C204.608 9.488 204.762 9.432 204.958 9.432H205.07C205.275 9.432 205.429 9.488 205.532 9.6C205.635 9.712 205.686 9.87067 205.686 10.076V10.356C205.686 10.552 205.635 10.706 205.532 10.818C205.429 10.93 205.275 10.986 205.07 10.986H204.958Z" fill="black" fill-opacity="0.6"/>
</svg>
