<svg width="269" height="28" viewBox="0 0 269 28" fill="none" xmlns="http://www.w3.org/2000/svg">
<path d="M7.46 25.128C7.604 25.704 7.892 26.172 8.324 26.496C8.756 26.856 9.224 27 9.764 27H12.104C12.608 27 13.076 26.856 13.508 26.496C13.94 26.172 14.228 25.704 14.408 25.128L21.032 3.924C21.212 3.348 21.176 2.844 20.96 2.448C20.708 2.088 20.312 1.872 19.736 1.872H17.972C16.892 1.872 16.172 2.412 15.884 3.456L12.248 15.84C11.96 16.848 11.492 18.648 10.916 21.312C10.412 18.936 9.98 17.1 9.62 15.84L5.948 3.348C5.66 2.376 4.976 1.872 3.896 1.872H2.132C1.556 1.872 1.124 2.088 0.872 2.448C0.62 2.808 0.584 3.276 0.8 3.852L7.46 25.128ZM22.1716 19.512C22.1716 21.744 22.8556 23.616 24.2956 25.164C25.7356 26.712 27.8596 27.468 30.7396 27.468C32.2156 27.468 33.7996 27.216 35.4916 26.712C36.5716 26.388 36.9676 25.668 36.6796 24.588L36.4996 23.904C36.2116 22.896 35.4916 22.5 34.3396 22.752C32.9356 23.076 31.7116 23.22 30.7036 23.22C28.3636 23.22 27.2116 21.996 27.2116 19.512V19.224H37.1116C37.3636 19.224 37.5796 19.152 37.7596 18.972C37.9396 18.792 38.0476 18.576 38.0476 18.288V15.696C38.0476 13.608 37.3276 11.736 35.8876 10.152C34.4476 8.568 32.5036 7.776 30.0916 7.776C27.6436 7.776 25.7356 8.568 24.2956 10.116C22.8556 11.7 22.1716 13.536 22.1716 15.696V19.512ZM27.2116 15.768V15.3C27.2116 14.364 27.4276 13.608 27.8956 12.96C28.3276 12.348 29.0836 12.024 30.1276 12.024C32.0356 12.024 33.0076 13.14 33.0076 15.3V15.768H27.2116ZM41.7312 25.272C41.7312 25.812 41.8752 26.244 42.1992 26.532C42.4872 26.856 42.9192 27 43.4592 27H45.0432C45.5472 27 45.9792 26.856 46.3032 26.532C46.5912 26.244 46.7712 25.812 46.7712 25.272V14.4C48.1392 12.852 49.3992 12.06 50.5872 12.06C50.8752 12.06 51.0912 12.06 51.1992 12.06C51.2712 12.06 51.4152 11.988 51.6312 11.88C51.8112 11.772 51.9552 11.592 52.0632 11.304C52.1712 11.016 52.2792 10.656 52.3512 10.152C52.6392 8.568 52.1352 7.776 50.8392 7.776C49.9752 7.776 49.1112 8.064 48.2832 8.568C47.4552 9.072 46.7712 9.72 46.2672 10.512L46.1592 9.936C45.9432 8.82 45.3672 8.244 44.3952 8.244H43.4592C42.9192 8.244 42.4872 8.424 42.1992 8.712C41.8752 9.036 41.7312 9.468 41.7312 9.972V25.272ZM57.8215 5.724C58.6135 5.724 59.2975 5.472 59.8375 4.932C60.3775 4.428 60.6655 3.78 60.6655 2.988C60.6655 2.232 60.3775 1.584 59.8375 1.044C59.2975 0.539999 58.6135 0.251999 57.8215 0.251999C56.9935 0.251999 56.3095 0.539999 55.7695 1.044C55.2295 1.584 54.9775 2.232 54.9775 2.988C54.9775 3.78 55.2295 4.428 55.7695 4.932C56.3095 5.472 56.9935 5.724 57.8215 5.724ZM55.3015 25.272C55.3015 25.812 55.4455 26.244 55.7695 26.532C56.0575 26.856 56.4895 27 57.0295 27H58.6135C59.1175 27 59.5495 26.856 59.8735 26.532C60.1615 26.244 60.3415 25.812 60.3415 25.272V9.972C60.3415 9.468 60.1615 9.036 59.8735 8.712C59.5495 8.424 59.1175 8.244 58.6135 8.244H57.0295C56.4895 8.244 56.0575 8.424 55.7695 8.712C55.4455 9.036 55.3015 9.468 55.3015 9.972V25.272ZM65.9113 25.272C65.9113 25.812 66.0553 26.244 66.3793 26.532C66.6673 26.856 67.0993 27 67.6393 27H69.2233C69.7273 27 70.1593 26.856 70.4833 26.532C70.7713 26.244 70.9513 25.812 70.9513 25.272V11.844H72.7513C73.9033 11.844 74.4793 11.376 74.4793 10.368V9.756C74.4793 8.748 73.9033 8.244 72.7513 8.244H70.9513V7.02C70.9513 6.192 71.1673 5.58 71.6353 5.22C72.1033 4.86 72.8593 4.644 73.9033 4.644C74.7673 4.644 75.6313 4.716 76.4593 4.86C77.5753 5.076 78.2593 4.68 78.4753 3.636L78.6553 2.736C78.8713 1.656 78.4033 1.008 77.2513 0.755999C76.0273 0.539999 74.8753 0.395999 73.7233 0.395999C71.1673 0.395999 69.2233 0.971998 67.8913 2.124C66.5593 3.276 65.9113 4.86 65.9113 6.84V8.244H64.6513C63.4993 8.244 62.9233 8.712 62.9233 9.612V10.08C62.9233 10.98 63.4993 11.52 64.6513 11.664L65.9113 11.844V25.272ZM77.1073 25.272C77.1073 25.812 77.2513 26.244 77.5753 26.532C77.8633 26.856 78.2953 27 78.8353 27H80.4193C80.9233 27 81.3553 26.856 81.6793 26.532C81.9673 26.244 82.1473 25.812 82.1473 25.272V9.972C82.1473 9.468 81.9673 9.036 81.6793 8.712C81.3553 8.424 80.9233 8.244 80.4193 8.244H78.8353C78.2953 8.244 77.8633 8.424 77.5753 8.712C77.2513 9.036 77.1073 9.468 77.1073 9.972V25.272ZM86.0154 18.792C86.0154 21.384 86.6994 23.472 88.1394 25.056C89.5434 26.676 91.6314 27.468 94.3674 27.468C95.7714 27.468 97.2474 27.288 98.7954 26.856C99.9474 26.568 100.343 25.848 100.055 24.66L99.8394 23.868C99.5514 22.86 98.8674 22.536 97.7874 22.824C96.8154 23.112 95.7714 23.22 94.6914 23.22C92.3154 23.22 91.1274 21.636 91.1274 18.432V16.776C91.1274 13.608 92.3154 12.024 94.6914 12.024C95.7714 12.024 96.7434 12.132 97.6074 12.348C98.1114 12.492 98.5794 12.492 99.0114 12.312C99.4434 12.132 99.6954 11.808 99.8394 11.34L100.091 10.404C100.379 9.36 99.9474 8.676 98.7954 8.352C97.2834 7.992 95.8074 7.776 94.3674 7.776C91.6314 7.776 89.5434 8.604 88.1394 10.188C86.6994 11.772 86.0154 13.86 86.0154 16.416V18.792ZM103.272 21.312C103.272 23.256 103.812 24.768 104.964 25.848C106.116 26.928 107.628 27.468 109.536 27.468C111.372 27.468 112.884 26.748 114.036 25.308L114.072 25.596C114.144 26.136 114.288 26.496 114.576 26.712C114.864 26.928 115.26 27 115.836 27H116.844C117.348 27 117.744 26.856 118.032 26.532C118.32 26.244 118.464 25.812 118.464 25.272V14.904C118.464 12.816 117.78 11.088 116.412 9.756C115.044 8.46 113.136 7.776 110.652 7.776C109.212 7.776 107.736 7.992 106.188 8.424C105.684 8.568 105.288 8.856 105.036 9.216C104.784 9.576 104.748 10.044 104.892 10.548L105.108 11.34C105.36 12.384 106.044 12.744 107.16 12.456C108.456 12.168 109.608 12.024 110.652 12.024C111.66 12.024 112.38 12.276 112.812 12.78C113.208 13.284 113.424 14.04 113.424 15.084V15.408H111.876C109.284 15.408 107.196 15.876 105.612 16.812C104.028 17.748 103.272 19.26 103.272 21.312ZM108.384 21.276C108.384 20.376 108.708 19.764 109.392 19.476C110.04 19.188 111.012 19.008 112.272 19.008H113.424V21.816C112.668 22.752 111.696 23.22 110.508 23.22C109.068 23.22 108.384 22.572 108.384 21.276ZM123.849 21.636C123.849 23.472 124.389 24.912 125.541 25.92C126.693 26.964 128.349 27.468 130.545 27.468C131.301 27.468 132.057 27.396 132.777 27.252C133.281 27.144 133.677 26.928 133.929 26.568C134.145 26.208 134.217 25.776 134.145 25.272L133.929 24.192C133.713 23.292 133.137 22.932 132.129 23.112C131.697 23.184 131.265 23.22 130.833 23.22C129.537 23.22 128.889 22.536 128.889 21.096V11.844H131.373C132.525 11.844 133.101 11.34 133.101 10.332V9.756C133.101 8.748 132.525 8.244 131.373 8.244H128.889V4.248C128.889 3.744 128.709 3.312 128.421 2.988C128.097 2.7 127.665 2.52 127.161 2.52H125.577C125.037 2.52 124.605 2.7 124.317 2.988C123.993 3.312 123.849 3.744 123.849 4.248V8.244H122.589C121.437 8.244 120.861 8.712 120.861 9.648V10.152C120.861 10.656 120.969 11.016 121.221 11.232C121.473 11.448 121.941 11.592 122.589 11.664L123.849 11.844V21.636ZM139.489 5.724C140.281 5.724 140.965 5.472 141.505 4.932C142.045 4.428 142.333 3.78 142.333 2.988C142.333 2.232 142.045 1.584 141.505 1.044C140.965 0.539999 140.281 0.251999 139.489 0.251999C138.661 0.251999 137.977 0.539999 137.437 1.044C136.897 1.584 136.645 2.232 136.645 2.988C136.645 3.78 136.897 4.428 137.437 4.932C137.977 5.472 138.661 5.724 139.489 5.724ZM136.969 25.272C136.969 25.812 137.113 26.244 137.437 26.532C137.725 26.856 138.157 27 138.697 27H140.281C140.785 27 141.217 26.856 141.541 26.532C141.829 26.244 142.009 25.812 142.009 25.272V9.972C142.009 9.468 141.829 9.036 141.541 8.712C141.217 8.424 140.785 8.244 140.281 8.244H138.697C138.157 8.244 137.725 8.424 137.437 8.712C137.113 9.036 136.969 9.468 136.969 9.972V25.272ZM145.851 18.9C145.851 21.564 146.571 23.652 148.047 25.164C149.487 26.712 151.503 27.468 154.095 27.468C156.651 27.468 158.667 26.712 160.143 25.164C161.583 23.652 162.339 21.564 162.339 18.9V16.308C162.339 13.752 161.583 11.7 160.143 10.116C158.703 8.568 156.687 7.776 154.095 7.776C151.503 7.776 149.451 8.568 148.011 10.116C146.571 11.7 145.851 13.752 145.851 16.308V18.9ZM154.095 23.22C152.871 23.22 152.043 22.86 151.611 22.14C151.179 21.42 150.963 20.232 150.963 18.612V16.632C150.963 15.084 151.179 13.932 151.611 13.176C152.043 12.42 152.871 12.024 154.095 12.024C155.283 12.024 156.111 12.42 156.543 13.176C156.975 13.932 157.227 15.084 157.227 16.632V18.612C157.227 20.232 156.975 21.42 156.543 22.14C156.111 22.86 155.283 23.22 154.095 23.22ZM166.184 25.272C166.184 25.812 166.328 26.244 166.652 26.532C166.94 26.856 167.372 27 167.912 27H169.496C170 27 170.432 26.856 170.756 26.532C171.044 26.244 171.224 25.812 171.224 25.272V13.644C172.304 12.564 173.384 12.024 174.536 12.024C175.256 12.024 175.76 12.24 176.084 12.672C176.408 13.104 176.588 13.788 176.588 14.76V25.272C176.588 25.812 176.732 26.244 177.056 26.532C177.344 26.856 177.776 27 178.316 27H179.9C180.404 27 180.836 26.856 181.16 26.532C181.448 26.244 181.628 25.812 181.628 25.272V14.184C181.628 12.168 181.088 10.584 180.044 9.468C179 8.352 177.524 7.776 175.616 7.776C173.816 7.776 172.16 8.496 170.684 9.864L170.648 9.612C170.54 8.712 169.928 8.244 168.776 8.244H167.912C167.372 8.244 166.94 8.424 166.652 8.712C166.328 9.036 166.184 9.468 166.184 9.972V25.272ZM193.459 18.18C193.459 21.168 194.287 23.472 195.943 25.056C197.599 26.676 199.903 27.468 202.819 27.468C204.943 27.468 206.923 27.252 208.795 26.748C209.155 26.676 209.443 26.46 209.623 26.136C209.767 25.812 209.839 25.452 209.767 25.056L209.443 23.58C209.227 22.716 208.723 22.392 207.895 22.608C206.239 22.968 204.799 23.148 203.539 23.148C201.955 23.148 200.767 22.752 199.975 21.96C199.183 21.168 198.787 19.764 198.787 17.784V11.088C198.787 9.144 199.183 7.74 199.975 6.948C200.767 6.156 201.955 5.724 203.539 5.724C204.799 5.724 206.203 5.904 207.715 6.228C208.111 6.372 208.471 6.336 208.795 6.156C209.119 5.976 209.335 5.688 209.443 5.292L209.767 3.816C209.947 2.952 209.623 2.376 208.795 2.124C206.815 1.656 204.835 1.404 202.819 1.404C199.903 1.404 197.599 2.232 195.943 3.852C194.287 5.472 193.459 7.74 193.459 10.692V18.18ZM213.386 18.9C213.386 21.564 214.106 23.652 215.582 25.164C217.022 26.712 219.038 27.468 221.63 27.468C224.186 27.468 226.202 26.712 227.678 25.164C229.118 23.652 229.874 21.564 229.874 18.9V16.308C229.874 13.752 229.118 11.7 227.678 10.116C226.238 8.568 224.222 7.776 221.63 7.776C219.038 7.776 216.986 8.568 215.546 10.116C214.106 11.7 213.386 13.752 213.386 16.308V18.9ZM221.63 23.22C220.406 23.22 219.578 22.86 219.146 22.14C218.714 21.42 218.498 20.232 218.498 18.612V16.632C218.498 15.084 218.714 13.932 219.146 13.176C219.578 12.42 220.406 12.024 221.63 12.024C222.818 12.024 223.646 12.42 224.078 13.176C224.51 13.932 224.762 15.084 224.762 16.632V18.612C224.762 20.232 224.51 21.42 224.078 22.14C223.646 22.86 222.818 23.22 221.63 23.22ZM233.179 19.656C233.179 22.104 233.791 24.048 235.015 25.416C236.239 26.784 237.895 27.468 240.055 27.468C241.639 27.468 243.151 26.82 244.591 25.452L244.627 25.74C244.663 26.244 244.807 26.604 245.095 26.748C245.383 26.928 245.815 27 246.391 27H247.507C248.011 27 248.407 26.856 248.695 26.532C248.983 26.244 249.127 25.812 249.127 25.272V2.592C249.127 2.088 248.947 1.656 248.659 1.332C248.335 1.044 247.903 0.864 247.399 0.864H245.815C245.275 0.864 244.843 1.044 244.555 1.332C244.231 1.656 244.087 2.088 244.087 2.592V9.36C242.863 8.316 241.495 7.776 240.055 7.776C237.895 7.776 236.239 8.46 235.015 9.828C233.791 11.196 233.179 13.14 233.179 15.588V19.656ZM240.883 23.22C239.947 23.22 239.263 22.896 238.867 22.248C238.471 21.6 238.291 20.556 238.291 19.08V16.164C238.291 14.724 238.471 13.644 238.867 12.996C239.263 12.348 239.947 12.024 240.883 12.024C241.927 12.024 243.007 12.564 244.087 13.644V21.636C242.899 22.716 241.819 23.22 240.883 23.22ZM252.972 19.512C252.972 21.744 253.656 23.616 255.096 25.164C256.536 26.712 258.66 27.468 261.54 27.468C263.016 27.468 264.6 27.216 266.292 26.712C267.372 26.388 267.768 25.668 267.48 24.588L267.3 23.904C267.012 22.896 266.292 22.5 265.14 22.752C263.736 23.076 262.512 23.22 261.504 23.22C259.164 23.22 258.012 21.996 258.012 19.512V19.224H267.912C268.164 19.224 268.38 19.152 268.56 18.972C268.74 18.792 268.848 18.576 268.848 18.288V15.696C268.848 13.608 268.128 11.736 266.688 10.152C265.248 8.568 263.304 7.776 260.892 7.776C258.444 7.776 256.536 8.568 255.096 10.116C253.656 11.7 252.972 13.536 252.972 15.696V19.512ZM258.012 15.768V15.3C258.012 14.364 258.228 13.608 258.696 12.96C259.128 12.348 259.884 12.024 260.928 12.024C262.836 12.024 263.808 13.14 263.808 15.3V15.768H258.012Z" fill="#0191B6"/>
</svg>
