<svg width="295" height="32" viewBox="0 0 295 32" fill="none" xmlns="http://www.w3.org/2000/svg">
<path d="M5.698 11.14C4.97933 11.14 4.312 11.014 3.696 10.762C3.08933 10.5007 2.55267 10.1413 2.086 9.684C1.62867 9.22667 1.26933 8.69467 1.008 8.088C0.756 7.472 0.63 6.80933 0.63 6.1C0.63 5.38133 0.756 4.71867 1.008 4.112C1.26933 3.496 1.62867 2.95933 2.086 2.502C2.55267 2.04467 3.08933 1.69 3.696 1.438C4.312 1.186 4.97933 1.06 5.698 1.06C6.174 1.06 6.63133 1.116 7.07 1.228C7.518 1.33067 7.924 1.494 8.288 1.718C8.38133 1.76467 8.44667 1.83 8.484 1.914C8.53067 1.998 8.554 2.08667 8.554 2.18C8.554 2.33867 8.498 2.474 8.386 2.586C8.28333 2.698 8.162 2.754 8.022 2.754C7.966 2.754 7.91 2.74467 7.854 2.726C7.80733 2.70733 7.756 2.68867 7.7 2.67C7.41067 2.52067 7.098 2.404 6.762 2.32C6.426 2.22667 6.07133 2.18 5.698 2.18C4.96067 2.18 4.298 2.35267 3.71 2.698C3.13133 3.04333 2.674 3.51 2.338 4.098C2.002 4.686 1.834 5.35333 1.834 6.1C1.834 6.83733 2.002 7.50467 2.338 8.102C2.674 8.69 3.13133 9.15667 3.71 9.502C4.298 9.84733 4.96067 10.02 5.698 10.02C6.07133 10.02 6.454 9.96867 6.846 9.866C7.24733 9.76333 7.588 9.63267 7.868 9.474L7.77 9.81V6.856L7.994 7.052H5.852C5.69333 7.052 5.558 7.00067 5.446 6.898C5.34333 6.786 5.292 6.65067 5.292 6.492C5.292 6.33333 5.34333 6.20267 5.446 6.1C5.558 5.988 5.69333 5.932 5.852 5.932H8.4C8.568 5.932 8.70333 5.988 8.806 6.1C8.90867 6.212 8.96 6.34733 8.96 6.506V9.74C8.96 9.852 8.932 9.95 8.876 10.034C8.82933 10.118 8.764 10.188 8.68 10.244C8.26 10.5147 7.79333 10.734 7.28 10.902C6.776 11.0607 6.24867 11.14 5.698 11.14ZM16.9258 3.692C17.0844 3.692 17.2151 3.748 17.3178 3.86C17.4298 3.96267 17.4858 4.09333 17.4858 4.252V10.426C17.4858 10.5847 17.4298 10.72 17.3178 10.832C17.2151 10.944 17.0844 11 16.9258 11C16.7578 11 16.6224 10.944 16.5198 10.832C16.4171 10.72 16.3658 10.5847 16.3658 10.426V9.096L16.6318 9.068C16.6318 9.27333 16.5618 9.49733 16.4218 9.74C16.2818 9.98267 16.0904 10.2113 15.8478 10.426C15.6051 10.6313 15.3158 10.804 14.9798 10.944C14.6531 11.0747 14.2984 11.14 13.9158 11.14C13.2811 11.14 12.7118 10.9767 12.2078 10.65C11.7038 10.314 11.3024 9.86133 11.0038 9.292C10.7144 8.72267 10.5698 8.074 10.5698 7.346C10.5698 6.60867 10.7144 5.96 11.0038 5.4C11.3024 4.83067 11.7038 4.38733 12.2078 4.07C12.7118 3.74333 13.2718 3.58 13.8878 3.58C14.2891 3.58 14.6624 3.64533 15.0078 3.776C15.3531 3.90667 15.6518 4.084 15.9038 4.308C16.1651 4.532 16.3658 4.77933 16.5058 5.05C16.6551 5.32067 16.7298 5.59133 16.7298 5.862L16.3658 5.778V4.252C16.3658 4.09333 16.4171 3.96267 16.5198 3.86C16.6224 3.748 16.7578 3.692 16.9258 3.692ZM14.0418 10.104C14.5084 10.104 14.9191 9.98267 15.2738 9.74C15.6378 9.49733 15.9178 9.17067 16.1138 8.76C16.3191 8.34 16.4218 7.86867 16.4218 7.346C16.4218 6.83267 16.3191 6.37067 16.1138 5.96C15.9178 5.54 15.6378 5.21333 15.2738 4.98C14.9191 4.73733 14.5084 4.616 14.0418 4.616C13.5844 4.616 13.1738 4.73267 12.8098 4.966C12.4551 5.19933 12.1751 5.52133 11.9698 5.932C11.7644 6.34267 11.6618 6.814 11.6618 7.346C11.6618 7.86867 11.7598 8.34 11.9558 8.76C12.1611 9.17067 12.4411 9.49733 12.7958 9.74C13.1598 9.98267 13.5751 10.104 14.0418 10.104ZM23.1314 3.58C23.7661 3.58 24.3354 3.74333 24.8394 4.07C25.3434 4.38733 25.7401 4.826 26.0294 5.386C26.3281 5.946 26.4774 6.59467 26.4774 7.332C26.4774 8.06933 26.3281 8.72267 26.0294 9.292C25.7401 9.86133 25.3434 10.314 24.8394 10.65C24.3447 10.9767 23.7847 11.14 23.1594 11.14C22.8141 11.14 22.4874 11.0887 22.1794 10.986C21.8807 10.874 21.6054 10.7293 21.3534 10.552C21.1107 10.3653 20.9054 10.1647 20.7374 9.95C20.5694 9.726 20.4481 9.50667 20.3734 9.292L20.6814 9.096V10.496C20.6814 10.6547 20.6301 10.79 20.5274 10.902C20.4247 11.014 20.2894 11.07 20.1214 11.07C19.9627 11.07 19.8274 11.0187 19.7154 10.916C19.6127 10.804 19.5614 10.664 19.5614 10.496V1.214C19.5614 1.05533 19.6127 0.92 19.7154 0.807999C19.8274 0.696 19.9627 0.64 20.1214 0.64C20.2894 0.64 20.4247 0.696 20.5274 0.807999C20.6301 0.92 20.6814 1.05533 20.6814 1.214V5.526L20.4714 5.414C20.5367 5.18067 20.6487 4.95667 20.8074 4.742C20.9754 4.518 21.1761 4.322 21.4094 4.154C21.6521 3.97667 21.9181 3.83667 22.2074 3.734C22.5061 3.63133 22.8141 3.58 23.1314 3.58ZM23.0054 4.616C22.5387 4.616 22.1234 4.73267 21.7594 4.966C21.4047 5.19933 21.1247 5.52133 20.9194 5.932C20.7234 6.34267 20.6254 6.80933 20.6254 7.332C20.6254 7.85467 20.7234 8.326 20.9194 8.746C21.1247 9.166 21.4047 9.49733 21.7594 9.74C22.1234 9.98267 22.5387 10.104 23.0054 10.104C23.4721 10.104 23.8827 9.98267 24.2374 9.74C24.5921 9.49733 24.8721 9.166 25.0774 8.746C25.2827 8.326 25.3854 7.85467 25.3854 7.332C25.3854 6.80933 25.2827 6.34267 25.0774 5.932C24.8721 5.52133 24.5921 5.19933 24.2374 4.966C23.8827 4.73267 23.4721 4.616 23.0054 4.616ZM34.125 3.692C34.2837 3.692 34.4143 3.748 34.517 3.86C34.629 3.96267 34.685 4.09333 34.685 4.252V10.426C34.685 10.5847 34.629 10.72 34.517 10.832C34.4143 10.944 34.2837 11 34.125 11C33.957 11 33.8217 10.944 33.719 10.832C33.6163 10.72 33.565 10.5847 33.565 10.426V9.096L33.831 9.068C33.831 9.27333 33.761 9.49733 33.621 9.74C33.481 9.98267 33.2897 10.2113 33.047 10.426C32.8043 10.6313 32.515 10.804 32.179 10.944C31.8523 11.0747 31.4977 11.14 31.115 11.14C30.4803 11.14 29.911 10.9767 29.407 10.65C28.903 10.314 28.5017 9.86133 28.203 9.292C27.9137 8.72267 27.769 8.074 27.769 7.346C27.769 6.60867 27.9137 5.96 28.203 5.4C28.5017 4.83067 28.903 4.38733 29.407 4.07C29.911 3.74333 30.471 3.58 31.087 3.58C31.4883 3.58 31.8617 3.64533 32.207 3.776C32.5523 3.90667 32.851 4.084 33.103 4.308C33.3643 4.532 33.565 4.77933 33.705 5.05C33.8543 5.32067 33.929 5.59133 33.929 5.862L33.565 5.778V4.252C33.565 4.09333 33.6163 3.96267 33.719 3.86C33.8217 3.748 33.957 3.692 34.125 3.692ZM31.241 10.104C31.7077 10.104 32.1183 9.98267 32.473 9.74C32.837 9.49733 33.117 9.17067 33.313 8.76C33.5183 8.34 33.621 7.86867 33.621 7.346C33.621 6.83267 33.5183 6.37067 33.313 5.96C33.117 5.54 32.837 5.21333 32.473 4.98C32.1183 4.73733 31.7077 4.616 31.241 4.616C30.7837 4.616 30.373 4.73267 30.009 4.966C29.6543 5.19933 29.3743 5.52133 29.169 5.932C28.9637 6.34267 28.861 6.814 28.861 7.346C28.861 7.86867 28.959 8.34 29.155 8.76C29.3603 9.17067 29.6403 9.49733 29.995 9.74C30.359 9.98267 30.7743 10.104 31.241 10.104ZM42.1786 3.65C42.3373 3.65 42.4679 3.706 42.5706 3.818C42.6826 3.92067 42.7386 4.05133 42.7386 4.21V10.314C42.7386 11.098 42.5846 11.7467 42.2766 12.26C41.9686 12.7827 41.5533 13.17 41.0306 13.422C40.5173 13.674 39.9339 13.8 39.2806 13.8C38.9166 13.8 38.5666 13.7627 38.2306 13.688C37.8946 13.6133 37.6193 13.5153 37.4046 13.394C37.2273 13.31 37.1013 13.2027 37.0266 13.072C36.9613 12.9507 36.9519 12.82 36.9986 12.68C37.0639 12.512 37.1573 12.3953 37.2786 12.33C37.4093 12.2647 37.5446 12.2647 37.6846 12.33C37.8339 12.3953 38.0486 12.484 38.3286 12.596C38.6179 12.7173 38.9399 12.778 39.2946 12.778C39.7799 12.778 40.1953 12.6847 40.5406 12.498C40.8859 12.3113 41.1519 12.036 41.3386 11.672C41.5253 11.3173 41.6186 10.874 41.6186 10.342V9.348L41.7866 9.698C41.6373 9.98733 41.4366 10.2393 41.1846 10.454C40.9326 10.6687 40.6433 10.8367 40.3166 10.958C39.9899 11.0793 39.6306 11.14 39.2386 11.14C38.7066 11.14 38.2539 11.028 37.8806 10.804C37.5166 10.5707 37.2366 10.2533 37.0406 9.852C36.8539 9.44133 36.7606 8.97 36.7606 8.438V4.21C36.7606 4.05133 36.8119 3.92067 36.9146 3.818C37.0266 3.706 37.1619 3.65 37.3206 3.65C37.4886 3.65 37.6239 3.706 37.7266 3.818C37.8293 3.92067 37.8806 4.05133 37.8806 4.21V8.186C37.8806 8.82067 38.0206 9.30133 38.3006 9.628C38.5806 9.94533 39.0146 10.104 39.6026 10.104C39.9759 10.104 40.3119 10.02 40.6106 9.852C40.9186 9.684 41.1613 9.45533 41.3386 9.166C41.5253 8.86733 41.6186 8.54067 41.6186 8.186V4.21C41.6186 4.05133 41.6699 3.92067 41.7726 3.818C41.8753 3.706 42.0106 3.65 42.1786 3.65ZM52.0148 11.14C51.2681 11.14 50.6148 10.9813 50.0548 10.664C49.4948 10.3467 49.0561 9.91267 48.7388 9.362C48.4308 8.802 48.2768 8.158 48.2768 7.43C48.2768 6.618 48.4355 5.92733 48.7528 5.358C49.0795 4.77933 49.4995 4.34067 50.0128 4.042C50.5355 3.734 51.0861 3.58 51.6648 3.58C52.0941 3.58 52.5095 3.65933 52.9108 3.818C53.3121 3.97667 53.6668 4.21 53.9748 4.518C54.2828 4.81667 54.5301 5.18067 54.7168 5.61C54.9035 6.03 55.0015 6.50133 55.0108 7.024C55.0108 7.17333 54.9548 7.29933 54.8428 7.402C54.7308 7.50467 54.6001 7.556 54.4508 7.556H48.9208L48.6688 6.59H54.0588L53.8348 6.786V6.478C53.7975 6.09533 53.6668 5.76867 53.4428 5.498C53.2281 5.218 52.9621 5.00333 52.6448 4.854C52.3368 4.70467 52.0101 4.63 51.6648 4.63C51.3848 4.63 51.1048 4.68133 50.8248 4.784C50.5541 4.87733 50.3068 5.036 50.0828 5.26C49.8681 5.47467 49.6908 5.75467 49.5508 6.1C49.4201 6.44533 49.3548 6.86067 49.3548 7.346C49.3548 7.88733 49.4621 8.36333 49.6768 8.774C49.9008 9.18467 50.2088 9.51133 50.6008 9.754C50.9928 9.98733 51.4501 10.104 51.9728 10.104C52.2995 10.104 52.5841 10.062 52.8268 9.978C53.0695 9.894 53.2795 9.79133 53.4568 9.67C53.6341 9.53933 53.7835 9.40867 53.9048 9.278C54.0261 9.194 54.1428 9.152 54.2548 9.152C54.3948 9.152 54.5068 9.19867 54.5908 9.292C54.6841 9.38533 54.7308 9.49733 54.7308 9.628C54.7308 9.78667 54.6561 9.92667 54.5068 10.048C54.2455 10.3373 53.8908 10.594 53.4428 10.818C52.9948 11.0327 52.5188 11.14 52.0148 11.14ZM60.1522 3.65C60.7869 3.65 61.3002 3.81333 61.6922 4.14C62.0935 4.45733 62.3595 4.91 62.4902 5.498H62.2802L62.3782 5.246C62.4902 4.98467 62.6815 4.73267 62.9522 4.49C63.2229 4.24733 63.5355 4.04667 63.8902 3.888C64.2449 3.72933 64.6135 3.65 64.9962 3.65C65.6122 3.65 66.0975 3.78533 66.4522 4.056C66.8069 4.31733 67.0589 4.672 67.2082 5.12C67.3669 5.55867 67.4462 6.05333 67.4462 6.604V10.426C67.4462 10.5847 67.3902 10.72 67.2782 10.832C67.1755 10.944 67.0449 11 66.8862 11C66.7182 11 66.5829 10.944 66.4802 10.832C66.3775 10.72 66.3262 10.5847 66.3262 10.426V6.632C66.3262 6.268 66.2702 5.94133 66.1582 5.652C66.0555 5.35333 65.8829 5.12 65.6402 4.952C65.4069 4.77467 65.0849 4.686 64.6742 4.686C64.2915 4.686 63.9415 4.77467 63.6242 4.952C63.3069 5.12 63.0549 5.35333 62.8682 5.652C62.6815 5.94133 62.5882 6.268 62.5882 6.632V10.426C62.5882 10.5847 62.5369 10.72 62.4342 10.832C62.3315 10.944 62.1962 11 62.0282 11C61.8695 11 61.7342 10.944 61.6222 10.832C61.5195 10.72 61.4682 10.5847 61.4682 10.426V6.59C61.4682 6.23533 61.4169 5.918 61.3142 5.638C61.2209 5.34867 61.0575 5.12 60.8242 4.952C60.5909 4.77467 60.2689 4.686 59.8582 4.686C59.4849 4.686 59.1442 4.77467 58.8362 4.952C58.5282 5.12 58.2809 5.34867 58.0942 5.638C57.9075 5.918 57.8142 6.23533 57.8142 6.59V10.426C57.8142 10.5847 57.7582 10.72 57.6462 10.832C57.5435 10.944 57.4129 11 57.2542 11C57.0955 11 56.9602 10.944 56.8482 10.832C56.7455 10.72 56.6942 10.5847 56.6942 10.426V4.322C56.6942 4.16333 56.7455 4.03267 56.8482 3.93C56.9602 3.818 57.0955 3.762 57.2542 3.762C57.4222 3.762 57.5575 3.818 57.6602 3.93C57.7629 4.03267 57.8142 4.16333 57.8142 4.322V5.386L57.5062 5.722C57.5435 5.47933 57.6369 5.23667 57.7862 4.994C57.9449 4.75133 58.1455 4.52733 58.3882 4.322C58.6309 4.11667 58.9015 3.95333 59.2002 3.832C59.4989 3.71067 59.8162 3.65 60.1522 3.65ZM73.0884 3.65C73.7231 3.65 74.2924 3.80867 74.7964 4.126C75.3004 4.44333 75.6971 4.882 75.9864 5.442C76.2851 6.002 76.4344 6.646 76.4344 7.374C76.4344 8.09267 76.2851 8.73667 75.9864 9.306C75.6971 9.866 75.3004 10.3093 74.7964 10.636C74.3018 10.9533 73.7418 11.112 73.1164 11.112C72.7711 11.112 72.4444 11.0607 72.1364 10.958C71.8378 10.846 71.5624 10.706 71.3104 10.538C71.0678 10.3607 70.8624 10.1647 70.6944 9.95C70.5264 9.726 70.4051 9.50667 70.3304 9.292L70.6384 9.096V13.226C70.6384 13.3847 70.5871 13.52 70.4844 13.632C70.3818 13.744 70.2464 13.8 70.0784 13.8C69.9198 13.8 69.7844 13.744 69.6724 13.632C69.5698 13.5293 69.5184 13.394 69.5184 13.226V4.28C69.5184 4.12133 69.5698 3.99067 69.6724 3.888C69.7844 3.776 69.9198 3.72 70.0784 3.72C70.2464 3.72 70.3818 3.776 70.4844 3.888C70.5871 3.99067 70.6384 4.12133 70.6384 4.28V5.526L70.4284 5.414C70.4938 5.18067 70.6058 4.95667 70.7644 4.742C70.9324 4.52733 71.1331 4.34067 71.3664 4.182C71.6091 4.014 71.8751 3.88333 72.1644 3.79C72.4631 3.69667 72.7711 3.65 73.0884 3.65ZM72.9624 4.686C72.4958 4.686 72.0804 4.80267 71.7164 5.036C71.3618 5.26933 71.0818 5.58667 70.8764 5.988C70.6804 6.38933 70.5824 6.85133 70.5824 7.374C70.5824 7.88733 70.6804 8.34933 70.8764 8.76C71.0818 9.17067 71.3618 9.49267 71.7164 9.726C72.0804 9.95933 72.4958 10.076 72.9624 10.076C73.4291 10.076 73.8398 9.95933 74.1944 9.726C74.5491 9.49267 74.8291 9.17067 75.0344 8.76C75.2398 8.34933 75.3424 7.88733 75.3424 7.374C75.3424 6.85133 75.2398 6.38933 75.0344 5.988C74.8291 5.58667 74.5491 5.26933 74.1944 5.036C73.8398 4.80267 73.4291 4.686 72.9624 4.686ZM84.992 7.36C84.992 8.088 84.8287 8.73667 84.502 9.306C84.1847 9.87533 83.7507 10.3233 83.2 10.65C82.6587 10.9767 82.0474 11.14 81.366 11.14C80.6847 11.14 80.0687 10.9767 79.518 10.65C78.9674 10.3233 78.5287 9.87533 78.202 9.306C77.8847 8.73667 77.726 8.088 77.726 7.36C77.726 6.632 77.8847 5.98333 78.202 5.414C78.5287 4.84467 78.9674 4.39667 79.518 4.07C80.0687 3.74333 80.6847 3.58 81.366 3.58C82.0474 3.58 82.6587 3.74333 83.2 4.07C83.7507 4.39667 84.1847 4.84467 84.502 5.414C84.8287 5.98333 84.992 6.632 84.992 7.36ZM83.872 7.36C83.872 6.81867 83.76 6.34267 83.536 5.932C83.3214 5.52133 83.0227 5.19933 82.64 4.966C82.2667 4.73267 81.842 4.616 81.366 4.616C80.89 4.616 80.4607 4.73267 80.078 4.966C79.7047 5.19933 79.406 5.52133 79.182 5.932C78.958 6.34267 78.846 6.81867 78.846 7.36C78.846 7.892 78.958 8.36333 79.182 8.774C79.406 9.18467 79.7047 9.51133 80.078 9.754C80.4607 9.98733 80.89 10.104 81.366 10.104C81.842 10.104 82.2667 9.98733 82.64 9.754C83.0227 9.51133 83.3214 9.18467 83.536 8.774C83.76 8.36333 83.872 7.892 83.872 7.36ZM95.2166 3.636C95.366 3.636 95.492 3.68733 95.5946 3.79C95.7066 3.89267 95.7626 4.028 95.7626 4.196C95.7626 4.23333 95.758 4.27533 95.7486 4.322C95.7486 4.35933 95.7393 4.39667 95.7206 4.434L93.5646 10.636C93.518 10.7573 93.4386 10.8507 93.3266 10.916C93.224 10.9813 93.112 11.0093 92.9906 11C92.776 10.9907 92.6126 10.8693 92.5006 10.636L90.7366 6.212L91.0166 6.254L89.4206 10.636C89.318 10.8693 89.1546 10.9907 88.9306 11C88.8093 11.0093 88.6926 10.9813 88.5806 10.916C88.4686 10.8507 88.394 10.7573 88.3566 10.636L86.1586 4.434C86.1306 4.35 86.1166 4.27067 86.1166 4.196C86.1166 4.04667 86.168 3.916 86.2706 3.804C86.3733 3.692 86.5133 3.636 86.6906 3.636C86.8026 3.636 86.9053 3.664 86.9986 3.72C87.092 3.776 87.1573 3.86467 87.1946 3.986L89.0846 9.502L88.7906 9.488L90.4286 5.288C90.522 5.05467 90.6946 4.938 90.9466 4.938C91.0773 4.938 91.18 4.97067 91.2546 5.036C91.3386 5.092 91.3993 5.176 91.4366 5.288L93.1446 9.488L92.7946 9.516L94.6846 3.986C94.7686 3.75267 94.946 3.636 95.2166 3.636ZM100.618 11.14C99.8717 11.14 99.2183 10.9813 98.6583 10.664C98.0983 10.3467 97.6597 9.91267 97.3423 9.362C97.0343 8.802 96.8803 8.158 96.8803 7.43C96.8803 6.618 97.039 5.92733 97.3563 5.358C97.683 4.77933 98.103 4.34067 98.6163 4.042C99.139 3.734 99.6897 3.58 100.268 3.58C100.698 3.58 101.113 3.65933 101.514 3.818C101.916 3.97667 102.27 4.21 102.578 4.518C102.886 4.81667 103.134 5.18067 103.32 5.61C103.507 6.03 103.605 6.50133 103.614 7.024C103.614 7.17333 103.558 7.29933 103.446 7.402C103.334 7.50467 103.204 7.556 103.054 7.556H97.5243L97.2723 6.59H102.662L102.438 6.786V6.478C102.401 6.09533 102.27 5.76867 102.046 5.498C101.832 5.218 101.566 5.00333 101.248 4.854C100.94 4.70467 100.614 4.63 100.268 4.63C99.9883 4.63 99.7083 4.68133 99.4283 4.784C99.1577 4.87733 98.9103 5.036 98.6863 5.26C98.4717 5.47467 98.2943 5.75467 98.1543 6.1C98.0237 6.44533 97.9583 6.86067 97.9583 7.346C97.9583 7.88733 98.0657 8.36333 98.2803 8.774C98.5043 9.18467 98.8123 9.51133 99.2043 9.754C99.5963 9.98733 100.054 10.104 100.576 10.104C100.903 10.104 101.188 10.062 101.43 9.978C101.673 9.894 101.883 9.79133 102.06 9.67C102.238 9.53933 102.387 9.40867 102.508 9.278C102.63 9.194 102.746 9.152 102.858 9.152C102.998 9.152 103.11 9.19867 103.194 9.292C103.288 9.38533 103.334 9.49733 103.334 9.628C103.334 9.78667 103.26 9.92667 103.11 10.048C102.849 10.3373 102.494 10.594 102.046 10.818C101.598 11.0327 101.122 11.14 100.618 11.14ZM105.858 11C105.699 11 105.564 10.944 105.452 10.832C105.349 10.72 105.298 10.5847 105.298 10.426V4.322C105.298 4.16333 105.349 4.03267 105.452 3.93C105.564 3.818 105.699 3.762 105.858 3.762C106.026 3.762 106.161 3.818 106.264 3.93C106.366 4.03267 106.418 4.16333 106.418 4.322V6.17L106.25 5.876C106.306 5.58667 106.404 5.30667 106.544 5.036C106.693 4.756 106.88 4.50867 107.104 4.294C107.328 4.07 107.584 3.89733 107.874 3.776C108.163 3.64533 108.48 3.58 108.826 3.58C109.031 3.58 109.218 3.63133 109.386 3.734C109.563 3.82733 109.652 3.96267 109.652 4.14C109.652 4.336 109.6 4.48067 109.498 4.574C109.395 4.66733 109.278 4.714 109.148 4.714C109.026 4.714 108.91 4.69067 108.798 4.644C108.686 4.588 108.546 4.56 108.378 4.56C108.144 4.56 107.911 4.62533 107.678 4.756C107.454 4.87733 107.244 5.05467 107.048 5.288C106.861 5.52133 106.707 5.78733 106.586 6.086C106.474 6.37533 106.418 6.688 106.418 7.024V10.426C106.418 10.5847 106.362 10.72 106.25 10.832C106.147 10.944 106.016 11 105.858 11ZM110.511 9.852C110.427 9.73067 110.39 9.60467 110.399 9.474C110.408 9.334 110.488 9.21267 110.637 9.11C110.73 9.04467 110.838 9.01667 110.959 9.026C111.09 9.03533 111.206 9.096 111.309 9.208C111.57 9.516 111.869 9.76333 112.205 9.95C112.541 10.1273 112.952 10.216 113.437 10.216C113.661 10.2067 113.885 10.1693 114.109 10.104C114.333 10.0387 114.52 9.92667 114.669 9.768C114.828 9.6 114.907 9.38067 114.907 9.11C114.907 8.84867 114.828 8.64333 114.669 8.494C114.51 8.33533 114.305 8.20933 114.053 8.116C113.801 8.01333 113.526 7.92467 113.227 7.85C112.919 7.766 112.616 7.67267 112.317 7.57C112.018 7.458 111.748 7.32267 111.505 7.164C111.272 6.996 111.08 6.79067 110.931 6.548C110.791 6.296 110.721 5.99267 110.721 5.638C110.721 5.218 110.833 4.854 111.057 4.546C111.29 4.238 111.598 4 111.981 3.832C112.373 3.664 112.798 3.58 113.255 3.58C113.516 3.58 113.787 3.61267 114.067 3.678C114.356 3.734 114.636 3.83667 114.907 3.986C115.178 4.126 115.416 4.322 115.621 4.574C115.705 4.66733 115.752 4.784 115.761 4.924C115.77 5.064 115.71 5.19 115.579 5.302C115.476 5.37667 115.36 5.40933 115.229 5.4C115.108 5.39067 115.005 5.344 114.921 5.26C114.725 5.02667 114.478 4.84933 114.179 4.728C113.89 4.59733 113.568 4.532 113.213 4.532C112.989 4.532 112.77 4.56467 112.555 4.63C112.34 4.69533 112.158 4.80733 112.009 4.966C111.869 5.11533 111.799 5.32533 111.799 5.596C111.808 5.848 111.892 6.05333 112.051 6.212C112.21 6.37067 112.424 6.50133 112.695 6.604C112.966 6.69733 113.264 6.79067 113.591 6.884C113.89 6.95867 114.174 7.04733 114.445 7.15C114.725 7.24333 114.977 7.36933 115.201 7.528C115.425 7.68667 115.602 7.892 115.733 8.144C115.864 8.38667 115.929 8.69467 115.929 9.068C115.929 9.49733 115.808 9.87067 115.565 10.188C115.322 10.496 115 10.734 114.599 10.902C114.207 11.0607 113.782 11.14 113.325 11.14C112.812 11.14 112.303 11.042 111.799 10.846C111.304 10.65 110.875 10.3187 110.511 9.852ZM127.367 3.692C127.526 3.692 127.657 3.748 127.759 3.86C127.871 3.96267 127.927 4.09333 127.927 4.252V10.426C127.927 10.5847 127.871 10.72 127.759 10.832C127.657 10.944 127.526 11 127.367 11C127.199 11 127.064 10.944 126.961 10.832C126.859 10.72 126.807 10.5847 126.807 10.426V9.096L127.073 9.068C127.073 9.27333 127.003 9.49733 126.863 9.74C126.723 9.98267 126.532 10.2113 126.289 10.426C126.047 10.6313 125.757 10.804 125.421 10.944C125.095 11.0747 124.74 11.14 124.357 11.14C123.723 11.14 123.153 10.9767 122.649 10.65C122.145 10.314 121.744 9.86133 121.445 9.292C121.156 8.72267 121.011 8.074 121.011 7.346C121.011 6.60867 121.156 5.96 121.445 5.4C121.744 4.83067 122.145 4.38733 122.649 4.07C123.153 3.74333 123.713 3.58 124.329 3.58C124.731 3.58 125.104 3.64533 125.449 3.776C125.795 3.90667 126.093 4.084 126.345 4.308C126.607 4.532 126.807 4.77933 126.947 5.05C127.097 5.32067 127.171 5.59133 127.171 5.862L126.807 5.778V4.252C126.807 4.09333 126.859 3.96267 126.961 3.86C127.064 3.748 127.199 3.692 127.367 3.692ZM124.483 10.104C124.95 10.104 125.361 9.98267 125.715 9.74C126.079 9.49733 126.359 9.17067 126.555 8.76C126.761 8.34 126.863 7.86867 126.863 7.346C126.863 6.83267 126.761 6.37067 126.555 5.96C126.359 5.54 126.079 5.21333 125.715 4.98C125.361 4.73733 124.95 4.616 124.483 4.616C124.026 4.616 123.615 4.73267 123.251 4.966C122.897 5.19933 122.617 5.52133 122.411 5.932C122.206 6.34267 122.103 6.814 122.103 7.346C122.103 7.86867 122.201 8.34 122.397 8.76C122.603 9.17067 122.883 9.49733 123.237 9.74C123.601 9.98267 124.017 10.104 124.483 10.104ZM133.601 3.58C134.235 3.58 134.735 3.71067 135.099 3.972C135.463 4.23333 135.719 4.58333 135.869 5.022C136.027 5.46067 136.107 5.95067 136.107 6.492V10.426C136.107 10.5847 136.051 10.72 135.939 10.832C135.836 10.944 135.705 11 135.547 11C135.388 11 135.253 10.944 135.141 10.832C135.038 10.72 134.987 10.5847 134.987 10.426V6.52C134.987 6.16533 134.931 5.848 134.819 5.568C134.716 5.27867 134.539 5.05 134.287 4.882C134.044 4.70467 133.708 4.616 133.279 4.616C132.887 4.616 132.527 4.70467 132.201 4.882C131.874 5.05 131.613 5.27867 131.417 5.568C131.221 5.848 131.123 6.16533 131.123 6.52V10.426C131.123 10.5847 131.067 10.72 130.955 10.832C130.852 10.944 130.721 11 130.563 11C130.404 11 130.269 10.944 130.157 10.832C130.054 10.72 130.003 10.5847 130.003 10.426V4.322C130.003 4.16333 130.054 4.03267 130.157 3.93C130.269 3.818 130.404 3.762 130.563 3.762C130.731 3.762 130.866 3.818 130.969 3.93C131.071 4.03267 131.123 4.16333 131.123 4.322V5.316L130.843 5.624C130.889 5.38133 130.997 5.13867 131.165 4.896C131.333 4.644 131.543 4.42 131.795 4.224C132.047 4.028 132.327 3.874 132.635 3.762C132.943 3.64067 133.265 3.58 133.601 3.58ZM144.143 0.64C144.301 0.64 144.432 0.696 144.535 0.807999C144.647 0.910666 144.703 1.04133 144.703 1.2V10.426C144.703 10.5847 144.647 10.72 144.535 10.832C144.432 10.944 144.301 11 144.143 11C143.975 11 143.839 10.944 143.737 10.832C143.634 10.72 143.583 10.5847 143.583 10.426V9.096L143.849 8.998C143.849 9.222 143.779 9.46 143.639 9.712C143.499 9.95467 143.307 10.1833 143.065 10.398C142.822 10.6127 142.533 10.79 142.197 10.93C141.87 11.07 141.515 11.14 141.133 11.14C140.507 11.14 139.938 10.9767 139.425 10.65C138.921 10.3233 138.519 9.87533 138.221 9.306C137.931 8.73667 137.787 8.088 137.787 7.36C137.787 6.62267 137.931 5.96933 138.221 5.4C138.519 4.83067 138.921 4.38733 139.425 4.07C139.929 3.74333 140.489 3.58 141.105 3.58C141.497 3.58 141.865 3.64533 142.211 3.776C142.556 3.90667 142.855 4.084 143.107 4.308C143.368 4.532 143.573 4.77933 143.723 5.05C143.872 5.32067 143.947 5.59133 143.947 5.862L143.583 5.778V1.2C143.583 1.04133 143.634 0.910666 143.737 0.807999C143.839 0.696 143.975 0.64 144.143 0.64ZM141.259 10.104C141.725 10.104 142.136 9.98733 142.491 9.754C142.855 9.51133 143.135 9.18467 143.331 8.774C143.536 8.354 143.639 7.88267 143.639 7.36C143.639 6.828 143.536 6.35667 143.331 5.946C143.135 5.53533 142.855 5.21333 142.491 4.98C142.136 4.73733 141.725 4.616 141.259 4.616C140.801 4.616 140.391 4.73733 140.027 4.98C139.672 5.21333 139.392 5.53533 139.187 5.946C138.981 6.35667 138.879 6.828 138.879 7.36C138.879 7.87333 138.981 8.34 139.187 8.76C139.392 9.17067 139.672 9.49733 140.027 9.74C140.391 9.98267 140.801 10.104 141.259 10.104ZM150.228 9.852C150.144 9.73067 150.106 9.60467 150.116 9.474C150.125 9.334 150.204 9.21267 150.354 9.11C150.447 9.04467 150.554 9.01667 150.676 9.026C150.806 9.03533 150.923 9.096 151.026 9.208C151.287 9.516 151.586 9.76333 151.922 9.95C152.258 10.1273 152.668 10.216 153.154 10.216C153.378 10.2067 153.602 10.1693 153.826 10.104C154.05 10.0387 154.236 9.92667 154.386 9.768C154.544 9.6 154.624 9.38067 154.624 9.11C154.624 8.84867 154.544 8.64333 154.386 8.494C154.227 8.33533 154.022 8.20933 153.77 8.116C153.518 8.01333 153.242 7.92467 152.944 7.85C152.636 7.766 152.332 7.67267 152.034 7.57C151.735 7.458 151.464 7.32267 151.222 7.164C150.988 6.996 150.797 6.79067 150.648 6.548C150.508 6.296 150.438 5.99267 150.438 5.638C150.438 5.218 150.55 4.854 150.774 4.546C151.007 4.238 151.315 4 151.698 3.832C152.09 3.664 152.514 3.58 152.972 3.58C153.233 3.58 153.504 3.61267 153.784 3.678C154.073 3.734 154.353 3.83667 154.624 3.986C154.894 4.126 155.132 4.322 155.338 4.574C155.422 4.66733 155.468 4.784 155.478 4.924C155.487 5.064 155.426 5.19 155.296 5.302C155.193 5.37667 155.076 5.40933 154.946 5.4C154.824 5.39067 154.722 5.344 154.638 5.26C154.442 5.02667 154.194 4.84933 153.896 4.728C153.606 4.59733 153.284 4.532 152.93 4.532C152.706 4.532 152.486 4.56467 152.272 4.63C152.057 4.69533 151.875 4.80733 151.726 4.966C151.586 5.11533 151.516 5.32533 151.516 5.596C151.525 5.848 151.609 6.05333 151.768 6.212C151.926 6.37067 152.141 6.50133 152.412 6.604C152.682 6.69733 152.981 6.79067 153.308 6.884C153.606 6.95867 153.891 7.04733 154.162 7.15C154.442 7.24333 154.694 7.36933 154.918 7.528C155.142 7.68667 155.319 7.892 155.45 8.144C155.58 8.38667 155.646 8.69467 155.646 9.068C155.646 9.49733 155.524 9.87067 155.282 10.188C155.039 10.496 154.717 10.734 154.316 10.902C153.924 11.0607 153.499 11.14 153.042 11.14C152.528 11.14 152.02 11.042 151.516 10.846C151.021 10.65 150.592 10.3187 150.228 9.852ZM162.683 3.762C162.851 3.762 162.986 3.818 163.089 3.93C163.191 4.03267 163.243 4.16333 163.243 4.322V8.144C163.243 9.08667 162.977 9.81933 162.445 10.342C161.922 10.8553 161.189 11.112 160.247 11.112C159.313 11.112 158.581 10.8553 158.049 10.342C157.526 9.81933 157.265 9.08667 157.265 8.144V4.322C157.265 4.16333 157.316 4.03267 157.419 3.93C157.531 3.818 157.666 3.762 157.825 3.762C157.993 3.762 158.128 3.818 158.231 3.93C158.333 4.03267 158.385 4.16333 158.385 4.322V8.144C158.385 8.77867 158.548 9.25933 158.875 9.586C159.201 9.91267 159.659 10.076 160.247 10.076C160.853 10.076 161.315 9.91267 161.633 9.586C161.959 9.25933 162.123 8.77867 162.123 8.144V4.322C162.123 4.16333 162.174 4.03267 162.277 3.93C162.389 3.818 162.524 3.762 162.683 3.762ZM168.887 3.65C169.522 3.65 170.091 3.80867 170.595 4.126C171.099 4.44333 171.496 4.882 171.785 5.442C172.084 6.002 172.233 6.646 172.233 7.374C172.233 8.09267 172.084 8.73667 171.785 9.306C171.496 9.866 171.099 10.3093 170.595 10.636C170.101 10.9533 169.541 11.112 168.915 11.112C168.57 11.112 168.243 11.0607 167.935 10.958C167.637 10.846 167.361 10.706 167.109 10.538C166.867 10.3607 166.661 10.1647 166.493 9.95C166.325 9.726 166.204 9.50667 166.129 9.292L166.437 9.096V13.226C166.437 13.3847 166.386 13.52 166.283 13.632C166.181 13.744 166.045 13.8 165.877 13.8C165.719 13.8 165.583 13.744 165.471 13.632C165.369 13.5293 165.317 13.394 165.317 13.226V4.28C165.317 4.12133 165.369 3.99067 165.471 3.888C165.583 3.776 165.719 3.72 165.877 3.72C166.045 3.72 166.181 3.776 166.283 3.888C166.386 3.99067 166.437 4.12133 166.437 4.28V5.526L166.227 5.414C166.293 5.18067 166.405 4.95667 166.563 4.742C166.731 4.52733 166.932 4.34067 167.165 4.182C167.408 4.014 167.674 3.88333 167.963 3.79C168.262 3.69667 168.57 3.65 168.887 3.65ZM168.761 4.686C168.295 4.686 167.879 4.80267 167.515 5.036C167.161 5.26933 166.881 5.58667 166.675 5.988C166.479 6.38933 166.381 6.85133 166.381 7.374C166.381 7.88733 166.479 8.34933 166.675 8.76C166.881 9.17067 167.161 9.49267 167.515 9.726C167.879 9.95933 168.295 10.076 168.761 10.076C169.228 10.076 169.639 9.95933 169.993 9.726C170.348 9.49267 170.628 9.17067 170.833 8.76C171.039 8.34933 171.141 7.88733 171.141 7.374C171.141 6.85133 171.039 6.38933 170.833 5.988C170.628 5.58667 170.348 5.26933 169.993 5.036C169.639 4.80267 169.228 4.686 168.761 4.686ZM177.487 3.65C178.122 3.65 178.691 3.80867 179.195 4.126C179.699 4.44333 180.096 4.882 180.385 5.442C180.684 6.002 180.833 6.646 180.833 7.374C180.833 8.09267 180.684 8.73667 180.385 9.306C180.096 9.866 179.699 10.3093 179.195 10.636C178.7 10.9533 178.14 11.112 177.515 11.112C177.17 11.112 176.843 11.0607 176.535 10.958C176.236 10.846 175.961 10.706 175.709 10.538C175.466 10.3607 175.261 10.1647 175.093 9.95C174.925 9.726 174.804 9.50667 174.729 9.292L175.037 9.096V13.226C175.037 13.3847 174.986 13.52 174.883 13.632C174.78 13.744 174.645 13.8 174.477 13.8C174.318 13.8 174.183 13.744 174.071 13.632C173.968 13.5293 173.917 13.394 173.917 13.226V4.28C173.917 4.12133 173.968 3.99067 174.071 3.888C174.183 3.776 174.318 3.72 174.477 3.72C174.645 3.72 174.78 3.776 174.883 3.888C174.986 3.99067 175.037 4.12133 175.037 4.28V5.526L174.827 5.414C174.892 5.18067 175.004 4.95667 175.163 4.742C175.331 4.52733 175.532 4.34067 175.765 4.182C176.008 4.014 176.274 3.88333 176.563 3.79C176.862 3.69667 177.17 3.65 177.487 3.65ZM177.361 4.686C176.894 4.686 176.479 4.80267 176.115 5.036C175.76 5.26933 175.48 5.58667 175.275 5.988C175.079 6.38933 174.981 6.85133 174.981 7.374C174.981 7.88733 175.079 8.34933 175.275 8.76C175.48 9.17067 175.76 9.49267 176.115 9.726C176.479 9.95933 176.894 10.076 177.361 10.076C177.828 10.076 178.238 9.95933 178.593 9.726C178.948 9.49267 179.228 9.17067 179.433 8.76C179.638 8.34933 179.741 7.88733 179.741 7.374C179.741 6.85133 179.638 6.38933 179.433 5.988C179.228 5.58667 178.948 5.26933 178.593 5.036C178.238 4.80267 177.828 4.686 177.361 4.686ZM189.39 7.36C189.39 8.088 189.227 8.73667 188.9 9.306C188.583 9.87533 188.149 10.3233 187.598 10.65C187.057 10.9767 186.446 11.14 185.764 11.14C185.083 11.14 184.467 10.9767 183.916 10.65C183.366 10.3233 182.927 9.87533 182.6 9.306C182.283 8.73667 182.124 8.088 182.124 7.36C182.124 6.632 182.283 5.98333 182.6 5.414C182.927 4.84467 183.366 4.39667 183.916 4.07C184.467 3.74333 185.083 3.58 185.764 3.58C186.446 3.58 187.057 3.74333 187.598 4.07C188.149 4.39667 188.583 4.84467 188.9 5.414C189.227 5.98333 189.39 6.632 189.39 7.36ZM188.27 7.36C188.27 6.81867 188.158 6.34267 187.934 5.932C187.72 5.52133 187.421 5.19933 187.038 4.966C186.665 4.73267 186.24 4.616 185.764 4.616C185.288 4.616 184.859 4.73267 184.476 4.966C184.103 5.19933 183.804 5.52133 183.58 5.932C183.356 6.34267 183.244 6.81867 183.244 7.36C183.244 7.892 183.356 8.36333 183.58 8.774C183.804 9.18467 184.103 9.51133 184.476 9.754C184.859 9.98733 185.288 10.104 185.764 10.104C186.24 10.104 186.665 9.98733 187.038 9.754C187.421 9.51133 187.72 9.18467 187.934 8.774C188.158 8.36333 188.27 7.892 188.27 7.36ZM191.635 11C191.476 11 191.341 10.944 191.229 10.832C191.126 10.72 191.075 10.5847 191.075 10.426V4.322C191.075 4.16333 191.126 4.03267 191.229 3.93C191.341 3.818 191.476 3.762 191.635 3.762C191.803 3.762 191.938 3.818 192.041 3.93C192.144 4.03267 192.195 4.16333 192.195 4.322V6.17L192.027 5.876C192.083 5.58667 192.181 5.30667 192.321 5.036C192.47 4.756 192.657 4.50867 192.881 4.294C193.105 4.07 193.362 3.89733 193.651 3.776C193.94 3.64533 194.258 3.58 194.603 3.58C194.808 3.58 194.995 3.63133 195.163 3.734C195.34 3.82733 195.429 3.96267 195.429 4.14C195.429 4.336 195.378 4.48067 195.275 4.574C195.172 4.66733 195.056 4.714 194.925 4.714C194.804 4.714 194.687 4.69067 194.575 4.644C194.463 4.588 194.323 4.56 194.155 4.56C193.922 4.56 193.688 4.62533 193.455 4.756C193.231 4.87733 193.021 5.05467 192.825 5.288C192.638 5.52133 192.484 5.78733 192.363 6.086C192.251 6.37533 192.195 6.688 192.195 7.024V10.426C192.195 10.5847 192.139 10.72 192.027 10.832C191.924 10.944 191.794 11 191.635 11ZM196.414 3.804H199.704C199.854 3.804 199.975 3.85533 200.068 3.958C200.171 4.06067 200.222 4.182 200.222 4.322C200.222 4.47133 200.171 4.59733 200.068 4.7C199.975 4.79333 199.854 4.84 199.704 4.84H196.414C196.274 4.84 196.153 4.78867 196.05 4.686C195.948 4.58333 195.896 4.45733 195.896 4.308C195.896 4.168 195.948 4.05133 196.05 3.958C196.153 3.85533 196.274 3.804 196.414 3.804ZM197.884 1.9C198.043 1.9 198.174 1.956 198.276 2.068C198.379 2.17067 198.43 2.30133 198.43 2.46V9.222C198.43 9.446 198.463 9.614 198.528 9.726C198.594 9.838 198.678 9.91733 198.78 9.964C198.892 10.0013 199 10.02 199.102 10.02C199.196 10.02 199.275 10.006 199.34 9.978C199.415 9.94067 199.499 9.922 199.592 9.922C199.686 9.922 199.77 9.96867 199.844 10.062C199.928 10.146 199.97 10.258 199.97 10.398C199.97 10.566 199.872 10.7107 199.676 10.832C199.48 10.944 199.261 11 199.018 11C198.888 11 198.724 10.9907 198.528 10.972C198.342 10.9533 198.155 10.8927 197.968 10.79C197.782 10.6873 197.623 10.5193 197.492 10.286C197.371 10.0433 197.31 9.70733 197.31 9.278V2.46C197.31 2.30133 197.366 2.17067 197.478 2.068C197.59 1.956 197.726 1.9 197.884 1.9ZM201.648 9.852C201.564 9.73067 201.526 9.60467 201.536 9.474C201.545 9.334 201.624 9.21267 201.774 9.11C201.867 9.04467 201.974 9.01667 202.096 9.026C202.226 9.03533 202.343 9.096 202.446 9.208C202.707 9.516 203.006 9.76333 203.342 9.95C203.678 10.1273 204.088 10.216 204.574 10.216C204.798 10.2067 205.022 10.1693 205.246 10.104C205.47 10.0387 205.656 9.92667 205.806 9.768C205.964 9.6 206.044 9.38067 206.044 9.11C206.044 8.84867 205.964 8.64333 205.806 8.494C205.647 8.33533 205.442 8.20933 205.19 8.116C204.938 8.01333 204.662 7.92467 204.364 7.85C204.056 7.766 203.752 7.67267 203.454 7.57C203.155 7.458 202.884 7.32267 202.642 7.164C202.408 6.996 202.217 6.79067 202.068 6.548C201.928 6.296 201.858 5.99267 201.858 5.638C201.858 5.218 201.97 4.854 202.194 4.546C202.427 4.238 202.735 4 203.118 3.832C203.51 3.664 203.934 3.58 204.392 3.58C204.653 3.58 204.924 3.61267 205.204 3.678C205.493 3.734 205.773 3.83667 206.044 3.986C206.314 4.126 206.552 4.322 206.758 4.574C206.842 4.66733 206.888 4.784 206.898 4.924C206.907 5.064 206.846 5.19 206.716 5.302C206.613 5.37667 206.496 5.40933 206.366 5.4C206.244 5.39067 206.142 5.344 206.058 5.26C205.862 5.02667 205.614 4.84933 205.316 4.728C205.026 4.59733 204.704 4.532 204.35 4.532C204.126 4.532 203.906 4.56467 203.692 4.63C203.477 4.69533 203.295 4.80733 203.146 4.966C203.006 5.11533 202.936 5.32533 202.936 5.596C202.945 5.848 203.029 6.05333 203.188 6.212C203.346 6.37067 203.561 6.50133 203.832 6.604C204.102 6.69733 204.401 6.79067 204.728 6.884C205.026 6.95867 205.311 7.04733 205.582 7.15C205.862 7.24333 206.114 7.36933 206.338 7.528C206.562 7.68667 206.739 7.892 206.87 8.144C207 8.38667 207.066 8.69467 207.066 9.068C207.066 9.49733 206.944 9.87067 206.702 10.188C206.459 10.496 206.137 10.734 205.736 10.902C205.344 11.0607 204.919 11.14 204.462 11.14C203.948 11.14 203.44 11.042 202.936 10.846C202.441 10.65 202.012 10.3187 201.648 9.852ZM213.31 11C213.142 11 213.002 10.944 212.89 10.832C212.787 10.72 212.736 10.5847 212.736 10.426V1.76C212.736 1.60133 212.787 1.47067 212.89 1.368C213.002 1.256 213.137 1.2 213.296 1.2H218.21C218.369 1.2 218.504 1.25133 218.616 1.354C218.728 1.45667 218.784 1.58733 218.784 1.746C218.784 1.89533 218.728 2.02133 218.616 2.124C218.504 2.22667 218.369 2.278 218.21 2.278H213.8L213.884 2.166V5.596L213.814 5.442H217.58C217.739 5.442 217.874 5.498 217.986 5.61C218.098 5.71267 218.154 5.84333 218.154 6.002C218.154 6.142 218.098 6.268 217.986 6.38C217.874 6.48267 217.739 6.534 217.58 6.534H213.786L213.884 6.408V10.426C213.884 10.5847 213.828 10.72 213.716 10.832C213.604 10.944 213.469 11 213.31 11ZM221.534 10.426C221.534 10.5847 221.478 10.72 221.366 10.832C221.263 10.944 221.133 11 220.974 11C220.806 11 220.671 10.944 220.568 10.832C220.465 10.72 220.414 10.5847 220.414 10.426V4.21C220.414 4.05133 220.465 3.92067 220.568 3.818C220.68 3.706 220.815 3.65 220.974 3.65C221.133 3.65 221.263 3.706 221.366 3.818C221.478 3.92067 221.534 4.05133 221.534 4.21V10.426ZM220.974 2.712C220.741 2.712 220.568 2.66533 220.456 2.572C220.344 2.47867 220.288 2.334 220.288 2.138V1.942C220.288 1.746 220.349 1.60133 220.47 1.508C220.591 1.41467 220.764 1.368 220.988 1.368C221.212 1.368 221.38 1.41467 221.492 1.508C221.604 1.60133 221.66 1.746 221.66 1.942V2.138C221.66 2.334 221.599 2.47867 221.478 2.572C221.366 2.66533 221.198 2.712 220.974 2.712ZM224.778 10.426C224.778 10.5847 224.722 10.72 224.61 10.832C224.498 10.944 224.362 11 224.204 11C224.045 11 223.914 10.944 223.812 10.832C223.709 10.72 223.658 10.5847 223.658 10.426V1.2C223.658 1.04133 223.709 0.910666 223.812 0.807999C223.924 0.696 224.059 0.64 224.218 0.64C224.386 0.64 224.521 0.696 224.624 0.807999C224.726 0.910666 224.778 1.04133 224.778 1.2V10.426ZM228.028 10.426C228.028 10.5847 227.972 10.72 227.86 10.832C227.757 10.944 227.627 11 227.468 11C227.3 11 227.165 10.944 227.062 10.832C226.959 10.72 226.908 10.5847 226.908 10.426V4.21C226.908 4.05133 226.959 3.92067 227.062 3.818C227.174 3.706 227.309 3.65 227.468 3.65C227.627 3.65 227.757 3.706 227.86 3.818C227.972 3.92067 228.028 4.05133 228.028 4.21V10.426ZM227.468 2.712C227.235 2.712 227.062 2.66533 226.95 2.572C226.838 2.47867 226.782 2.334 226.782 2.138V1.942C226.782 1.746 226.843 1.60133 226.964 1.508C227.085 1.41467 227.258 1.368 227.482 1.368C227.706 1.368 227.874 1.41467 227.986 1.508C228.098 1.60133 228.154 1.746 228.154 1.942V2.138C228.154 2.334 228.093 2.47867 227.972 2.572C227.86 2.66533 227.692 2.712 227.468 2.712ZM233.61 3.65C234.245 3.65 234.814 3.80867 235.318 4.126C235.822 4.44333 236.219 4.882 236.508 5.442C236.807 6.002 236.956 6.646 236.956 7.374C236.956 8.09267 236.807 8.73667 236.508 9.306C236.219 9.866 235.822 10.3093 235.318 10.636C234.823 10.9533 234.263 11.112 233.638 11.112C233.293 11.112 232.966 11.0607 232.658 10.958C232.359 10.846 232.084 10.706 231.832 10.538C231.589 10.3607 231.384 10.1647 231.216 9.95C231.048 9.726 230.927 9.50667 230.852 9.292L231.16 9.096V13.226C231.16 13.3847 231.109 13.52 231.006 13.632C230.903 13.744 230.768 13.8 230.6 13.8C230.441 13.8 230.306 13.744 230.194 13.632C230.091 13.5293 230.04 13.394 230.04 13.226V4.28C230.04 4.12133 230.091 3.99067 230.194 3.888C230.306 3.776 230.441 3.72 230.6 3.72C230.768 3.72 230.903 3.776 231.006 3.888C231.109 3.99067 231.16 4.12133 231.16 4.28V5.526L230.95 5.414C231.015 5.18067 231.127 4.95667 231.286 4.742C231.454 4.52733 231.655 4.34067 231.888 4.182C232.131 4.014 232.397 3.88333 232.686 3.79C232.985 3.69667 233.293 3.65 233.61 3.65ZM233.484 4.686C233.017 4.686 232.602 4.80267 232.238 5.036C231.883 5.26933 231.603 5.58667 231.398 5.988C231.202 6.38933 231.104 6.85133 231.104 7.374C231.104 7.88733 231.202 8.34933 231.398 8.76C231.603 9.17067 231.883 9.49267 232.238 9.726C232.602 9.95933 233.017 10.076 233.484 10.076C233.951 10.076 234.361 9.95933 234.716 9.726C235.071 9.49267 235.351 9.17067 235.556 8.76C235.761 8.34933 235.864 7.88733 235.864 7.374C235.864 6.85133 235.761 6.38933 235.556 5.988C235.351 5.58667 235.071 5.26933 234.716 5.036C234.361 4.80267 233.951 4.686 233.484 4.686ZM239.718 10.426C239.718 10.5847 239.662 10.72 239.55 10.832C239.447 10.944 239.316 11 239.158 11C238.99 11 238.854 10.944 238.752 10.832C238.649 10.72 238.598 10.5847 238.598 10.426V4.21C238.598 4.05133 238.649 3.92067 238.752 3.818C238.864 3.706 238.999 3.65 239.158 3.65C239.316 3.65 239.447 3.706 239.55 3.818C239.662 3.92067 239.718 4.05133 239.718 4.21V10.426ZM239.158 2.712C238.924 2.712 238.752 2.66533 238.64 2.572C238.528 2.47867 238.472 2.334 238.472 2.138V1.942C238.472 1.746 238.532 1.60133 238.654 1.508C238.775 1.41467 238.948 1.368 239.172 1.368C239.396 1.368 239.564 1.41467 239.676 1.508C239.788 1.60133 239.844 1.746 239.844 1.942V2.138C239.844 2.334 239.783 2.47867 239.662 2.572C239.55 2.66533 239.382 2.712 239.158 2.712ZM245.327 3.58C245.962 3.58 246.461 3.71067 246.825 3.972C247.189 4.23333 247.446 4.58333 247.595 5.022C247.754 5.46067 247.833 5.95067 247.833 6.492V10.426C247.833 10.5847 247.777 10.72 247.665 10.832C247.563 10.944 247.432 11 247.273 11C247.115 11 246.979 10.944 246.867 10.832C246.765 10.72 246.713 10.5847 246.713 10.426V6.52C246.713 6.16533 246.657 5.848 246.545 5.568C246.443 5.27867 246.265 5.05 246.013 4.882C245.771 4.70467 245.435 4.616 245.005 4.616C244.613 4.616 244.254 4.70467 243.927 4.882C243.601 5.05 243.339 5.27867 243.143 5.568C242.947 5.848 242.849 6.16533 242.849 6.52V10.426C242.849 10.5847 242.793 10.72 242.681 10.832C242.579 10.944 242.448 11 242.289 11C242.131 11 241.995 10.944 241.883 10.832C241.781 10.72 241.729 10.5847 241.729 10.426V4.322C241.729 4.16333 241.781 4.03267 241.883 3.93C241.995 3.818 242.131 3.762 242.289 3.762C242.457 3.762 242.593 3.818 242.695 3.93C242.798 4.03267 242.849 4.16333 242.849 4.322V5.316L242.569 5.624C242.616 5.38133 242.723 5.13867 242.891 4.896C243.059 4.644 243.269 4.42 243.521 4.224C243.773 4.028 244.053 3.874 244.361 3.762C244.669 3.64067 244.991 3.58 245.327 3.58ZM256.779 7.36C256.779 8.088 256.616 8.73667 256.289 9.306C255.972 9.87533 255.538 10.3233 254.987 10.65C254.446 10.9767 253.834 11.14 253.153 11.14C252.472 11.14 251.856 10.9767 251.305 10.65C250.754 10.3233 250.316 9.87533 249.989 9.306C249.672 8.73667 249.513 8.088 249.513 7.36C249.513 6.632 249.672 5.98333 249.989 5.414C250.316 4.84467 250.754 4.39667 251.305 4.07C251.856 3.74333 252.472 3.58 253.153 3.58C253.834 3.58 254.446 3.74333 254.987 4.07C255.538 4.39667 255.972 4.84467 256.289 5.414C256.616 5.98333 256.779 6.632 256.779 7.36ZM255.659 7.36C255.659 6.81867 255.547 6.34267 255.323 5.932C255.108 5.52133 254.81 5.19933 254.427 4.966C254.054 4.73267 253.629 4.616 253.153 4.616C252.677 4.616 252.248 4.73267 251.865 4.966C251.492 5.19933 251.193 5.52133 250.969 5.932C250.745 6.34267 250.633 6.81867 250.633 7.36C250.633 7.892 250.745 8.36333 250.969 8.774C251.193 9.18467 251.492 9.51133 251.865 9.754C252.248 9.98733 252.677 10.104 253.153 10.104C253.629 10.104 254.054 9.98733 254.427 9.754C254.81 9.51133 255.108 9.18467 255.323 8.774C255.547 8.36333 255.659 7.892 255.659 7.36ZM263.551 10.426C263.551 10.5847 263.495 10.72 263.383 10.832C263.271 10.944 263.136 11 262.977 11C262.819 11 262.688 10.944 262.585 10.832C262.483 10.72 262.431 10.5847 262.431 10.426V1.2C262.431 1.04133 262.483 0.910666 262.585 0.807999C262.697 0.696 262.833 0.64 262.991 0.64C263.159 0.64 263.295 0.696 263.397 0.807999C263.5 0.910666 263.551 1.04133 263.551 1.2V10.426ZM266.802 10.426C266.802 10.5847 266.746 10.72 266.634 10.832C266.531 10.944 266.4 11 266.242 11C266.074 11 265.938 10.944 265.836 10.832C265.733 10.72 265.682 10.5847 265.682 10.426V4.21C265.682 4.05133 265.733 3.92067 265.836 3.818C265.948 3.706 266.083 3.65 266.242 3.65C266.4 3.65 266.531 3.706 266.634 3.818C266.746 3.92067 266.802 4.05133 266.802 4.21V10.426ZM266.242 2.712C266.008 2.712 265.836 2.66533 265.724 2.572C265.612 2.47867 265.556 2.334 265.556 2.138V1.942C265.556 1.746 265.616 1.60133 265.738 1.508C265.859 1.41467 266.032 1.368 266.256 1.368C266.48 1.368 266.648 1.41467 266.76 1.508C266.872 1.60133 266.928 1.746 266.928 1.942V2.138C266.928 2.334 266.867 2.47867 266.745 2.572C266.634 2.66533 266.466 2.712 266.242 2.712ZM268.813 3.636C268.925 3.636 269.033 3.66867 269.135 3.734C269.238 3.79 269.313 3.874 269.359 3.986L271.683 9.446L271.459 9.558L273.825 4C273.928 3.748 274.101 3.62667 274.343 3.636C274.483 3.636 274.605 3.68267 274.707 3.776C274.81 3.86933 274.861 3.986 274.861 4.126C274.861 4.182 274.852 4.238 274.833 4.294C274.824 4.34067 274.81 4.38267 274.791 4.42L272.089 10.636C271.987 10.8693 271.823 10.9907 271.599 11C271.478 11.0093 271.361 10.986 271.249 10.93C271.147 10.8647 271.072 10.7667 271.025 10.636L268.323 4.434C268.305 4.39667 268.286 4.35467 268.267 4.308C268.258 4.26133 268.253 4.20533 268.253 4.14C268.253 4.01867 268.3 3.90667 268.393 3.804C268.496 3.692 268.636 3.636 268.813 3.636ZM277.452 10.426C277.452 10.5847 277.396 10.72 277.284 10.832C277.181 10.944 277.051 11 276.892 11C276.724 11 276.589 10.944 276.486 10.832C276.383 10.72 276.332 10.5847 276.332 10.426V4.21C276.332 4.05133 276.383 3.92067 276.486 3.818C276.598 3.706 276.733 3.65 276.892 3.65C277.051 3.65 277.181 3.706 277.284 3.818C277.396 3.92067 277.452 4.05133 277.452 4.21V10.426ZM276.892 2.712C276.659 2.712 276.486 2.66533 276.374 2.572C276.262 2.47867 276.206 2.334 276.206 2.138V1.942C276.206 1.746 276.267 1.60133 276.388 1.508C276.509 1.41467 276.682 1.368 276.906 1.368C277.13 1.368 277.298 1.41467 277.41 1.508C277.522 1.60133 277.578 1.746 277.578 1.942V2.138C277.578 2.334 277.517 2.47867 277.396 2.572C277.284 2.66533 277.116 2.712 276.892 2.712ZM283.062 3.58C283.696 3.58 284.196 3.71067 284.56 3.972C284.924 4.23333 285.18 4.58333 285.33 5.022C285.488 5.46067 285.568 5.95067 285.568 6.492V10.426C285.568 10.5847 285.512 10.72 285.4 10.832C285.297 10.944 285.166 11 285.008 11C284.849 11 284.714 10.944 284.602 10.832C284.499 10.72 284.448 10.5847 284.448 10.426V6.52C284.448 6.16533 284.392 5.848 284.28 5.568C284.177 5.27867 284 5.05 283.748 4.882C283.505 4.70467 283.169 4.616 282.74 4.616C282.348 4.616 281.988 4.70467 281.662 4.882C281.335 5.05 281.074 5.27867 280.878 5.568C280.682 5.848 280.584 6.16533 280.584 6.52V10.426C280.584 10.5847 280.528 10.72 280.416 10.832C280.313 10.944 280.182 11 280.024 11C279.865 11 279.73 10.944 279.618 10.832C279.515 10.72 279.464 10.5847 279.464 10.426V4.322C279.464 4.16333 279.515 4.03267 279.618 3.93C279.73 3.818 279.865 3.762 280.024 3.762C280.192 3.762 280.327 3.818 280.43 3.93C280.532 4.03267 280.584 4.16333 280.584 4.322V5.316L280.304 5.624C280.35 5.38133 280.458 5.13867 280.626 4.896C280.794 4.644 281.004 4.42 281.256 4.224C281.508 4.028 281.788 3.874 282.096 3.762C282.404 3.64067 282.726 3.58 283.062 3.58ZM290.678 3.58C291.079 3.58 291.452 3.65 291.798 3.79C292.143 3.92067 292.442 4.09333 292.694 4.308C292.955 4.52267 293.156 4.74667 293.296 4.98C293.445 5.21333 293.52 5.43267 293.52 5.638L293.254 5.47V4.252C293.254 4.09333 293.305 3.96267 293.408 3.86C293.51 3.748 293.646 3.692 293.814 3.692C293.972 3.692 294.103 3.748 294.206 3.86C294.318 3.96267 294.374 4.09333 294.374 4.252V10.384C294.374 11.1493 294.21 11.784 293.884 12.288C293.566 12.792 293.137 13.17 292.596 13.422C292.054 13.674 291.448 13.8 290.776 13.8C290.496 13.8 290.188 13.7627 289.852 13.688C289.516 13.6133 289.217 13.52 288.956 13.408C288.694 13.3053 288.526 13.198 288.452 13.086C288.312 12.9927 288.223 12.8853 288.186 12.764C288.158 12.652 288.181 12.5447 288.256 12.442C288.34 12.3113 288.447 12.246 288.578 12.246C288.718 12.246 288.89 12.288 289.096 12.372C289.18 12.4 289.31 12.4467 289.488 12.512C289.674 12.5773 289.88 12.6333 290.104 12.68C290.337 12.736 290.566 12.764 290.79 12.764C291.583 12.764 292.19 12.554 292.61 12.134C293.039 11.7233 293.254 11.1773 293.254 10.496V9.194L293.408 9.264C293.352 9.52533 293.235 9.768 293.058 9.992C292.89 10.216 292.68 10.4167 292.428 10.594C292.185 10.762 291.914 10.8973 291.616 11C291.317 11.0933 291.014 11.14 290.706 11.14C290.052 11.14 289.464 10.9767 288.942 10.65C288.419 10.3233 288.004 9.87533 287.696 9.306C287.397 8.73667 287.248 8.088 287.248 7.36C287.248 6.62267 287.397 5.96933 287.696 5.4C288.004 4.83067 288.414 4.38733 288.928 4.07C289.45 3.74333 290.034 3.58 290.678 3.58ZM290.818 4.616C290.342 4.616 289.912 4.73733 289.53 4.98C289.156 5.21333 288.862 5.53533 288.648 5.946C288.442 6.35667 288.34 6.828 288.34 7.36C288.34 7.87333 288.442 8.34 288.648 8.76C288.862 9.17067 289.156 9.49733 289.53 9.74C289.912 9.98267 290.342 10.104 290.818 10.104C291.303 10.104 291.732 9.98733 292.106 9.754C292.479 9.51133 292.773 9.18467 292.988 8.774C293.202 8.36333 293.31 7.892 293.31 7.36C293.31 6.81867 293.202 6.34267 292.988 5.932C292.773 5.52133 292.479 5.19933 292.106 4.966C291.732 4.73267 291.303 4.616 290.818 4.616ZM9.576 21.636C9.72533 21.636 9.85133 21.6873 9.954 21.79C10.066 21.8927 10.122 22.028 10.122 22.196C10.122 22.2333 10.1173 22.2753 10.108 22.322C10.108 22.3593 10.0987 22.3967 10.08 22.434L7.924 28.636C7.87733 28.7573 7.798 28.8507 7.686 28.916C7.58333 28.9813 7.47133 29.0093 7.35 29C7.13533 28.9907 6.972 28.8693 6.86 28.636L5.096 24.212L5.376 24.254L3.78 28.636C3.67733 28.8693 3.514 28.9907 3.29 29C3.16867 29.0093 3.052 28.9813 2.94 28.916C2.828 28.8507 2.75333 28.7573 2.716 28.636L0.518 22.434C0.49 22.35 0.476 22.2707 0.476 22.196C0.476 22.0467 0.527333 21.916 0.63 21.804C0.732667 21.692 0.872667 21.636 1.05 21.636C1.162 21.636 1.26467 21.664 1.358 21.72C1.45133 21.776 1.51667 21.8647 1.554 21.986L3.444 27.502L3.15 27.488L4.788 23.288C4.88133 23.0547 5.054 22.938 5.306 22.938C5.43667 22.938 5.53933 22.9707 5.614 23.036C5.698 23.092 5.75867 23.176 5.796 23.288L7.504 27.488L7.154 27.516L9.044 21.986C9.128 21.7527 9.30533 21.636 9.576 21.636ZM12.7097 28.426C12.7097 28.5847 12.6537 28.72 12.5417 28.832C12.439 28.944 12.3084 29 12.1497 29C11.9817 29 11.8464 28.944 11.7437 28.832C11.641 28.72 11.5897 28.5847 11.5897 28.426V22.21C11.5897 22.0513 11.641 21.9207 11.7437 21.818C11.8557 21.706 11.991 21.65 12.1497 21.65C12.3084 21.65 12.439 21.706 12.5417 21.818C12.6537 21.9207 12.7097 22.0513 12.7097 22.21V28.426ZM12.1497 20.712C11.9164 20.712 11.7437 20.6653 11.6317 20.572C11.5197 20.4787 11.4637 20.334 11.4637 20.138V19.942C11.4637 19.746 11.5244 19.6013 11.6457 19.508C11.767 19.4147 11.9397 19.368 12.1637 19.368C12.3877 19.368 12.5557 19.4147 12.6677 19.508C12.7797 19.6013 12.8357 19.746 12.8357 19.942V20.138C12.8357 20.334 12.775 20.4787 12.6537 20.572C12.5417 20.6653 12.3737 20.712 12.1497 20.712ZM14.4415 21.804H17.7315C17.8809 21.804 18.0022 21.8553 18.0955 21.958C18.1982 22.0607 18.2495 22.182 18.2495 22.322C18.2495 22.4713 18.1982 22.5973 18.0955 22.7C18.0022 22.7933 17.8809 22.84 17.7315 22.84H14.4415C14.3015 22.84 14.1802 22.7887 14.0775 22.686C13.9749 22.5833 13.9235 22.4573 13.9235 22.308C13.9235 22.168 13.9749 22.0513 14.0775 21.958C14.1802 21.8553 14.3015 21.804 14.4415 21.804ZM15.9115 19.9C16.0702 19.9 16.2009 19.956 16.3035 20.068C16.4062 20.1707 16.4575 20.3013 16.4575 20.46V27.222C16.4575 27.446 16.4902 27.614 16.5555 27.726C16.6209 27.838 16.7049 27.9173 16.8075 27.964C16.9195 28.0013 17.0269 28.02 17.1295 28.02C17.2229 28.02 17.3022 28.006 17.3675 27.978C17.4422 27.9407 17.5262 27.922 17.6195 27.922C17.7129 27.922 17.7969 27.9687 17.8715 28.062C17.9555 28.146 17.9975 28.258 17.9975 28.398C17.9975 28.566 17.8995 28.7107 17.7035 28.832C17.5075 28.944 17.2882 29 17.0455 29C16.9149 29 16.7515 28.9907 16.5555 28.972C16.3689 28.9533 16.1822 28.8927 15.9955 28.79C15.8089 28.6873 15.6502 28.5193 15.5195 28.286C15.3982 28.0433 15.3375 27.7073 15.3375 27.278V20.46C15.3375 20.3013 15.3935 20.1707 15.5055 20.068C15.6175 19.956 15.7529 19.9 15.9115 19.9ZM23.3075 21.65C23.9235 21.65 24.4088 21.7853 24.7635 22.056C25.1275 22.3173 25.3842 22.672 25.5335 23.12C25.6922 23.5587 25.7715 24.0487 25.7715 24.59V28.426C25.7715 28.5847 25.7155 28.72 25.6035 28.832C25.5008 28.944 25.3702 29 25.2115 29C25.0528 29 24.9175 28.944 24.8055 28.832C24.7028 28.72 24.6515 28.5847 24.6515 28.426V24.59C24.6515 24.2353 24.6002 23.918 24.4975 23.638C24.3948 23.3487 24.2222 23.12 23.9795 22.952C23.7462 22.7747 23.4242 22.686 23.0135 22.686C22.6308 22.686 22.2808 22.7747 21.9635 22.952C21.6462 23.12 21.3942 23.3487 21.2075 23.638C21.0208 23.918 20.9275 24.2353 20.9275 24.59V28.426C20.9275 28.5847 20.8715 28.72 20.7595 28.832C20.6568 28.944 20.5262 29 20.3675 29C20.2088 29 20.0735 28.944 19.9615 28.832C19.8588 28.72 19.8075 28.5847 19.8075 28.426V19.2C19.8075 19.0413 19.8588 18.9107 19.9615 18.808C20.0735 18.696 20.2088 18.64 20.3675 18.64C20.5355 18.64 20.6708 18.696 20.7735 18.808C20.8762 18.9107 20.9275 19.0413 20.9275 19.2V23.386L20.6475 23.694C20.6942 23.4513 20.7968 23.2087 20.9555 22.966C21.1142 22.714 21.3148 22.49 21.5575 22.294C21.8002 22.098 22.0708 21.944 22.3695 21.832C22.6682 21.7107 22.9808 21.65 23.3075 21.65ZM41.5215 18.64C41.6802 18.64 41.8108 18.696 41.9135 18.808C42.0255 18.9107 42.0815 19.0413 42.0815 19.2V28.426C42.0815 28.5847 42.0255 28.72 41.9135 28.832C41.8108 28.944 41.6802 29 41.5215 29C41.3535 29 41.2182 28.944 41.1155 28.832C41.0128 28.72 40.9615 28.5847 40.9615 28.426V27.096L41.2275 26.998C41.2275 27.222 41.1575 27.46 41.0175 27.712C40.8775 27.9547 40.6862 28.1833 40.4435 28.398C40.2008 28.6127 39.9115 28.79 39.5755 28.93C39.2488 29.07 38.8942 29.14 38.5115 29.14C37.8862 29.14 37.3168 28.9767 36.8035 28.65C36.2995 28.3233 35.8982 27.8753 35.5995 27.306C35.3102 26.7367 35.1655 26.088 35.1655 25.36C35.1655 24.6227 35.3102 23.9693 35.5995 23.4C35.8982 22.8307 36.2995 22.3873 36.8035 22.07C37.3075 21.7433 37.8675 21.58 38.4835 21.58C38.8755 21.58 39.2442 21.6453 39.5895 21.776C39.9348 21.9067 40.2335 22.084 40.4855 22.308C40.7468 22.532 40.9522 22.7793 41.1015 23.05C41.2508 23.3207 41.3255 23.5913 41.3255 23.862L40.9615 23.778V19.2C40.9615 19.0413 41.0128 18.9107 41.1155 18.808C41.2182 18.696 41.3535 18.64 41.5215 18.64ZM38.6375 28.104C39.1042 28.104 39.5148 27.9873 39.8695 27.754C40.2335 27.5113 40.5135 27.1847 40.7095 26.774C40.9148 26.354 41.0175 25.8827 41.0175 25.36C41.0175 24.828 40.9148 24.3567 40.7095 23.946C40.5135 23.5353 40.2335 23.2133 39.8695 22.98C39.5148 22.7373 39.1042 22.616 38.6375 22.616C38.1802 22.616 37.7695 22.7373 37.4055 22.98C37.0508 23.2133 36.7708 23.5353 36.5655 23.946C36.3602 24.3567 36.2575 24.828 36.2575 25.36C36.2575 25.8733 36.3602 26.34 36.5655 26.76C36.7708 27.1707 37.0508 27.4973 37.4055 27.74C37.7695 27.9827 38.1802 28.104 38.6375 28.104ZM47.5031 29.14C46.7564 29.14 46.1031 28.9813 45.5431 28.664C44.9831 28.3467 44.5444 27.9127 44.2271 27.362C43.9191 26.802 43.7651 26.158 43.7651 25.43C43.7651 24.618 43.9238 23.9273 44.2411 23.358C44.5678 22.7793 44.9878 22.3407 45.5011 22.042C46.0238 21.734 46.5744 21.58 47.1531 21.58C47.5824 21.58 47.9978 21.6593 48.3991 21.818C48.8004 21.9767 49.1551 22.21 49.4631 22.518C49.7711 22.8167 50.0184 23.1807 50.2051 23.61C50.3918 24.03 50.4898 24.5013 50.4991 25.024C50.4991 25.1733 50.4431 25.2993 50.3311 25.402C50.2191 25.5047 50.0884 25.556 49.9391 25.556H44.4091L44.1571 24.59H49.5471L49.3231 24.786V24.478C49.2858 24.0953 49.1551 23.7687 48.9311 23.498C48.7164 23.218 48.4504 23.0033 48.1331 22.854C47.8251 22.7047 47.4984 22.63 47.1531 22.63C46.8731 22.63 46.5931 22.6813 46.3131 22.784C46.0424 22.8773 45.7951 23.036 45.5711 23.26C45.3564 23.4747 45.1791 23.7547 45.0391 24.1C44.9084 24.4453 44.8431 24.8607 44.8431 25.346C44.8431 25.8873 44.9504 26.3633 45.1651 26.774C45.3891 27.1847 45.6971 27.5113 46.0891 27.754C46.4811 27.9873 46.9384 28.104 47.4611 28.104C47.7878 28.104 48.0724 28.062 48.3151 27.978C48.5578 27.894 48.7678 27.7913 48.9451 27.67C49.1224 27.5393 49.2718 27.4087 49.3931 27.278C49.5144 27.194 49.6311 27.152 49.7431 27.152C49.8831 27.152 49.9951 27.1987 50.0791 27.292C50.1724 27.3853 50.2191 27.4973 50.2191 27.628C50.2191 27.7867 50.1444 27.9267 49.9951 28.048C49.7338 28.3373 49.3791 28.594 48.9311 28.818C48.4831 29.0327 48.0071 29.14 47.5031 29.14ZM55.7525 21.65C56.3872 21.65 56.9565 21.8087 57.4605 22.126C57.9645 22.4433 58.3612 22.882 58.6505 23.442C58.9492 24.002 59.0985 24.646 59.0985 25.374C59.0985 26.0927 58.9492 26.7367 58.6505 27.306C58.3612 27.866 57.9645 28.3093 57.4605 28.636C56.9658 28.9533 56.4058 29.112 55.7805 29.112C55.4352 29.112 55.1085 29.0607 54.8005 28.958C54.5018 28.846 54.2265 28.706 53.9745 28.538C53.7318 28.3607 53.5265 28.1647 53.3585 27.95C53.1905 27.726 53.0692 27.5067 52.9945 27.292L53.3025 27.096V31.226C53.3025 31.3847 53.2512 31.52 53.1485 31.632C53.0458 31.744 52.9105 31.8 52.7425 31.8C52.5838 31.8 52.4485 31.744 52.3365 31.632C52.2338 31.5293 52.1825 31.394 52.1825 31.226V22.28C52.1825 22.1213 52.2338 21.9907 52.3365 21.888C52.4485 21.776 52.5838 21.72 52.7425 21.72C52.9105 21.72 53.0458 21.776 53.1485 21.888C53.2512 21.9907 53.3025 22.1213 53.3025 22.28V23.526L53.0925 23.414C53.1578 23.1807 53.2698 22.9567 53.4285 22.742C53.5965 22.5273 53.7972 22.3407 54.0305 22.182C54.2732 22.014 54.5392 21.8833 54.8285 21.79C55.1272 21.6967 55.4352 21.65 55.7525 21.65ZM55.6265 22.686C55.1598 22.686 54.7445 22.8027 54.3805 23.036C54.0258 23.2693 53.7458 23.5867 53.5405 23.988C53.3445 24.3893 53.2465 24.8513 53.2465 25.374C53.2465 25.8873 53.3445 26.3493 53.5405 26.76C53.7458 27.1707 54.0258 27.4927 54.3805 27.726C54.7445 27.9593 55.1598 28.076 55.6265 28.076C56.0932 28.076 56.5038 27.9593 56.8585 27.726C57.2132 27.4927 57.4932 27.1707 57.6985 26.76C57.9038 26.3493 58.0065 25.8873 58.0065 25.374C58.0065 24.8513 57.9038 24.3893 57.6985 23.988C57.4932 23.5867 57.2132 23.2693 56.8585 23.036C56.5038 22.8027 56.0932 22.686 55.6265 22.686ZM61.3421 29C61.1834 29 61.0481 28.944 60.9361 28.832C60.8334 28.72 60.7821 28.5847 60.7821 28.426V22.322C60.7821 22.1633 60.8334 22.0327 60.9361 21.93C61.0481 21.818 61.1834 21.762 61.3421 21.762C61.5101 21.762 61.6454 21.818 61.7481 21.93C61.8508 22.0327 61.9021 22.1633 61.9021 22.322V24.17L61.7341 23.876C61.7901 23.5867 61.8881 23.3067 62.0281 23.036C62.1774 22.756 62.3641 22.5087 62.5881 22.294C62.8121 22.07 63.0688 21.8973 63.3581 21.776C63.6474 21.6453 63.9648 21.58 64.3101 21.58C64.5154 21.58 64.7021 21.6313 64.8701 21.734C65.0474 21.8273 65.1361 21.9627 65.1361 22.14C65.1361 22.336 65.0848 22.4807 64.9821 22.574C64.8794 22.6673 64.7628 22.714 64.6321 22.714C64.5108 22.714 64.3941 22.6907 64.2821 22.644C64.1701 22.588 64.0301 22.56 63.8621 22.56C63.6288 22.56 63.3954 22.6253 63.1621 22.756C62.9381 22.8773 62.7281 23.0547 62.5321 23.288C62.3454 23.5213 62.1914 23.7873 62.0701 24.086C61.9581 24.3753 61.9021 24.688 61.9021 25.024V28.426C61.9021 28.5847 61.8461 28.72 61.7341 28.832C61.6314 28.944 61.5008 29 61.3421 29ZM69.4328 29.14C68.6861 29.14 68.0328 28.9813 67.4728 28.664C66.9128 28.3467 66.4741 27.9127 66.1568 27.362C65.8488 26.802 65.6948 26.158 65.6948 25.43C65.6948 24.618 65.8534 23.9273 66.1708 23.358C66.4974 22.7793 66.9174 22.3407 67.4308 22.042C67.9534 21.734 68.5041 21.58 69.0828 21.58C69.5121 21.58 69.9274 21.6593 70.3288 21.818C70.7301 21.9767 71.0848 22.21 71.3928 22.518C71.7008 22.8167 71.9481 23.1807 72.1348 23.61C72.3214 24.03 72.4194 24.5013 72.4288 25.024C72.4288 25.1733 72.3728 25.2993 72.2608 25.402C72.1488 25.5047 72.0181 25.556 71.8688 25.556H66.3388L66.0868 24.59H71.4768L71.2528 24.786V24.478C71.2154 24.0953 71.0848 23.7687 70.8608 23.498C70.6461 23.218 70.3801 23.0033 70.0628 22.854C69.7548 22.7047 69.4281 22.63 69.0828 22.63C68.8028 22.63 68.5228 22.6813 68.2428 22.784C67.9721 22.8773 67.7248 23.036 67.5008 23.26C67.2861 23.4747 67.1088 23.7547 66.9688 24.1C66.8381 24.4453 66.7728 24.8607 66.7728 25.346C66.7728 25.8873 66.8801 26.3633 67.0948 26.774C67.3188 27.1847 67.6268 27.5113 68.0188 27.754C68.4108 27.9873 68.8681 28.104 69.3908 28.104C69.7174 28.104 70.0021 28.062 70.2448 27.978C70.4874 27.894 70.6974 27.7913 70.8748 27.67C71.0521 27.5393 71.2014 27.4087 71.3228 27.278C71.4441 27.194 71.5608 27.152 71.6728 27.152C71.8128 27.152 71.9248 27.1987 72.0088 27.292C72.1021 27.3853 72.1488 27.4973 72.1488 27.628C72.1488 27.7867 72.0741 27.9267 71.9248 28.048C71.6634 28.3373 71.3088 28.594 70.8608 28.818C70.4128 29.0327 69.9368 29.14 69.4328 29.14ZM73.7062 27.852C73.6222 27.7307 73.5848 27.6047 73.5942 27.474C73.6035 27.334 73.6828 27.2127 73.8322 27.11C73.9255 27.0447 74.0328 27.0167 74.1542 27.026C74.2848 27.0353 74.4015 27.096 74.5042 27.208C74.7655 27.516 75.0642 27.7633 75.4002 27.95C75.7362 28.1273 76.1468 28.216 76.6322 28.216C76.8562 28.2067 77.0802 28.1693 77.3042 28.104C77.5282 28.0387 77.7148 27.9267 77.8642 27.768C78.0228 27.6 78.1022 27.3807 78.1022 27.11C78.1022 26.8487 78.0228 26.6433 77.8642 26.494C77.7055 26.3353 77.5002 26.2093 77.2482 26.116C76.9962 26.0133 76.7208 25.9247 76.4222 25.85C76.1142 25.766 75.8108 25.6727 75.5122 25.57C75.2135 25.458 74.9428 25.3227 74.7002 25.164C74.4668 24.996 74.2755 24.7907 74.1262 24.548C73.9862 24.296 73.9162 23.9927 73.9162 23.638C73.9162 23.218 74.0282 22.854 74.2522 22.546C74.4855 22.238 74.7935 22 75.1762 21.832C75.5682 21.664 75.9928 21.58 76.4502 21.58C76.7115 21.58 76.9822 21.6127 77.2622 21.678C77.5515 21.734 77.8315 21.8367 78.1022 21.986C78.3728 22.126 78.6108 22.322 78.8162 22.574C78.9002 22.6673 78.9468 22.784 78.9562 22.924C78.9655 23.064 78.9048 23.19 78.7742 23.302C78.6715 23.3767 78.5548 23.4093 78.4242 23.4C78.3028 23.3907 78.2002 23.344 78.1162 23.26C77.9202 23.0267 77.6728 22.8493 77.3742 22.728C77.0848 22.5973 76.7628 22.532 76.4082 22.532C76.1842 22.532 75.9648 22.5647 75.7502 22.63C75.5355 22.6953 75.3535 22.8073 75.2042 22.966C75.0642 23.1153 74.9942 23.3253 74.9942 23.596C75.0035 23.848 75.0875 24.0533 75.2462 24.212C75.4048 24.3707 75.6195 24.5013 75.8902 24.604C76.1608 24.6973 76.4595 24.7907 76.7862 24.884C77.0848 24.9587 77.3695 25.0473 77.6402 25.15C77.9202 25.2433 78.1722 25.3693 78.3962 25.528C78.6202 25.6867 78.7975 25.892 78.9282 26.144C79.0588 26.3867 79.1242 26.6947 79.1242 27.068C79.1242 27.4973 79.0028 27.8707 78.7602 28.188C78.5175 28.496 78.1955 28.734 77.7942 28.902C77.4022 29.0607 76.9775 29.14 76.5202 29.14C76.0068 29.14 75.4982 29.042 74.9942 28.846C74.4995 28.65 74.0702 28.3187 73.7062 27.852ZM80.337 27.852C80.253 27.7307 80.2157 27.6047 80.225 27.474C80.2344 27.334 80.3137 27.2127 80.463 27.11C80.5564 27.0447 80.6637 27.0167 80.785 27.026C80.9157 27.0353 81.0324 27.096 81.135 27.208C81.3964 27.516 81.695 27.7633 82.031 27.95C82.367 28.1273 82.7777 28.216 83.263 28.216C83.487 28.2067 83.711 28.1693 83.935 28.104C84.159 28.0387 84.3457 27.9267 84.495 27.768C84.6537 27.6 84.733 27.3807 84.733 27.11C84.733 26.8487 84.6537 26.6433 84.495 26.494C84.3364 26.3353 84.131 26.2093 83.879 26.116C83.627 26.0133 83.3517 25.9247 83.053 25.85C82.745 25.766 82.4417 25.6727 82.143 25.57C81.8444 25.458 81.5737 25.3227 81.331 25.164C81.0977 24.996 80.9064 24.7907 80.757 24.548C80.617 24.296 80.547 23.9927 80.547 23.638C80.547 23.218 80.659 22.854 80.883 22.546C81.1164 22.238 81.4244 22 81.807 21.832C82.199 21.664 82.6237 21.58 83.081 21.58C83.3424 21.58 83.613 21.6127 83.893 21.678C84.1824 21.734 84.4624 21.8367 84.733 21.986C85.0037 22.126 85.2417 22.322 85.447 22.574C85.531 22.6673 85.5777 22.784 85.587 22.924C85.5964 23.064 85.5357 23.19 85.405 23.302C85.3024 23.3767 85.1857 23.4093 85.055 23.4C84.9337 23.3907 84.831 23.344 84.747 23.26C84.551 23.0267 84.3037 22.8493 84.005 22.728C83.7157 22.5973 83.3937 22.532 83.039 22.532C82.815 22.532 82.5957 22.5647 82.381 22.63C82.1664 22.6953 81.9844 22.8073 81.835 22.966C81.695 23.1153 81.625 23.3253 81.625 23.596C81.6344 23.848 81.7184 24.0533 81.877 24.212C82.0357 24.3707 82.2504 24.5013 82.521 24.604C82.7917 24.6973 83.0904 24.7907 83.417 24.884C83.7157 24.9587 84.0004 25.0473 84.271 25.15C84.551 25.2433 84.803 25.3693 85.027 25.528C85.251 25.6867 85.4284 25.892 85.559 26.144C85.6897 26.3867 85.755 26.6947 85.755 27.068C85.755 27.4973 85.6337 27.8707 85.391 28.188C85.1484 28.496 84.8264 28.734 84.425 28.902C84.033 29.0607 83.6084 29.14 83.151 29.14C82.6377 29.14 82.129 29.042 81.625 28.846C81.1304 28.65 80.701 28.3187 80.337 27.852ZM88.4519 28.426C88.4519 28.5847 88.3959 28.72 88.2839 28.832C88.1812 28.944 88.0506 29 87.8919 29C87.7239 29 87.5886 28.944 87.4859 28.832C87.3832 28.72 87.3319 28.5847 87.3319 28.426V22.21C87.3319 22.0513 87.3832 21.9207 87.4859 21.818C87.5979 21.706 87.7332 21.65 87.8919 21.65C88.0506 21.65 88.1812 21.706 88.2839 21.818C88.3959 21.9207 88.4519 22.0513 88.4519 22.21V28.426ZM87.8919 20.712C87.6586 20.712 87.4859 20.6653 87.3739 20.572C87.2619 20.4787 87.2059 20.334 87.2059 20.138V19.942C87.2059 19.746 87.2666 19.6013 87.3879 19.508C87.5092 19.4147 87.6819 19.368 87.9059 19.368C88.1299 19.368 88.2979 19.4147 88.4099 19.508C88.5219 19.6013 88.5779 19.746 88.5779 19.942V20.138C88.5779 20.334 88.5172 20.4787 88.3959 20.572C88.2839 20.6653 88.1159 20.712 87.8919 20.712ZM97.3377 25.36C97.3377 26.088 97.1744 26.7367 96.8477 27.306C96.5304 27.8753 96.0964 28.3233 95.5457 28.65C95.0044 28.9767 94.3931 29.14 93.7117 29.14C93.0304 29.14 92.4144 28.9767 91.8637 28.65C91.3131 28.3233 90.8744 27.8753 90.5477 27.306C90.2304 26.7367 90.0717 26.088 90.0717 25.36C90.0717 24.632 90.2304 23.9833 90.5477 23.414C90.8744 22.8447 91.3131 22.3967 91.8637 22.07C92.4144 21.7433 93.0304 21.58 93.7117 21.58C94.3931 21.58 95.0044 21.7433 95.5457 22.07C96.0964 22.3967 96.5304 22.8447 96.8477 23.414C97.1744 23.9833 97.3377 24.632 97.3377 25.36ZM96.2177 25.36C96.2177 24.8187 96.1057 24.3427 95.8817 23.932C95.6671 23.5213 95.3684 23.1993 94.9857 22.966C94.6124 22.7327 94.1877 22.616 93.7117 22.616C93.2357 22.616 92.8064 22.7327 92.4237 22.966C92.0504 23.1993 91.7517 23.5213 91.5277 23.932C91.3037 24.3427 91.1917 24.8187 91.1917 25.36C91.1917 25.892 91.3037 26.3633 91.5277 26.774C91.7517 27.1847 92.0504 27.5113 92.4237 27.754C92.8064 27.9873 93.2357 28.104 93.7117 28.104C94.1877 28.104 94.6124 27.9873 94.9857 27.754C95.3684 27.5113 95.6671 27.1847 95.8817 26.774C96.1057 26.3633 96.2177 25.892 96.2177 25.36ZM102.62 21.58C103.255 21.58 103.754 21.7107 104.118 21.972C104.482 22.2333 104.739 22.5833 104.888 23.022C105.047 23.4607 105.126 23.9507 105.126 24.492V28.426C105.126 28.5847 105.07 28.72 104.958 28.832C104.856 28.944 104.725 29 104.566 29C104.408 29 104.272 28.944 104.16 28.832C104.058 28.72 104.006 28.5847 104.006 28.426V24.52C104.006 24.1653 103.95 23.848 103.838 23.568C103.736 23.2787 103.558 23.05 103.306 22.882C103.064 22.7047 102.728 22.616 102.298 22.616C101.906 22.616 101.547 22.7047 101.22 22.882C100.894 23.05 100.632 23.2787 100.436 23.568C100.24 23.848 100.142 24.1653 100.142 24.52V28.426C100.142 28.5847 100.086 28.72 99.9743 28.832C99.8717 28.944 99.741 29 99.5823 29C99.4237 29 99.2883 28.944 99.1763 28.832C99.0737 28.72 99.0223 28.5847 99.0223 28.426V22.322C99.0223 22.1633 99.0737 22.0327 99.1763 21.93C99.2883 21.818 99.4237 21.762 99.5823 21.762C99.7503 21.762 99.8857 21.818 99.9883 21.93C100.091 22.0327 100.142 22.1633 100.142 22.322V23.316L99.8623 23.624C99.909 23.3813 100.016 23.1387 100.184 22.896C100.352 22.644 100.562 22.42 100.814 22.224C101.066 22.028 101.346 21.874 101.654 21.762C101.962 21.6407 102.284 21.58 102.62 21.58ZM117.018 21.692C117.176 21.692 117.307 21.748 117.41 21.86C117.522 21.9627 117.578 22.0933 117.578 22.252V28.426C117.578 28.5847 117.522 28.72 117.41 28.832C117.307 28.944 117.176 29 117.018 29C116.85 29 116.714 28.944 116.612 28.832C116.509 28.72 116.458 28.5847 116.458 28.426V27.096L116.724 27.068C116.724 27.2733 116.654 27.4973 116.514 27.74C116.374 27.9827 116.182 28.2113 115.94 28.426C115.697 28.6313 115.408 28.804 115.072 28.944C114.745 29.0747 114.39 29.14 114.008 29.14C113.373 29.14 112.804 28.9767 112.3 28.65C111.796 28.314 111.394 27.8613 111.096 27.292C110.806 26.7227 110.662 26.074 110.662 25.346C110.662 24.6087 110.806 23.96 111.096 23.4C111.394 22.8307 111.796 22.3873 112.3 22.07C112.804 21.7433 113.364 21.58 113.98 21.58C114.381 21.58 114.754 21.6453 115.1 21.776C115.445 21.9067 115.744 22.084 115.996 22.308C116.257 22.532 116.458 22.7793 116.598 23.05C116.747 23.3207 116.822 23.5913 116.822 23.862L116.458 23.778V22.252C116.458 22.0933 116.509 21.9627 116.612 21.86C116.714 21.748 116.85 21.692 117.018 21.692ZM114.134 28.104C114.6 28.104 115.011 27.9827 115.366 27.74C115.73 27.4973 116.01 27.1707 116.206 26.76C116.411 26.34 116.514 25.8687 116.514 25.346C116.514 24.8327 116.411 24.3707 116.206 23.96C116.01 23.54 115.73 23.2133 115.366 22.98C115.011 22.7373 114.6 22.616 114.134 22.616C113.676 22.616 113.266 22.7327 112.902 22.966C112.547 23.1993 112.267 23.5213 112.062 23.932C111.856 24.3427 111.754 24.814 111.754 25.346C111.754 25.8687 111.852 26.34 112.048 26.76C112.253 27.1707 112.533 27.4973 112.888 27.74C113.252 27.9827 113.667 28.104 114.134 28.104ZM123.251 21.58C123.886 21.58 124.385 21.7107 124.749 21.972C125.113 22.2333 125.37 22.5833 125.519 23.022C125.678 23.4607 125.757 23.9507 125.757 24.492V28.426C125.757 28.5847 125.701 28.72 125.589 28.832C125.487 28.944 125.356 29 125.197 29C125.039 29 124.903 28.944 124.791 28.832C124.689 28.72 124.637 28.5847 124.637 28.426V24.52C124.637 24.1653 124.581 23.848 124.469 23.568C124.367 23.2787 124.189 23.05 123.937 22.882C123.695 22.7047 123.359 22.616 122.929 22.616C122.537 22.616 122.178 22.7047 121.851 22.882C121.525 23.05 121.263 23.2787 121.067 23.568C120.871 23.848 120.773 24.1653 120.773 24.52V28.426C120.773 28.5847 120.717 28.72 120.605 28.832C120.503 28.944 120.372 29 120.213 29C120.055 29 119.919 28.944 119.807 28.832C119.705 28.72 119.653 28.5847 119.653 28.426V22.322C119.653 22.1633 119.705 22.0327 119.807 21.93C119.919 21.818 120.055 21.762 120.213 21.762C120.381 21.762 120.517 21.818 120.619 21.93C120.722 22.0327 120.773 22.1633 120.773 22.322V23.316L120.493 23.624C120.54 23.3813 120.647 23.1387 120.815 22.896C120.983 22.644 121.193 22.42 121.445 22.224C121.697 22.028 121.977 21.874 122.285 21.762C122.593 21.6407 122.915 21.58 123.251 21.58ZM133.793 18.64C133.952 18.64 134.082 18.696 134.185 18.808C134.297 18.9107 134.353 19.0413 134.353 19.2V28.426C134.353 28.5847 134.297 28.72 134.185 28.832C134.082 28.944 133.952 29 133.793 29C133.625 29 133.49 28.944 133.387 28.832C133.284 28.72 133.233 28.5847 133.233 28.426V27.096L133.499 26.998C133.499 27.222 133.429 27.46 133.289 27.712C133.149 27.9547 132.958 28.1833 132.715 28.398C132.472 28.6127 132.183 28.79 131.847 28.93C131.52 29.07 131.166 29.14 130.783 29.14C130.158 29.14 129.588 28.9767 129.075 28.65C128.571 28.3233 128.17 27.8753 127.871 27.306C127.582 26.7367 127.437 26.088 127.437 25.36C127.437 24.6227 127.582 23.9693 127.871 23.4C128.17 22.8307 128.571 22.3873 129.075 22.07C129.579 21.7433 130.139 21.58 130.755 21.58C131.147 21.58 131.516 21.6453 131.861 21.776C132.206 21.9067 132.505 22.084 132.757 22.308C133.018 22.532 133.224 22.7793 133.373 23.05C133.522 23.3207 133.597 23.5913 133.597 23.862L133.233 23.778V19.2C133.233 19.0413 133.284 18.9107 133.387 18.808C133.49 18.696 133.625 18.64 133.793 18.64ZM130.909 28.104C131.376 28.104 131.786 27.9873 132.141 27.754C132.505 27.5113 132.785 27.1847 132.981 26.774C133.186 26.354 133.289 25.8827 133.289 25.36C133.289 24.828 133.186 24.3567 132.981 23.946C132.785 23.5353 132.505 23.2133 132.141 22.98C131.786 22.7373 131.376 22.616 130.909 22.616C130.452 22.616 130.041 22.7373 129.677 22.98C129.322 23.2133 129.042 23.5353 128.837 23.946C128.632 24.3567 128.529 24.828 128.529 25.36C128.529 25.8733 128.632 26.34 128.837 26.76C129.042 27.1707 129.322 27.4973 129.677 27.74C130.041 27.9827 130.452 28.104 130.909 28.104ZM146.248 21.692C146.407 21.692 146.537 21.748 146.64 21.86C146.752 21.9627 146.808 22.0933 146.808 22.252V28.426C146.808 28.5847 146.752 28.72 146.64 28.832C146.537 28.944 146.407 29 146.248 29C146.08 29 145.945 28.944 145.842 28.832C145.739 28.72 145.688 28.5847 145.688 28.426V27.096L145.954 27.068C145.954 27.2733 145.884 27.4973 145.744 27.74C145.604 27.9827 145.413 28.2113 145.17 28.426C144.927 28.6313 144.638 28.804 144.302 28.944C143.975 29.0747 143.621 29.14 143.238 29.14C142.603 29.14 142.034 28.9767 141.53 28.65C141.026 28.314 140.625 27.8613 140.326 27.292C140.037 26.7227 139.892 26.074 139.892 25.346C139.892 24.6087 140.037 23.96 140.326 23.4C140.625 22.8307 141.026 22.3873 141.53 22.07C142.034 21.7433 142.594 21.58 143.21 21.58C143.611 21.58 143.985 21.6453 144.33 21.776C144.675 21.9067 144.974 22.084 145.226 22.308C145.487 22.532 145.688 22.7793 145.828 23.05C145.977 23.3207 146.052 23.5913 146.052 23.862L145.688 23.778V22.252C145.688 22.0933 145.739 21.9627 145.842 21.86C145.945 21.748 146.08 21.692 146.248 21.692ZM143.364 28.104C143.831 28.104 144.241 27.9827 144.596 27.74C144.96 27.4973 145.24 27.1707 145.436 26.76C145.641 26.34 145.744 25.8687 145.744 25.346C145.744 24.8327 145.641 24.3707 145.436 23.96C145.24 23.54 144.96 23.2133 144.596 22.98C144.241 22.7373 143.831 22.616 143.364 22.616C142.907 22.616 142.496 22.7327 142.132 22.966C141.777 23.1993 141.497 23.5213 141.292 23.932C141.087 24.3427 140.984 24.814 140.984 25.346C140.984 25.8687 141.082 26.34 141.278 26.76C141.483 27.1707 141.763 27.4973 142.118 27.74C142.482 27.9827 142.897 28.104 143.364 28.104ZM152.482 21.58C153.116 21.58 153.616 21.7107 153.98 21.972C154.344 22.2333 154.6 22.5833 154.75 23.022C154.908 23.4607 154.988 23.9507 154.988 24.492V28.426C154.988 28.5847 154.932 28.72 154.82 28.832C154.717 28.944 154.586 29 154.428 29C154.269 29 154.134 28.944 154.022 28.832C153.919 28.72 153.868 28.5847 153.868 28.426V24.52C153.868 24.1653 153.812 23.848 153.7 23.568C153.597 23.2787 153.42 23.05 153.168 22.882C152.925 22.7047 152.589 22.616 152.16 22.616C151.768 22.616 151.408 22.7047 151.082 22.882C150.755 23.05 150.494 23.2787 150.298 23.568C150.102 23.848 150.004 24.1653 150.004 24.52V28.426C150.004 28.5847 149.948 28.72 149.836 28.832C149.733 28.944 149.602 29 149.444 29C149.285 29 149.15 28.944 149.038 28.832C148.935 28.72 148.884 28.5847 148.884 28.426V22.322C148.884 22.1633 148.935 22.0327 149.038 21.93C149.15 21.818 149.285 21.762 149.444 21.762C149.612 21.762 149.747 21.818 149.85 21.93C149.952 22.0327 150.004 22.1633 150.004 22.322V23.316L149.724 23.624C149.77 23.3813 149.878 23.1387 150.046 22.896C150.214 22.644 150.424 22.42 150.676 22.224C150.928 22.028 151.208 21.874 151.516 21.762C151.824 21.6407 152.146 21.58 152.482 21.58ZM156.989 21.678C157.167 21.678 157.316 21.7573 157.437 21.916L162.309 28.132C162.384 28.2347 162.421 28.3467 162.421 28.468C162.421 28.6267 162.365 28.762 162.253 28.874C162.141 28.986 162.011 29.042 161.861 29.042C161.684 29.042 161.53 28.958 161.399 28.79L156.527 22.588C156.453 22.4853 156.415 22.3733 156.415 22.252C156.415 22.084 156.471 21.9487 156.583 21.846C156.705 21.734 156.84 21.678 156.989 21.678ZM156.989 29.028C156.868 29.028 156.747 28.9813 156.625 28.888C156.504 28.7947 156.443 28.6733 156.443 28.524C156.443 28.4027 156.49 28.286 156.583 28.174L158.879 25.276L159.467 26.2L157.437 28.804C157.325 28.9533 157.176 29.028 156.989 29.028ZM161.861 21.678C162.02 21.678 162.146 21.7293 162.239 21.832C162.342 21.9347 162.393 22.0513 162.393 22.182C162.393 22.238 162.379 22.2987 162.351 22.364C162.333 22.4293 162.3 22.49 162.253 22.546L159.971 25.472L159.383 24.618L161.399 21.93C161.53 21.762 161.684 21.678 161.861 21.678ZM164.932 28.426C164.932 28.5847 164.876 28.72 164.764 28.832C164.662 28.944 164.531 29 164.372 29C164.204 29 164.069 28.944 163.966 28.832C163.864 28.72 163.812 28.5847 163.812 28.426V22.21C163.812 22.0513 163.864 21.9207 163.966 21.818C164.078 21.706 164.214 21.65 164.372 21.65C164.531 21.65 164.662 21.706 164.764 21.818C164.876 21.9207 164.932 22.0513 164.932 22.21V28.426ZM164.372 20.712C164.139 20.712 163.966 20.6653 163.854 20.572C163.742 20.4787 163.686 20.334 163.686 20.138V19.942C163.686 19.746 163.747 19.6013 163.868 19.508C163.99 19.4147 164.162 19.368 164.386 19.368C164.61 19.368 164.778 19.4147 164.89 19.508C165.002 19.6013 165.058 19.746 165.058 19.942V20.138C165.058 20.334 164.998 20.4787 164.876 20.572C164.764 20.6653 164.596 20.712 164.372 20.712ZM170.29 29.14C169.544 29.14 168.89 28.9813 168.33 28.664C167.77 28.3467 167.332 27.9127 167.014 27.362C166.706 26.802 166.552 26.158 166.552 25.43C166.552 24.618 166.711 23.9273 167.028 23.358C167.355 22.7793 167.775 22.3407 168.288 22.042C168.811 21.734 169.362 21.58 169.94 21.58C170.37 21.58 170.785 21.6593 171.186 21.818C171.588 21.9767 171.942 22.21 172.25 22.518C172.558 22.8167 172.806 23.1807 172.992 23.61C173.179 24.03 173.277 24.5013 173.286 25.024C173.286 25.1733 173.23 25.2993 173.118 25.402C173.006 25.5047 172.876 25.556 172.726 25.556H167.196L166.944 24.59H172.334L172.11 24.786V24.478C172.073 24.0953 171.942 23.7687 171.718 23.498C171.504 23.218 171.238 23.0033 170.92 22.854C170.612 22.7047 170.286 22.63 169.94 22.63C169.66 22.63 169.38 22.6813 169.1 22.784C168.83 22.8773 168.582 23.036 168.358 23.26C168.144 23.4747 167.966 23.7547 167.826 24.1C167.696 24.4453 167.63 24.8607 167.63 25.346C167.63 25.8873 167.738 26.3633 167.952 26.774C168.176 27.1847 168.484 27.5113 168.876 27.754C169.268 27.9873 169.726 28.104 170.248 28.104C170.575 28.104 170.86 28.062 171.102 27.978C171.345 27.894 171.555 27.7913 171.732 27.67C171.91 27.5393 172.059 27.4087 172.18 27.278C172.302 27.194 172.418 27.152 172.53 27.152C172.67 27.152 172.782 27.1987 172.866 27.292C172.96 27.3853 173.006 27.4973 173.006 27.628C173.006 27.7867 172.932 27.9267 172.782 28.048C172.521 28.3373 172.166 28.594 171.718 28.818C171.27 29.0327 170.794 29.14 170.29 29.14ZM174.69 21.804H177.98C178.129 21.804 178.25 21.8553 178.344 21.958C178.446 22.0607 178.498 22.182 178.498 22.322C178.498 22.4713 178.446 22.5973 178.344 22.7C178.25 22.7933 178.129 22.84 177.98 22.84H174.69C174.55 22.84 174.428 22.7887 174.326 22.686C174.223 22.5833 174.172 22.4573 174.172 22.308C174.172 22.168 174.223 22.0513 174.326 21.958C174.428 21.8553 174.55 21.804 174.69 21.804ZM176.16 19.9C176.318 19.9 176.449 19.956 176.552 20.068C176.654 20.1707 176.706 20.3013 176.706 20.46V27.222C176.706 27.446 176.738 27.614 176.804 27.726C176.869 27.838 176.953 27.9173 177.056 27.964C177.168 28.0013 177.275 28.02 177.378 28.02C177.471 28.02 177.55 28.006 177.616 27.978C177.69 27.9407 177.774 27.922 177.868 27.922C177.961 27.922 178.045 27.9687 178.12 28.062C178.204 28.146 178.246 28.258 178.246 28.398C178.246 28.566 178.148 28.7107 177.952 28.832C177.756 28.944 177.536 29 177.294 29C177.163 29 177 28.9907 176.804 28.972C176.617 28.9533 176.43 28.8927 176.244 28.79C176.057 28.6873 175.898 28.5193 175.768 28.286C175.646 28.0433 175.586 27.7073 175.586 27.278V20.46C175.586 20.3013 175.642 20.1707 175.754 20.068C175.866 19.956 176.001 19.9 176.16 19.9ZM185.474 21.65C185.632 21.65 185.763 21.706 185.866 21.818C185.978 21.9207 186.034 22.0513 186.034 22.21V28.314C186.034 29.098 185.88 29.7467 185.572 30.26C185.264 30.7827 184.848 31.17 184.326 31.422C183.812 31.674 183.229 31.8 182.576 31.8C182.212 31.8 181.862 31.7627 181.526 31.688C181.19 31.6133 180.914 31.5153 180.7 31.394C180.522 31.31 180.396 31.2027 180.322 31.072C180.256 30.9507 180.247 30.82 180.294 30.68C180.359 30.512 180.452 30.3953 180.574 30.33C180.704 30.2647 180.84 30.2647 180.98 30.33C181.129 30.3953 181.344 30.484 181.624 30.596C181.913 30.7173 182.235 30.778 182.59 30.778C183.075 30.778 183.49 30.6847 183.836 30.498C184.181 30.3113 184.447 30.036 184.634 29.672C184.82 29.3173 184.914 28.874 184.914 28.342V27.348L185.082 27.698C184.932 27.9873 184.732 28.2393 184.48 28.454C184.228 28.6687 183.938 28.8367 183.612 28.958C183.285 29.0793 182.926 29.14 182.534 29.14C182.002 29.14 181.549 29.028 181.176 28.804C180.812 28.5707 180.532 28.2533 180.336 27.852C180.149 27.4413 180.056 26.97 180.056 26.438V22.21C180.056 22.0513 180.107 21.9207 180.21 21.818C180.322 21.706 180.457 21.65 180.616 21.65C180.784 21.65 180.919 21.706 181.022 21.818C181.124 21.9207 181.176 22.0513 181.176 22.21V26.186C181.176 26.8207 181.316 27.3013 181.596 27.628C181.876 27.9453 182.31 28.104 182.898 28.104C183.271 28.104 183.607 28.02 183.906 27.852C184.214 27.684 184.456 27.4553 184.634 27.166C184.82 26.8673 184.914 26.5407 184.914 26.186V22.21C184.914 22.0513 184.965 21.9207 185.068 21.818C185.17 21.706 185.306 21.65 185.474 21.65ZM188.444 28.986C188.248 28.986 188.094 28.93 187.982 28.818C187.88 28.706 187.828 28.552 187.828 28.356V28.076C187.828 27.8707 187.88 27.712 187.982 27.6C188.094 27.488 188.248 27.432 188.444 27.432H188.556C188.762 27.432 188.916 27.488 189.018 27.6C189.121 27.712 189.172 27.8707 189.172 28.076V28.356C189.172 28.552 189.121 28.706 189.018 28.818C188.916 28.93 188.762 28.986 188.556 28.986H188.444Z" fill="black" fill-opacity="0.6"/>
</svg>
