<svg width="155" height="28" viewBox="0 0 155 28" fill="none" xmlns="http://www.w3.org/2000/svg">
<path d="M5.12 25.2C5.228 25.776 5.48 26.208 5.84 26.532C6.2 26.856 6.668 27 7.208 27H9.512C10.016 27 10.484 26.856 10.88 26.532C11.24 26.244 11.492 25.812 11.636 25.236L15.38 8.352C15.416 8.208 15.488 8.136 15.56 8.136C15.632 8.136 15.668 8.208 15.74 8.352L19.484 25.236C19.592 25.812 19.844 26.244 20.24 26.532C20.6 26.856 21.068 27 21.608 27H23.948C24.452 27 24.92 26.856 25.28 26.532C25.64 26.208 25.892 25.776 26.036 25.2L30.32 3.852C30.428 3.24 30.356 2.772 30.068 2.412C29.78 2.052 29.384 1.872 28.88 1.872H27.08C25.964 1.872 25.316 2.448 25.136 3.564L23.588 12.672C23.264 14.652 22.94 17.136 22.616 20.088C22.256 16.848 21.896 14.4 21.572 12.672L20.528 7.776C20.24 6.48 19.664 5.436 18.872 4.644C18.08 3.852 16.964 3.42 15.56 3.42C14.12 3.42 13.004 3.852 12.212 4.644C11.42 5.436 10.88 6.48 10.592 7.776L9.548 12.672C9.224 14.076 8.864 16.488 8.504 19.908C8.108 16.596 7.784 14.184 7.568 12.672L6.02 3.564C5.804 2.448 5.192 1.872 4.148 1.872H2.24C1.7 1.872 1.304 2.052 1.052 2.412C0.764 2.772 0.692 3.24 0.836 3.852L5.12 25.2ZM32.1912 19.512C32.1912 21.744 32.8752 23.616 34.3152 25.164C35.7552 26.712 37.8792 27.468 40.7592 27.468C42.2352 27.468 43.8192 27.216 45.5112 26.712C46.5912 26.388 46.9872 25.668 46.6992 24.588L46.5192 23.904C46.2312 22.896 45.5112 22.5 44.3592 22.752C42.9552 23.076 41.7312 23.22 40.7232 23.22C38.3832 23.22 37.2312 21.996 37.2312 19.512V19.224H47.1312C47.3832 19.224 47.5992 19.152 47.7792 18.972C47.9592 18.792 48.0672 18.576 48.0672 18.288V15.696C48.0672 13.608 47.3472 11.736 45.9072 10.152C44.4672 8.568 42.5232 7.776 40.1112 7.776C37.6632 7.776 35.7552 8.568 34.3152 10.116C32.8752 11.7 32.1912 13.536 32.1912 15.696V19.512ZM37.2312 15.768V15.3C37.2312 14.364 37.4472 13.608 37.9152 12.96C38.3472 12.348 39.1032 12.024 40.1472 12.024C42.0552 12.024 43.0272 13.14 43.0272 15.3V15.768H37.2312ZM51.7867 22.752C51.7867 25.236 52.9747 26.748 55.4227 27.288C56.4307 27.468 57.0787 27.108 57.3307 26.172L57.6547 24.984C57.8347 24.264 57.6547 23.724 57.1507 23.364C56.9347 23.22 56.8267 22.824 56.8267 22.212V2.592C56.8267 2.088 56.6467 1.656 56.3587 1.332C56.0347 1.044 55.6027 0.864 55.0987 0.864H53.5147C52.9747 0.864 52.5427 1.044 52.2547 1.332C51.9307 1.656 51.7867 2.088 51.7867 2.592V22.752ZM60.7732 18.792C60.7732 21.384 61.4572 23.472 62.8972 25.056C64.3012 26.676 66.3892 27.468 69.1252 27.468C70.5292 27.468 72.0052 27.288 73.5532 26.856C74.7052 26.568 75.1012 25.848 74.8132 24.66L74.5972 23.868C74.3092 22.86 73.6252 22.536 72.5452 22.824C71.5732 23.112 70.5292 23.22 69.4492 23.22C67.0732 23.22 65.8852 21.636 65.8852 18.432V16.776C65.8852 13.608 67.0732 12.024 69.4492 12.024C70.5292 12.024 71.5012 12.132 72.3652 12.348C72.8692 12.492 73.3372 12.492 73.7692 12.312C74.2012 12.132 74.4532 11.808 74.5972 11.34L74.8492 10.404C75.1372 9.36 74.7052 8.676 73.5532 8.352C72.0412 7.992 70.5652 7.776 69.1252 7.776C66.3892 7.776 64.3012 8.604 62.8972 10.188C61.4572 11.772 60.7732 13.86 60.7732 16.416V18.792ZM78.2458 18.9C78.2458 21.564 78.9658 23.652 80.4418 25.164C81.8818 26.712 83.8978 27.468 86.4898 27.468C89.0458 27.468 91.0618 26.712 92.5378 25.164C93.9778 23.652 94.7338 21.564 94.7338 18.9V16.308C94.7338 13.752 93.9778 11.7 92.5378 10.116C91.0978 8.568 89.0818 7.776 86.4898 7.776C83.8978 7.776 81.8458 8.568 80.4058 10.116C78.9658 11.7 78.2458 13.752 78.2458 16.308V18.9ZM86.4898 23.22C85.2658 23.22 84.4378 22.86 84.0058 22.14C83.5738 21.42 83.3578 20.232 83.3578 18.612V16.632C83.3578 15.084 83.5738 13.932 84.0058 13.176C84.4378 12.42 85.2658 12.024 86.4898 12.024C87.6778 12.024 88.5058 12.42 88.9378 13.176C89.3698 13.932 89.6218 15.084 89.6218 16.632V18.612C89.6218 20.232 89.3698 21.42 88.9378 22.14C88.5058 22.86 87.6778 23.22 86.4898 23.22ZM98.5788 25.272C98.5788 25.812 98.7228 26.244 99.0468 26.532C99.3348 26.856 99.7668 27 100.307 27H101.891C102.395 27 102.827 26.856 103.151 26.532C103.439 26.244 103.619 25.812 103.619 25.272V13.644C104.771 12.564 105.779 12.024 106.679 12.024C107.399 12.024 107.903 12.24 108.227 12.672C108.551 13.104 108.731 13.788 108.731 14.76V25.272C108.731 25.812 108.875 26.244 109.199 26.532C109.487 26.856 109.919 27 110.459 27H112.043C112.547 27 112.979 26.856 113.303 26.532C113.591 26.244 113.771 25.812 113.771 25.272V14.328C113.771 14.256 113.735 14.112 113.735 13.932C113.735 13.788 113.735 13.644 113.735 13.536C114.779 12.528 115.823 12.024 116.831 12.024C117.551 12.024 118.055 12.24 118.379 12.672C118.703 13.104 118.883 13.788 118.883 14.76V25.272C118.883 25.812 119.027 26.244 119.351 26.532C119.639 26.856 120.071 27 120.611 27H122.195C122.699 27 123.131 26.856 123.455 26.532C123.743 26.244 123.923 25.812 123.923 25.272V14.184C123.923 12.168 123.383 10.584 122.339 9.468C121.295 8.352 119.819 7.776 117.911 7.776C116.183 7.776 114.455 8.568 112.727 10.116C111.755 8.568 110.099 7.776 107.759 7.776C106.103 7.776 104.555 8.496 103.079 9.864L103.043 9.612C102.899 8.712 102.323 8.244 101.279 8.244H100.307C99.7668 8.244 99.3348 8.424 99.0468 8.712C98.7228 9.036 98.5788 9.468 98.5788 9.972V25.272ZM127.605 19.512C127.605 21.744 128.289 23.616 129.729 25.164C131.169 26.712 133.293 27.468 136.173 27.468C137.649 27.468 139.233 27.216 140.925 26.712C142.005 26.388 142.401 25.668 142.113 24.588L141.933 23.904C141.645 22.896 140.925 22.5 139.773 22.752C138.369 23.076 137.145 23.22 136.137 23.22C133.797 23.22 132.645 21.996 132.645 19.512V19.224H142.545C142.797 19.224 143.013 19.152 143.193 18.972C143.373 18.792 143.481 18.576 143.481 18.288V15.696C143.481 13.608 142.761 11.736 141.321 10.152C139.881 8.568 137.937 7.776 135.525 7.776C133.077 7.776 131.169 8.568 129.729 10.116C128.289 11.7 127.605 13.536 127.605 15.696V19.512ZM132.645 15.768V15.3C132.645 14.364 132.861 13.608 133.329 12.96C133.761 12.348 134.517 12.024 135.561 12.024C137.469 12.024 138.441 13.14 138.441 15.3V15.768H132.645ZM151.413 18.504L152.637 18.324C153.573 18.18 154.077 17.532 154.149 16.38L154.689 3.6C154.689 3.096 154.545 2.664 154.257 2.34C153.969 2.052 153.537 1.872 153.033 1.872H150.729C150.189 1.872 149.757 2.052 149.469 2.34C149.181 2.664 149.037 3.096 149.073 3.6L149.649 17.028C149.649 17.568 149.829 17.964 150.153 18.216C150.477 18.504 150.909 18.576 151.413 18.504ZM148.929 24.552C148.929 25.38 149.217 26.064 149.793 26.64C150.369 27.216 151.053 27.468 151.845 27.468C152.637 27.468 153.357 27.216 153.933 26.64C154.509 26.064 154.797 25.38 154.797 24.552C154.797 23.76 154.509 23.04 153.933 22.464C153.357 21.888 152.673 21.6 151.845 21.6C151.053 21.6 150.369 21.888 149.793 22.464C149.217 23.04 148.929 23.76 148.929 24.552Z" fill="url(#paint0_linear_49_1753)"/>
<defs>
<linearGradient id="paint0_linear_49_1753" x1="-36.3333" y1="-36.6923" x2="239.483" y2="40.901" gradientUnits="userSpaceOnUse">
<stop stop-color="#0091B6"/>
<stop offset="1" stop-color="#19AF79"/>
</linearGradient>
</defs>
</svg>
