<svg width="173" height="36" viewBox="0 0 173 36" fill="none" xmlns="http://www.w3.org/2000/svg">
<path d="M23.4151 3.51016C23.5964 3.51016 23.7457 3.57416 23.8631 3.70216C23.9911 3.81949 24.0551 3.96882 24.0551 4.15016V11.1262C24.0551 12.0222 23.8791 12.7635 23.5271 13.3502C23.1751 13.9475 22.7004 14.3902 22.1031 14.6782C21.5164 14.9662 20.8497 15.1102 20.1031 15.1102C19.6871 15.1102 19.2871 15.0675 18.9031 14.9822C18.5191 14.8968 18.2044 14.7848 17.9591 14.6462C17.7564 14.5502 17.6124 14.4275 17.5271 14.2782C17.4524 14.1395 17.4417 13.9902 17.4951 13.8302C17.5697 13.6382 17.6764 13.5048 17.8151 13.4302C17.9644 13.3555 18.1191 13.3555 18.2791 13.4302C18.4497 13.5048 18.6951 13.6062 19.0151 13.7342C19.3457 13.8728 19.7137 13.9422 20.1191 13.9422C20.6737 13.9422 21.1484 13.8355 21.5431 13.6222C21.9377 13.4088 22.2417 13.0942 22.4551 12.6782C22.6684 12.2728 22.7751 11.7662 22.7751 11.1582V10.0222L22.9671 10.4222C22.7964 10.7528 22.5671 11.0408 22.2791 11.2862C21.9911 11.5315 21.6604 11.7235 21.2871 11.8622C20.9137 12.0008 20.5031 12.0702 20.0551 12.0702C19.4471 12.0702 18.9297 11.9422 18.5031 11.6862C18.0871 11.4195 17.7671 11.0568 17.5431 10.5982C17.3297 10.1288 17.2231 9.59016 17.2231 8.98216V4.15016C17.2231 3.96882 17.2817 3.81949 17.3991 3.70216C17.5271 3.57416 17.6817 3.51016 17.8631 3.51016C18.0551 3.51016 18.2097 3.57416 18.3271 3.70216C18.4444 3.81949 18.5031 3.96882 18.5031 4.15016V8.69416C18.5031 9.41949 18.6631 9.96882 18.9831 10.3422C19.3031 10.7048 19.7991 10.8862 20.4711 10.8862C20.8977 10.8862 21.2817 10.7902 21.6231 10.5982C21.9751 10.4062 22.2524 10.1448 22.4551 9.81416C22.6684 9.47282 22.7751 9.09949 22.7751 8.69416V4.15016C22.7751 3.96882 22.8337 3.81949 22.9511 3.70216C23.0684 3.57416 23.2231 3.51016 23.4151 3.51016ZM34.2041 7.75016C34.2041 8.58216 34.0174 9.32349 33.6441 9.97416C33.2814 10.6248 32.7854 11.1368 32.1561 11.5102C31.5374 11.8835 30.8387 12.0702 30.0601 12.0702C29.2814 12.0702 28.5774 11.8835 27.9481 11.5102C27.3187 11.1368 26.8174 10.6248 26.4441 9.97416C26.0814 9.32349 25.9001 8.58216 25.9001 7.75016C25.9001 6.91816 26.0814 6.17682 26.4441 5.52616C26.8174 4.87549 27.3187 4.36349 27.9481 3.99016C28.5774 3.61682 29.2814 3.43016 30.0601 3.43016C30.8387 3.43016 31.5374 3.61682 32.1561 3.99016C32.7854 4.36349 33.2814 4.87549 33.6441 5.52616C34.0174 6.17682 34.2041 6.91816 34.2041 7.75016ZM32.9241 7.75016C32.9241 7.13149 32.7961 6.58749 32.5401 6.11816C32.2947 5.64882 31.9534 5.28082 31.5161 5.01416C31.0894 4.74749 30.6041 4.61416 30.0601 4.61416C29.5161 4.61416 29.0254 4.74749 28.5881 5.01416C28.1614 5.28082 27.8201 5.64882 27.5641 6.11816C27.3081 6.58749 27.1801 7.13149 27.1801 7.75016C27.1801 8.35816 27.3081 8.89682 27.5641 9.36616C27.8201 9.83549 28.1614 10.2088 28.5881 10.4862C29.0254 10.7528 29.5161 10.8862 30.0601 10.8862C30.6041 10.8862 31.0894 10.7528 31.5161 10.4862C31.9534 10.2088 32.2947 9.83549 32.5401 9.36616C32.7961 8.89682 32.9241 8.35816 32.9241 7.75016ZM42.3213 3.63816C42.5133 3.63816 42.668 3.70216 42.7853 3.83016C42.9026 3.94749 42.9613 4.09682 42.9613 4.27816V8.64616C42.9613 9.72349 42.6573 10.5608 42.0493 11.1582C41.452 11.7448 40.6146 12.0382 39.5373 12.0382C38.4706 12.0382 37.6333 11.7448 37.0253 11.1582C36.428 10.5608 36.1293 9.72349 36.1293 8.64616V4.27816C36.1293 4.09682 36.188 3.94749 36.3053 3.83016C36.4333 3.70216 36.588 3.63816 36.7693 3.63816C36.9613 3.63816 37.116 3.70216 37.2333 3.83016C37.3506 3.94749 37.4093 4.09682 37.4093 4.27816V8.64616C37.4093 9.37149 37.596 9.92082 37.9693 10.2942C38.3426 10.6675 38.8653 10.8542 39.5373 10.8542C40.2306 10.8542 40.7586 10.6675 41.1213 10.2942C41.4946 9.92082 41.6813 9.37149 41.6813 8.64616V4.27816C41.6813 4.09682 41.74 3.94749 41.8573 3.83016C41.9853 3.70216 42.14 3.63816 42.3213 3.63816ZM45.9724 11.9102C45.7911 11.9102 45.6364 11.8462 45.5084 11.7182C45.3911 11.5902 45.3324 11.4355 45.3324 11.2542V4.27816C45.3324 4.09682 45.3911 3.94749 45.5084 3.83016C45.6364 3.70216 45.7911 3.63816 45.9724 3.63816C46.1644 3.63816 46.3191 3.70216 46.4364 3.83016C46.5538 3.94749 46.6124 4.09682 46.6124 4.27816V6.39016L46.4204 6.05416C46.4844 5.72349 46.5964 5.40349 46.7564 5.09416C46.9271 4.77416 47.1404 4.49149 47.3964 4.24616C47.6524 3.99016 47.9458 3.79282 48.2764 3.65416C48.6071 3.50482 48.9698 3.43016 49.3644 3.43016C49.5991 3.43016 49.8124 3.48882 50.0044 3.60616C50.2071 3.71282 50.3084 3.86749 50.3084 4.07016C50.3084 4.29416 50.2498 4.45949 50.1324 4.56616C50.0151 4.67282 49.8818 4.72616 49.7324 4.72616C49.5938 4.72616 49.4604 4.69949 49.3324 4.64616C49.2044 4.58216 49.0444 4.55016 48.8524 4.55016C48.5858 4.55016 48.3191 4.62482 48.0524 4.77416C47.7964 4.91282 47.5564 5.11549 47.3324 5.38216C47.1191 5.64882 46.9431 5.95282 46.8044 6.29416C46.6764 6.62482 46.6124 6.98216 46.6124 7.36616V11.2542C46.6124 11.4355 46.5484 11.5902 46.4204 11.7182C46.3031 11.8462 46.1538 11.9102 45.9724 11.9102ZM59.6326 3.43016C60.0912 3.43016 60.5179 3.51016 60.9126 3.67016C61.3072 3.81949 61.6486 4.01682 61.9366 4.26216C62.2352 4.50749 62.4646 4.76349 62.6246 5.03016C62.7952 5.29682 62.8806 5.54749 62.8806 5.78216L62.5766 5.59016V4.19816C62.5766 4.01682 62.6352 3.86749 62.7526 3.75016C62.8699 3.62216 63.0246 3.55816 63.2166 3.55816C63.3979 3.55816 63.5472 3.62216 63.6646 3.75016C63.7926 3.86749 63.8566 4.01682 63.8566 4.19816V11.2062C63.8566 12.0808 63.6699 12.8062 63.2966 13.3822C62.9339 13.9582 62.4432 14.3902 61.8246 14.6782C61.2059 14.9662 60.5126 15.1102 59.7446 15.1102C59.4246 15.1102 59.0726 15.0675 58.6886 14.9822C58.3046 14.8968 57.9632 14.7902 57.6646 14.6622C57.3659 14.5448 57.1739 14.4222 57.0886 14.2942C56.9286 14.1875 56.8272 14.0648 56.7846 13.9262C56.7526 13.7982 56.7792 13.6755 56.8646 13.5582C56.9606 13.4088 57.0832 13.3342 57.2326 13.3342C57.3926 13.3342 57.5899 13.3822 57.8246 13.4782C57.9206 13.5102 58.0699 13.5635 58.2726 13.6382C58.4859 13.7128 58.7206 13.7768 58.9766 13.8302C59.2432 13.8942 59.5046 13.9262 59.7606 13.9262C60.6672 13.9262 61.3606 13.6862 61.8406 13.2062C62.3312 12.7368 62.5766 12.1128 62.5766 11.3342V9.84616L62.7526 9.92616C62.6886 10.2248 62.5552 10.5022 62.3526 10.7582C62.1606 11.0142 61.9206 11.2435 61.6326 11.4462C61.3552 11.6382 61.0459 11.7928 60.7046 11.9102C60.3632 12.0168 60.0166 12.0702 59.6646 12.0702C58.9179 12.0702 58.2459 11.8835 57.6486 11.5102C57.0512 11.1368 56.5766 10.6248 56.2246 9.97416C55.8832 9.32349 55.7126 8.58216 55.7126 7.75016C55.7126 6.90749 55.8832 6.16082 56.2246 5.51016C56.5766 4.85949 57.0459 4.35282 57.6326 3.99016C58.2299 3.61682 58.8966 3.43016 59.6326 3.43016ZM59.7926 4.61416C59.2486 4.61416 58.7579 4.75282 58.3206 5.03016C57.8939 5.29682 57.5579 5.66482 57.3126 6.13416C57.0779 6.60349 56.9606 7.14216 56.9606 7.75016C56.9606 8.33682 57.0779 8.87016 57.3126 9.35016C57.5579 9.81949 57.8939 10.1928 58.3206 10.4702C58.7579 10.7475 59.2486 10.8862 59.7926 10.8862C60.3472 10.8862 60.8379 10.7528 61.2646 10.4862C61.6912 10.2088 62.0272 9.83549 62.2726 9.36616C62.5179 8.89682 62.6406 8.35816 62.6406 7.75016C62.6406 7.13149 62.5179 6.58749 62.2726 6.11816C62.0272 5.64882 61.6912 5.28082 61.2646 5.01416C60.8379 4.74749 60.3472 4.61416 59.7926 4.61416ZM72.2901 3.63816C72.4821 3.63816 72.6367 3.70216 72.7541 3.83016C72.8714 3.94749 72.9301 4.09682 72.9301 4.27816V8.64616C72.9301 9.72349 72.6261 10.5608 72.0181 11.1582C71.4207 11.7448 70.5834 12.0382 69.5061 12.0382C68.4394 12.0382 67.6021 11.7448 66.9941 11.1582C66.3967 10.5608 66.0981 9.72349 66.0981 8.64616V4.27816C66.0981 4.09682 66.1567 3.94749 66.2741 3.83016C66.4021 3.70216 66.5567 3.63816 66.7381 3.63816C66.9301 3.63816 67.0847 3.70216 67.2021 3.83016C67.3194 3.94749 67.3781 4.09682 67.3781 4.27816V8.64616C67.3781 9.37149 67.5647 9.92082 67.9381 10.2942C68.3114 10.6675 68.8341 10.8542 69.5061 10.8542C70.1994 10.8542 70.7274 10.6675 71.0901 10.2942C71.4634 9.92082 71.6501 9.37149 71.6501 8.64616V4.27816C71.6501 4.09682 71.7087 3.94749 71.8261 3.83016C71.9541 3.70216 72.1087 3.63816 72.2901 3.63816ZM76.5332 11.2542C76.5332 11.4355 76.4692 11.5902 76.3412 11.7182C76.2239 11.8462 76.0745 11.9102 75.8932 11.9102C75.7012 11.9102 75.5465 11.8462 75.4292 11.7182C75.3119 11.5902 75.2532 11.4355 75.2532 11.2542V4.15016C75.2532 3.96882 75.3119 3.81949 75.4292 3.70216C75.5572 3.57416 75.7119 3.51016 75.8932 3.51016C76.0745 3.51016 76.2239 3.57416 76.3412 3.70216C76.4692 3.81949 76.5332 3.96882 76.5332 4.15016V11.2542ZM75.8932 2.43816C75.6265 2.43816 75.4292 2.38482 75.3012 2.27816C75.1732 2.17149 75.1092 2.00616 75.1092 1.78216V1.55816C75.1092 1.33416 75.1785 1.16882 75.3172 1.06216C75.4559 0.955489 75.6532 0.902156 75.9092 0.902156C76.1652 0.902156 76.3572 0.955489 76.4852 1.06216C76.6132 1.16882 76.6772 1.33416 76.6772 1.55816V1.78216C76.6772 2.00616 76.6079 2.17149 76.4692 2.27816C76.3412 2.38482 76.1492 2.43816 75.8932 2.43816ZM85.6484 0.0701561C85.8298 0.0701561 85.9791 0.134156 86.0964 0.262156C86.2244 0.379489 86.2884 0.528823 86.2884 0.710155V11.2542C86.2884 11.4355 86.2244 11.5902 86.0964 11.7182C85.9791 11.8462 85.8298 11.9102 85.6484 11.9102C85.4564 11.9102 85.3018 11.8462 85.1844 11.7182C85.0671 11.5902 85.0084 11.4355 85.0084 11.2542V9.73416L85.3124 9.62216C85.3124 9.87816 85.2324 10.1502 85.0724 10.4382C84.9124 10.7155 84.6938 10.9768 84.4164 11.2222C84.1391 11.4675 83.8084 11.6702 83.4244 11.8302C83.0511 11.9902 82.6458 12.0702 82.2084 12.0702C81.4938 12.0702 80.8431 11.8835 80.2564 11.5102C79.6804 11.1368 79.2218 10.6248 78.8804 9.97416C78.5498 9.32349 78.3844 8.58216 78.3844 7.75016C78.3844 6.90749 78.5498 6.16082 78.8804 5.51016C79.2218 4.85949 79.6804 4.35282 80.2564 3.99016C80.8324 3.61682 81.4724 3.43016 82.1764 3.43016C82.6244 3.43016 83.0458 3.50482 83.4404 3.65416C83.8351 3.80349 84.1764 4.00616 84.4644 4.26216C84.7631 4.51816 84.9978 4.80082 85.1684 5.11016C85.3391 5.41949 85.4244 5.72882 85.4244 6.03816L85.0084 5.94216V0.710155C85.0084 0.528823 85.0671 0.379489 85.1844 0.262156C85.3018 0.134156 85.4564 0.0701561 85.6484 0.0701561ZM82.3524 10.8862C82.8858 10.8862 83.3551 10.7528 83.7604 10.4862C84.1764 10.2088 84.4964 9.83549 84.7204 9.36616C84.9551 8.88616 85.0724 8.34749 85.0724 7.75016C85.0724 7.14216 84.9551 6.60349 84.7204 6.13416C84.4964 5.66482 84.1764 5.29682 83.7604 5.03016C83.3551 4.75282 82.8858 4.61416 82.3524 4.61416C81.8298 4.61416 81.3604 4.75282 80.9444 5.03016C80.5391 5.29682 80.2191 5.66482 79.9844 6.13416C79.7498 6.60349 79.6324 7.14216 79.6324 7.75016C79.6324 8.33682 79.7498 8.87016 79.9844 9.35016C80.2191 9.81949 80.5391 10.1928 80.9444 10.4702C81.3604 10.7475 81.8298 10.8862 82.3524 10.8862ZM92.4846 12.0702C91.6312 12.0702 90.8846 11.8888 90.2446 11.5262C89.6046 11.1635 89.1032 10.6675 88.7406 10.0382C88.3886 9.39816 88.2126 8.66216 88.2126 7.83016C88.2126 6.90216 88.3939 6.11282 88.7566 5.46216C89.1299 4.80082 89.6099 4.29949 90.1966 3.95816C90.7939 3.60616 91.4232 3.43016 92.0846 3.43016C92.5752 3.43016 93.0499 3.52082 93.5086 3.70216C93.9672 3.88349 94.3726 4.15016 94.7246 4.50216C95.0766 4.84349 95.3592 5.25949 95.5726 5.75016C95.7859 6.23016 95.8979 6.76882 95.9086 7.36616C95.9086 7.53682 95.8446 7.68082 95.7166 7.79816C95.5886 7.91549 95.4392 7.97416 95.2686 7.97416H88.9486L88.6606 6.87016H94.8206L94.5646 7.09416V6.74216C94.5219 6.30482 94.3726 5.93149 94.1166 5.62216C93.8712 5.30216 93.5672 5.05682 93.2046 4.88616C92.8526 4.71549 92.4792 4.63016 92.0846 4.63016C91.7646 4.63016 91.4446 4.68882 91.1246 4.80616C90.8152 4.91282 90.5326 5.09416 90.2766 5.35016C90.0312 5.59549 89.8286 5.91549 89.6686 6.31016C89.5192 6.70482 89.4446 7.17949 89.4446 7.73416C89.4446 8.35282 89.5672 8.89682 89.8126 9.36616C90.0686 9.83549 90.4206 10.2088 90.8686 10.4862C91.3166 10.7528 91.8392 10.8862 92.4366 10.8862C92.8099 10.8862 93.1352 10.8382 93.4126 10.7422C93.6899 10.6462 93.9299 10.5288 94.1326 10.3902C94.3352 10.2408 94.5059 10.0915 94.6446 9.94216C94.7832 9.84616 94.9166 9.79816 95.0446 9.79816C95.2046 9.79816 95.3326 9.85149 95.4286 9.95816C95.5352 10.0648 95.5886 10.1928 95.5886 10.3422C95.5886 10.5235 95.5032 10.6835 95.3326 10.8222C95.0339 11.1528 94.6286 11.4462 94.1166 11.7022C93.6046 11.9475 93.0606 12.0702 92.4846 12.0702ZM109.055 3.55816C109.236 3.55816 109.385 3.62216 109.503 3.75016C109.631 3.86749 109.695 4.01682 109.695 4.19816V11.2542C109.695 11.4355 109.631 11.5902 109.503 11.7182C109.385 11.8462 109.236 11.9102 109.055 11.9102C108.863 11.9102 108.708 11.8462 108.591 11.7182C108.473 11.5902 108.415 11.4355 108.415 11.2542V9.73416L108.719 9.70216C108.719 9.93682 108.639 10.1928 108.479 10.4702C108.319 10.7475 108.1 11.0088 107.823 11.2542C107.545 11.4888 107.215 11.6862 106.831 11.8462C106.457 11.9955 106.052 12.0702 105.615 12.0702C104.889 12.0702 104.239 11.8835 103.663 11.5102C103.087 11.1262 102.628 10.6088 102.287 9.95816C101.956 9.30749 101.791 8.56616 101.791 7.73416C101.791 6.89149 101.956 6.15016 102.287 5.51016C102.628 4.85949 103.087 4.35282 103.663 3.99016C104.239 3.61682 104.879 3.43016 105.583 3.43016C106.041 3.43016 106.468 3.50482 106.863 3.65416C107.257 3.80349 107.599 4.00616 107.887 4.26216C108.185 4.51816 108.415 4.80082 108.575 5.11016C108.745 5.41949 108.831 5.72882 108.831 6.03816L108.415 5.94216V4.19816C108.415 4.01682 108.473 3.86749 108.591 3.75016C108.708 3.62216 108.863 3.55816 109.055 3.55816ZM105.759 10.8862C106.292 10.8862 106.761 10.7475 107.167 10.4702C107.583 10.1928 107.903 9.81949 108.127 9.35016C108.361 8.87016 108.479 8.33149 108.479 7.73416C108.479 7.14749 108.361 6.61949 108.127 6.15016C107.903 5.67016 107.583 5.29682 107.167 5.03016C106.761 4.75282 106.292 4.61416 105.759 4.61416C105.236 4.61416 104.767 4.74749 104.351 5.01416C103.945 5.28082 103.625 5.64882 103.391 6.11816C103.156 6.58749 103.039 7.12616 103.039 7.73416C103.039 8.33149 103.151 8.87016 103.375 9.35016C103.609 9.81949 103.929 10.1928 104.335 10.4702C104.751 10.7475 105.225 10.8862 105.759 10.8862ZM115.539 3.43016C115.997 3.43016 116.424 3.51016 116.819 3.67016C117.213 3.81949 117.555 4.01682 117.843 4.26216C118.141 4.50749 118.371 4.76349 118.531 5.03016C118.701 5.29682 118.787 5.54749 118.787 5.78216L118.483 5.59016V4.19816C118.483 4.01682 118.541 3.86749 118.659 3.75016C118.776 3.62216 118.931 3.55816 119.123 3.55816C119.304 3.55816 119.453 3.62216 119.571 3.75016C119.699 3.86749 119.763 4.01682 119.763 4.19816V11.2062C119.763 12.0808 119.576 12.8062 119.203 13.3822C118.84 13.9582 118.349 14.3902 117.731 14.6782C117.112 14.9662 116.419 15.1102 115.651 15.1102C115.331 15.1102 114.979 15.0675 114.595 14.9822C114.211 14.8968 113.869 14.7902 113.571 14.6622C113.272 14.5448 113.08 14.4222 112.995 14.2942C112.835 14.1875 112.733 14.0648 112.691 13.9262C112.659 13.7982 112.685 13.6755 112.771 13.5582C112.867 13.4088 112.989 13.3342 113.139 13.3342C113.299 13.3342 113.496 13.3822 113.731 13.4782C113.827 13.5102 113.976 13.5635 114.179 13.6382C114.392 13.7128 114.627 13.7768 114.883 13.8302C115.149 13.8942 115.411 13.9262 115.667 13.9262C116.573 13.9262 117.267 13.6862 117.747 13.2062C118.237 12.7368 118.483 12.1128 118.483 11.3342V9.84616L118.659 9.92616C118.595 10.2248 118.461 10.5022 118.259 10.7582C118.067 11.0142 117.827 11.2435 117.539 11.4462C117.261 11.6382 116.952 11.7928 116.611 11.9102C116.269 12.0168 115.923 12.0702 115.571 12.0702C114.824 12.0702 114.152 11.8835 113.555 11.5102C112.957 11.1368 112.483 10.6248 112.131 9.97416C111.789 9.32349 111.619 8.58216 111.619 7.75016C111.619 6.90749 111.789 6.16082 112.131 5.51016C112.483 4.85949 112.952 4.35282 113.539 3.99016C114.136 3.61682 114.803 3.43016 115.539 3.43016ZM115.699 4.61416C115.155 4.61416 114.664 4.75282 114.227 5.03016C113.8 5.29682 113.464 5.66482 113.219 6.13416C112.984 6.60349 112.867 7.14216 112.867 7.75016C112.867 8.33682 112.984 8.87016 113.219 9.35016C113.464 9.81949 113.8 10.1928 114.227 10.4702C114.664 10.7475 115.155 10.8862 115.699 10.8862C116.253 10.8862 116.744 10.7528 117.171 10.4862C117.597 10.2088 117.933 9.83549 118.179 9.36616C118.424 8.89682 118.547 8.35816 118.547 7.75016C118.547 7.13149 118.424 6.58749 118.179 6.11816C117.933 5.64882 117.597 5.28082 117.171 5.01416C116.744 4.74749 116.253 4.61416 115.699 4.61416ZM128.867 3.55816C129.049 3.55816 129.198 3.62216 129.315 3.75016C129.443 3.86749 129.507 4.01682 129.507 4.19816V11.2542C129.507 11.4355 129.443 11.5902 129.315 11.7182C129.198 11.8462 129.049 11.9102 128.867 11.9102C128.675 11.9102 128.521 11.8462 128.403 11.7182C128.286 11.5902 128.227 11.4355 128.227 11.2542V9.73416L128.531 9.70216C128.531 9.93682 128.451 10.1928 128.291 10.4702C128.131 10.7475 127.913 11.0088 127.635 11.2542C127.358 11.4888 127.027 11.6862 126.643 11.8462C126.27 11.9955 125.865 12.0702 125.427 12.0702C124.702 12.0702 124.051 11.8835 123.475 11.5102C122.899 11.1262 122.441 10.6088 122.099 9.95816C121.769 9.30749 121.603 8.56616 121.603 7.73416C121.603 6.89149 121.769 6.15016 122.099 5.51016C122.441 4.85949 122.899 4.35282 123.475 3.99016C124.051 3.61682 124.691 3.43016 125.395 3.43016C125.854 3.43016 126.281 3.50482 126.675 3.65416C127.07 3.80349 127.411 4.00616 127.699 4.26216C127.998 4.51816 128.227 4.80082 128.387 5.11016C128.558 5.41949 128.643 5.72882 128.643 6.03816L128.227 5.94216V4.19816C128.227 4.01682 128.286 3.86749 128.403 3.75016C128.521 3.62216 128.675 3.55816 128.867 3.55816ZM125.571 10.8862C126.105 10.8862 126.574 10.7475 126.979 10.4702C127.395 10.1928 127.715 9.81949 127.939 9.35016C128.174 8.87016 128.291 8.33149 128.291 7.73416C128.291 7.14749 128.174 6.61949 127.939 6.15016C127.715 5.67016 127.395 5.29682 126.979 5.03016C126.574 4.75282 126.105 4.61416 125.571 4.61416C125.049 4.61416 124.579 4.74749 124.163 5.01416C123.758 5.28082 123.438 5.64882 123.203 6.11816C122.969 6.58749 122.851 7.12616 122.851 7.73416C122.851 8.33149 122.963 8.87016 123.187 9.35016C123.422 9.81949 123.742 10.1928 124.147 10.4702C124.563 10.7475 125.038 10.8862 125.571 10.8862ZM133.111 11.2542C133.111 11.4355 133.047 11.5902 132.919 11.7182C132.802 11.8462 132.653 11.9102 132.471 11.9102C132.279 11.9102 132.125 11.8462 132.007 11.7182C131.89 11.5902 131.831 11.4355 131.831 11.2542V4.15016C131.831 3.96882 131.89 3.81949 132.007 3.70216C132.135 3.57416 132.29 3.51016 132.471 3.51016C132.653 3.51016 132.802 3.57416 132.919 3.70216C133.047 3.81949 133.111 3.96882 133.111 4.15016V11.2542ZM132.471 2.43816C132.205 2.43816 132.007 2.38482 131.879 2.27816C131.751 2.17149 131.687 2.00616 131.687 1.78216V1.55816C131.687 1.33416 131.757 1.16882 131.895 1.06216C132.034 0.955489 132.231 0.902156 132.487 0.902156C132.743 0.902156 132.935 0.955489 133.063 1.06216C133.191 1.16882 133.255 1.33416 133.255 1.55816V1.78216C133.255 2.00616 133.186 2.17149 133.047 2.27816C132.919 2.38482 132.727 2.43816 132.471 2.43816ZM139.523 3.43016C140.248 3.43016 140.819 3.57949 141.235 3.87816C141.651 4.17682 141.944 4.57682 142.115 5.07816C142.296 5.57949 142.387 6.13949 142.387 6.75816V11.2542C142.387 11.4355 142.323 11.5902 142.195 11.7182C142.077 11.8462 141.928 11.9102 141.747 11.9102C141.565 11.9102 141.411 11.8462 141.283 11.7182C141.165 11.5902 141.107 11.4355 141.107 11.2542V6.79016C141.107 6.38482 141.043 6.02216 140.915 5.70216C140.797 5.37149 140.595 5.11016 140.307 4.91816C140.029 4.71549 139.645 4.61416 139.155 4.61416C138.707 4.61416 138.296 4.71549 137.923 4.91816C137.549 5.11016 137.251 5.37149 137.027 5.70216C136.803 6.02216 136.691 6.38482 136.691 6.79016V11.2542C136.691 11.4355 136.627 11.5902 136.499 11.7182C136.381 11.8462 136.232 11.9102 136.051 11.9102C135.869 11.9102 135.715 11.8462 135.587 11.7182C135.469 11.5902 135.411 11.4355 135.411 11.2542V4.27816C135.411 4.09682 135.469 3.94749 135.587 3.83016C135.715 3.70216 135.869 3.63816 136.051 3.63816C136.243 3.63816 136.397 3.70216 136.515 3.83016C136.632 3.94749 136.691 4.09682 136.691 4.27816V5.41416L136.371 5.76616C136.424 5.48882 136.547 5.21149 136.739 4.93416C136.931 4.64616 137.171 4.39016 137.459 4.16616C137.747 3.94216 138.067 3.76616 138.419 3.63816C138.771 3.49949 139.139 3.43016 139.523 3.43016ZM144.29 10.5982C144.194 10.4595 144.152 10.3155 144.162 10.1662C144.173 10.0062 144.264 9.86749 144.434 9.75016C144.541 9.67549 144.664 9.64349 144.802 9.65416C144.952 9.66482 145.085 9.73416 145.202 9.86216C145.501 10.2142 145.842 10.4968 146.226 10.7102C146.61 10.9128 147.08 11.0142 147.634 11.0142C147.89 11.0035 148.146 10.9608 148.402 10.8862C148.658 10.8115 148.872 10.6835 149.042 10.5022C149.224 10.3102 149.314 10.0595 149.314 9.75016C149.314 9.45149 149.224 9.21682 149.042 9.04616C148.861 8.86482 148.626 8.72082 148.338 8.61416C148.05 8.49682 147.736 8.39549 147.394 8.31016C147.042 8.21416 146.696 8.10749 146.354 7.99016C146.013 7.86216 145.704 7.70749 145.426 7.52616C145.16 7.33416 144.941 7.09949 144.77 6.82216C144.61 6.53416 144.53 6.18749 144.53 5.78216C144.53 5.30216 144.658 4.88616 144.914 4.53416C145.181 4.18216 145.533 3.91016 145.97 3.71816C146.418 3.52616 146.904 3.43016 147.426 3.43016C147.725 3.43016 148.034 3.46749 148.354 3.54216C148.685 3.60616 149.005 3.72349 149.314 3.89416C149.624 4.05416 149.896 4.27816 150.13 4.56616C150.226 4.67282 150.28 4.80616 150.29 4.96616C150.301 5.12616 150.232 5.27016 150.082 5.39816C149.965 5.48349 149.832 5.52082 149.682 5.51016C149.544 5.49949 149.426 5.44616 149.33 5.35016C149.106 5.08349 148.824 4.88082 148.482 4.74216C148.152 4.59282 147.784 4.51816 147.378 4.51816C147.122 4.51816 146.872 4.55549 146.626 4.63016C146.381 4.70482 146.173 4.83282 146.002 5.01416C145.842 5.18482 145.762 5.42482 145.762 5.73416C145.773 6.02216 145.869 6.25682 146.05 6.43816C146.232 6.61949 146.477 6.76882 146.786 6.88616C147.096 6.99282 147.437 7.09949 147.81 7.20616C148.152 7.29149 148.477 7.39282 148.786 7.51016C149.106 7.61682 149.394 7.76082 149.65 7.94216C149.906 8.12349 150.109 8.35816 150.258 8.64616C150.408 8.92349 150.482 9.27549 150.482 9.70216C150.482 10.1928 150.344 10.6195 150.066 10.9822C149.789 11.3342 149.421 11.6062 148.962 11.7982C148.514 11.9795 148.029 12.0702 147.506 12.0702C146.92 12.0702 146.338 11.9582 145.762 11.7342C145.197 11.5102 144.706 11.1315 144.29 10.5982ZM152.012 3.68616H155.772C155.943 3.68616 156.082 3.74482 156.188 3.86216C156.306 3.97949 156.364 4.11816 156.364 4.27816C156.364 4.44882 156.306 4.59282 156.188 4.71016C156.082 4.81682 155.943 4.87016 155.772 4.87016H152.012C151.852 4.87016 151.714 4.81149 151.596 4.69416C151.479 4.57682 151.42 4.43282 151.42 4.26216C151.42 4.10216 151.479 3.96882 151.596 3.86216C151.714 3.74482 151.852 3.68616 152.012 3.68616ZM153.692 1.51016C153.874 1.51016 154.023 1.57416 154.14 1.70216C154.258 1.81949 154.316 1.96882 154.316 2.15016V9.87816C154.316 10.1342 154.354 10.3262 154.428 10.4542C154.503 10.5822 154.599 10.6728 154.716 10.7262C154.844 10.7688 154.967 10.7902 155.084 10.7902C155.191 10.7902 155.282 10.7742 155.356 10.7422C155.442 10.6995 155.538 10.6782 155.644 10.6782C155.751 10.6782 155.847 10.7315 155.932 10.8382C156.028 10.9342 156.076 11.0622 156.076 11.2222C156.076 11.4142 155.964 11.5795 155.74 11.7182C155.516 11.8462 155.266 11.9102 154.988 11.9102C154.839 11.9102 154.652 11.8995 154.428 11.8782C154.215 11.8568 154.002 11.7875 153.788 11.6702C153.575 11.5528 153.394 11.3608 153.244 11.0942C153.106 10.8168 153.036 10.4328 153.036 9.94216V2.15016C153.036 1.96882 153.1 1.81949 153.228 1.70216C153.356 1.57416 153.511 1.51016 153.692 1.51016ZM7.32812 20.0702C7.50946 20.0702 7.65879 20.1342 7.77612 20.2622C7.90413 20.3795 7.96813 20.5288 7.96813 20.7102V31.2542C7.96813 31.4355 7.90413 31.5902 7.77612 31.7182C7.65879 31.8462 7.50946 31.9102 7.32812 31.9102C7.13613 31.9102 6.98146 31.8462 6.86413 31.7182C6.74679 31.5902 6.68813 31.4355 6.68813 31.2542V29.7342L6.99213 29.6222C6.99213 29.8782 6.91213 30.1502 6.75213 30.4382C6.59213 30.7155 6.37346 30.9768 6.09613 31.2222C5.81879 31.4675 5.48813 31.6702 5.10413 31.8302C4.73079 31.9902 4.32546 32.0702 3.88813 32.0702C3.17346 32.0702 2.52279 31.8835 1.93613 31.5102C1.36013 31.1368 0.901458 30.6248 0.560125 29.9742C0.229458 29.3235 0.0641251 28.5822 0.0641251 27.7502C0.0641251 26.9075 0.229458 26.1608 0.560125 25.5102C0.901458 24.8595 1.36013 24.3528 1.93613 23.9902C2.51213 23.6168 3.15213 23.4302 3.85613 23.4302C4.30413 23.4302 4.72546 23.5048 5.12013 23.6542C5.51479 23.8035 5.85613 24.0062 6.14413 24.2622C6.44279 24.5182 6.67746 24.8008 6.84813 25.1102C7.01879 25.4195 7.10413 25.7288 7.10413 26.0382L6.68813 25.9422V20.7102C6.68813 20.5288 6.74679 20.3795 6.86413 20.2622C6.98146 20.1342 7.13613 20.0702 7.32812 20.0702ZM4.03212 30.8862C4.56546 30.8862 5.03479 30.7528 5.44013 30.4862C5.85613 30.2088 6.17613 29.8355 6.40013 29.3662C6.63479 28.8862 6.75213 28.3475 6.75213 27.7502C6.75213 27.1422 6.63479 26.6035 6.40013 26.1342C6.17613 25.6648 5.85613 25.2968 5.44013 25.0302C5.03479 24.7528 4.56546 24.6142 4.03212 24.6142C3.50946 24.6142 3.04013 24.7528 2.62413 25.0302C2.21879 25.2968 1.89879 25.6648 1.66413 26.1342C1.42946 26.6035 1.31213 27.1422 1.31213 27.7502C1.31213 28.3368 1.42946 28.8702 1.66413 29.3502C1.89879 29.8195 2.21879 30.1928 2.62413 30.4702C3.04013 30.7475 3.50946 30.8862 4.03212 30.8862ZM14.1643 32.0702C13.3109 32.0702 12.5643 31.8888 11.9243 31.5262C11.2843 31.1635 10.7829 30.6675 10.4203 30.0382C10.0683 29.3982 9.89225 28.6622 9.89225 27.8302C9.89225 26.9022 10.0736 26.1128 10.4363 25.4622C10.8096 24.8008 11.2896 24.2995 11.8763 23.9582C12.4736 23.6062 13.1029 23.4302 13.7643 23.4302C14.2549 23.4302 14.7296 23.5208 15.1883 23.7022C15.6469 23.8835 16.0523 24.1502 16.4043 24.5022C16.7563 24.8435 17.0389 25.2595 17.2523 25.7502C17.4656 26.2302 17.5776 26.7688 17.5883 27.3662C17.5883 27.5368 17.5243 27.6808 17.3963 27.7982C17.2683 27.9155 17.1189 27.9742 16.9483 27.9742H10.6283L10.3403 26.8702H16.5003L16.2443 27.0942V26.7422C16.2016 26.3048 16.0523 25.9315 15.7963 25.6222C15.5509 25.3022 15.2469 25.0568 14.8843 24.8862C14.5323 24.7155 14.1589 24.6302 13.7643 24.6302C13.4443 24.6302 13.1243 24.6888 12.8043 24.8062C12.4949 24.9128 12.2123 25.0942 11.9563 25.3502C11.7109 25.5955 11.5083 25.9155 11.3483 26.3102C11.1989 26.7048 11.1243 27.1795 11.1243 27.7342C11.1243 28.3528 11.2469 28.8968 11.4923 29.3662C11.7483 29.8355 12.1003 30.2088 12.5483 30.4862C12.9963 30.7528 13.5189 30.8862 14.1163 30.8862C14.4896 30.8862 14.8149 30.8382 15.0923 30.7422C15.3696 30.6462 15.6096 30.5288 15.8123 30.3902C16.0149 30.2408 16.1856 30.0915 16.3243 29.9422C16.4629 29.8462 16.5963 29.7982 16.7243 29.7982C16.8843 29.7982 17.0123 29.8515 17.1083 29.9582C17.2149 30.0648 17.2683 30.1928 17.2683 30.3422C17.2683 30.5235 17.1829 30.6835 17.0123 30.8222C16.7136 31.1528 16.3083 31.4462 15.7963 31.7022C15.2843 31.9475 14.7403 32.0702 14.1643 32.0702ZM23.5921 23.5102C24.3175 23.5102 24.9681 23.6915 25.5441 24.0542C26.1201 24.4168 26.5735 24.9182 26.9041 25.5582C27.2455 26.1982 27.4161 26.9342 27.4161 27.7662C27.4161 28.5875 27.2455 29.3235 26.9041 29.9742C26.5735 30.6142 26.1201 31.1208 25.5441 31.4942C24.9788 31.8568 24.3388 32.0382 23.6241 32.0382C23.2295 32.0382 22.8561 31.9795 22.5041 31.8622C22.1628 31.7342 21.8481 31.5742 21.5601 31.3822C21.2828 31.1795 21.0481 30.9555 20.8561 30.7102C20.6641 30.4542 20.5255 30.2035 20.4401 29.9582L20.7921 29.7342V34.4542C20.7921 34.6355 20.7335 34.7902 20.6161 34.9182C20.4988 35.0462 20.3441 35.1102 20.1521 35.1102C19.9708 35.1102 19.8161 35.0462 19.6881 34.9182C19.5708 34.8008 19.5121 34.6462 19.5121 34.4542V24.2302C19.5121 24.0488 19.5708 23.8995 19.6881 23.7822C19.8161 23.6542 19.9708 23.5902 20.1521 23.5902C20.3441 23.5902 20.4988 23.6542 20.6161 23.7822C20.7335 23.8995 20.7921 24.0488 20.7921 24.2302V25.6542L20.5521 25.5262C20.6268 25.2595 20.7548 25.0035 20.9361 24.7582C21.1281 24.5128 21.3575 24.2995 21.6241 24.1182C21.9015 23.9262 22.2055 23.7768 22.5361 23.6702C22.8775 23.5635 23.2295 23.5102 23.5921 23.5102ZM23.4481 24.6942C22.9148 24.6942 22.4401 24.8275 22.0241 25.0942C21.6188 25.3608 21.2988 25.7235 21.0641 26.1822C20.8401 26.6408 20.7281 27.1688 20.7281 27.7662C20.7281 28.3528 20.8401 28.8808 21.0641 29.3502C21.2988 29.8195 21.6188 30.1875 22.0241 30.4542C22.4401 30.7208 22.9148 30.8542 23.4481 30.8542C23.9815 30.8542 24.4508 30.7208 24.8561 30.4542C25.2615 30.1875 25.5815 29.8195 25.8161 29.3502C26.0508 28.8808 26.1681 28.3528 26.1681 27.7662C26.1681 27.1688 26.0508 26.6408 25.8161 26.1822C25.5815 25.7235 25.2615 25.3608 24.8561 25.0942C24.4508 24.8275 23.9815 24.6942 23.4481 24.6942ZM29.9803 31.9102C29.7989 31.9102 29.6443 31.8462 29.5163 31.7182C29.3989 31.5902 29.3403 31.4355 29.3403 31.2542V24.2782C29.3403 24.0968 29.3989 23.9475 29.5163 23.8302C29.6443 23.7022 29.7989 23.6382 29.9803 23.6382C30.1723 23.6382 30.3269 23.7022 30.4443 23.8302C30.5616 23.9475 30.6203 24.0968 30.6203 24.2782V26.3902L30.4283 26.0542C30.4923 25.7235 30.6043 25.4035 30.7643 25.0942C30.9349 24.7742 31.1483 24.4915 31.4043 24.2462C31.6603 23.9902 31.9536 23.7928 32.2843 23.6542C32.6149 23.5048 32.9776 23.4302 33.3723 23.4302C33.6069 23.4302 33.8203 23.4888 34.0123 23.6062C34.2149 23.7128 34.3163 23.8675 34.3163 24.0702C34.3163 24.2942 34.2576 24.4595 34.1403 24.5662C34.0229 24.6728 33.8896 24.7262 33.7403 24.7262C33.6016 24.7262 33.4683 24.6995 33.3403 24.6462C33.2123 24.5822 33.0523 24.5502 32.8602 24.5502C32.5936 24.5502 32.3269 24.6248 32.0603 24.7742C31.8043 24.9128 31.5643 25.1155 31.3403 25.3822C31.1269 25.6488 30.9509 25.9528 30.8123 26.2942C30.6843 26.6248 30.6203 26.9822 30.6203 27.3662V31.2542C30.6203 31.4355 30.5563 31.5902 30.4283 31.7182C30.3109 31.8462 30.1616 31.9102 29.9803 31.9102ZM39.2268 32.0702C38.3734 32.0702 37.6268 31.8888 36.9868 31.5262C36.3468 31.1635 35.8454 30.6675 35.4828 30.0382C35.1308 29.3982 34.9548 28.6622 34.9548 27.8302C34.9548 26.9022 35.1361 26.1128 35.4988 25.4622C35.8721 24.8008 36.3521 24.2995 36.9388 23.9582C37.5361 23.6062 38.1654 23.4302 38.8268 23.4302C39.3174 23.4302 39.7921 23.5208 40.2508 23.7022C40.7094 23.8835 41.1148 24.1502 41.4668 24.5022C41.8188 24.8435 42.1014 25.2595 42.3148 25.7502C42.5281 26.2302 42.6401 26.7688 42.6508 27.3662C42.6508 27.5368 42.5868 27.6808 42.4588 27.7982C42.3308 27.9155 42.1814 27.9742 42.0108 27.9742H35.6908L35.4028 26.8702H41.5628L41.3068 27.0942V26.7422C41.2641 26.3048 41.1148 25.9315 40.8588 25.6222C40.6134 25.3022 40.3094 25.0568 39.9468 24.8862C39.5948 24.7155 39.2214 24.6302 38.8268 24.6302C38.5068 24.6302 38.1868 24.6888 37.8668 24.8062C37.5574 24.9128 37.2748 25.0942 37.0188 25.3502C36.7734 25.5955 36.5708 25.9155 36.4108 26.3102C36.2614 26.7048 36.1868 27.1795 36.1868 27.7342C36.1868 28.3528 36.3094 28.8968 36.5548 29.3662C36.8108 29.8355 37.1628 30.2088 37.6108 30.4862C38.0588 30.7528 38.5814 30.8862 39.1788 30.8862C39.5521 30.8862 39.8774 30.8382 40.1548 30.7422C40.4321 30.6462 40.6721 30.5288 40.8748 30.3902C41.0774 30.2408 41.2481 30.0915 41.3868 29.9422C41.5254 29.8462 41.6588 29.7982 41.7868 29.7982C41.9468 29.7982 42.0748 29.8515 42.1708 29.9582C42.2774 30.0648 42.3308 30.1928 42.3308 30.3422C42.3308 30.5235 42.2454 30.6835 42.0748 30.8222C41.7761 31.1528 41.3708 31.4462 40.8588 31.7022C40.3468 31.9475 39.8028 32.0702 39.2268 32.0702ZM44.1106 30.5982C44.0146 30.4595 43.972 30.3155 43.9826 30.1662C43.9933 30.0062 44.084 29.8675 44.2546 29.7502C44.3613 29.6755 44.484 29.6435 44.6226 29.6542C44.772 29.6648 44.9053 29.7342 45.0226 29.8622C45.3213 30.2142 45.6626 30.4968 46.0466 30.7102C46.4306 30.9128 46.9 31.0142 47.4546 31.0142C47.7106 31.0035 47.9666 30.9608 48.2226 30.8862C48.4786 30.8115 48.692 30.6835 48.8626 30.5022C49.044 30.3102 49.1346 30.0595 49.1346 29.7502C49.1346 29.4515 49.044 29.2168 48.8626 29.0462C48.6813 28.8648 48.4466 28.7208 48.1586 28.6142C47.8706 28.4968 47.556 28.3955 47.2146 28.3102C46.8626 28.2142 46.516 28.1075 46.1746 27.9902C45.8333 27.8622 45.524 27.7075 45.2466 27.5262C44.98 27.3342 44.7613 27.0995 44.5906 26.8222C44.4306 26.5342 44.3506 26.1875 44.3506 25.7822C44.3506 25.3022 44.4786 24.8862 44.7346 24.5342C45.0013 24.1822 45.3533 23.9102 45.7906 23.7182C46.2386 23.5262 46.724 23.4302 47.2466 23.4302C47.5453 23.4302 47.8546 23.4675 48.1746 23.5422C48.5053 23.6062 48.8253 23.7235 49.1346 23.8942C49.444 24.0542 49.716 24.2782 49.9506 24.5662C50.0466 24.6728 50.1 24.8062 50.1106 24.9662C50.1213 25.1262 50.052 25.2702 49.9026 25.3982C49.7853 25.4835 49.652 25.5208 49.5026 25.5102C49.364 25.4995 49.2466 25.4462 49.1506 25.3502C48.9266 25.0835 48.644 24.8808 48.3026 24.7422C47.972 24.5928 47.604 24.5182 47.1986 24.5182C46.9426 24.5182 46.692 24.5555 46.4466 24.6302C46.2013 24.7048 45.9933 24.8328 45.8226 25.0142C45.6626 25.1848 45.5826 25.4248 45.5826 25.7342C45.5933 26.0222 45.6893 26.2568 45.8706 26.4382C46.052 26.6195 46.2973 26.7688 46.6066 26.8862C46.916 26.9928 47.2573 27.0995 47.6306 27.2062C47.972 27.2915 48.2973 27.3928 48.6066 27.5102C48.9266 27.6168 49.2146 27.7608 49.4706 27.9422C49.7266 28.1235 49.9293 28.3582 50.0786 28.6462C50.228 28.9235 50.3026 29.2755 50.3026 29.7022C50.3026 30.1928 50.164 30.6195 49.8866 30.9822C49.6093 31.3342 49.2413 31.6062 48.7826 31.7982C48.3346 31.9795 47.8493 32.0702 47.3266 32.0702C46.74 32.0702 46.1586 31.9582 45.5826 31.7342C45.0173 31.5102 44.5266 31.1315 44.1106 30.5982ZM51.6888 30.5982C51.5928 30.4595 51.5501 30.3155 51.5608 30.1662C51.5714 30.0062 51.6621 29.8675 51.8328 29.7502C51.9394 29.6755 52.0621 29.6435 52.2008 29.6542C52.3501 29.6648 52.4834 29.7342 52.6008 29.8622C52.8994 30.2142 53.2408 30.4968 53.6248 30.7102C54.0088 30.9128 54.4781 31.0142 55.0328 31.0142C55.2888 31.0035 55.5448 30.9608 55.8008 30.8862C56.0568 30.8115 56.2701 30.6835 56.4408 30.5022C56.6221 30.3102 56.7128 30.0595 56.7128 29.7502C56.7128 29.4515 56.6221 29.2168 56.4408 29.0462C56.2594 28.8648 56.0248 28.7208 55.7368 28.6142C55.4488 28.4968 55.1341 28.3955 54.7928 28.3102C54.4408 28.2142 54.0941 28.1075 53.7528 27.9902C53.4114 27.8622 53.1021 27.7075 52.8248 27.5262C52.5581 27.3342 52.3394 27.0995 52.1688 26.8222C52.0088 26.5342 51.9288 26.1875 51.9288 25.7822C51.9288 25.3022 52.0568 24.8862 52.3128 24.5342C52.5794 24.1822 52.9314 23.9102 53.3688 23.7182C53.8168 23.5262 54.3021 23.4302 54.8248 23.4302C55.1234 23.4302 55.4328 23.4675 55.7528 23.5422C56.0834 23.6062 56.4034 23.7235 56.7128 23.8942C57.0221 24.0542 57.2941 24.2782 57.5288 24.5662C57.6248 24.6728 57.6781 24.8062 57.6888 24.9662C57.6994 25.1262 57.6301 25.2702 57.4808 25.3982C57.3634 25.4835 57.2301 25.5208 57.0808 25.5102C56.9421 25.4995 56.8248 25.4462 56.7288 25.3502C56.5048 25.0835 56.2221 24.8808 55.8808 24.7422C55.5501 24.5928 55.1821 24.5182 54.7768 24.5182C54.5208 24.5182 54.2701 24.5555 54.0248 24.6302C53.7794 24.7048 53.5714 24.8328 53.4008 25.0142C53.2408 25.1848 53.1608 25.4248 53.1608 25.7342C53.1714 26.0222 53.2674 26.2568 53.4488 26.4382C53.6301 26.6195 53.8754 26.7688 54.1848 26.8862C54.4941 26.9928 54.8354 27.0995 55.2088 27.2062C55.5501 27.2915 55.8754 27.3928 56.1848 27.5102C56.5048 27.6168 56.7928 27.7608 57.0488 27.9422C57.3048 28.1235 57.5074 28.3582 57.6568 28.6462C57.8061 28.9235 57.8808 29.2755 57.8808 29.7022C57.8808 30.1928 57.7421 30.6195 57.4648 30.9822C57.1874 31.3342 56.8194 31.6062 56.3608 31.7982C55.9128 31.9795 55.4274 32.0702 54.9048 32.0702C54.3181 32.0702 53.7368 31.9582 53.1608 31.7342C52.5954 31.5102 52.1048 31.1315 51.6888 30.5982ZM60.9629 31.2542C60.9629 31.4355 60.8989 31.5902 60.7709 31.7182C60.6535 31.8462 60.5042 31.9102 60.3229 31.9102C60.1309 31.9102 59.9762 31.8462 59.8589 31.7182C59.7415 31.5902 59.6829 31.4355 59.6829 31.2542V24.1502C59.6829 23.9688 59.7415 23.8195 59.8589 23.7022C59.9869 23.5742 60.1415 23.5102 60.3229 23.5102C60.5042 23.5102 60.6535 23.5742 60.7709 23.7022C60.8989 23.8195 60.9629 23.9688 60.9629 24.1502V31.2542ZM60.3229 22.4382C60.0562 22.4382 59.8589 22.3848 59.7309 22.2782C59.6029 22.1715 59.5389 22.0062 59.5389 21.7822V21.5582C59.5389 21.3342 59.6082 21.1688 59.7469 21.0622C59.8855 20.9555 60.0829 20.9022 60.3389 20.9022C60.5949 20.9022 60.7869 20.9555 60.9149 21.0622C61.0429 21.1688 61.1069 21.3342 61.1069 21.5582V21.7822C61.1069 22.0062 61.0375 22.1715 60.8989 22.2782C60.7709 22.3848 60.5789 22.4382 60.3229 22.4382ZM71.1181 27.7502C71.1181 28.5822 70.9315 29.3235 70.5581 29.9742C70.1955 30.6248 69.6995 31.1368 69.0701 31.5102C68.4515 31.8835 67.7528 32.0702 66.9741 32.0702C66.1955 32.0702 65.4915 31.8835 64.8621 31.5102C64.2328 31.1368 63.7315 30.6248 63.3581 29.9742C62.9955 29.3235 62.8141 28.5822 62.8141 27.7502C62.8141 26.9182 62.9955 26.1768 63.3581 25.5262C63.7315 24.8755 64.2328 24.3635 64.8621 23.9902C65.4915 23.6168 66.1955 23.4302 66.9741 23.4302C67.7528 23.4302 68.4515 23.6168 69.0701 23.9902C69.6995 24.3635 70.1955 24.8755 70.5581 25.5262C70.9315 26.1768 71.1181 26.9182 71.1181 27.7502ZM69.8381 27.7502C69.8381 27.1315 69.7101 26.5875 69.4541 26.1182C69.2088 25.6488 68.8675 25.2808 68.4301 25.0142C68.0035 24.7475 67.5181 24.6142 66.9741 24.6142C66.4301 24.6142 65.9395 24.7475 65.5021 25.0142C65.0755 25.2808 64.7341 25.6488 64.4781 26.1182C64.2221 26.5875 64.0941 27.1315 64.0941 27.7502C64.0941 28.3582 64.2221 28.8968 64.4781 29.3662C64.7341 29.8355 65.0755 30.2088 65.5021 30.4862C65.9395 30.7528 66.4301 30.8862 66.9741 30.8862C67.5181 30.8862 68.0035 30.7528 68.4301 30.4862C68.8675 30.2088 69.2088 29.8355 69.4541 29.3662C69.7101 28.8968 69.8381 28.3582 69.8381 27.7502ZM77.1554 23.4302C77.8807 23.4302 78.4514 23.5795 78.8674 23.8782C79.2834 24.1768 79.5767 24.5768 79.7474 25.0782C79.9287 25.5795 80.0194 26.1395 80.0194 26.7582V31.2542C80.0194 31.4355 79.9554 31.5902 79.8274 31.7182C79.71 31.8462 79.5607 31.9102 79.3794 31.9102C79.198 31.9102 79.0434 31.8462 78.9154 31.7182C78.798 31.5902 78.7394 31.4355 78.7394 31.2542V26.7902C78.7394 26.3848 78.6754 26.0222 78.5474 25.7022C78.43 25.3715 78.2274 25.1102 77.9394 24.9182C77.662 24.7155 77.278 24.6142 76.7874 24.6142C76.3394 24.6142 75.9287 24.7155 75.5554 24.9182C75.182 25.1102 74.8834 25.3715 74.6594 25.7022C74.4354 26.0222 74.3234 26.3848 74.3234 26.7902V31.2542C74.3234 31.4355 74.2594 31.5902 74.1314 31.7182C74.014 31.8462 73.8647 31.9102 73.6834 31.9102C73.502 31.9102 73.3474 31.8462 73.2194 31.7182C73.102 31.5902 73.0434 31.4355 73.0434 31.2542V24.2782C73.0434 24.0968 73.102 23.9475 73.2194 23.8302C73.3474 23.7022 73.502 23.6382 73.6834 23.6382C73.8754 23.6382 74.03 23.7022 74.1474 23.8302C74.2647 23.9475 74.3234 24.0968 74.3234 24.2782V25.4142L74.0034 25.7662C74.0567 25.4888 74.1794 25.2115 74.3714 24.9342C74.5634 24.6462 74.8034 24.3902 75.0914 24.1662C75.3794 23.9422 75.6994 23.7662 76.0514 23.6382C76.4034 23.4995 76.7714 23.4302 77.1554 23.4302ZM93.6094 23.5582C93.7907 23.5582 93.94 23.6222 94.0574 23.7502C94.1854 23.8675 94.2494 24.0168 94.2494 24.1982V31.2542C94.2494 31.4355 94.1854 31.5902 94.0574 31.7182C93.94 31.8462 93.7907 31.9102 93.6094 31.9102C93.4174 31.9102 93.2627 31.8462 93.1454 31.7182C93.028 31.5902 92.9694 31.4355 92.9694 31.2542V29.7342L93.2734 29.7022C93.2734 29.9368 93.1934 30.1928 93.0334 30.4702C92.8734 30.7475 92.6547 31.0088 92.3774 31.2542C92.1 31.4888 91.7694 31.6862 91.3854 31.8462C91.012 31.9955 90.6067 32.0702 90.1694 32.0702C89.444 32.0702 88.7934 31.8835 88.2174 31.5102C87.6414 31.1262 87.1827 30.6088 86.8414 29.9582C86.5107 29.3075 86.3454 28.5662 86.3454 27.7342C86.3454 26.8915 86.5107 26.1502 86.8414 25.5102C87.1827 24.8595 87.6414 24.3528 88.2174 23.9902C88.7934 23.6168 89.4334 23.4302 90.1374 23.4302C90.596 23.4302 91.0227 23.5048 91.4174 23.6542C91.812 23.8035 92.1534 24.0062 92.4414 24.2622C92.74 24.5182 92.9694 24.8008 93.1294 25.1102C93.3 25.4195 93.3854 25.7288 93.3854 26.0382L92.9694 25.9422V24.1982C92.9694 24.0168 93.028 23.8675 93.1454 23.7502C93.2627 23.6222 93.4174 23.5582 93.6094 23.5582ZM90.3134 30.8862C90.8467 30.8862 91.316 30.7475 91.7214 30.4702C92.1374 30.1928 92.4574 29.8195 92.6814 29.3502C92.916 28.8702 93.0334 28.3315 93.0334 27.7342C93.0334 27.1475 92.916 26.6195 92.6814 26.1502C92.4574 25.6702 92.1374 25.2968 91.7214 25.0302C91.316 24.7528 90.8467 24.6142 90.3134 24.6142C89.7907 24.6142 89.3214 24.7475 88.9054 25.0142C88.5 25.2808 88.18 25.6488 87.9454 26.1182C87.7107 26.5875 87.5934 27.1262 87.5934 27.7342C87.5934 28.3315 87.7054 28.8702 87.9294 29.3502C88.164 29.8195 88.484 30.1928 88.8894 30.4702C89.3054 30.7475 89.78 30.8862 90.3134 30.8862ZM100.734 23.4302C101.459 23.4302 102.03 23.5795 102.446 23.8782C102.862 24.1768 103.155 24.5768 103.326 25.0782C103.507 25.5795 103.598 26.1395 103.598 26.7582V31.2542C103.598 31.4355 103.534 31.5902 103.406 31.7182C103.288 31.8462 103.139 31.9102 102.958 31.9102C102.776 31.9102 102.622 31.8462 102.494 31.7182C102.376 31.5902 102.318 31.4355 102.318 31.2542V26.7902C102.318 26.3848 102.254 26.0222 102.126 25.7022C102.008 25.3715 101.806 25.1102 101.518 24.9182C101.24 24.7155 100.856 24.6142 100.366 24.6142C99.9175 24.6142 99.5068 24.7155 99.1335 24.9182C98.7602 25.1102 98.4615 25.3715 98.2375 25.7022C98.0135 26.0222 97.9015 26.3848 97.9015 26.7902V31.2542C97.9015 31.4355 97.8375 31.5902 97.7095 31.7182C97.5922 31.8462 97.4428 31.9102 97.2615 31.9102C97.0802 31.9102 96.9255 31.8462 96.7975 31.7182C96.6802 31.5902 96.6215 31.4355 96.6215 31.2542V24.2782C96.6215 24.0968 96.6802 23.9475 96.7975 23.8302C96.9255 23.7022 97.0802 23.6382 97.2615 23.6382C97.4535 23.6382 97.6082 23.7022 97.7255 23.8302C97.8428 23.9475 97.9015 24.0968 97.9015 24.2782V25.4142L97.5815 25.7662C97.6348 25.4888 97.7575 25.2115 97.9495 24.9342C98.1415 24.6462 98.3815 24.3902 98.6695 24.1662C98.9575 23.9422 99.2775 23.7662 99.6295 23.6382C99.9815 23.4995 100.35 23.4302 100.734 23.4302ZM112.781 20.0702C112.963 20.0702 113.112 20.1342 113.229 20.2622C113.357 20.3795 113.421 20.5288 113.421 20.7102V31.2542C113.421 31.4355 113.357 31.5902 113.229 31.7182C113.112 31.8462 112.963 31.9102 112.781 31.9102C112.589 31.9102 112.435 31.8462 112.317 31.7182C112.2 31.5902 112.141 31.4355 112.141 31.2542V29.7342L112.445 29.6222C112.445 29.8782 112.365 30.1502 112.205 30.4382C112.045 30.7155 111.827 30.9768 111.549 31.2222C111.272 31.4675 110.941 31.6702 110.557 31.8302C110.184 31.9902 109.779 32.0702 109.341 32.0702C108.627 32.0702 107.976 31.8835 107.389 31.5102C106.813 31.1368 106.355 30.6248 106.013 29.9742C105.683 29.3235 105.517 28.5822 105.517 27.7502C105.517 26.9075 105.683 26.1608 106.013 25.5102C106.355 24.8595 106.813 24.3528 107.389 23.9902C107.965 23.6168 108.605 23.4302 109.309 23.4302C109.757 23.4302 110.179 23.5048 110.573 23.6542C110.968 23.8035 111.309 24.0062 111.597 24.2622C111.896 24.5182 112.131 24.8008 112.301 25.1102C112.472 25.4195 112.557 25.7288 112.557 26.0382L112.141 25.9422V20.7102C112.141 20.5288 112.2 20.3795 112.317 20.2622C112.435 20.1342 112.589 20.0702 112.781 20.0702ZM109.485 30.8862C110.019 30.8862 110.488 30.7528 110.893 30.4862C111.309 30.2088 111.629 29.8355 111.853 29.3662C112.088 28.8862 112.205 28.3475 112.205 27.7502C112.205 27.1422 112.088 26.6035 111.853 26.1342C111.629 25.6648 111.309 25.2968 110.893 25.0302C110.488 24.7528 110.019 24.6142 109.485 24.6142C108.963 24.6142 108.493 24.7528 108.077 25.0302C107.672 25.2968 107.352 25.6648 107.117 26.1342C106.883 26.6035 106.765 27.1422 106.765 27.7502C106.765 28.3368 106.883 28.8702 107.117 29.3502C107.352 29.8195 107.672 30.1928 108.077 30.4702C108.493 30.7475 108.963 30.8862 109.485 30.8862ZM127.016 23.5582C127.197 23.5582 127.346 23.6222 127.464 23.7502C127.592 23.8675 127.656 24.0168 127.656 24.1982V31.2542C127.656 31.4355 127.592 31.5902 127.464 31.7182C127.346 31.8462 127.197 31.9102 127.016 31.9102C126.824 31.9102 126.669 31.8462 126.552 31.7182C126.434 31.5902 126.376 31.4355 126.376 31.2542V29.7342L126.68 29.7022C126.68 29.9368 126.6 30.1928 126.44 30.4702C126.28 30.7475 126.061 31.0088 125.784 31.2542C125.506 31.4888 125.176 31.6862 124.792 31.8462C124.418 31.9955 124.013 32.0702 123.576 32.0702C122.85 32.0702 122.2 31.8835 121.624 31.5102C121.048 31.1262 120.589 30.6088 120.248 29.9582C119.917 29.3075 119.752 28.5662 119.752 27.7342C119.752 26.8915 119.917 26.1502 120.248 25.5102C120.589 24.8595 121.048 24.3528 121.624 23.9902C122.2 23.6168 122.84 23.4302 123.544 23.4302C124.002 23.4302 124.429 23.5048 124.824 23.6542C125.218 23.8035 125.56 24.0062 125.848 24.2622C126.146 24.5182 126.376 24.8008 126.536 25.1102C126.706 25.4195 126.792 25.7288 126.792 26.0382L126.376 25.9422V24.1982C126.376 24.0168 126.434 23.8675 126.552 23.7502C126.669 23.6222 126.824 23.5582 127.016 23.5582ZM123.72 30.8862C124.253 30.8862 124.722 30.7475 125.128 30.4702C125.544 30.1928 125.864 29.8195 126.088 29.3502C126.322 28.8702 126.44 28.3315 126.44 27.7342C126.44 27.1475 126.322 26.6195 126.088 26.1502C125.864 25.6702 125.544 25.2968 125.128 25.0302C124.722 24.7528 124.253 24.6142 123.72 24.6142C123.197 24.6142 122.728 24.7475 122.312 25.0142C121.906 25.2808 121.586 25.6488 121.352 26.1182C121.117 26.5875 121 27.1262 121 27.7342C121 28.3315 121.112 28.8702 121.336 29.3502C121.57 29.8195 121.89 30.1928 122.296 30.4702C122.712 30.7475 123.186 30.8862 123.72 30.8862ZM134.14 23.4302C134.865 23.4302 135.436 23.5795 135.852 23.8782C136.268 24.1768 136.561 24.5768 136.732 25.0782C136.913 25.5795 137.004 26.1395 137.004 26.7582V31.2542C137.004 31.4355 136.94 31.5902 136.812 31.7182C136.694 31.8462 136.545 31.9102 136.364 31.9102C136.182 31.9102 136.028 31.8462 135.9 31.7182C135.782 31.5902 135.724 31.4355 135.724 31.2542V26.7902C135.724 26.3848 135.66 26.0222 135.532 25.7022C135.414 25.3715 135.212 25.1102 134.924 24.9182C134.646 24.7155 134.262 24.6142 133.772 24.6142C133.324 24.6142 132.913 24.7155 132.54 24.9182C132.166 25.1102 131.868 25.3715 131.644 25.7022C131.42 26.0222 131.308 26.3848 131.308 26.7902V31.2542C131.308 31.4355 131.244 31.5902 131.116 31.7182C130.998 31.8462 130.849 31.9102 130.668 31.9102C130.486 31.9102 130.332 31.8462 130.204 31.7182C130.086 31.5902 130.028 31.4355 130.028 31.2542V24.2782C130.028 24.0968 130.086 23.9475 130.204 23.8302C130.332 23.7022 130.486 23.6382 130.668 23.6382C130.86 23.6382 131.014 23.7022 131.132 23.8302C131.249 23.9475 131.308 24.0968 131.308 24.2782V25.4142L130.988 25.7662C131.041 25.4888 131.164 25.2115 131.356 24.9342C131.548 24.6462 131.788 24.3902 132.076 24.1662C132.364 23.9422 132.684 23.7662 133.036 23.6382C133.388 23.4995 133.756 23.4302 134.14 23.4302ZM139.292 23.5422C139.494 23.5422 139.665 23.6328 139.804 23.8142L145.372 30.9182C145.457 31.0355 145.5 31.1635 145.5 31.3022C145.5 31.4835 145.436 31.6382 145.308 31.7662C145.18 31.8942 145.03 31.9582 144.86 31.9582C144.657 31.9582 144.481 31.8622 144.332 31.6702L138.764 24.5822C138.678 24.4648 138.636 24.3368 138.636 24.1982C138.636 24.0062 138.7 23.8515 138.828 23.7342C138.966 23.6062 139.121 23.5422 139.292 23.5422ZM139.292 31.9422C139.153 31.9422 139.014 31.8888 138.876 31.7822C138.737 31.6755 138.668 31.5368 138.668 31.3662C138.668 31.2275 138.721 31.0942 138.828 30.9662L141.452 27.6542L142.124 28.7102L139.804 31.6862C139.676 31.8568 139.505 31.9422 139.292 31.9422ZM144.86 23.5422C145.041 23.5422 145.185 23.6008 145.292 23.7182C145.409 23.8355 145.468 23.9688 145.468 24.1182C145.468 24.1822 145.452 24.2515 145.42 24.3262C145.398 24.4008 145.361 24.4702 145.308 24.5342L142.7 27.8782L142.028 26.9022L144.332 23.8302C144.481 23.6382 144.657 23.5422 144.86 23.5422ZM148.369 31.2542C148.369 31.4355 148.305 31.5902 148.177 31.7182C148.06 31.8462 147.91 31.9102 147.729 31.9102C147.537 31.9102 147.382 31.8462 147.265 31.7182C147.148 31.5902 147.089 31.4355 147.089 31.2542V24.1502C147.089 23.9688 147.148 23.8195 147.265 23.7022C147.393 23.5742 147.548 23.5102 147.729 23.5102C147.91 23.5102 148.06 23.5742 148.177 23.7022C148.305 23.8195 148.369 23.9688 148.369 24.1502V31.2542ZM147.729 22.4382C147.462 22.4382 147.265 22.3848 147.137 22.2782C147.009 22.1715 146.945 22.0062 146.945 21.7822V21.5582C146.945 21.3342 147.014 21.1688 147.153 21.0622C147.292 20.9555 147.489 20.9022 147.745 20.9022C148.001 20.9022 148.193 20.9555 148.321 21.0622C148.449 21.1688 148.513 21.3342 148.513 21.5582V21.7822C148.513 22.0062 148.444 22.1715 148.305 22.2782C148.177 22.3848 147.985 22.4382 147.729 22.4382ZM154.492 32.0702C153.639 32.0702 152.892 31.8888 152.252 31.5262C151.612 31.1635 151.111 30.6675 150.748 30.0382C150.396 29.3982 150.22 28.6622 150.22 27.8302C150.22 26.9022 150.402 26.1128 150.764 25.4622C151.138 24.8008 151.618 24.2995 152.204 23.9582C152.802 23.6062 153.431 23.4302 154.092 23.4302C154.583 23.4302 155.058 23.5208 155.516 23.7022C155.975 23.8835 156.38 24.1502 156.732 24.5022C157.084 24.8435 157.367 25.2595 157.58 25.7502C157.794 26.2302 157.906 26.7688 157.916 27.3662C157.916 27.5368 157.852 27.6808 157.724 27.7982C157.596 27.9155 157.447 27.9742 157.276 27.9742H150.956L150.668 26.8702H156.828L156.572 27.0942V26.7422C156.53 26.3048 156.38 25.9315 156.124 25.6222C155.879 25.3022 155.575 25.0568 155.212 24.8862C154.86 24.7155 154.487 24.6302 154.092 24.6302C153.772 24.6302 153.452 24.6888 153.132 24.8062C152.823 24.9128 152.54 25.0942 152.284 25.3502C152.039 25.5955 151.836 25.9155 151.676 26.3102C151.527 26.7048 151.452 27.1795 151.452 27.7342C151.452 28.3528 151.575 28.8968 151.82 29.3662C152.076 29.8355 152.428 30.2088 152.876 30.4862C153.324 30.7528 153.847 30.8862 154.444 30.8862C154.818 30.8862 155.143 30.8382 155.42 30.7422C155.698 30.6462 155.938 30.5288 156.14 30.3902C156.343 30.2408 156.514 30.0915 156.652 29.9422C156.791 29.8462 156.924 29.7982 157.052 29.7982C157.212 29.7982 157.34 29.8515 157.436 29.9582C157.543 30.0648 157.596 30.1928 157.596 30.3422C157.596 30.5235 157.511 30.6835 157.34 30.8222C157.042 31.1528 156.636 31.4462 156.124 31.7022C155.612 31.9475 155.068 32.0702 154.492 32.0702ZM159.52 23.6862H163.28C163.451 23.6862 163.59 23.7448 163.696 23.8622C163.814 23.9795 163.872 24.1182 163.872 24.2782C163.872 24.4488 163.814 24.5928 163.696 24.7102C163.59 24.8168 163.451 24.8702 163.28 24.8702H159.52C159.36 24.8702 159.222 24.8115 159.104 24.6942C158.987 24.5768 158.928 24.4328 158.928 24.2622C158.928 24.1022 158.987 23.9688 159.104 23.8622C159.222 23.7448 159.36 23.6862 159.52 23.6862ZM161.2 21.5102C161.382 21.5102 161.531 21.5742 161.648 21.7022C161.766 21.8195 161.824 21.9688 161.824 22.1502V29.8782C161.824 30.1342 161.862 30.3262 161.936 30.4542C162.011 30.5822 162.107 30.6728 162.224 30.7262C162.352 30.7688 162.475 30.7902 162.592 30.7902C162.699 30.7902 162.79 30.7742 162.864 30.7422C162.95 30.6995 163.046 30.6782 163.152 30.6782C163.259 30.6782 163.355 30.7315 163.44 30.8382C163.536 30.9342 163.584 31.0622 163.584 31.2222C163.584 31.4142 163.472 31.5795 163.248 31.7182C163.024 31.8462 162.774 31.9102 162.496 31.9102C162.347 31.9102 162.16 31.8995 161.936 31.8782C161.723 31.8568 161.51 31.7875 161.296 31.6702C161.083 31.5528 160.902 31.3608 160.752 31.0942C160.614 30.8168 160.544 30.4328 160.544 29.9422V22.1502C160.544 21.9688 160.608 21.8195 160.736 21.7022C160.864 21.5742 161.019 21.5102 161.2 21.5102ZM171.845 23.5102C172.026 23.5102 172.175 23.5742 172.293 23.7022C172.421 23.8195 172.485 23.9688 172.485 24.1502V31.1262C172.485 32.0222 172.309 32.7635 171.957 33.3502C171.605 33.9475 171.13 34.3902 170.533 34.6782C169.946 34.9662 169.279 35.1102 168.533 35.1102C168.117 35.1102 167.717 35.0675 167.333 34.9822C166.949 34.8968 166.634 34.7848 166.389 34.6462C166.186 34.5502 166.042 34.4275 165.957 34.2782C165.882 34.1395 165.871 33.9902 165.925 33.8302C165.999 33.6382 166.106 33.5048 166.245 33.4302C166.394 33.3555 166.549 33.3555 166.709 33.4302C166.879 33.5048 167.125 33.6062 167.445 33.7342C167.775 33.8728 168.143 33.9422 168.549 33.9422C169.103 33.9422 169.578 33.8355 169.973 33.6222C170.367 33.4088 170.671 33.0942 170.885 32.6782C171.098 32.2728 171.205 31.7662 171.205 31.1582V30.0222L171.397 30.4222C171.226 30.7528 170.997 31.0408 170.709 31.2862C170.421 31.5315 170.09 31.7235 169.717 31.8622C169.343 32.0008 168.933 32.0702 168.485 32.0702C167.877 32.0702 167.359 31.9422 166.933 31.6862C166.517 31.4195 166.197 31.0568 165.973 30.5982C165.759 30.1288 165.653 29.5902 165.653 28.9822V24.1502C165.653 23.9688 165.711 23.8195 165.829 23.7022C165.957 23.5742 166.111 23.5102 166.293 23.5102C166.485 23.5102 166.639 23.5742 166.757 23.7022C166.874 23.8195 166.933 23.9688 166.933 24.1502V28.6942C166.933 29.4195 167.093 29.9688 167.413 30.3422C167.733 30.7048 168.229 30.8862 168.901 30.8862C169.327 30.8862 169.711 30.7902 170.053 30.5982C170.405 30.4062 170.682 30.1448 170.885 29.8142C171.098 29.4728 171.205 29.0995 171.205 28.6942V24.1502C171.205 23.9688 171.263 23.8195 171.381 23.7022C171.498 23.5742 171.653 23.5102 171.845 23.5102Z" fill="white"/>
</svg>
